G04 #@! TF.GenerationSoftware,KiCad,Pcbnew,no-vcs-found-08c4a0b~58~ubuntu16.04.1*
G04 #@! TF.CreationDate,2017-08-29T22:35:06+03:00*
G04 #@! TF.ProjectId,ESP-32-programmer,4553502D33322D70726F6772616D6D65,1*
G04 #@! TF.SameCoordinates,Original
G04 #@! TF.FileFunction,Copper,L1,Top,Signal*
G04 #@! TF.FilePolarity,Positive*
%FSLAX46Y46*%
G04 Gerber Fmt 4.6, Leading zero omitted, Abs format (unit mm)*
G04 Created by KiCad (PCBNEW no-vcs-found-08c4a0b~58~ubuntu16.04.1) date Tue Aug 29 22:35:06 2017*
%MOMM*%
%LPD*%
G01*
G04 APERTURE LIST*
%ADD10C,1.700000*%
%ADD11O,1.700000X1.700000*%
%ADD12R,1.700000X1.700000*%
%ADD13R,1.600000X1.600000*%
%ADD14C,1.600000*%
%ADD15O,1.699260X3.500120*%
%ADD16R,1.800000X1.800000*%
%ADD17C,1.800000*%
%ADD18O,1.600000X1.600000*%
%ADD19C,1.397000*%
%ADD20R,0.970000X1.270000*%
%ADD21C,0.800000*%
%ADD22C,0.250000*%
%ADD23C,0.508000*%
%ADD24C,0.254000*%
G04 APERTURE END LIST*
D10*
X149923800Y-70160000D03*
X152463800Y-70160000D03*
X150330200Y-67620000D03*
X152870200Y-67620000D03*
X149923800Y-65080000D03*
X152463800Y-65080000D03*
X150330200Y-62540000D03*
X152870200Y-62540000D03*
X149923800Y-60000000D03*
X152463800Y-60000000D03*
X150330200Y-57460000D03*
X152870200Y-57460000D03*
X149923800Y-54920000D03*
X152463800Y-54920000D03*
X150330200Y-52380000D03*
X152870200Y-52380000D03*
X149923800Y-49840000D03*
X152463800Y-49840000D03*
X150330200Y-47300000D03*
X152870200Y-47300000D03*
X119443800Y-70160000D03*
X116903800Y-70160000D03*
X119850200Y-67620000D03*
X117310200Y-67620000D03*
X119443800Y-65080000D03*
X116903800Y-65080000D03*
X119850200Y-62540000D03*
X117310200Y-62540000D03*
X119443800Y-60000000D03*
X116903800Y-60000000D03*
X119850200Y-57460000D03*
X117310200Y-57460000D03*
X119443800Y-54920000D03*
X116903800Y-54920000D03*
X119850200Y-52380000D03*
X117310200Y-52380000D03*
X119443800Y-49840000D03*
X116903800Y-49840000D03*
X119850200Y-47300000D03*
X117310200Y-47300000D03*
D11*
X112540000Y-85254000D03*
X110000000Y-85508000D03*
X107460000Y-85254000D03*
X104920000Y-85508000D03*
X102380000Y-85254000D03*
D12*
X99840000Y-85508000D03*
D13*
X130556000Y-78486000D03*
D14*
X133056000Y-78486000D03*
D15*
X120904000Y-79248000D03*
X118364000Y-79248000D03*
X123444000Y-79248000D03*
D16*
X141097000Y-78486000D03*
D17*
X138557000Y-78486000D03*
D13*
X185000000Y-50000000D03*
D18*
X182460000Y-57620000D03*
X182460000Y-50000000D03*
X185000000Y-57620000D03*
D19*
X180975000Y-60706000D03*
X186055000Y-60706000D03*
X180975000Y-68326000D03*
X186055000Y-68326000D03*
D13*
X108839000Y-78359000D03*
D14*
X111339000Y-78359000D03*
D20*
X157983000Y-82169000D03*
X159263000Y-82169000D03*
X157988000Y-84963000D03*
X159268000Y-84963000D03*
D18*
X152400000Y-78613000D03*
D14*
X144780000Y-78613000D03*
D18*
X174752000Y-50038000D03*
D14*
X174752000Y-57658000D03*
X174752000Y-69850000D03*
D18*
X174752000Y-62230000D03*
D11*
X185420000Y-82296000D03*
X185420000Y-84836000D03*
X182880000Y-82042000D03*
X182880000Y-84582000D03*
X180340000Y-82296000D03*
X180340000Y-84836000D03*
X177800000Y-82042000D03*
X177800000Y-84582000D03*
X175260000Y-82296000D03*
X175260000Y-84836000D03*
X172720000Y-82042000D03*
X172720000Y-84582000D03*
X170180000Y-82296000D03*
X170180000Y-84836000D03*
X167640000Y-82042000D03*
X167640000Y-84582000D03*
X165100000Y-82296000D03*
X165100000Y-84836000D03*
X162560000Y-82042000D03*
D12*
X162560000Y-84582000D03*
X167460000Y-47300000D03*
D11*
X170000000Y-47300000D03*
X167206000Y-49840000D03*
X169746000Y-49840000D03*
X167460000Y-52380000D03*
X170000000Y-52380000D03*
X167206000Y-54920000D03*
X169746000Y-54920000D03*
X167460000Y-57460000D03*
X170000000Y-57460000D03*
X167206000Y-60000000D03*
X169746000Y-60000000D03*
X167460000Y-62540000D03*
X170000000Y-62540000D03*
X167206000Y-65080000D03*
X169746000Y-65080000D03*
X167460000Y-67620000D03*
X170000000Y-67620000D03*
X167206000Y-70160000D03*
X169746000Y-70160000D03*
X102206000Y-70320000D03*
X99666000Y-70320000D03*
X102460000Y-67780000D03*
X99920000Y-67780000D03*
X102206000Y-65240000D03*
X99666000Y-65240000D03*
X102460000Y-62700000D03*
X99920000Y-62700000D03*
X102206000Y-60160000D03*
X99666000Y-60160000D03*
X102460000Y-57620000D03*
X99920000Y-57620000D03*
X102206000Y-55080000D03*
X99666000Y-55080000D03*
X102460000Y-52540000D03*
X99920000Y-52540000D03*
X102206000Y-50000000D03*
X99666000Y-50000000D03*
X102460000Y-47460000D03*
D12*
X99920000Y-47460000D03*
X135000000Y-85127000D03*
D11*
X137540000Y-84873000D03*
X140080000Y-85127000D03*
X142620000Y-84873000D03*
X145160000Y-85127000D03*
X147700000Y-84873000D03*
D21*
X154940000Y-88646000D03*
X148590000Y-88900000D03*
X150876000Y-86360000D03*
X127762000Y-78994000D03*
X124968000Y-75946000D03*
X127000000Y-76962000D03*
X129286000Y-86106000D03*
X128016000Y-83058000D03*
X124460000Y-83312000D03*
X127000000Y-85344000D03*
X120650000Y-86360000D03*
X114808000Y-84328000D03*
X115824000Y-82042000D03*
X117602000Y-85344000D03*
X102870000Y-88138000D03*
X95758000Y-84328000D03*
X95250000Y-88138000D03*
X92202000Y-86360000D03*
X92710000Y-82550000D03*
X96012000Y-80518000D03*
X92456000Y-77216000D03*
X96774000Y-48006000D03*
X97790000Y-46482000D03*
X94742000Y-47498000D03*
X91440000Y-46990000D03*
X92964000Y-49022000D03*
X93726000Y-52324000D03*
X91440000Y-52070000D03*
X92202000Y-56388000D03*
X94488000Y-58674000D03*
X91948000Y-62230000D03*
X94488000Y-67310000D03*
X91694000Y-68834000D03*
X93218000Y-73406000D03*
X98552000Y-73660000D03*
X103124000Y-73914000D03*
X99314000Y-75692000D03*
X101854000Y-77216000D03*
X105664000Y-80772000D03*
X104902000Y-78740000D03*
X106172000Y-76454000D03*
X106934000Y-72898000D03*
X116332000Y-73660000D03*
X120904000Y-72898000D03*
X126238000Y-72898000D03*
X122174000Y-69342000D03*
X123698000Y-71628000D03*
X175260000Y-79248000D03*
X185674000Y-78486000D03*
X178054000Y-70358000D03*
X185928000Y-73660000D03*
X179324000Y-74676000D03*
X158496000Y-65278000D03*
X158496000Y-67056000D03*
X146050000Y-76962000D03*
X144780000Y-75946000D03*
X141732000Y-56642000D03*
X158242000Y-48768000D03*
X156464000Y-52070000D03*
X146812000Y-53086000D03*
X115824000Y-76962000D03*
X143764000Y-74422000D03*
X127000000Y-61722000D03*
X124714000Y-51816000D03*
X124714000Y-50038000D03*
X155321000Y-74803000D03*
X149860000Y-82550000D03*
X161036000Y-76200000D03*
X155321000Y-77851000D03*
X160401000Y-84074000D03*
X165735000Y-57277000D03*
X162941000Y-57277000D03*
X159385000Y-57658000D03*
X163195000Y-62484000D03*
X162052000Y-65405000D03*
X147193000Y-75438000D03*
X164719000Y-68199000D03*
X144018000Y-80772000D03*
D22*
X99666000Y-65240000D02*
X100841001Y-66415001D01*
X100841001Y-66415001D02*
X115644999Y-66415001D01*
X115644999Y-66415001D02*
X116218001Y-65841999D01*
X116218001Y-65841999D02*
X116980000Y-65080000D01*
D23*
X158496000Y-67056000D02*
X158496000Y-65278000D01*
X144780000Y-75946000D02*
X145034000Y-75946000D01*
X145034000Y-75946000D02*
X146050000Y-76962000D01*
D22*
X148590000Y-53594000D02*
X151656200Y-53594000D01*
X151656200Y-53594000D02*
X152870200Y-52380000D01*
X145941999Y-56242001D02*
X148590000Y-53594000D01*
X141732000Y-56642000D02*
X142131999Y-56242001D01*
X142131999Y-56242001D02*
X145941999Y-56242001D01*
X163594000Y-48514000D02*
X158496000Y-48514000D01*
X158496000Y-48514000D02*
X158242000Y-48768000D01*
X166172000Y-52380000D02*
X167460000Y-52380000D01*
X163594000Y-48514000D02*
X165608000Y-50528000D01*
X165608000Y-50528000D02*
X165608000Y-51816000D01*
X165608000Y-51816000D02*
X166172000Y-52380000D01*
X138271081Y-88138000D02*
X107550000Y-88138000D01*
X107550000Y-88138000D02*
X104920000Y-85508000D01*
X140080000Y-85127000D02*
X140080000Y-86329081D01*
X140080000Y-86329081D02*
X138271081Y-88138000D01*
X161599999Y-53141999D02*
X157535999Y-53141999D01*
X157535999Y-53141999D02*
X156464000Y-52070000D01*
X146812000Y-51308000D02*
X148280000Y-49840000D01*
X148280000Y-49840000D02*
X149923800Y-49840000D01*
X146812000Y-53086000D02*
X146812000Y-51308000D01*
X142620000Y-75566000D02*
X143364001Y-74821999D01*
X142620000Y-84873000D02*
X141770001Y-84023001D01*
X142620000Y-79826998D02*
X142620000Y-75566000D01*
X141770001Y-80676997D02*
X142620000Y-79826998D01*
X143364001Y-74821999D02*
X143764000Y-74422000D01*
X141770001Y-84023001D02*
X141770001Y-80676997D01*
X115824000Y-76962000D02*
X115824000Y-75438000D01*
X115824000Y-75438000D02*
X116840000Y-74422000D01*
X116840000Y-74422000D02*
X143764000Y-74422000D01*
X161599999Y-53141999D02*
X164742999Y-56284999D01*
X168381001Y-56284999D02*
X168896001Y-55769999D01*
X164742999Y-56284999D02*
X168381001Y-56284999D01*
X168896001Y-55769999D02*
X169746000Y-54920000D01*
D23*
X107460000Y-82532000D02*
X108839000Y-81153000D01*
X108839000Y-81153000D02*
X108839000Y-78359000D01*
X107460000Y-85254000D02*
X107460000Y-82532000D01*
X124714000Y-51816000D02*
X124714000Y-59436000D01*
X124714000Y-59436000D02*
X127000000Y-61722000D01*
X119774000Y-47300000D02*
X121976000Y-47300000D01*
X121976000Y-47300000D02*
X124714000Y-50038000D01*
X115824000Y-45974000D02*
X118448000Y-45974000D01*
X118448000Y-45974000D02*
X119774000Y-47300000D01*
X115714001Y-46083999D02*
X115824000Y-45974000D01*
X102460000Y-47460000D02*
X103836001Y-46083999D01*
X103836001Y-46083999D02*
X115714001Y-46083999D01*
X174752000Y-75184000D02*
X172471000Y-77465000D01*
X172471000Y-77465000D02*
X157983000Y-77465000D01*
X174752000Y-69850000D02*
X174752000Y-75184000D01*
X157983000Y-77465000D02*
X155321000Y-74803000D01*
X157983000Y-82169000D02*
X157983000Y-77465000D01*
D22*
X102206000Y-70320000D02*
X114846000Y-70320000D01*
X114846000Y-70320000D02*
X116332000Y-68834000D01*
X116332000Y-68834000D02*
X118194000Y-68834000D01*
X118194000Y-68834000D02*
X118758001Y-69398001D01*
X118758001Y-69398001D02*
X119520000Y-70160000D01*
X115702999Y-71495001D02*
X115702999Y-71437001D01*
X115702999Y-71437001D02*
X116980000Y-70160000D01*
X99666000Y-70320000D02*
X100841001Y-71495001D01*
X100841001Y-71495001D02*
X115702999Y-71495001D01*
X102460000Y-67780000D02*
X115354000Y-67780000D01*
X115354000Y-67780000D02*
X116840000Y-66294000D01*
X116840000Y-66294000D02*
X119126000Y-66294000D01*
X119126000Y-66294000D02*
X119774000Y-66942000D01*
X119774000Y-66942000D02*
X119774000Y-67620000D01*
X115574589Y-68955001D02*
X116909590Y-67620000D01*
X101095001Y-68955001D02*
X115574589Y-68955001D01*
X116909590Y-67620000D02*
X117234000Y-67620000D01*
X99920000Y-67780000D02*
X101095001Y-68955001D01*
X127465000Y-71839000D02*
X120706000Y-65080000D01*
X120706000Y-65080000D02*
X119443800Y-65080000D01*
X127465000Y-73025000D02*
X127465000Y-71839000D01*
X102206000Y-65240000D02*
X114846000Y-65240000D01*
X114846000Y-65240000D02*
X116332000Y-63754000D01*
X116332000Y-63754000D02*
X118117800Y-63754000D01*
X118117800Y-63754000D02*
X119443800Y-65080000D01*
X146431000Y-73025000D02*
X147955000Y-74549000D01*
X168656000Y-88646000D02*
X172720000Y-84582000D01*
X127465000Y-73025000D02*
X146431000Y-73025000D01*
X147955000Y-74549000D02*
X147955000Y-78486000D01*
X147955000Y-78486000D02*
X158115000Y-88646000D01*
X158115000Y-88646000D02*
X168656000Y-88646000D01*
X102460000Y-62700000D02*
X115465238Y-62700000D01*
X115465238Y-62700000D02*
X116951238Y-61214000D01*
X116951238Y-61214000D02*
X118448000Y-61214000D01*
X118448000Y-61214000D02*
X119774000Y-62540000D01*
X119774000Y-62540000D02*
X139373590Y-62540000D01*
X139373590Y-62540000D02*
X154432000Y-77598410D01*
X154432000Y-77598410D02*
X154432000Y-83112002D01*
X154432000Y-83112002D02*
X158568998Y-87249000D01*
X158568998Y-87249000D02*
X164973000Y-87249000D01*
X164973000Y-87249000D02*
X167640000Y-84582000D01*
X116145600Y-62924400D02*
X116530000Y-62540000D01*
X116530000Y-62540000D02*
X117310200Y-62540000D01*
X116145600Y-63303989D02*
X116145600Y-62924400D01*
X170180000Y-84836000D02*
X166878000Y-88138000D01*
X166878000Y-88138000D02*
X158369000Y-88138000D01*
X124968001Y-63627001D02*
X120502201Y-63627001D01*
X158369000Y-88138000D02*
X153670000Y-83439000D01*
X120414201Y-63715001D02*
X119286199Y-63715001D01*
X118111198Y-62540000D02*
X117310200Y-62540000D01*
X153670000Y-83439000D02*
X153670000Y-77472820D01*
X148587180Y-72390000D02*
X133731000Y-72390000D01*
X153670000Y-77472820D02*
X148587180Y-72390000D01*
X133731000Y-72390000D02*
X124968001Y-63627001D01*
X120502201Y-63627001D02*
X120414201Y-63715001D01*
X119286199Y-63715001D02*
X118111198Y-62540000D01*
X101095001Y-63875001D02*
X115574589Y-63875001D01*
X115574589Y-63875001D02*
X116145600Y-63303989D01*
X99920000Y-62700000D02*
X101095001Y-63875001D01*
X114846000Y-60160000D02*
X116332000Y-58674000D01*
X102206000Y-60160000D02*
X114846000Y-60160000D01*
X116332000Y-58674000D02*
X118618000Y-58674000D01*
X118618000Y-58674000D02*
X119520000Y-59576000D01*
X119520000Y-59576000D02*
X119520000Y-60000000D01*
X99666000Y-60160000D02*
X100841001Y-61335001D01*
X100841001Y-61335001D02*
X115644999Y-61335001D01*
X115644999Y-61335001D02*
X116218001Y-60761999D01*
X116218001Y-60761999D02*
X116980000Y-60000000D01*
X102460000Y-57620000D02*
X115465238Y-57620000D01*
X115465238Y-57620000D02*
X116951238Y-56134000D01*
X116951238Y-56134000D02*
X119525630Y-56134000D01*
X119525630Y-56134000D02*
X119774000Y-56382370D01*
X119774000Y-56382370D02*
X119774000Y-57460000D01*
X116909590Y-57460000D02*
X117234000Y-57460000D01*
X115574589Y-58795001D02*
X116909590Y-57460000D01*
X101095001Y-58795001D02*
X115574589Y-58795001D01*
X99920000Y-57620000D02*
X101095001Y-58795001D01*
X102206000Y-55080000D02*
X114592000Y-55080000D01*
X114592000Y-55080000D02*
X115966762Y-53705238D01*
X115966762Y-53705238D02*
X119382868Y-53705238D01*
X119382868Y-53705238D02*
X119634000Y-53956370D01*
X119634000Y-53956370D02*
X119634000Y-54806000D01*
X119634000Y-54806000D02*
X119520000Y-54920000D01*
X99666000Y-55080000D02*
X100841001Y-56255001D01*
X116218001Y-55681999D02*
X116980000Y-54920000D01*
X100841001Y-56255001D02*
X115644999Y-56255001D01*
X115644999Y-56255001D02*
X116218001Y-55681999D01*
X119307590Y-52380000D02*
X119774000Y-52380000D01*
X102460000Y-52540000D02*
X114846000Y-52540000D01*
X114846000Y-52540000D02*
X116332000Y-51054000D01*
X116332000Y-51054000D02*
X117981590Y-51054000D01*
X117981590Y-51054000D02*
X119307590Y-52380000D01*
X114631371Y-53904999D02*
X116156370Y-52380000D01*
X101284999Y-53904999D02*
X114631371Y-53904999D01*
X99920000Y-52540000D02*
X101284999Y-53904999D01*
X116156370Y-52380000D02*
X117234000Y-52380000D01*
X102206000Y-50000000D02*
X113576000Y-50000000D01*
X113576000Y-50000000D02*
X115062000Y-48514000D01*
X115062000Y-48514000D02*
X118194000Y-48514000D01*
X118194000Y-48514000D02*
X119520000Y-49840000D01*
X180975000Y-60706000D02*
X180975000Y-61693828D01*
X180975000Y-61693828D02*
X180975000Y-68326000D01*
X172085000Y-58674000D02*
X172085000Y-62865000D01*
X172085000Y-51181000D02*
X172085000Y-58674000D01*
X172085000Y-58674000D02*
X174117000Y-60706000D01*
X174117000Y-60706000D02*
X180975000Y-60706000D01*
X99666000Y-50000000D02*
X97320000Y-50000000D01*
X97320000Y-50000000D02*
X96012000Y-51308000D01*
X96012000Y-51308000D02*
X96012000Y-75184000D01*
X96012000Y-75184000D02*
X99840000Y-79012000D01*
X99840000Y-79012000D02*
X99840000Y-85508000D01*
X145160000Y-83440000D02*
X146050000Y-82550000D01*
X146050000Y-82550000D02*
X149860000Y-82550000D01*
X145160000Y-85127000D02*
X145160000Y-83440000D01*
X165608000Y-76200000D02*
X161036000Y-76200000D01*
X171958000Y-69850000D02*
X165608000Y-76200000D01*
X174752000Y-67056000D02*
X171958000Y-69850000D01*
X174752000Y-62230000D02*
X174752000Y-67056000D01*
X99666000Y-50000000D02*
X100841001Y-51175001D01*
X116980000Y-49840000D02*
X117741999Y-50601999D01*
X100841001Y-51175001D02*
X114686999Y-51175001D01*
X115902370Y-49840000D02*
X116980000Y-49840000D01*
X117741999Y-50601999D02*
X118419999Y-50601999D01*
X118419999Y-50601999D02*
X118872000Y-51054000D01*
X114686999Y-51175001D02*
X115824000Y-50038000D01*
X146812000Y-67310000D02*
X146812000Y-69342000D01*
X115824000Y-50038000D02*
X115824000Y-49918370D01*
X115824000Y-49918370D02*
X115902370Y-49840000D01*
X118872000Y-51054000D02*
X130556000Y-51054000D01*
X130556000Y-51054000D02*
X146812000Y-67310000D01*
X146812000Y-69342000D02*
X155321000Y-77851000D01*
X160401000Y-84565000D02*
X160401000Y-84074000D01*
X159268000Y-84963000D02*
X160003000Y-84963000D01*
X160003000Y-84963000D02*
X160401000Y-84565000D01*
X150254000Y-47300000D02*
X151580000Y-45974000D01*
X151580000Y-45974000D02*
X163340000Y-45974000D01*
X163340000Y-45974000D02*
X165100000Y-47734000D01*
X165100000Y-47734000D02*
X165100000Y-49276000D01*
X165100000Y-49276000D02*
X165664000Y-49840000D01*
X165664000Y-49840000D02*
X167206000Y-49840000D01*
X152540000Y-49840000D02*
X161600000Y-49840000D01*
X168948999Y-53555001D02*
X168948999Y-53431001D01*
X168948999Y-53431001D02*
X170000000Y-52380000D01*
X165608000Y-52832000D02*
X166331001Y-53555001D01*
X166331001Y-53555001D02*
X168948999Y-53555001D01*
X164592000Y-52832000D02*
X165608000Y-52832000D01*
X161600000Y-49840000D02*
X164592000Y-52832000D01*
X150254000Y-52380000D02*
X151580000Y-51054000D01*
X151580000Y-51054000D02*
X160274000Y-51054000D01*
X160274000Y-51054000D02*
X164140000Y-54920000D01*
X164140000Y-54920000D02*
X167206000Y-54920000D01*
X150000000Y-54920000D02*
X151214000Y-56134000D01*
X151214000Y-56134000D02*
X161798000Y-56134000D01*
X161798000Y-56134000D02*
X162941000Y-57277000D01*
X165735000Y-57277000D02*
X167277000Y-57277000D01*
X167277000Y-57277000D02*
X167460000Y-57460000D01*
X152540000Y-54920000D02*
X162108000Y-54920000D01*
X162108000Y-54920000D02*
X165823001Y-58635001D01*
X168948999Y-58635001D02*
X170000000Y-57584000D01*
X165823001Y-58635001D02*
X168948999Y-58635001D01*
X170000000Y-57584000D02*
X170000000Y-57460000D01*
X150254000Y-57460000D02*
X151468000Y-58674000D01*
X151468000Y-58674000D02*
X163703000Y-58674000D01*
X163703000Y-58674000D02*
X165029000Y-60000000D01*
X165029000Y-60000000D02*
X167206000Y-60000000D01*
X152794000Y-57460000D02*
X159187000Y-57460000D01*
X159187000Y-57460000D02*
X159385000Y-57658000D01*
X150000000Y-60000000D02*
X151214000Y-61214000D01*
X151214000Y-61214000D02*
X160782000Y-61214000D01*
X160782000Y-61214000D02*
X162052000Y-62484000D01*
X162052000Y-62484000D02*
X163195000Y-62484000D01*
X169150001Y-61690001D02*
X170000000Y-62540000D01*
X168824999Y-61364999D02*
X169150001Y-61690001D01*
X163599999Y-61364999D02*
X168824999Y-61364999D01*
X162235000Y-60000000D02*
X163599999Y-61364999D01*
X152540000Y-60000000D02*
X162235000Y-60000000D01*
X150254000Y-62540000D02*
X151468000Y-63754000D01*
X151468000Y-63754000D02*
X159893000Y-63754000D01*
X159893000Y-63754000D02*
X161544000Y-65405000D01*
X161544000Y-65405000D02*
X162052000Y-65405000D01*
X174752000Y-50038000D02*
X173228000Y-50038000D01*
X173228000Y-50038000D02*
X172085000Y-51181000D01*
X172085000Y-62865000D02*
X171234999Y-63715001D01*
X171234999Y-63715001D02*
X168440999Y-63715001D01*
X168440999Y-63715001D02*
X167206000Y-64950000D01*
X167206000Y-64950000D02*
X167206000Y-65080000D01*
X182460000Y-50000000D02*
X174790000Y-50000000D01*
X174790000Y-50000000D02*
X174752000Y-50038000D01*
X182460000Y-50000000D02*
X185000000Y-50000000D01*
X168896001Y-65929999D02*
X169746000Y-65080000D01*
X168381001Y-66444999D02*
X168896001Y-65929999D01*
X152794000Y-62540000D02*
X160330000Y-62540000D01*
X164234999Y-66444999D02*
X168381001Y-66444999D01*
X160330000Y-62540000D02*
X164234999Y-66444999D01*
X147193000Y-78740000D02*
X147193000Y-75438000D01*
X157607000Y-89154000D02*
X147193000Y-78740000D01*
X173228000Y-89154000D02*
X157607000Y-89154000D01*
X177800000Y-84582000D02*
X173228000Y-89154000D01*
X155659000Y-68199000D02*
X164153315Y-68199000D01*
X152540000Y-65080000D02*
X155659000Y-68199000D01*
X164153315Y-68199000D02*
X164719000Y-68199000D01*
X150254000Y-67620000D02*
X151468000Y-68834000D01*
X151468000Y-68834000D02*
X154051000Y-68834000D01*
X154051000Y-68834000D02*
X155377000Y-70160000D01*
X155377000Y-70160000D02*
X167206000Y-70160000D01*
X155212630Y-68961000D02*
X168547000Y-68961000D01*
X168547000Y-68961000D02*
X169746000Y-70160000D01*
X152794000Y-67620000D02*
X153871630Y-67620000D01*
X153871630Y-67620000D02*
X155212630Y-68961000D01*
X157988000Y-85848000D02*
X157988000Y-84963000D01*
X158938989Y-86798989D02*
X157988000Y-85848000D01*
X163137011Y-86798989D02*
X158938989Y-86798989D01*
X165100000Y-84836000D02*
X163137011Y-86798989D01*
X162560000Y-84582000D02*
X160147000Y-82169000D01*
X160147000Y-82169000D02*
X159263000Y-82169000D01*
X162560000Y-84328000D02*
X162560000Y-84582000D01*
X144018000Y-80772000D02*
X144018000Y-79375000D01*
X144018000Y-79375000D02*
X144780000Y-78613000D01*
D24*
G36*
X189290000Y-89290000D02*
X174166802Y-89290000D01*
X177433592Y-86023210D01*
X177800000Y-86096093D01*
X178368285Y-85983054D01*
X178850054Y-85661147D01*
X178985142Y-85458974D01*
X179289946Y-85915147D01*
X179771715Y-86237054D01*
X180340000Y-86350093D01*
X180908285Y-86237054D01*
X181390054Y-85915147D01*
X181694858Y-85458974D01*
X181829946Y-85661147D01*
X182311715Y-85983054D01*
X182880000Y-86096093D01*
X183448285Y-85983054D01*
X183930054Y-85661147D01*
X184065142Y-85458974D01*
X184369946Y-85915147D01*
X184851715Y-86237054D01*
X185420000Y-86350093D01*
X185988285Y-86237054D01*
X186470054Y-85915147D01*
X186791961Y-85433378D01*
X186905000Y-84865093D01*
X186905000Y-84806907D01*
X186791961Y-84238622D01*
X186470054Y-83756853D01*
X186186899Y-83567655D01*
X186186924Y-83567645D01*
X186615183Y-83177358D01*
X186861486Y-82652892D01*
X186740819Y-82423000D01*
X185547000Y-82423000D01*
X185547000Y-82443000D01*
X185293000Y-82443000D01*
X185293000Y-82423000D01*
X185273000Y-82423000D01*
X185273000Y-82169000D01*
X185293000Y-82169000D01*
X185293000Y-80975845D01*
X185547000Y-80975845D01*
X185547000Y-82169000D01*
X186740819Y-82169000D01*
X186861486Y-81939108D01*
X186615183Y-81414642D01*
X186186924Y-81024355D01*
X185776890Y-80854524D01*
X185547000Y-80975845D01*
X185293000Y-80975845D01*
X185063110Y-80854524D01*
X184653076Y-81024355D01*
X184224817Y-81414642D01*
X184209643Y-81446954D01*
X184075183Y-81160642D01*
X183646924Y-80770355D01*
X183236890Y-80600524D01*
X183007000Y-80721845D01*
X183007000Y-81915000D01*
X183027000Y-81915000D01*
X183027000Y-82169000D01*
X183007000Y-82169000D01*
X183007000Y-82189000D01*
X182753000Y-82189000D01*
X182753000Y-82169000D01*
X182733000Y-82169000D01*
X182733000Y-81915000D01*
X182753000Y-81915000D01*
X182753000Y-80721845D01*
X182523110Y-80600524D01*
X182113076Y-80770355D01*
X181684817Y-81160642D01*
X181550357Y-81446954D01*
X181535183Y-81414642D01*
X181106924Y-81024355D01*
X180696890Y-80854524D01*
X180467000Y-80975845D01*
X180467000Y-82169000D01*
X180487000Y-82169000D01*
X180487000Y-82423000D01*
X180467000Y-82423000D01*
X180467000Y-82443000D01*
X180213000Y-82443000D01*
X180213000Y-82423000D01*
X180193000Y-82423000D01*
X180193000Y-82169000D01*
X180213000Y-82169000D01*
X180213000Y-80975845D01*
X179983110Y-80854524D01*
X179573076Y-81024355D01*
X179144817Y-81414642D01*
X179129643Y-81446954D01*
X178995183Y-81160642D01*
X178566924Y-80770355D01*
X178156890Y-80600524D01*
X177927000Y-80721845D01*
X177927000Y-81915000D01*
X177947000Y-81915000D01*
X177947000Y-82169000D01*
X177927000Y-82169000D01*
X177927000Y-82189000D01*
X177673000Y-82189000D01*
X177673000Y-82169000D01*
X177653000Y-82169000D01*
X177653000Y-81915000D01*
X177673000Y-81915000D01*
X177673000Y-80721845D01*
X177443110Y-80600524D01*
X177033076Y-80770355D01*
X176604817Y-81160642D01*
X176470357Y-81446954D01*
X176455183Y-81414642D01*
X176026924Y-81024355D01*
X175616890Y-80854524D01*
X175387000Y-80975845D01*
X175387000Y-82169000D01*
X175407000Y-82169000D01*
X175407000Y-82423000D01*
X175387000Y-82423000D01*
X175387000Y-82443000D01*
X175133000Y-82443000D01*
X175133000Y-82423000D01*
X175113000Y-82423000D01*
X175113000Y-82169000D01*
X175133000Y-82169000D01*
X175133000Y-80975845D01*
X174903110Y-80854524D01*
X174493076Y-81024355D01*
X174064817Y-81414642D01*
X174049643Y-81446954D01*
X173915183Y-81160642D01*
X173486924Y-80770355D01*
X173076890Y-80600524D01*
X172847000Y-80721845D01*
X172847000Y-81915000D01*
X172867000Y-81915000D01*
X172867000Y-82169000D01*
X172847000Y-82169000D01*
X172847000Y-82189000D01*
X172593000Y-82189000D01*
X172593000Y-82169000D01*
X172573000Y-82169000D01*
X172573000Y-81915000D01*
X172593000Y-81915000D01*
X172593000Y-80721845D01*
X172363110Y-80600524D01*
X171953076Y-80770355D01*
X171524817Y-81160642D01*
X171390357Y-81446954D01*
X171375183Y-81414642D01*
X170946924Y-81024355D01*
X170536890Y-80854524D01*
X170307000Y-80975845D01*
X170307000Y-82169000D01*
X170327000Y-82169000D01*
X170327000Y-82423000D01*
X170307000Y-82423000D01*
X170307000Y-82443000D01*
X170053000Y-82443000D01*
X170053000Y-82423000D01*
X170033000Y-82423000D01*
X170033000Y-82169000D01*
X170053000Y-82169000D01*
X170053000Y-80975845D01*
X169823110Y-80854524D01*
X169413076Y-81024355D01*
X168984817Y-81414642D01*
X168969643Y-81446954D01*
X168835183Y-81160642D01*
X168406924Y-80770355D01*
X167996890Y-80600524D01*
X167767000Y-80721845D01*
X167767000Y-81915000D01*
X167787000Y-81915000D01*
X167787000Y-82169000D01*
X167767000Y-82169000D01*
X167767000Y-82189000D01*
X167513000Y-82189000D01*
X167513000Y-82169000D01*
X167493000Y-82169000D01*
X167493000Y-81915000D01*
X167513000Y-81915000D01*
X167513000Y-80721845D01*
X167283110Y-80600524D01*
X166873076Y-80770355D01*
X166444817Y-81160642D01*
X166310357Y-81446954D01*
X166295183Y-81414642D01*
X165866924Y-81024355D01*
X165456890Y-80854524D01*
X165227000Y-80975845D01*
X165227000Y-82169000D01*
X165247000Y-82169000D01*
X165247000Y-82423000D01*
X165227000Y-82423000D01*
X165227000Y-82443000D01*
X164973000Y-82443000D01*
X164973000Y-82423000D01*
X164953000Y-82423000D01*
X164953000Y-82169000D01*
X164973000Y-82169000D01*
X164973000Y-80975845D01*
X164743110Y-80854524D01*
X164333076Y-81024355D01*
X163909237Y-81410614D01*
X163610054Y-80962853D01*
X163128285Y-80640946D01*
X162560000Y-80527907D01*
X161991715Y-80640946D01*
X161509946Y-80962853D01*
X161188039Y-81444622D01*
X161075000Y-82012907D01*
X161075000Y-82022198D01*
X160684401Y-81631599D01*
X160437839Y-81466852D01*
X160379787Y-81455305D01*
X160346157Y-81286235D01*
X160205809Y-81076191D01*
X159995765Y-80935843D01*
X159748000Y-80886560D01*
X158872000Y-80886560D01*
X158872000Y-78354000D01*
X172471000Y-78354000D01*
X172811206Y-78286329D01*
X173099618Y-78093618D01*
X175380618Y-75812618D01*
X175468601Y-75680942D01*
X175573329Y-75524206D01*
X175641000Y-75184000D01*
X175641000Y-70990178D01*
X175967824Y-70663923D01*
X176186750Y-70136691D01*
X176187248Y-69565813D01*
X175969243Y-69038200D01*
X175565923Y-68634176D01*
X175038691Y-68415250D01*
X174468050Y-68414752D01*
X175289401Y-67593401D01*
X175454148Y-67346839D01*
X175512000Y-67056000D01*
X175512000Y-63442995D01*
X175766698Y-63272811D01*
X176077767Y-62807264D01*
X176187000Y-62258113D01*
X176187000Y-62201887D01*
X176077767Y-61652736D01*
X175952994Y-61466000D01*
X179849464Y-61466000D01*
X180215000Y-61832174D01*
X180215000Y-67200464D01*
X179845173Y-67569647D01*
X179641732Y-68059587D01*
X179641269Y-68590086D01*
X179843854Y-69080380D01*
X180218647Y-69455827D01*
X180708587Y-69659268D01*
X181239086Y-69659731D01*
X181729380Y-69457146D01*
X181926681Y-69260188D01*
X185300417Y-69260188D01*
X185362071Y-69495800D01*
X185862480Y-69671927D01*
X186392199Y-69643148D01*
X186747929Y-69495800D01*
X186809583Y-69260188D01*
X186055000Y-68505605D01*
X185300417Y-69260188D01*
X181926681Y-69260188D01*
X182104827Y-69082353D01*
X182308268Y-68592413D01*
X182308668Y-68133480D01*
X184709073Y-68133480D01*
X184737852Y-68663199D01*
X184885200Y-69018929D01*
X185120812Y-69080583D01*
X185875395Y-68326000D01*
X186234605Y-68326000D01*
X186989188Y-69080583D01*
X187224800Y-69018929D01*
X187400927Y-68518520D01*
X187372148Y-67988801D01*
X187224800Y-67633071D01*
X186989188Y-67571417D01*
X186234605Y-68326000D01*
X185875395Y-68326000D01*
X185120812Y-67571417D01*
X184885200Y-67633071D01*
X184709073Y-68133480D01*
X182308668Y-68133480D01*
X182308731Y-68061914D01*
X182106146Y-67571620D01*
X181926652Y-67391812D01*
X185300417Y-67391812D01*
X186055000Y-68146395D01*
X186809583Y-67391812D01*
X186747929Y-67156200D01*
X186247520Y-66980073D01*
X185717801Y-67008852D01*
X185362071Y-67156200D01*
X185300417Y-67391812D01*
X181926652Y-67391812D01*
X181735000Y-67199826D01*
X181735000Y-61831536D01*
X181926681Y-61640188D01*
X185300417Y-61640188D01*
X185362071Y-61875800D01*
X185862480Y-62051927D01*
X186392199Y-62023148D01*
X186747929Y-61875800D01*
X186809583Y-61640188D01*
X186055000Y-60885605D01*
X185300417Y-61640188D01*
X181926681Y-61640188D01*
X182104827Y-61462353D01*
X182308268Y-60972413D01*
X182308668Y-60513480D01*
X184709073Y-60513480D01*
X184737852Y-61043199D01*
X184885200Y-61398929D01*
X185120812Y-61460583D01*
X185875395Y-60706000D01*
X186234605Y-60706000D01*
X186989188Y-61460583D01*
X187224800Y-61398929D01*
X187400927Y-60898520D01*
X187372148Y-60368801D01*
X187224800Y-60013071D01*
X186989188Y-59951417D01*
X186234605Y-60706000D01*
X185875395Y-60706000D01*
X185120812Y-59951417D01*
X184885200Y-60013071D01*
X184709073Y-60513480D01*
X182308668Y-60513480D01*
X182308731Y-60441914D01*
X182106146Y-59951620D01*
X181926652Y-59771812D01*
X185300417Y-59771812D01*
X186055000Y-60526395D01*
X186809583Y-59771812D01*
X186747929Y-59536200D01*
X186247520Y-59360073D01*
X185717801Y-59388852D01*
X185362071Y-59536200D01*
X185300417Y-59771812D01*
X181926652Y-59771812D01*
X181731353Y-59576173D01*
X181241413Y-59372732D01*
X180710914Y-59372269D01*
X180220620Y-59574854D01*
X179848826Y-59946000D01*
X174431802Y-59946000D01*
X172845000Y-58359198D01*
X172845000Y-57942187D01*
X173316752Y-57942187D01*
X173534757Y-58469800D01*
X173938077Y-58873824D01*
X174465309Y-59092750D01*
X175036187Y-59093248D01*
X175563800Y-58875243D01*
X175967824Y-58471923D01*
X176176638Y-57969041D01*
X181068086Y-57969041D01*
X181307611Y-58475134D01*
X181722577Y-58851041D01*
X182110961Y-59011904D01*
X182333000Y-58889915D01*
X182333000Y-57747000D01*
X182587000Y-57747000D01*
X182587000Y-58889915D01*
X182809039Y-59011904D01*
X183197423Y-58851041D01*
X183612389Y-58475134D01*
X183730000Y-58226633D01*
X183847611Y-58475134D01*
X184262577Y-58851041D01*
X184650961Y-59011904D01*
X184873000Y-58889915D01*
X184873000Y-57747000D01*
X185127000Y-57747000D01*
X185127000Y-58889915D01*
X185349039Y-59011904D01*
X185737423Y-58851041D01*
X186152389Y-58475134D01*
X186391914Y-57969041D01*
X186270629Y-57747000D01*
X185127000Y-57747000D01*
X184873000Y-57747000D01*
X182587000Y-57747000D01*
X182333000Y-57747000D01*
X181189371Y-57747000D01*
X181068086Y-57969041D01*
X176176638Y-57969041D01*
X176186750Y-57944691D01*
X176187248Y-57373813D01*
X176144750Y-57270959D01*
X181068086Y-57270959D01*
X181189371Y-57493000D01*
X182333000Y-57493000D01*
X182333000Y-56350085D01*
X182587000Y-56350085D01*
X182587000Y-57493000D01*
X184873000Y-57493000D01*
X184873000Y-56350085D01*
X185127000Y-56350085D01*
X185127000Y-57493000D01*
X186270629Y-57493000D01*
X186391914Y-57270959D01*
X186152389Y-56764866D01*
X185737423Y-56388959D01*
X185349039Y-56228096D01*
X185127000Y-56350085D01*
X184873000Y-56350085D01*
X184650961Y-56228096D01*
X184262577Y-56388959D01*
X183847611Y-56764866D01*
X183730000Y-57013367D01*
X183612389Y-56764866D01*
X183197423Y-56388959D01*
X182809039Y-56228096D01*
X182587000Y-56350085D01*
X182333000Y-56350085D01*
X182110961Y-56228096D01*
X181722577Y-56388959D01*
X181307611Y-56764866D01*
X181068086Y-57270959D01*
X176144750Y-57270959D01*
X175969243Y-56846200D01*
X175565923Y-56442176D01*
X175038691Y-56223250D01*
X174467813Y-56222752D01*
X173940200Y-56440757D01*
X173536176Y-56844077D01*
X173317250Y-57371309D01*
X173316752Y-57942187D01*
X172845000Y-57942187D01*
X172845000Y-51495802D01*
X173542802Y-50798000D01*
X173548333Y-50798000D01*
X173737302Y-51080811D01*
X174202849Y-51391880D01*
X174752000Y-51501113D01*
X175301151Y-51391880D01*
X175766698Y-51080811D01*
X175981057Y-50760000D01*
X181256333Y-50760000D01*
X181445302Y-51042811D01*
X181910849Y-51353880D01*
X182460000Y-51463113D01*
X183009151Y-51353880D01*
X183474698Y-51042811D01*
X183571917Y-50897313D01*
X183601843Y-51047765D01*
X183742191Y-51257809D01*
X183952235Y-51398157D01*
X184200000Y-51447440D01*
X185800000Y-51447440D01*
X186047765Y-51398157D01*
X186257809Y-51257809D01*
X186398157Y-51047765D01*
X186447440Y-50800000D01*
X186447440Y-49200000D01*
X186398157Y-48952235D01*
X186257809Y-48742191D01*
X186047765Y-48601843D01*
X185800000Y-48552560D01*
X184200000Y-48552560D01*
X183952235Y-48601843D01*
X183742191Y-48742191D01*
X183601843Y-48952235D01*
X183571917Y-49102687D01*
X183474698Y-48957189D01*
X183009151Y-48646120D01*
X182460000Y-48536887D01*
X181910849Y-48646120D01*
X181445302Y-48957189D01*
X181256333Y-49240000D01*
X175930276Y-49240000D01*
X175766698Y-48995189D01*
X175301151Y-48684120D01*
X174752000Y-48574887D01*
X174202849Y-48684120D01*
X173737302Y-48995189D01*
X173548333Y-49278000D01*
X173228000Y-49278000D01*
X172937161Y-49335852D01*
X172690599Y-49500599D01*
X171547599Y-50643599D01*
X171382852Y-50890161D01*
X171325000Y-51181000D01*
X171325000Y-51697892D01*
X171079147Y-51329946D01*
X170631386Y-51030763D01*
X171017645Y-50606924D01*
X171187476Y-50196890D01*
X171066155Y-49967000D01*
X169873000Y-49967000D01*
X169873000Y-49987000D01*
X169619000Y-49987000D01*
X169619000Y-49967000D01*
X169599000Y-49967000D01*
X169599000Y-49713000D01*
X169619000Y-49713000D01*
X169619000Y-49693000D01*
X169873000Y-49693000D01*
X169873000Y-49713000D01*
X171066155Y-49713000D01*
X171187476Y-49483110D01*
X171017645Y-49073076D01*
X170631386Y-48649237D01*
X171079147Y-48350054D01*
X171401054Y-47868285D01*
X171514093Y-47300000D01*
X171401054Y-46731715D01*
X171079147Y-46249946D01*
X170597378Y-45928039D01*
X170029093Y-45815000D01*
X169970907Y-45815000D01*
X169402622Y-45928039D01*
X168920853Y-46249946D01*
X168918383Y-46253643D01*
X168908157Y-46202235D01*
X168767809Y-45992191D01*
X168557765Y-45851843D01*
X168310000Y-45802560D01*
X166610000Y-45802560D01*
X166362235Y-45851843D01*
X166152191Y-45992191D01*
X166011843Y-46202235D01*
X165962560Y-46450000D01*
X165962560Y-48150000D01*
X166011843Y-48397765D01*
X166152191Y-48607809D01*
X166275815Y-48690413D01*
X166126853Y-48789946D01*
X165951373Y-49052571D01*
X165860000Y-48961198D01*
X165860000Y-47734000D01*
X165802148Y-47443161D01*
X165637401Y-47196599D01*
X164150802Y-45710000D01*
X189290000Y-45710000D01*
X189290000Y-89290000D01*
X189290000Y-89290000D01*
G37*
X189290000Y-89290000D02*
X174166802Y-89290000D01*
X177433592Y-86023210D01*
X177800000Y-86096093D01*
X178368285Y-85983054D01*
X178850054Y-85661147D01*
X178985142Y-85458974D01*
X179289946Y-85915147D01*
X179771715Y-86237054D01*
X180340000Y-86350093D01*
X180908285Y-86237054D01*
X181390054Y-85915147D01*
X181694858Y-85458974D01*
X181829946Y-85661147D01*
X182311715Y-85983054D01*
X182880000Y-86096093D01*
X183448285Y-85983054D01*
X183930054Y-85661147D01*
X184065142Y-85458974D01*
X184369946Y-85915147D01*
X184851715Y-86237054D01*
X185420000Y-86350093D01*
X185988285Y-86237054D01*
X186470054Y-85915147D01*
X186791961Y-85433378D01*
X186905000Y-84865093D01*
X186905000Y-84806907D01*
X186791961Y-84238622D01*
X186470054Y-83756853D01*
X186186899Y-83567655D01*
X186186924Y-83567645D01*
X186615183Y-83177358D01*
X186861486Y-82652892D01*
X186740819Y-82423000D01*
X185547000Y-82423000D01*
X185547000Y-82443000D01*
X185293000Y-82443000D01*
X185293000Y-82423000D01*
X185273000Y-82423000D01*
X185273000Y-82169000D01*
X185293000Y-82169000D01*
X185293000Y-80975845D01*
X185547000Y-80975845D01*
X185547000Y-82169000D01*
X186740819Y-82169000D01*
X186861486Y-81939108D01*
X186615183Y-81414642D01*
X186186924Y-81024355D01*
X185776890Y-80854524D01*
X185547000Y-80975845D01*
X185293000Y-80975845D01*
X185063110Y-80854524D01*
X184653076Y-81024355D01*
X184224817Y-81414642D01*
X184209643Y-81446954D01*
X184075183Y-81160642D01*
X183646924Y-80770355D01*
X183236890Y-80600524D01*
X183007000Y-80721845D01*
X183007000Y-81915000D01*
X183027000Y-81915000D01*
X183027000Y-82169000D01*
X183007000Y-82169000D01*
X183007000Y-82189000D01*
X182753000Y-82189000D01*
X182753000Y-82169000D01*
X182733000Y-82169000D01*
X182733000Y-81915000D01*
X182753000Y-81915000D01*
X182753000Y-80721845D01*
X182523110Y-80600524D01*
X182113076Y-80770355D01*
X181684817Y-81160642D01*
X181550357Y-81446954D01*
X181535183Y-81414642D01*
X181106924Y-81024355D01*
X180696890Y-80854524D01*
X180467000Y-80975845D01*
X180467000Y-82169000D01*
X180487000Y-82169000D01*
X180487000Y-82423000D01*
X180467000Y-82423000D01*
X180467000Y-82443000D01*
X180213000Y-82443000D01*
X180213000Y-82423000D01*
X180193000Y-82423000D01*
X180193000Y-82169000D01*
X180213000Y-82169000D01*
X180213000Y-80975845D01*
X179983110Y-80854524D01*
X179573076Y-81024355D01*
X179144817Y-81414642D01*
X179129643Y-81446954D01*
X178995183Y-81160642D01*
X178566924Y-80770355D01*
X178156890Y-80600524D01*
X177927000Y-80721845D01*
X177927000Y-81915000D01*
X177947000Y-81915000D01*
X177947000Y-82169000D01*
X177927000Y-82169000D01*
X177927000Y-82189000D01*
X177673000Y-82189000D01*
X177673000Y-82169000D01*
X177653000Y-82169000D01*
X177653000Y-81915000D01*
X177673000Y-81915000D01*
X177673000Y-80721845D01*
X177443110Y-80600524D01*
X177033076Y-80770355D01*
X176604817Y-81160642D01*
X176470357Y-81446954D01*
X176455183Y-81414642D01*
X176026924Y-81024355D01*
X175616890Y-80854524D01*
X175387000Y-80975845D01*
X175387000Y-82169000D01*
X175407000Y-82169000D01*
X175407000Y-82423000D01*
X175387000Y-82423000D01*
X175387000Y-82443000D01*
X175133000Y-82443000D01*
X175133000Y-82423000D01*
X175113000Y-82423000D01*
X175113000Y-82169000D01*
X175133000Y-82169000D01*
X175133000Y-80975845D01*
X174903110Y-80854524D01*
X174493076Y-81024355D01*
X174064817Y-81414642D01*
X174049643Y-81446954D01*
X173915183Y-81160642D01*
X173486924Y-80770355D01*
X173076890Y-80600524D01*
X172847000Y-80721845D01*
X172847000Y-81915000D01*
X172867000Y-81915000D01*
X172867000Y-82169000D01*
X172847000Y-82169000D01*
X172847000Y-82189000D01*
X172593000Y-82189000D01*
X172593000Y-82169000D01*
X172573000Y-82169000D01*
X172573000Y-81915000D01*
X172593000Y-81915000D01*
X172593000Y-80721845D01*
X172363110Y-80600524D01*
X171953076Y-80770355D01*
X171524817Y-81160642D01*
X171390357Y-81446954D01*
X171375183Y-81414642D01*
X170946924Y-81024355D01*
X170536890Y-80854524D01*
X170307000Y-80975845D01*
X170307000Y-82169000D01*
X170327000Y-82169000D01*
X170327000Y-82423000D01*
X170307000Y-82423000D01*
X170307000Y-82443000D01*
X170053000Y-82443000D01*
X170053000Y-82423000D01*
X170033000Y-82423000D01*
X170033000Y-82169000D01*
X170053000Y-82169000D01*
X170053000Y-80975845D01*
X169823110Y-80854524D01*
X169413076Y-81024355D01*
X168984817Y-81414642D01*
X168969643Y-81446954D01*
X168835183Y-81160642D01*
X168406924Y-80770355D01*
X167996890Y-80600524D01*
X167767000Y-80721845D01*
X167767000Y-81915000D01*
X167787000Y-81915000D01*
X167787000Y-82169000D01*
X167767000Y-82169000D01*
X167767000Y-82189000D01*
X167513000Y-82189000D01*
X167513000Y-82169000D01*
X167493000Y-82169000D01*
X167493000Y-81915000D01*
X167513000Y-81915000D01*
X167513000Y-80721845D01*
X167283110Y-80600524D01*
X166873076Y-80770355D01*
X166444817Y-81160642D01*
X166310357Y-81446954D01*
X166295183Y-81414642D01*
X165866924Y-81024355D01*
X165456890Y-80854524D01*
X165227000Y-80975845D01*
X165227000Y-82169000D01*
X165247000Y-82169000D01*
X165247000Y-82423000D01*
X165227000Y-82423000D01*
X165227000Y-82443000D01*
X164973000Y-82443000D01*
X164973000Y-82423000D01*
X164953000Y-82423000D01*
X164953000Y-82169000D01*
X164973000Y-82169000D01*
X164973000Y-80975845D01*
X164743110Y-80854524D01*
X164333076Y-81024355D01*
X163909237Y-81410614D01*
X163610054Y-80962853D01*
X163128285Y-80640946D01*
X162560000Y-80527907D01*
X161991715Y-80640946D01*
X161509946Y-80962853D01*
X161188039Y-81444622D01*
X161075000Y-82012907D01*
X161075000Y-82022198D01*
X160684401Y-81631599D01*
X160437839Y-81466852D01*
X160379787Y-81455305D01*
X160346157Y-81286235D01*
X160205809Y-81076191D01*
X159995765Y-80935843D01*
X159748000Y-80886560D01*
X158872000Y-80886560D01*
X158872000Y-78354000D01*
X172471000Y-78354000D01*
X172811206Y-78286329D01*
X173099618Y-78093618D01*
X175380618Y-75812618D01*
X175468601Y-75680942D01*
X175573329Y-75524206D01*
X175641000Y-75184000D01*
X175641000Y-70990178D01*
X175967824Y-70663923D01*
X176186750Y-70136691D01*
X176187248Y-69565813D01*
X175969243Y-69038200D01*
X175565923Y-68634176D01*
X175038691Y-68415250D01*
X174468050Y-68414752D01*
X175289401Y-67593401D01*
X175454148Y-67346839D01*
X175512000Y-67056000D01*
X175512000Y-63442995D01*
X175766698Y-63272811D01*
X176077767Y-62807264D01*
X176187000Y-62258113D01*
X176187000Y-62201887D01*
X176077767Y-61652736D01*
X175952994Y-61466000D01*
X179849464Y-61466000D01*
X180215000Y-61832174D01*
X180215000Y-67200464D01*
X179845173Y-67569647D01*
X179641732Y-68059587D01*
X179641269Y-68590086D01*
X179843854Y-69080380D01*
X180218647Y-69455827D01*
X180708587Y-69659268D01*
X181239086Y-69659731D01*
X181729380Y-69457146D01*
X181926681Y-69260188D01*
X185300417Y-69260188D01*
X185362071Y-69495800D01*
X185862480Y-69671927D01*
X186392199Y-69643148D01*
X186747929Y-69495800D01*
X186809583Y-69260188D01*
X186055000Y-68505605D01*
X185300417Y-69260188D01*
X181926681Y-69260188D01*
X182104827Y-69082353D01*
X182308268Y-68592413D01*
X182308668Y-68133480D01*
X184709073Y-68133480D01*
X184737852Y-68663199D01*
X184885200Y-69018929D01*
X185120812Y-69080583D01*
X185875395Y-68326000D01*
X186234605Y-68326000D01*
X186989188Y-69080583D01*
X187224800Y-69018929D01*
X187400927Y-68518520D01*
X187372148Y-67988801D01*
X187224800Y-67633071D01*
X186989188Y-67571417D01*
X186234605Y-68326000D01*
X185875395Y-68326000D01*
X185120812Y-67571417D01*
X184885200Y-67633071D01*
X184709073Y-68133480D01*
X182308668Y-68133480D01*
X182308731Y-68061914D01*
X182106146Y-67571620D01*
X181926652Y-67391812D01*
X185300417Y-67391812D01*
X186055000Y-68146395D01*
X186809583Y-67391812D01*
X186747929Y-67156200D01*
X186247520Y-66980073D01*
X185717801Y-67008852D01*
X185362071Y-67156200D01*
X185300417Y-67391812D01*
X181926652Y-67391812D01*
X181735000Y-67199826D01*
X181735000Y-61831536D01*
X181926681Y-61640188D01*
X185300417Y-61640188D01*
X185362071Y-61875800D01*
X185862480Y-62051927D01*
X186392199Y-62023148D01*
X186747929Y-61875800D01*
X186809583Y-61640188D01*
X186055000Y-60885605D01*
X185300417Y-61640188D01*
X181926681Y-61640188D01*
X182104827Y-61462353D01*
X182308268Y-60972413D01*
X182308668Y-60513480D01*
X184709073Y-60513480D01*
X184737852Y-61043199D01*
X184885200Y-61398929D01*
X185120812Y-61460583D01*
X185875395Y-60706000D01*
X186234605Y-60706000D01*
X186989188Y-61460583D01*
X187224800Y-61398929D01*
X187400927Y-60898520D01*
X187372148Y-60368801D01*
X187224800Y-60013071D01*
X186989188Y-59951417D01*
X186234605Y-60706000D01*
X185875395Y-60706000D01*
X185120812Y-59951417D01*
X184885200Y-60013071D01*
X184709073Y-60513480D01*
X182308668Y-60513480D01*
X182308731Y-60441914D01*
X182106146Y-59951620D01*
X181926652Y-59771812D01*
X185300417Y-59771812D01*
X186055000Y-60526395D01*
X186809583Y-59771812D01*
X186747929Y-59536200D01*
X186247520Y-59360073D01*
X185717801Y-59388852D01*
X185362071Y-59536200D01*
X185300417Y-59771812D01*
X181926652Y-59771812D01*
X181731353Y-59576173D01*
X181241413Y-59372732D01*
X180710914Y-59372269D01*
X180220620Y-59574854D01*
X179848826Y-59946000D01*
X174431802Y-59946000D01*
X172845000Y-58359198D01*
X172845000Y-57942187D01*
X173316752Y-57942187D01*
X173534757Y-58469800D01*
X173938077Y-58873824D01*
X174465309Y-59092750D01*
X175036187Y-59093248D01*
X175563800Y-58875243D01*
X175967824Y-58471923D01*
X176176638Y-57969041D01*
X181068086Y-57969041D01*
X181307611Y-58475134D01*
X181722577Y-58851041D01*
X182110961Y-59011904D01*
X182333000Y-58889915D01*
X182333000Y-57747000D01*
X182587000Y-57747000D01*
X182587000Y-58889915D01*
X182809039Y-59011904D01*
X183197423Y-58851041D01*
X183612389Y-58475134D01*
X183730000Y-58226633D01*
X183847611Y-58475134D01*
X184262577Y-58851041D01*
X184650961Y-59011904D01*
X184873000Y-58889915D01*
X184873000Y-57747000D01*
X185127000Y-57747000D01*
X185127000Y-58889915D01*
X185349039Y-59011904D01*
X185737423Y-58851041D01*
X186152389Y-58475134D01*
X186391914Y-57969041D01*
X186270629Y-57747000D01*
X185127000Y-57747000D01*
X184873000Y-57747000D01*
X182587000Y-57747000D01*
X182333000Y-57747000D01*
X181189371Y-57747000D01*
X181068086Y-57969041D01*
X176176638Y-57969041D01*
X176186750Y-57944691D01*
X176187248Y-57373813D01*
X176144750Y-57270959D01*
X181068086Y-57270959D01*
X181189371Y-57493000D01*
X182333000Y-57493000D01*
X182333000Y-56350085D01*
X182587000Y-56350085D01*
X182587000Y-57493000D01*
X184873000Y-57493000D01*
X184873000Y-56350085D01*
X185127000Y-56350085D01*
X185127000Y-57493000D01*
X186270629Y-57493000D01*
X186391914Y-57270959D01*
X186152389Y-56764866D01*
X185737423Y-56388959D01*
X185349039Y-56228096D01*
X185127000Y-56350085D01*
X184873000Y-56350085D01*
X184650961Y-56228096D01*
X184262577Y-56388959D01*
X183847611Y-56764866D01*
X183730000Y-57013367D01*
X183612389Y-56764866D01*
X183197423Y-56388959D01*
X182809039Y-56228096D01*
X182587000Y-56350085D01*
X182333000Y-56350085D01*
X182110961Y-56228096D01*
X181722577Y-56388959D01*
X181307611Y-56764866D01*
X181068086Y-57270959D01*
X176144750Y-57270959D01*
X175969243Y-56846200D01*
X175565923Y-56442176D01*
X175038691Y-56223250D01*
X174467813Y-56222752D01*
X173940200Y-56440757D01*
X173536176Y-56844077D01*
X173317250Y-57371309D01*
X173316752Y-57942187D01*
X172845000Y-57942187D01*
X172845000Y-51495802D01*
X173542802Y-50798000D01*
X173548333Y-50798000D01*
X173737302Y-51080811D01*
X174202849Y-51391880D01*
X174752000Y-51501113D01*
X175301151Y-51391880D01*
X175766698Y-51080811D01*
X175981057Y-50760000D01*
X181256333Y-50760000D01*
X181445302Y-51042811D01*
X181910849Y-51353880D01*
X182460000Y-51463113D01*
X183009151Y-51353880D01*
X183474698Y-51042811D01*
X183571917Y-50897313D01*
X183601843Y-51047765D01*
X183742191Y-51257809D01*
X183952235Y-51398157D01*
X184200000Y-51447440D01*
X185800000Y-51447440D01*
X186047765Y-51398157D01*
X186257809Y-51257809D01*
X186398157Y-51047765D01*
X186447440Y-50800000D01*
X186447440Y-49200000D01*
X186398157Y-48952235D01*
X186257809Y-48742191D01*
X186047765Y-48601843D01*
X185800000Y-48552560D01*
X184200000Y-48552560D01*
X183952235Y-48601843D01*
X183742191Y-48742191D01*
X183601843Y-48952235D01*
X183571917Y-49102687D01*
X183474698Y-48957189D01*
X183009151Y-48646120D01*
X182460000Y-48536887D01*
X181910849Y-48646120D01*
X181445302Y-48957189D01*
X181256333Y-49240000D01*
X175930276Y-49240000D01*
X175766698Y-48995189D01*
X175301151Y-48684120D01*
X174752000Y-48574887D01*
X174202849Y-48684120D01*
X173737302Y-48995189D01*
X173548333Y-49278000D01*
X173228000Y-49278000D01*
X172937161Y-49335852D01*
X172690599Y-49500599D01*
X171547599Y-50643599D01*
X171382852Y-50890161D01*
X171325000Y-51181000D01*
X171325000Y-51697892D01*
X171079147Y-51329946D01*
X170631386Y-51030763D01*
X171017645Y-50606924D01*
X171187476Y-50196890D01*
X171066155Y-49967000D01*
X169873000Y-49967000D01*
X169873000Y-49987000D01*
X169619000Y-49987000D01*
X169619000Y-49967000D01*
X169599000Y-49967000D01*
X169599000Y-49713000D01*
X169619000Y-49713000D01*
X169619000Y-49693000D01*
X169873000Y-49693000D01*
X169873000Y-49713000D01*
X171066155Y-49713000D01*
X171187476Y-49483110D01*
X171017645Y-49073076D01*
X170631386Y-48649237D01*
X171079147Y-48350054D01*
X171401054Y-47868285D01*
X171514093Y-47300000D01*
X171401054Y-46731715D01*
X171079147Y-46249946D01*
X170597378Y-45928039D01*
X170029093Y-45815000D01*
X169970907Y-45815000D01*
X169402622Y-45928039D01*
X168920853Y-46249946D01*
X168918383Y-46253643D01*
X168908157Y-46202235D01*
X168767809Y-45992191D01*
X168557765Y-45851843D01*
X168310000Y-45802560D01*
X166610000Y-45802560D01*
X166362235Y-45851843D01*
X166152191Y-45992191D01*
X166011843Y-46202235D01*
X165962560Y-46450000D01*
X165962560Y-48150000D01*
X166011843Y-48397765D01*
X166152191Y-48607809D01*
X166275815Y-48690413D01*
X166126853Y-48789946D01*
X165951373Y-49052571D01*
X165860000Y-48961198D01*
X165860000Y-47734000D01*
X165802148Y-47443161D01*
X165637401Y-47196599D01*
X164150802Y-45710000D01*
X189290000Y-45710000D01*
X189290000Y-89290000D01*
G36*
X102654802Y-46007962D02*
X102489093Y-45975000D01*
X102430907Y-45975000D01*
X101862622Y-46088039D01*
X101380853Y-46409946D01*
X101376903Y-46415858D01*
X101308327Y-46250301D01*
X101129698Y-46071673D01*
X100896309Y-45975000D01*
X100205750Y-45975000D01*
X100047000Y-46133750D01*
X100047000Y-47333000D01*
X100067000Y-47333000D01*
X100067000Y-47587000D01*
X100047000Y-47587000D01*
X100047000Y-47607000D01*
X99793000Y-47607000D01*
X99793000Y-47587000D01*
X98593750Y-47587000D01*
X98435000Y-47745750D01*
X98435000Y-48436310D01*
X98531673Y-48669699D01*
X98710302Y-48848327D01*
X98727979Y-48855649D01*
X98586853Y-48949946D01*
X98393046Y-49240000D01*
X97320000Y-49240000D01*
X97029160Y-49297852D01*
X96782599Y-49462599D01*
X95474599Y-50770599D01*
X95309852Y-51017161D01*
X95252000Y-51308000D01*
X95252000Y-75184000D01*
X95309852Y-75474839D01*
X95474599Y-75721401D01*
X99080000Y-79326802D01*
X99080000Y-84010560D01*
X98990000Y-84010560D01*
X98742235Y-84059843D01*
X98532191Y-84200191D01*
X98391843Y-84410235D01*
X98342560Y-84658000D01*
X98342560Y-86358000D01*
X98391843Y-86605765D01*
X98532191Y-86815809D01*
X98742235Y-86956157D01*
X98990000Y-87005440D01*
X100690000Y-87005440D01*
X100937765Y-86956157D01*
X101147809Y-86815809D01*
X101288157Y-86605765D01*
X101337440Y-86358000D01*
X101337440Y-86338154D01*
X101811715Y-86655054D01*
X102380000Y-86768093D01*
X102948285Y-86655054D01*
X103430054Y-86333147D01*
X103565142Y-86130974D01*
X103869946Y-86587147D01*
X104351715Y-86909054D01*
X104920000Y-87022093D01*
X105286408Y-86949210D01*
X107012599Y-88675401D01*
X107259161Y-88840148D01*
X107550000Y-88898000D01*
X138271081Y-88898000D01*
X138561920Y-88840148D01*
X138808482Y-88675401D01*
X140617401Y-86866482D01*
X140782148Y-86619920D01*
X140823741Y-86410818D01*
X141130054Y-86206147D01*
X141434858Y-85749974D01*
X141569946Y-85952147D01*
X142051715Y-86274054D01*
X142620000Y-86387093D01*
X143188285Y-86274054D01*
X143670054Y-85952147D01*
X143805142Y-85749974D01*
X144109946Y-86206147D01*
X144591715Y-86528054D01*
X145160000Y-86641093D01*
X145728285Y-86528054D01*
X146210054Y-86206147D01*
X146514858Y-85749974D01*
X146649946Y-85952147D01*
X147131715Y-86274054D01*
X147700000Y-86387093D01*
X148268285Y-86274054D01*
X148750054Y-85952147D01*
X149071961Y-85470378D01*
X149185000Y-84902093D01*
X149185000Y-84843907D01*
X149071961Y-84275622D01*
X148750054Y-83793853D01*
X148268285Y-83471946D01*
X147700000Y-83358907D01*
X147131715Y-83471946D01*
X146649946Y-83793853D01*
X146345142Y-84250026D01*
X146210054Y-84047853D01*
X145920000Y-83854046D01*
X145920000Y-83754802D01*
X146364802Y-83310000D01*
X149156239Y-83310000D01*
X149272954Y-83426919D01*
X149653223Y-83584820D01*
X150064971Y-83585179D01*
X150445515Y-83427942D01*
X150625985Y-83247787D01*
X156668198Y-89290000D01*
X90710000Y-89290000D01*
X90710000Y-46483690D01*
X98435000Y-46483690D01*
X98435000Y-47174250D01*
X98593750Y-47333000D01*
X99793000Y-47333000D01*
X99793000Y-46133750D01*
X99634250Y-45975000D01*
X98943691Y-45975000D01*
X98710302Y-46071673D01*
X98531673Y-46250301D01*
X98435000Y-46483690D01*
X90710000Y-46483690D01*
X90710000Y-45710000D01*
X102952764Y-45710000D01*
X102654802Y-46007962D01*
X102654802Y-46007962D01*
G37*
X102654802Y-46007962D02*
X102489093Y-45975000D01*
X102430907Y-45975000D01*
X101862622Y-46088039D01*
X101380853Y-46409946D01*
X101376903Y-46415858D01*
X101308327Y-46250301D01*
X101129698Y-46071673D01*
X100896309Y-45975000D01*
X100205750Y-45975000D01*
X100047000Y-46133750D01*
X100047000Y-47333000D01*
X100067000Y-47333000D01*
X100067000Y-47587000D01*
X100047000Y-47587000D01*
X100047000Y-47607000D01*
X99793000Y-47607000D01*
X99793000Y-47587000D01*
X98593750Y-47587000D01*
X98435000Y-47745750D01*
X98435000Y-48436310D01*
X98531673Y-48669699D01*
X98710302Y-48848327D01*
X98727979Y-48855649D01*
X98586853Y-48949946D01*
X98393046Y-49240000D01*
X97320000Y-49240000D01*
X97029160Y-49297852D01*
X96782599Y-49462599D01*
X95474599Y-50770599D01*
X95309852Y-51017161D01*
X95252000Y-51308000D01*
X95252000Y-75184000D01*
X95309852Y-75474839D01*
X95474599Y-75721401D01*
X99080000Y-79326802D01*
X99080000Y-84010560D01*
X98990000Y-84010560D01*
X98742235Y-84059843D01*
X98532191Y-84200191D01*
X98391843Y-84410235D01*
X98342560Y-84658000D01*
X98342560Y-86358000D01*
X98391843Y-86605765D01*
X98532191Y-86815809D01*
X98742235Y-86956157D01*
X98990000Y-87005440D01*
X100690000Y-87005440D01*
X100937765Y-86956157D01*
X101147809Y-86815809D01*
X101288157Y-86605765D01*
X101337440Y-86358000D01*
X101337440Y-86338154D01*
X101811715Y-86655054D01*
X102380000Y-86768093D01*
X102948285Y-86655054D01*
X103430054Y-86333147D01*
X103565142Y-86130974D01*
X103869946Y-86587147D01*
X104351715Y-86909054D01*
X104920000Y-87022093D01*
X105286408Y-86949210D01*
X107012599Y-88675401D01*
X107259161Y-88840148D01*
X107550000Y-88898000D01*
X138271081Y-88898000D01*
X138561920Y-88840148D01*
X138808482Y-88675401D01*
X140617401Y-86866482D01*
X140782148Y-86619920D01*
X140823741Y-86410818D01*
X141130054Y-86206147D01*
X141434858Y-85749974D01*
X141569946Y-85952147D01*
X142051715Y-86274054D01*
X142620000Y-86387093D01*
X143188285Y-86274054D01*
X143670054Y-85952147D01*
X143805142Y-85749974D01*
X144109946Y-86206147D01*
X144591715Y-86528054D01*
X145160000Y-86641093D01*
X145728285Y-86528054D01*
X146210054Y-86206147D01*
X146514858Y-85749974D01*
X146649946Y-85952147D01*
X147131715Y-86274054D01*
X147700000Y-86387093D01*
X148268285Y-86274054D01*
X148750054Y-85952147D01*
X149071961Y-85470378D01*
X149185000Y-84902093D01*
X149185000Y-84843907D01*
X149071961Y-84275622D01*
X148750054Y-83793853D01*
X148268285Y-83471946D01*
X147700000Y-83358907D01*
X147131715Y-83471946D01*
X146649946Y-83793853D01*
X146345142Y-84250026D01*
X146210054Y-84047853D01*
X145920000Y-83854046D01*
X145920000Y-83754802D01*
X146364802Y-83310000D01*
X149156239Y-83310000D01*
X149272954Y-83426919D01*
X149653223Y-83584820D01*
X150064971Y-83585179D01*
X150445515Y-83427942D01*
X150625985Y-83247787D01*
X156668198Y-89290000D01*
X90710000Y-89290000D01*
X90710000Y-46483690D01*
X98435000Y-46483690D01*
X98435000Y-47174250D01*
X98593750Y-47333000D01*
X99793000Y-47333000D01*
X99793000Y-46133750D01*
X99634250Y-45975000D01*
X98943691Y-45975000D01*
X98710302Y-46071673D01*
X98531673Y-46250301D01*
X98435000Y-46483690D01*
X90710000Y-46483690D01*
X90710000Y-45710000D01*
X102952764Y-45710000D01*
X102654802Y-46007962D01*
G36*
X98586853Y-51050054D02*
X99043026Y-51354858D01*
X98840853Y-51489946D01*
X98518946Y-51971715D01*
X98405907Y-52540000D01*
X98518946Y-53108285D01*
X98840853Y-53590054D01*
X99043026Y-53725142D01*
X98586853Y-54029946D01*
X98264946Y-54511715D01*
X98151907Y-55080000D01*
X98264946Y-55648285D01*
X98586853Y-56130054D01*
X99043026Y-56434858D01*
X98840853Y-56569946D01*
X98518946Y-57051715D01*
X98405907Y-57620000D01*
X98518946Y-58188285D01*
X98840853Y-58670054D01*
X99043026Y-58805142D01*
X98586853Y-59109946D01*
X98264946Y-59591715D01*
X98151907Y-60160000D01*
X98264946Y-60728285D01*
X98586853Y-61210054D01*
X99043026Y-61514858D01*
X98840853Y-61649946D01*
X98518946Y-62131715D01*
X98405907Y-62700000D01*
X98518946Y-63268285D01*
X98840853Y-63750054D01*
X99076715Y-63907652D01*
X98784642Y-64044817D01*
X98394355Y-64473076D01*
X98224524Y-64883110D01*
X98345845Y-65113000D01*
X99539000Y-65113000D01*
X99539000Y-65093000D01*
X99793000Y-65093000D01*
X99793000Y-65113000D01*
X99813000Y-65113000D01*
X99813000Y-65367000D01*
X99793000Y-65367000D01*
X99793000Y-65387000D01*
X99539000Y-65387000D01*
X99539000Y-65367000D01*
X98345845Y-65367000D01*
X98224524Y-65596890D01*
X98394355Y-66006924D01*
X98784642Y-66435183D01*
X99076715Y-66572348D01*
X98840853Y-66729946D01*
X98518946Y-67211715D01*
X98405907Y-67780000D01*
X98518946Y-68348285D01*
X98840853Y-68830054D01*
X99043026Y-68965142D01*
X98586853Y-69269946D01*
X98264946Y-69751715D01*
X98151907Y-70320000D01*
X98264946Y-70888285D01*
X98586853Y-71370054D01*
X99068622Y-71691961D01*
X99636907Y-71805000D01*
X99695093Y-71805000D01*
X100012969Y-71741771D01*
X100303600Y-72032402D01*
X100550161Y-72197149D01*
X100841001Y-72255001D01*
X115702999Y-72255001D01*
X115993838Y-72197149D01*
X116240400Y-72032402D01*
X116357192Y-71857610D01*
X116580933Y-71633869D01*
X116607119Y-71644742D01*
X117197889Y-71645257D01*
X117743886Y-71419656D01*
X118161988Y-71002283D01*
X118173548Y-70974443D01*
X118184144Y-71000086D01*
X118601517Y-71418188D01*
X119147119Y-71644742D01*
X119737889Y-71645257D01*
X120283886Y-71419656D01*
X120701988Y-71002283D01*
X120928542Y-70456681D01*
X120929057Y-69865911D01*
X120703456Y-69319914D01*
X120388460Y-69004368D01*
X120690286Y-68879656D01*
X121108388Y-68462283D01*
X121334942Y-67916681D01*
X121335457Y-67325911D01*
X121109856Y-66779914D01*
X120692483Y-66361812D01*
X120388243Y-66235481D01*
X120587635Y-66036437D01*
X126705000Y-72153802D01*
X126705000Y-73025000D01*
X126762852Y-73315839D01*
X126927599Y-73562401D01*
X127076660Y-73662000D01*
X116840000Y-73662000D01*
X116549161Y-73719852D01*
X116302599Y-73884599D01*
X115286599Y-74900599D01*
X115121852Y-75147161D01*
X115064000Y-75438000D01*
X115064000Y-76258239D01*
X114947081Y-76374954D01*
X114789180Y-76755223D01*
X114788821Y-77166971D01*
X114946058Y-77547515D01*
X115236954Y-77838919D01*
X115617223Y-77996820D01*
X116028971Y-77997179D01*
X116409515Y-77839942D01*
X116700919Y-77549046D01*
X116858820Y-77168777D01*
X116859179Y-76757029D01*
X116701942Y-76376485D01*
X116584000Y-76258337D01*
X116584000Y-75752802D01*
X117154802Y-75182000D01*
X141980100Y-75182000D01*
X141917852Y-75275161D01*
X141860000Y-75566000D01*
X141860000Y-76938560D01*
X140197000Y-76938560D01*
X139949235Y-76987843D01*
X139739191Y-77128191D01*
X139598843Y-77338235D01*
X139595739Y-77353839D01*
X139427643Y-77185449D01*
X138863670Y-76951267D01*
X138253009Y-76950735D01*
X137688629Y-77183932D01*
X137256449Y-77615357D01*
X137022267Y-78179330D01*
X137021735Y-78789991D01*
X137254932Y-79354371D01*
X137686357Y-79786551D01*
X138250330Y-80020733D01*
X138860991Y-80021265D01*
X139425371Y-79788068D01*
X139595712Y-79618025D01*
X139598843Y-79633765D01*
X139739191Y-79843809D01*
X139949235Y-79984157D01*
X140197000Y-80033440D01*
X141338756Y-80033440D01*
X141232600Y-80139596D01*
X141067853Y-80386158D01*
X141010001Y-80676997D01*
X141010001Y-83967636D01*
X140648285Y-83725946D01*
X140080000Y-83612907D01*
X139511715Y-83725946D01*
X139029946Y-84047853D01*
X138872348Y-84283715D01*
X138735183Y-83991642D01*
X138306924Y-83601355D01*
X137896890Y-83431524D01*
X137667000Y-83552845D01*
X137667000Y-84746000D01*
X137687000Y-84746000D01*
X137687000Y-85000000D01*
X137667000Y-85000000D01*
X137667000Y-86193155D01*
X137896890Y-86314476D01*
X138306924Y-86144645D01*
X138730763Y-85758386D01*
X139029946Y-86206147D01*
X139088804Y-86245475D01*
X137956279Y-87378000D01*
X107864802Y-87378000D01*
X107203967Y-86717165D01*
X107460000Y-86768093D01*
X108028285Y-86655054D01*
X108510054Y-86333147D01*
X108645142Y-86130974D01*
X108949946Y-86587147D01*
X109431715Y-86909054D01*
X110000000Y-87022093D01*
X110568285Y-86909054D01*
X111050054Y-86587147D01*
X111349237Y-86139386D01*
X111773076Y-86525645D01*
X112183110Y-86695476D01*
X112413000Y-86574155D01*
X112413000Y-85381000D01*
X112667000Y-85381000D01*
X112667000Y-86574155D01*
X112896890Y-86695476D01*
X113306924Y-86525645D01*
X113735183Y-86135358D01*
X113981486Y-85610892D01*
X113860819Y-85381000D01*
X112667000Y-85381000D01*
X112413000Y-85381000D01*
X112393000Y-85381000D01*
X112393000Y-85127000D01*
X112413000Y-85127000D01*
X112413000Y-83933845D01*
X112667000Y-83933845D01*
X112667000Y-85127000D01*
X113860819Y-85127000D01*
X113981486Y-84897108D01*
X113735183Y-84372642D01*
X113630236Y-84277000D01*
X133502560Y-84277000D01*
X133502560Y-85977000D01*
X133551843Y-86224765D01*
X133692191Y-86434809D01*
X133902235Y-86575157D01*
X134150000Y-86624440D01*
X135850000Y-86624440D01*
X136097765Y-86575157D01*
X136307809Y-86434809D01*
X136448157Y-86224765D01*
X136497440Y-85977000D01*
X136497440Y-85893449D01*
X136773076Y-86144645D01*
X137183110Y-86314476D01*
X137413000Y-86193155D01*
X137413000Y-85000000D01*
X137393000Y-85000000D01*
X137393000Y-84746000D01*
X137413000Y-84746000D01*
X137413000Y-83552845D01*
X137183110Y-83431524D01*
X136773076Y-83601355D01*
X136393434Y-83947336D01*
X136307809Y-83819191D01*
X136097765Y-83678843D01*
X135850000Y-83629560D01*
X134150000Y-83629560D01*
X133902235Y-83678843D01*
X133692191Y-83819191D01*
X133551843Y-84029235D01*
X133502560Y-84277000D01*
X113630236Y-84277000D01*
X113306924Y-83982355D01*
X112896890Y-83812524D01*
X112667000Y-83933845D01*
X112413000Y-83933845D01*
X112183110Y-83812524D01*
X111773076Y-83982355D01*
X111344817Y-84372642D01*
X111207652Y-84664715D01*
X111050054Y-84428853D01*
X110568285Y-84106946D01*
X110000000Y-83993907D01*
X109431715Y-84106946D01*
X108949946Y-84428853D01*
X108814858Y-84631026D01*
X108510054Y-84174853D01*
X108349000Y-84067240D01*
X108349000Y-82900236D01*
X109467618Y-81781618D01*
X109660330Y-81493205D01*
X109728000Y-81153000D01*
X109728000Y-79788737D01*
X109886765Y-79757157D01*
X110096809Y-79616809D01*
X110237157Y-79406765D01*
X110245117Y-79366745D01*
X110510861Y-79366745D01*
X110584995Y-79612864D01*
X111122223Y-79805965D01*
X111692454Y-79778778D01*
X112093005Y-79612864D01*
X112164652Y-79375000D01*
X116879370Y-79375000D01*
X116879370Y-80275430D01*
X117040982Y-80833906D01*
X117404011Y-81288024D01*
X117913190Y-81568649D01*
X118007168Y-81589540D01*
X118237000Y-81468214D01*
X118237000Y-79375000D01*
X116879370Y-79375000D01*
X112164652Y-79375000D01*
X112167139Y-79366745D01*
X111339000Y-78538605D01*
X110510861Y-79366745D01*
X110245117Y-79366745D01*
X110283693Y-79172813D01*
X110331255Y-79187139D01*
X111159395Y-78359000D01*
X111518605Y-78359000D01*
X112346745Y-79187139D01*
X112592864Y-79113005D01*
X112785965Y-78575777D01*
X112769030Y-78220570D01*
X116879370Y-78220570D01*
X116879370Y-79121000D01*
X118237000Y-79121000D01*
X118237000Y-77027786D01*
X118491000Y-77027786D01*
X118491000Y-79121000D01*
X118511000Y-79121000D01*
X118511000Y-79375000D01*
X118491000Y-79375000D01*
X118491000Y-81468214D01*
X118720832Y-81589540D01*
X118814810Y-81568649D01*
X119323989Y-81288024D01*
X119628484Y-80907127D01*
X119854208Y-81244948D01*
X120335857Y-81566775D01*
X120904000Y-81679786D01*
X121472143Y-81566775D01*
X121953792Y-81244948D01*
X122174000Y-80915383D01*
X122394208Y-81244948D01*
X122875857Y-81566775D01*
X123444000Y-81679786D01*
X124012143Y-81566775D01*
X124493792Y-81244948D01*
X124815619Y-80763299D01*
X124928630Y-80195156D01*
X124928630Y-78300844D01*
X124815619Y-77732701D01*
X124784415Y-77686000D01*
X129108560Y-77686000D01*
X129108560Y-79286000D01*
X129157843Y-79533765D01*
X129298191Y-79743809D01*
X129508235Y-79884157D01*
X129756000Y-79933440D01*
X131356000Y-79933440D01*
X131603765Y-79884157D01*
X131813809Y-79743809D01*
X131954157Y-79533765D01*
X131962117Y-79493745D01*
X132227861Y-79493745D01*
X132301995Y-79739864D01*
X132839223Y-79932965D01*
X133409454Y-79905778D01*
X133810005Y-79739864D01*
X133884139Y-79493745D01*
X133056000Y-78665605D01*
X132227861Y-79493745D01*
X131962117Y-79493745D01*
X132000693Y-79299813D01*
X132048255Y-79314139D01*
X132876395Y-78486000D01*
X133235605Y-78486000D01*
X134063745Y-79314139D01*
X134309864Y-79240005D01*
X134502965Y-78702777D01*
X134475778Y-78132546D01*
X134309864Y-77731995D01*
X134063745Y-77657861D01*
X133235605Y-78486000D01*
X132876395Y-78486000D01*
X132048255Y-77657861D01*
X132000693Y-77672187D01*
X131962118Y-77478255D01*
X132227861Y-77478255D01*
X133056000Y-78306395D01*
X133884139Y-77478255D01*
X133810005Y-77232136D01*
X133272777Y-77039035D01*
X132702546Y-77066222D01*
X132301995Y-77232136D01*
X132227861Y-77478255D01*
X131962118Y-77478255D01*
X131954157Y-77438235D01*
X131813809Y-77228191D01*
X131603765Y-77087843D01*
X131356000Y-77038560D01*
X129756000Y-77038560D01*
X129508235Y-77087843D01*
X129298191Y-77228191D01*
X129157843Y-77438235D01*
X129108560Y-77686000D01*
X124784415Y-77686000D01*
X124493792Y-77251052D01*
X124012143Y-76929225D01*
X123444000Y-76816214D01*
X122875857Y-76929225D01*
X122394208Y-77251052D01*
X122174000Y-77580617D01*
X121953792Y-77251052D01*
X121472143Y-76929225D01*
X120904000Y-76816214D01*
X120335857Y-76929225D01*
X119854208Y-77251052D01*
X119628484Y-77588873D01*
X119323989Y-77207976D01*
X118814810Y-76927351D01*
X118720832Y-76906460D01*
X118491000Y-77027786D01*
X118237000Y-77027786D01*
X118007168Y-76906460D01*
X117913190Y-76927351D01*
X117404011Y-77207976D01*
X117040982Y-77662094D01*
X116879370Y-78220570D01*
X112769030Y-78220570D01*
X112758778Y-78005546D01*
X112592864Y-77604995D01*
X112346745Y-77530861D01*
X111518605Y-78359000D01*
X111159395Y-78359000D01*
X110331255Y-77530861D01*
X110283693Y-77545187D01*
X110245118Y-77351255D01*
X110510861Y-77351255D01*
X111339000Y-78179395D01*
X112167139Y-77351255D01*
X112093005Y-77105136D01*
X111555777Y-76912035D01*
X110985546Y-76939222D01*
X110584995Y-77105136D01*
X110510861Y-77351255D01*
X110245118Y-77351255D01*
X110237157Y-77311235D01*
X110096809Y-77101191D01*
X109886765Y-76960843D01*
X109639000Y-76911560D01*
X108039000Y-76911560D01*
X107791235Y-76960843D01*
X107581191Y-77101191D01*
X107440843Y-77311235D01*
X107391560Y-77559000D01*
X107391560Y-79159000D01*
X107440843Y-79406765D01*
X107581191Y-79616809D01*
X107791235Y-79757157D01*
X107950000Y-79788737D01*
X107950000Y-80784764D01*
X106831382Y-81903382D01*
X106638671Y-82191794D01*
X106571000Y-82532000D01*
X106571000Y-84067240D01*
X106409946Y-84174853D01*
X106105142Y-84631026D01*
X105970054Y-84428853D01*
X105488285Y-84106946D01*
X104920000Y-83993907D01*
X104351715Y-84106946D01*
X103869946Y-84428853D01*
X103734858Y-84631026D01*
X103430054Y-84174853D01*
X102948285Y-83852946D01*
X102380000Y-83739907D01*
X101811715Y-83852946D01*
X101329946Y-84174853D01*
X101230413Y-84323815D01*
X101147809Y-84200191D01*
X100937765Y-84059843D01*
X100690000Y-84010560D01*
X100600000Y-84010560D01*
X100600000Y-79012000D01*
X100542148Y-78721161D01*
X100377401Y-78474599D01*
X96772000Y-74869198D01*
X96772000Y-51622802D01*
X97634802Y-50760000D01*
X98393046Y-50760000D01*
X98586853Y-51050054D01*
X98586853Y-51050054D01*
G37*
X98586853Y-51050054D02*
X99043026Y-51354858D01*
X98840853Y-51489946D01*
X98518946Y-51971715D01*
X98405907Y-52540000D01*
X98518946Y-53108285D01*
X98840853Y-53590054D01*
X99043026Y-53725142D01*
X98586853Y-54029946D01*
X98264946Y-54511715D01*
X98151907Y-55080000D01*
X98264946Y-55648285D01*
X98586853Y-56130054D01*
X99043026Y-56434858D01*
X98840853Y-56569946D01*
X98518946Y-57051715D01*
X98405907Y-57620000D01*
X98518946Y-58188285D01*
X98840853Y-58670054D01*
X99043026Y-58805142D01*
X98586853Y-59109946D01*
X98264946Y-59591715D01*
X98151907Y-60160000D01*
X98264946Y-60728285D01*
X98586853Y-61210054D01*
X99043026Y-61514858D01*
X98840853Y-61649946D01*
X98518946Y-62131715D01*
X98405907Y-62700000D01*
X98518946Y-63268285D01*
X98840853Y-63750054D01*
X99076715Y-63907652D01*
X98784642Y-64044817D01*
X98394355Y-64473076D01*
X98224524Y-64883110D01*
X98345845Y-65113000D01*
X99539000Y-65113000D01*
X99539000Y-65093000D01*
X99793000Y-65093000D01*
X99793000Y-65113000D01*
X99813000Y-65113000D01*
X99813000Y-65367000D01*
X99793000Y-65367000D01*
X99793000Y-65387000D01*
X99539000Y-65387000D01*
X99539000Y-65367000D01*
X98345845Y-65367000D01*
X98224524Y-65596890D01*
X98394355Y-66006924D01*
X98784642Y-66435183D01*
X99076715Y-66572348D01*
X98840853Y-66729946D01*
X98518946Y-67211715D01*
X98405907Y-67780000D01*
X98518946Y-68348285D01*
X98840853Y-68830054D01*
X99043026Y-68965142D01*
X98586853Y-69269946D01*
X98264946Y-69751715D01*
X98151907Y-70320000D01*
X98264946Y-70888285D01*
X98586853Y-71370054D01*
X99068622Y-71691961D01*
X99636907Y-71805000D01*
X99695093Y-71805000D01*
X100012969Y-71741771D01*
X100303600Y-72032402D01*
X100550161Y-72197149D01*
X100841001Y-72255001D01*
X115702999Y-72255001D01*
X115993838Y-72197149D01*
X116240400Y-72032402D01*
X116357192Y-71857610D01*
X116580933Y-71633869D01*
X116607119Y-71644742D01*
X117197889Y-71645257D01*
X117743886Y-71419656D01*
X118161988Y-71002283D01*
X118173548Y-70974443D01*
X118184144Y-71000086D01*
X118601517Y-71418188D01*
X119147119Y-71644742D01*
X119737889Y-71645257D01*
X120283886Y-71419656D01*
X120701988Y-71002283D01*
X120928542Y-70456681D01*
X120929057Y-69865911D01*
X120703456Y-69319914D01*
X120388460Y-69004368D01*
X120690286Y-68879656D01*
X121108388Y-68462283D01*
X121334942Y-67916681D01*
X121335457Y-67325911D01*
X121109856Y-66779914D01*
X120692483Y-66361812D01*
X120388243Y-66235481D01*
X120587635Y-66036437D01*
X126705000Y-72153802D01*
X126705000Y-73025000D01*
X126762852Y-73315839D01*
X126927599Y-73562401D01*
X127076660Y-73662000D01*
X116840000Y-73662000D01*
X116549161Y-73719852D01*
X116302599Y-73884599D01*
X115286599Y-74900599D01*
X115121852Y-75147161D01*
X115064000Y-75438000D01*
X115064000Y-76258239D01*
X114947081Y-76374954D01*
X114789180Y-76755223D01*
X114788821Y-77166971D01*
X114946058Y-77547515D01*
X115236954Y-77838919D01*
X115617223Y-77996820D01*
X116028971Y-77997179D01*
X116409515Y-77839942D01*
X116700919Y-77549046D01*
X116858820Y-77168777D01*
X116859179Y-76757029D01*
X116701942Y-76376485D01*
X116584000Y-76258337D01*
X116584000Y-75752802D01*
X117154802Y-75182000D01*
X141980100Y-75182000D01*
X141917852Y-75275161D01*
X141860000Y-75566000D01*
X141860000Y-76938560D01*
X140197000Y-76938560D01*
X139949235Y-76987843D01*
X139739191Y-77128191D01*
X139598843Y-77338235D01*
X139595739Y-77353839D01*
X139427643Y-77185449D01*
X138863670Y-76951267D01*
X138253009Y-76950735D01*
X137688629Y-77183932D01*
X137256449Y-77615357D01*
X137022267Y-78179330D01*
X137021735Y-78789991D01*
X137254932Y-79354371D01*
X137686357Y-79786551D01*
X138250330Y-80020733D01*
X138860991Y-80021265D01*
X139425371Y-79788068D01*
X139595712Y-79618025D01*
X139598843Y-79633765D01*
X139739191Y-79843809D01*
X139949235Y-79984157D01*
X140197000Y-80033440D01*
X141338756Y-80033440D01*
X141232600Y-80139596D01*
X141067853Y-80386158D01*
X141010001Y-80676997D01*
X141010001Y-83967636D01*
X140648285Y-83725946D01*
X140080000Y-83612907D01*
X139511715Y-83725946D01*
X139029946Y-84047853D01*
X138872348Y-84283715D01*
X138735183Y-83991642D01*
X138306924Y-83601355D01*
X137896890Y-83431524D01*
X137667000Y-83552845D01*
X137667000Y-84746000D01*
X137687000Y-84746000D01*
X137687000Y-85000000D01*
X137667000Y-85000000D01*
X137667000Y-86193155D01*
X137896890Y-86314476D01*
X138306924Y-86144645D01*
X138730763Y-85758386D01*
X139029946Y-86206147D01*
X139088804Y-86245475D01*
X137956279Y-87378000D01*
X107864802Y-87378000D01*
X107203967Y-86717165D01*
X107460000Y-86768093D01*
X108028285Y-86655054D01*
X108510054Y-86333147D01*
X108645142Y-86130974D01*
X108949946Y-86587147D01*
X109431715Y-86909054D01*
X110000000Y-87022093D01*
X110568285Y-86909054D01*
X111050054Y-86587147D01*
X111349237Y-86139386D01*
X111773076Y-86525645D01*
X112183110Y-86695476D01*
X112413000Y-86574155D01*
X112413000Y-85381000D01*
X112667000Y-85381000D01*
X112667000Y-86574155D01*
X112896890Y-86695476D01*
X113306924Y-86525645D01*
X113735183Y-86135358D01*
X113981486Y-85610892D01*
X113860819Y-85381000D01*
X112667000Y-85381000D01*
X112413000Y-85381000D01*
X112393000Y-85381000D01*
X112393000Y-85127000D01*
X112413000Y-85127000D01*
X112413000Y-83933845D01*
X112667000Y-83933845D01*
X112667000Y-85127000D01*
X113860819Y-85127000D01*
X113981486Y-84897108D01*
X113735183Y-84372642D01*
X113630236Y-84277000D01*
X133502560Y-84277000D01*
X133502560Y-85977000D01*
X133551843Y-86224765D01*
X133692191Y-86434809D01*
X133902235Y-86575157D01*
X134150000Y-86624440D01*
X135850000Y-86624440D01*
X136097765Y-86575157D01*
X136307809Y-86434809D01*
X136448157Y-86224765D01*
X136497440Y-85977000D01*
X136497440Y-85893449D01*
X136773076Y-86144645D01*
X137183110Y-86314476D01*
X137413000Y-86193155D01*
X137413000Y-85000000D01*
X137393000Y-85000000D01*
X137393000Y-84746000D01*
X137413000Y-84746000D01*
X137413000Y-83552845D01*
X137183110Y-83431524D01*
X136773076Y-83601355D01*
X136393434Y-83947336D01*
X136307809Y-83819191D01*
X136097765Y-83678843D01*
X135850000Y-83629560D01*
X134150000Y-83629560D01*
X133902235Y-83678843D01*
X133692191Y-83819191D01*
X133551843Y-84029235D01*
X133502560Y-84277000D01*
X113630236Y-84277000D01*
X113306924Y-83982355D01*
X112896890Y-83812524D01*
X112667000Y-83933845D01*
X112413000Y-83933845D01*
X112183110Y-83812524D01*
X111773076Y-83982355D01*
X111344817Y-84372642D01*
X111207652Y-84664715D01*
X111050054Y-84428853D01*
X110568285Y-84106946D01*
X110000000Y-83993907D01*
X109431715Y-84106946D01*
X108949946Y-84428853D01*
X108814858Y-84631026D01*
X108510054Y-84174853D01*
X108349000Y-84067240D01*
X108349000Y-82900236D01*
X109467618Y-81781618D01*
X109660330Y-81493205D01*
X109728000Y-81153000D01*
X109728000Y-79788737D01*
X109886765Y-79757157D01*
X110096809Y-79616809D01*
X110237157Y-79406765D01*
X110245117Y-79366745D01*
X110510861Y-79366745D01*
X110584995Y-79612864D01*
X111122223Y-79805965D01*
X111692454Y-79778778D01*
X112093005Y-79612864D01*
X112164652Y-79375000D01*
X116879370Y-79375000D01*
X116879370Y-80275430D01*
X117040982Y-80833906D01*
X117404011Y-81288024D01*
X117913190Y-81568649D01*
X118007168Y-81589540D01*
X118237000Y-81468214D01*
X118237000Y-79375000D01*
X116879370Y-79375000D01*
X112164652Y-79375000D01*
X112167139Y-79366745D01*
X111339000Y-78538605D01*
X110510861Y-79366745D01*
X110245117Y-79366745D01*
X110283693Y-79172813D01*
X110331255Y-79187139D01*
X111159395Y-78359000D01*
X111518605Y-78359000D01*
X112346745Y-79187139D01*
X112592864Y-79113005D01*
X112785965Y-78575777D01*
X112769030Y-78220570D01*
X116879370Y-78220570D01*
X116879370Y-79121000D01*
X118237000Y-79121000D01*
X118237000Y-77027786D01*
X118491000Y-77027786D01*
X118491000Y-79121000D01*
X118511000Y-79121000D01*
X118511000Y-79375000D01*
X118491000Y-79375000D01*
X118491000Y-81468214D01*
X118720832Y-81589540D01*
X118814810Y-81568649D01*
X119323989Y-81288024D01*
X119628484Y-80907127D01*
X119854208Y-81244948D01*
X120335857Y-81566775D01*
X120904000Y-81679786D01*
X121472143Y-81566775D01*
X121953792Y-81244948D01*
X122174000Y-80915383D01*
X122394208Y-81244948D01*
X122875857Y-81566775D01*
X123444000Y-81679786D01*
X124012143Y-81566775D01*
X124493792Y-81244948D01*
X124815619Y-80763299D01*
X124928630Y-80195156D01*
X124928630Y-78300844D01*
X124815619Y-77732701D01*
X124784415Y-77686000D01*
X129108560Y-77686000D01*
X129108560Y-79286000D01*
X129157843Y-79533765D01*
X129298191Y-79743809D01*
X129508235Y-79884157D01*
X129756000Y-79933440D01*
X131356000Y-79933440D01*
X131603765Y-79884157D01*
X131813809Y-79743809D01*
X131954157Y-79533765D01*
X131962117Y-79493745D01*
X132227861Y-79493745D01*
X132301995Y-79739864D01*
X132839223Y-79932965D01*
X133409454Y-79905778D01*
X133810005Y-79739864D01*
X133884139Y-79493745D01*
X133056000Y-78665605D01*
X132227861Y-79493745D01*
X131962117Y-79493745D01*
X132000693Y-79299813D01*
X132048255Y-79314139D01*
X132876395Y-78486000D01*
X133235605Y-78486000D01*
X134063745Y-79314139D01*
X134309864Y-79240005D01*
X134502965Y-78702777D01*
X134475778Y-78132546D01*
X134309864Y-77731995D01*
X134063745Y-77657861D01*
X133235605Y-78486000D01*
X132876395Y-78486000D01*
X132048255Y-77657861D01*
X132000693Y-77672187D01*
X131962118Y-77478255D01*
X132227861Y-77478255D01*
X133056000Y-78306395D01*
X133884139Y-77478255D01*
X133810005Y-77232136D01*
X133272777Y-77039035D01*
X132702546Y-77066222D01*
X132301995Y-77232136D01*
X132227861Y-77478255D01*
X131962118Y-77478255D01*
X131954157Y-77438235D01*
X131813809Y-77228191D01*
X131603765Y-77087843D01*
X131356000Y-77038560D01*
X129756000Y-77038560D01*
X129508235Y-77087843D01*
X129298191Y-77228191D01*
X129157843Y-77438235D01*
X129108560Y-77686000D01*
X124784415Y-77686000D01*
X124493792Y-77251052D01*
X124012143Y-76929225D01*
X123444000Y-76816214D01*
X122875857Y-76929225D01*
X122394208Y-77251052D01*
X122174000Y-77580617D01*
X121953792Y-77251052D01*
X121472143Y-76929225D01*
X120904000Y-76816214D01*
X120335857Y-76929225D01*
X119854208Y-77251052D01*
X119628484Y-77588873D01*
X119323989Y-77207976D01*
X118814810Y-76927351D01*
X118720832Y-76906460D01*
X118491000Y-77027786D01*
X118237000Y-77027786D01*
X118007168Y-76906460D01*
X117913190Y-76927351D01*
X117404011Y-77207976D01*
X117040982Y-77662094D01*
X116879370Y-78220570D01*
X112769030Y-78220570D01*
X112758778Y-78005546D01*
X112592864Y-77604995D01*
X112346745Y-77530861D01*
X111518605Y-78359000D01*
X111159395Y-78359000D01*
X110331255Y-77530861D01*
X110283693Y-77545187D01*
X110245118Y-77351255D01*
X110510861Y-77351255D01*
X111339000Y-78179395D01*
X112167139Y-77351255D01*
X112093005Y-77105136D01*
X111555777Y-76912035D01*
X110985546Y-76939222D01*
X110584995Y-77105136D01*
X110510861Y-77351255D01*
X110245118Y-77351255D01*
X110237157Y-77311235D01*
X110096809Y-77101191D01*
X109886765Y-76960843D01*
X109639000Y-76911560D01*
X108039000Y-76911560D01*
X107791235Y-76960843D01*
X107581191Y-77101191D01*
X107440843Y-77311235D01*
X107391560Y-77559000D01*
X107391560Y-79159000D01*
X107440843Y-79406765D01*
X107581191Y-79616809D01*
X107791235Y-79757157D01*
X107950000Y-79788737D01*
X107950000Y-80784764D01*
X106831382Y-81903382D01*
X106638671Y-82191794D01*
X106571000Y-82532000D01*
X106571000Y-84067240D01*
X106409946Y-84174853D01*
X106105142Y-84631026D01*
X105970054Y-84428853D01*
X105488285Y-84106946D01*
X104920000Y-83993907D01*
X104351715Y-84106946D01*
X103869946Y-84428853D01*
X103734858Y-84631026D01*
X103430054Y-84174853D01*
X102948285Y-83852946D01*
X102380000Y-83739907D01*
X101811715Y-83852946D01*
X101329946Y-84174853D01*
X101230413Y-84323815D01*
X101147809Y-84200191D01*
X100937765Y-84059843D01*
X100690000Y-84010560D01*
X100600000Y-84010560D01*
X100600000Y-79012000D01*
X100542148Y-78721161D01*
X100377401Y-78474599D01*
X96772000Y-74869198D01*
X96772000Y-51622802D01*
X97634802Y-50760000D01*
X98393046Y-50760000D01*
X98586853Y-51050054D01*
G36*
X152300378Y-77178000D02*
X152272998Y-77178000D01*
X152272998Y-77342370D01*
X152050959Y-77221086D01*
X151544866Y-77460611D01*
X151168959Y-77875577D01*
X151008096Y-78263961D01*
X151130085Y-78486000D01*
X152273000Y-78486000D01*
X152273000Y-78466000D01*
X152527000Y-78466000D01*
X152527000Y-78486000D01*
X152547000Y-78486000D01*
X152547000Y-78740000D01*
X152527000Y-78740000D01*
X152527000Y-79883629D01*
X152749041Y-80004914D01*
X152910000Y-79928735D01*
X152910000Y-82366198D01*
X149505841Y-78962039D01*
X151008096Y-78962039D01*
X151168959Y-79350423D01*
X151544866Y-79765389D01*
X152050959Y-80004914D01*
X152273000Y-79883629D01*
X152273000Y-78740000D01*
X151130085Y-78740000D01*
X151008096Y-78962039D01*
X149505841Y-78962039D01*
X148715000Y-78171198D01*
X148715000Y-74549000D01*
X148657148Y-74258161D01*
X148657148Y-74258160D01*
X148492401Y-74011599D01*
X147630802Y-73150000D01*
X148272378Y-73150000D01*
X152300378Y-77178000D01*
X152300378Y-77178000D01*
G37*
X152300378Y-77178000D02*
X152272998Y-77178000D01*
X152272998Y-77342370D01*
X152050959Y-77221086D01*
X151544866Y-77460611D01*
X151168959Y-77875577D01*
X151008096Y-78263961D01*
X151130085Y-78486000D01*
X152273000Y-78486000D01*
X152273000Y-78466000D01*
X152527000Y-78466000D01*
X152527000Y-78486000D01*
X152547000Y-78486000D01*
X152547000Y-78740000D01*
X152527000Y-78740000D01*
X152527000Y-79883629D01*
X152749041Y-80004914D01*
X152910000Y-79928735D01*
X152910000Y-82366198D01*
X149505841Y-78962039D01*
X151008096Y-78962039D01*
X151168959Y-79350423D01*
X151544866Y-79765389D01*
X152050959Y-80004914D01*
X152273000Y-79883629D01*
X152273000Y-78740000D01*
X151130085Y-78740000D01*
X151008096Y-78962039D01*
X149505841Y-78962039D01*
X148715000Y-78171198D01*
X148715000Y-74549000D01*
X148657148Y-74258161D01*
X148657148Y-74258160D01*
X148492401Y-74011599D01*
X147630802Y-73150000D01*
X148272378Y-73150000D01*
X152300378Y-77178000D01*
G36*
X117097548Y-65065858D02*
X117083405Y-65080000D01*
X117097548Y-65094143D01*
X116917943Y-65273748D01*
X116903800Y-65259605D01*
X116577113Y-65586292D01*
X116549160Y-65591852D01*
X116302599Y-65756599D01*
X115039198Y-67020000D01*
X103732954Y-67020000D01*
X103539147Y-66729946D01*
X103082974Y-66425142D01*
X103285147Y-66290054D01*
X103478954Y-66000000D01*
X114846000Y-66000000D01*
X115136839Y-65942148D01*
X115383401Y-65777401D01*
X115517211Y-65643591D01*
X115608541Y-65864080D01*
X115859842Y-65944353D01*
X116724195Y-65080000D01*
X116710053Y-65065858D01*
X116889658Y-64886253D01*
X116903800Y-64900395D01*
X116917943Y-64886253D01*
X117097548Y-65065858D01*
X117097548Y-65065858D01*
G37*
X117097548Y-65065858D02*
X117083405Y-65080000D01*
X117097548Y-65094143D01*
X116917943Y-65273748D01*
X116903800Y-65259605D01*
X116577113Y-65586292D01*
X116549160Y-65591852D01*
X116302599Y-65756599D01*
X115039198Y-67020000D01*
X103732954Y-67020000D01*
X103539147Y-66729946D01*
X103082974Y-66425142D01*
X103285147Y-66290054D01*
X103478954Y-66000000D01*
X114846000Y-66000000D01*
X115136839Y-65942148D01*
X115383401Y-65777401D01*
X115517211Y-65643591D01*
X115608541Y-65864080D01*
X115859842Y-65944353D01*
X116724195Y-65080000D01*
X116710053Y-65065858D01*
X116889658Y-64886253D01*
X116903800Y-64900395D01*
X116917943Y-64886253D01*
X117097548Y-65065858D01*
G36*
X101126853Y-66290054D02*
X101583026Y-66594858D01*
X101380853Y-66729946D01*
X101190000Y-67015578D01*
X100999147Y-66729946D01*
X100551386Y-66430763D01*
X100937645Y-66006924D01*
X100937655Y-66006899D01*
X101126853Y-66290054D01*
X101126853Y-66290054D01*
G37*
X101126853Y-66290054D02*
X101583026Y-66594858D01*
X101380853Y-66729946D01*
X101190000Y-67015578D01*
X100999147Y-66729946D01*
X100551386Y-66430763D01*
X100937645Y-66006924D01*
X100937655Y-66006899D01*
X101126853Y-66290054D01*
G36*
X164340000Y-48048802D02*
X164340000Y-48185198D01*
X164131401Y-47976599D01*
X163884839Y-47811852D01*
X163594000Y-47754000D01*
X158498917Y-47754000D01*
X158448777Y-47733180D01*
X158037029Y-47732821D01*
X157656485Y-47890058D01*
X157365081Y-48180954D01*
X157207180Y-48561223D01*
X157206821Y-48972971D01*
X157251044Y-49080000D01*
X153756547Y-49080000D01*
X153723456Y-48999914D01*
X153417439Y-48693362D01*
X153654280Y-48595259D01*
X153734553Y-48343958D01*
X152870200Y-47479605D01*
X152005847Y-48343958D01*
X152027996Y-48413298D01*
X151623714Y-48580344D01*
X151205612Y-48997717D01*
X151194052Y-49025557D01*
X151183456Y-48999914D01*
X150868460Y-48684368D01*
X151170286Y-48559656D01*
X151588388Y-48142283D01*
X151608151Y-48094688D01*
X151826242Y-48164353D01*
X152690595Y-47300000D01*
X152676453Y-47285858D01*
X152856058Y-47106253D01*
X152870200Y-47120395D01*
X152884343Y-47106253D01*
X153063948Y-47285858D01*
X153049805Y-47300000D01*
X153914158Y-48164353D01*
X154165459Y-48084080D01*
X154366918Y-47528721D01*
X154340515Y-46938542D01*
X154255791Y-46734000D01*
X163025198Y-46734000D01*
X164340000Y-48048802D01*
X164340000Y-48048802D01*
G37*
X164340000Y-48048802D02*
X164340000Y-48185198D01*
X164131401Y-47976599D01*
X163884839Y-47811852D01*
X163594000Y-47754000D01*
X158498917Y-47754000D01*
X158448777Y-47733180D01*
X158037029Y-47732821D01*
X157656485Y-47890058D01*
X157365081Y-48180954D01*
X157207180Y-48561223D01*
X157206821Y-48972971D01*
X157251044Y-49080000D01*
X153756547Y-49080000D01*
X153723456Y-48999914D01*
X153417439Y-48693362D01*
X153654280Y-48595259D01*
X153734553Y-48343958D01*
X152870200Y-47479605D01*
X152005847Y-48343958D01*
X152027996Y-48413298D01*
X151623714Y-48580344D01*
X151205612Y-48997717D01*
X151194052Y-49025557D01*
X151183456Y-48999914D01*
X150868460Y-48684368D01*
X151170286Y-48559656D01*
X151588388Y-48142283D01*
X151608151Y-48094688D01*
X151826242Y-48164353D01*
X152690595Y-47300000D01*
X152676453Y-47285858D01*
X152856058Y-47106253D01*
X152870200Y-47120395D01*
X152884343Y-47106253D01*
X153063948Y-47285858D01*
X153049805Y-47300000D01*
X153914158Y-48164353D01*
X154165459Y-48084080D01*
X154366918Y-47528721D01*
X154340515Y-46938542D01*
X154255791Y-46734000D01*
X163025198Y-46734000D01*
X164340000Y-48048802D01*
G36*
X117503948Y-47285858D02*
X117489805Y-47300000D01*
X117503948Y-47314143D01*
X117324343Y-47493748D01*
X117310200Y-47479605D01*
X117296058Y-47493748D01*
X117116453Y-47314143D01*
X117130595Y-47300000D01*
X117116453Y-47285858D01*
X117296058Y-47106253D01*
X117310200Y-47120395D01*
X117324343Y-47106253D01*
X117503948Y-47285858D01*
X117503948Y-47285858D01*
G37*
X117503948Y-47285858D02*
X117489805Y-47300000D01*
X117503948Y-47314143D01*
X117324343Y-47493748D01*
X117310200Y-47479605D01*
X117296058Y-47493748D01*
X117116453Y-47314143D01*
X117130595Y-47300000D01*
X117116453Y-47285858D01*
X117296058Y-47106253D01*
X117310200Y-47120395D01*
X117324343Y-47106253D01*
X117503948Y-47285858D01*
M02*
