M48
INCH,TZ
T1C0.016
T2C0.031
T3C0.032
T4C0.035
T5C0.039
T6C0.039
%
G90
G05
T1
X36000Y-18500
X36000Y-20500
X36100Y-27100
X36200Y-24500
X36300Y-22200
X36300Y-34000
X36400Y-30400
X36500Y-32500
X36600Y-19300
X36700Y-28900
X36900Y-20600
X37200Y-23100
X37200Y-26500
X37300Y-18700
X37500Y-34700
X37700Y-33200
X37800Y-31700
X38100Y-18900
X38500Y-18300
X38800Y-29000
X39100Y-29800
X40100Y-30400
X40500Y-34700
X40600Y-29100
X41300Y-31000
X41600Y-31800
X41800Y-30100
X42100Y-28700
X45200Y-33200
X45600Y-30300
X45600Y-32300
X45800Y-29000
X46300Y-33600
X47500Y-34000
X47600Y-28700
X48100Y-27300
X48700Y-28200
X49000Y-32800
X49100Y-19700
X49100Y-20400
X49200Y-29900
X49700Y-28700
X50000Y-24300
X50000Y-30300
X50000Y-33600
X50300Y-31100
X50400Y-32700
X50900Y-33900
X55800Y-22300
X56600Y-29300
X56700Y-31800
X57000Y-29900
X57500Y-30300
X57800Y-20900
X57950Y-29700
X58500Y-35000
X59000Y-32500
X59400Y-34000
X61000Y-34900
X61150Y-29450
X61150Y-30650
X61600Y-20500
X62300Y-19200
X62400Y-25700
X62400Y-26400
X62750Y-22700
X63150Y-33100
X63400Y-30000
X63800Y-25750
X64150Y-22550
X64250Y-24600
X64850Y-26850
X65250Y-22550
X69000Y-31200
X70100Y-27700
X70600Y-29400
X73100Y-30900
X73200Y-29000
T2
X51400Y-30900
X52384Y-30900
X42850Y-30850
X43834Y-30850
X68800Y-24500
X68800Y-27500
X71835Y-19685
X71835Y-22685
X72835Y-19685
X72835Y-22685
X57000Y-30950
X60000Y-30950
X68800Y-19700
X68800Y-22700
T3
X71250Y-23900
X71250Y-26900
X73250Y-23900
X73250Y-26900
T4
X54550Y-30900
X55550Y-30900
T5
X65829Y-19622
X65829Y-21622
X65829Y-23622
X65829Y-25622
X65829Y-27622
X65929Y-18622
X65929Y-20622
X65929Y-22622
X65929Y-24622
X65929Y-26622
X66829Y-19622
X66829Y-21622
X66829Y-23622
X66829Y-25622
X66829Y-27622
X66929Y-18622
X66929Y-20622
X66929Y-22622
X66929Y-24622
X66929Y-26622
X46025Y-19622
X46025Y-21622
X46025Y-23622
X46025Y-25622
X46025Y-27622
X46185Y-18622
X46185Y-20622
X46185Y-22622
X46185Y-24622
X46185Y-26622
X47025Y-19622
X47025Y-21622
X47025Y-23622
X47025Y-25622
X47025Y-27622
X47185Y-18622
X47185Y-20622
X47185Y-22622
X47185Y-24622
X47185Y-26622
X59025Y-19622
X59025Y-21622
X59025Y-23622
X59025Y-25622
X59025Y-27622
X59185Y-18622
X59185Y-20622
X59185Y-22622
X59185Y-24622
X59185Y-26622
X60025Y-19622
X60025Y-21622
X60025Y-23622
X60025Y-25622
X60025Y-27622
X60185Y-18622
X60185Y-20622
X60185Y-22622
X60185Y-24622
X60185Y-26622
X64000Y-32300
X64000Y-33300
X65000Y-32400
X65000Y-33400
X66000Y-32300
X66000Y-33300
X67000Y-32400
X67000Y-33400
X68000Y-32300
X68000Y-33300
X69000Y-32400
X69000Y-33400
X70000Y-32300
X70000Y-33300
X71000Y-32400
X71000Y-33400
X72000Y-32300
X72000Y-33300
X73000Y-32400
X73000Y-33400
X53150Y-33515
X54150Y-33415
X55150Y-33515
X56150Y-33415
X57150Y-33515
X58150Y-33415
X39239Y-19685
X39239Y-21685
X39239Y-23685
X39239Y-25685
X39239Y-27685
X39339Y-18685
X39339Y-20685
X39339Y-22685
X39339Y-24685
X39339Y-26685
X40239Y-19685
X40239Y-21685
X40239Y-23685
X40239Y-25685
X40239Y-27685
X40339Y-18685
X40339Y-20685
X40339Y-22685
X40339Y-24685
X40339Y-26685
X39307Y-33665
X40307Y-33565
X41307Y-33665
X42307Y-33565
X43307Y-33665
X44307Y-33565
T6
X46600Y-31200
X47600Y-31200
X48600Y-31200
T0
M30
