G04 #@! TF.GenerationSoftware,KiCad,Pcbnew,no-vcs-found-08c4a0b~58~ubuntu16.04.1*
G04 #@! TF.CreationDate,2017-08-29T22:35:06+03:00*
G04 #@! TF.ProjectId,ESP-32-programmer,4553502D33322D70726F6772616D6D65,1*
G04 #@! TF.SameCoordinates,Original
G04 #@! TF.FileFunction,Legend,Bot*
G04 #@! TF.FilePolarity,Positive*
%FSLAX46Y46*%
G04 Gerber Fmt 4.6, Leading zero omitted, Abs format (unit mm)*
G04 Created by KiCad (PCBNEW no-vcs-found-08c4a0b~58~ubuntu16.04.1) date Tue Aug 29 22:35:06 2017*
%MOMM*%
%LPD*%
G01*
G04 APERTURE LIST*
%ADD10C,0.120000*%
%ADD11C,0.150000*%
G04 APERTURE END LIST*
D10*
X145668000Y-82042000D02*
X145668000Y-79502000D01*
X147448000Y-79502000D02*
X147448000Y-82042000D01*
X147448000Y-79502000D02*
X145668000Y-79502000D01*
X145668000Y-82042000D02*
X147448000Y-82042000D01*
D11*
X148885619Y-81105333D02*
X148171333Y-81105333D01*
X148028476Y-81152952D01*
X147933238Y-81248190D01*
X147885619Y-81391047D01*
X147885619Y-81486285D01*
X148457047Y-80486285D02*
X148504666Y-80581523D01*
X148552285Y-80629142D01*
X148647523Y-80676761D01*
X148695142Y-80676761D01*
X148790380Y-80629142D01*
X148838000Y-80581523D01*
X148885619Y-80486285D01*
X148885619Y-80295809D01*
X148838000Y-80200571D01*
X148790380Y-80152952D01*
X148695142Y-80105333D01*
X148647523Y-80105333D01*
X148552285Y-80152952D01*
X148504666Y-80200571D01*
X148457047Y-80295809D01*
X148457047Y-80486285D01*
X148409428Y-80581523D01*
X148361809Y-80629142D01*
X148266571Y-80676761D01*
X148076095Y-80676761D01*
X147980857Y-80629142D01*
X147933238Y-80581523D01*
X147885619Y-80486285D01*
X147885619Y-80295809D01*
X147933238Y-80200571D01*
X147980857Y-80152952D01*
X148076095Y-80105333D01*
X148266571Y-80105333D01*
X148361809Y-80152952D01*
X148409428Y-80200571D01*
X148457047Y-80295809D01*
M02*
