<?xml version="1.0" standalone="no"?>
 <!DOCTYPE svg PUBLIC "-//W3C//DTD SVG 1.1//EN" 
 "http://www.w3.org/Graphics/SVG/1.1/DTD/svg11.dtd"> 
<svg xmlns="http://www.w3.org/2000/svg" version="1.1" 
    width="29.7002cm" height="21.0007cm" viewBox="0 0 116930 82680 ">
<title>SVG Picture created as Bitsoko-ESP32-module-v2-F.Paste.svg date 2017/09/01 22:00:02 </title>
  <desc>Picture generated by PCBNEW </desc>
<g style="fill:#000000; fill-opacity:1;stroke:#000000; stroke-opacity:1;
stroke-linecap:round; stroke-linejoin:round; "
 transform="translate(0 0) scale(1 1)">
</g>
<g style="fill:#000000; fill-opacity:0.0; 
stroke:#000000; stroke-width:-0.000393701; stroke-opacity:1; 
stroke-linecap:round; stroke-linejoin:round;">
</g>
<g style="fill:#000000; fill-opacity:0.0; 
stroke:#000000; stroke-width:0; stroke-opacity:1; 
stroke-linecap:round; stroke-linejoin:round;">
</g>
<g style="fill:#000000; fill-opacity:1.0; 
stroke:#000000; stroke-width:0; stroke-opacity:1; 
stroke-linecap:round; stroke-linejoin:round;">
<polyline style="fill-rule:evenodd;"
points="54044,34855
54044,33280
55619,33280
55619,34855
54044,34855
" /> 
<polyline style="fill-rule:evenodd;"
points="50678,37316
50678,36962
51741,36962
51741,37316
50678,37316
" /> 
<polyline style="fill-rule:evenodd;"
points="50678,36816
50678,36462
51741,36462
51741,36816
50678,36816
" /> 
<polyline style="fill-rule:evenodd;"
points="50678,36316
50678,35962
51741,35962
51741,36316
50678,36316
" /> 
<polyline style="fill-rule:evenodd;"
points="50678,35816
50678,35462
51741,35462
51741,35816
50678,35816
" /> 
<polyline style="fill-rule:evenodd;"
points="50678,35316
50678,34962
51741,34962
51741,35316
50678,35316
" /> 
<polyline style="fill-rule:evenodd;"
points="50678,34816
50678,34462
51741,34462
51741,34816
50678,34816
" /> 
<polyline style="fill-rule:evenodd;"
points="50678,34316
50678,33962
51741,33962
51741,34316
50678,34316
" /> 
<polyline style="fill-rule:evenodd;"
points="50678,33816
50678,33462
51741,33462
51741,33816
50678,33816
" /> 
<polyline style="fill-rule:evenodd;"
points="50678,33316
50678,32962
51741,32962
51741,33316
50678,33316
" /> 
<polyline style="fill-rule:evenodd;"
points="50678,32816
50678,32462
51741,32462
51741,32816
50678,32816
" /> 
<polyline style="fill-rule:evenodd;"
points="50678,32316
50678,31962
51741,31962
51741,32316
50678,32316
" /> 
<polyline style="fill-rule:evenodd;"
points="50678,31816
50678,31462
51741,31462
51741,31816
50678,31816
" /> 
<polyline style="fill-rule:evenodd;"
points="50678,31316
50678,30962
51741,30962
51741,31316
50678,31316
" /> 
<polyline style="fill-rule:evenodd;"
points="50678,30816
50678,30462
51741,30462
51741,30816
50678,30816
" /> 
<polyline style="fill-rule:evenodd;"
points="52686,38615
52686,37552
53040,37552
53040,38615
52686,38615
" /> 
<polyline style="fill-rule:evenodd;"
points="53186,38615
53186,37552
53540,37552
53540,38615
53186,38615
" /> 
<polyline style="fill-rule:evenodd;"
points="53686,38615
53686,37552
54040,37552
54040,38615
53686,38615
" /> 
<polyline style="fill-rule:evenodd;"
points="54186,38615
54186,37552
54540,37552
54540,38615
54186,38615
" /> 
<polyline style="fill-rule:evenodd;"
points="54686,38615
54686,37552
55040,37552
55040,38615
54686,38615
" /> 
<polyline style="fill-rule:evenodd;"
points="55186,38615
55186,37552
55540,37552
55540,38615
55186,38615
" /> 
<polyline style="fill-rule:evenodd;"
points="55686,38615
55686,37552
56040,37552
56040,38615
55686,38615
" /> 
<polyline style="fill-rule:evenodd;"
points="56186,38615
56186,37552
56540,37552
56540,38615
56186,38615
" /> 
<polyline style="fill-rule:evenodd;"
points="56686,38615
56686,37552
57040,37552
57040,38615
56686,38615
" /> 
<polyline style="fill-rule:evenodd;"
points="57186,38615
57186,37552
57540,37552
57540,38615
57186,38615
" /> 
<polyline style="fill-rule:evenodd;"
points="58474,37316
58474,36962
59537,36962
59537,37316
58474,37316
" /> 
<polyline style="fill-rule:evenodd;"
points="58474,36816
58474,36462
59537,36462
59537,36816
58474,36816
" /> 
<polyline style="fill-rule:evenodd;"
points="58474,36316
58474,35962
59537,35962
59537,36316
58474,36316
" /> 
<polyline style="fill-rule:evenodd;"
points="58474,35816
58474,35462
59537,35462
59537,35816
58474,35816
" /> 
<polyline style="fill-rule:evenodd;"
points="58474,35316
58474,34962
59537,34962
59537,35316
58474,35316
" /> 
<polyline style="fill-rule:evenodd;"
points="58474,34816
58474,34462
59537,34462
59537,34816
58474,34816
" /> 
<polyline style="fill-rule:evenodd;"
points="58474,34316
58474,33962
59537,33962
59537,34316
58474,34316
" /> 
<polyline style="fill-rule:evenodd;"
points="58474,33816
58474,33462
59537,33462
59537,33816
58474,33816
" /> 
<polyline style="fill-rule:evenodd;"
points="58474,33316
58474,32962
59537,32962
59537,33316
58474,33316
" /> 
<polyline style="fill-rule:evenodd;"
points="58474,32816
58474,32462
59537,32462
59537,32816
58474,32816
" /> 
<polyline style="fill-rule:evenodd;"
points="58474,32316
58474,31962
59537,31962
59537,32316
58474,32316
" /> 
<polyline style="fill-rule:evenodd;"
points="58474,31816
58474,31462
59537,31462
59537,31816
58474,31816
" /> 
<polyline style="fill-rule:evenodd;"
points="58474,31316
58474,30962
59537,30962
59537,31316
58474,31316
" /> 
<polyline style="fill-rule:evenodd;"
points="58474,30816
58474,30462
59537,30462
59537,30816
58474,30816
" /> 
</g> 
</svg>
