G04 #@! TF.GenerationSoftware,KiCad,Pcbnew,no-vcs-found-08c4a0b~58~ubuntu16.04.1*
G04 #@! TF.CreationDate,2017-08-29T22:54:34+03:00*
G04 #@! TF.ProjectId,Bitsoko-ESP32-module-v2,426974736F6B6F2D45535033322D6D6F,1*
G04 #@! TF.SameCoordinates,Original
G04 #@! TF.FileFunction,Soldermask,Top*
G04 #@! TF.FilePolarity,Negative*
%FSLAX46Y46*%
G04 Gerber Fmt 4.6, Leading zero omitted, Abs format (unit mm)*
G04 Created by KiCad (PCBNEW no-vcs-found-08c4a0b~58~ubuntu16.04.1) date Tue Aug 29 22:54:34 2017*
%MOMM*%
%LPD*%
G01*
G04 APERTURE LIST*
%ADD10R,4.400000X4.400000*%
%ADD11R,3.100000X1.300000*%
%ADD12R,1.300000X3.100000*%
%ADD13O,2.100000X2.100000*%
%ADD14R,2.100000X2.100000*%
G04 APERTURE END LIST*
D10*
X139274000Y-86533500D03*
D11*
X130074000Y-94333500D03*
X130074000Y-93063500D03*
X130074000Y-91793500D03*
X130074000Y-90523500D03*
X130074000Y-89253500D03*
X130074000Y-87983500D03*
X130074000Y-86713500D03*
X130074000Y-85443500D03*
X130074000Y-84173500D03*
X130074000Y-82903500D03*
X130074000Y-81633500D03*
X130074000Y-80363500D03*
X130074000Y-79093500D03*
X130074000Y-77823500D03*
D12*
X134274000Y-96733500D03*
X135544000Y-96733500D03*
X136814000Y-96733500D03*
X138084000Y-96733500D03*
X139354000Y-96733500D03*
X140624000Y-96733500D03*
X141894000Y-96733500D03*
X143164000Y-96733500D03*
X144434000Y-96733500D03*
X145704000Y-96733500D03*
D11*
X149874000Y-94333500D03*
X149874000Y-93063500D03*
X149874000Y-91793500D03*
X149874000Y-90523500D03*
X149874000Y-89253500D03*
X149874000Y-87983500D03*
X149874000Y-86713500D03*
X149874000Y-85443500D03*
X149874000Y-84173500D03*
X149874000Y-82903500D03*
X149874000Y-81633500D03*
X149874000Y-80363500D03*
X149874000Y-79093500D03*
X149874000Y-77823500D03*
D13*
X124256800Y-101600000D03*
X121716800Y-101600000D03*
X124663200Y-99060000D03*
X122123200Y-99060000D03*
X124256800Y-96520000D03*
X121716800Y-96520000D03*
X124663200Y-93980000D03*
X122123200Y-93980000D03*
X124256800Y-91440000D03*
X121716800Y-91440000D03*
X124663200Y-88900000D03*
X122123200Y-88900000D03*
X124256800Y-86360000D03*
X121716800Y-86360000D03*
X124663200Y-83820000D03*
X122123200Y-83820000D03*
X124256800Y-81280000D03*
X121716800Y-81280000D03*
X124663200Y-78740000D03*
D14*
X122123200Y-78740000D03*
X155143200Y-78740000D03*
D13*
X157683200Y-78740000D03*
X154736800Y-81280000D03*
X157276800Y-81280000D03*
X155143200Y-83820000D03*
X157683200Y-83820000D03*
X154736800Y-86360000D03*
X157276800Y-86360000D03*
X155143200Y-88900000D03*
X157683200Y-88900000D03*
X154736800Y-91440000D03*
X157276800Y-91440000D03*
X155143200Y-93980000D03*
X157683200Y-93980000D03*
X154736800Y-96520000D03*
X157276800Y-96520000D03*
X155143200Y-99060000D03*
X157683200Y-99060000D03*
X154736800Y-101600000D03*
X157276800Y-101600000D03*
M02*
