G04 #@! TF.GenerationSoftware,KiCad,Pcbnew,no-vcs-found-08c4a0b~58~ubuntu16.04.1*
G04 #@! TF.CreationDate,2017-08-29T22:54:34+03:00*
G04 #@! TF.ProjectId,Bitsoko-ESP32-module-v2,426974736F6B6F2D45535033322D6D6F,1*
G04 #@! TF.SameCoordinates,Original
G04 #@! TF.FileFunction,Legend,Top*
G04 #@! TF.FilePolarity,Positive*
%FSLAX46Y46*%
G04 Gerber Fmt 4.6, Leading zero omitted, Abs format (unit mm)*
G04 Created by KiCad (PCBNEW no-vcs-found-08c4a0b~58~ubuntu16.04.1) date Tue Aug 29 22:54:34 2017*
%MOMM*%
%LPD*%
G01*
G04 APERTURE LIST*
%ADD10C,0.158750*%
%ADD11C,0.200000*%
%ADD12C,0.150000*%
%ADD13C,0.120000*%
G04 APERTURE END LIST*
D10*
X152179261Y-102325714D02*
X151544261Y-102325714D01*
X152179261Y-101890285D01*
X151544261Y-101890285D01*
X152118785Y-101092000D02*
X152149023Y-101128285D01*
X152179261Y-101237142D01*
X152179261Y-101309714D01*
X152149023Y-101418571D01*
X152088547Y-101491142D01*
X152028071Y-101527428D01*
X151907119Y-101563714D01*
X151816404Y-101563714D01*
X151695452Y-101527428D01*
X151634976Y-101491142D01*
X151574500Y-101418571D01*
X151544261Y-101309714D01*
X151544261Y-101237142D01*
X151574500Y-101128285D01*
X151604738Y-101092000D01*
X153322261Y-102325714D02*
X152687261Y-102325714D01*
X153322261Y-101890285D01*
X152687261Y-101890285D01*
X153261785Y-101092000D02*
X153292023Y-101128285D01*
X153322261Y-101237142D01*
X153322261Y-101309714D01*
X153292023Y-101418571D01*
X153231547Y-101491142D01*
X153171071Y-101527428D01*
X153050119Y-101563714D01*
X152959404Y-101563714D01*
X152838452Y-101527428D01*
X152777976Y-101491142D01*
X152717500Y-101418571D01*
X152687261Y-101309714D01*
X152687261Y-101237142D01*
X152717500Y-101128285D01*
X152747738Y-101092000D01*
X152149023Y-100275571D02*
X152179261Y-100166714D01*
X152179261Y-99985285D01*
X152149023Y-99912714D01*
X152118785Y-99876428D01*
X152058309Y-99840142D01*
X151997833Y-99840142D01*
X151937357Y-99876428D01*
X151907119Y-99912714D01*
X151876880Y-99985285D01*
X151846642Y-100130428D01*
X151816404Y-100203000D01*
X151786166Y-100239285D01*
X151725690Y-100275571D01*
X151665214Y-100275571D01*
X151604738Y-100239285D01*
X151574500Y-100203000D01*
X151544261Y-100130428D01*
X151544261Y-99949000D01*
X151574500Y-99840142D01*
X152179261Y-99513571D02*
X151544261Y-99513571D01*
X151544261Y-99332142D01*
X151574500Y-99223285D01*
X151634976Y-99150714D01*
X151695452Y-99114428D01*
X151816404Y-99078142D01*
X151907119Y-99078142D01*
X152028071Y-99114428D01*
X152088547Y-99150714D01*
X152149023Y-99223285D01*
X152179261Y-99332142D01*
X152179261Y-99513571D01*
X151544261Y-98606428D02*
X151544261Y-98533857D01*
X151574500Y-98461285D01*
X151604738Y-98425000D01*
X151665214Y-98388714D01*
X151786166Y-98352428D01*
X151937357Y-98352428D01*
X152058309Y-98388714D01*
X152118785Y-98425000D01*
X152149023Y-98461285D01*
X152179261Y-98533857D01*
X152179261Y-98606428D01*
X152149023Y-98679000D01*
X152118785Y-98715285D01*
X152058309Y-98751571D01*
X151937357Y-98787857D01*
X151786166Y-98787857D01*
X151665214Y-98751571D01*
X151604738Y-98715285D01*
X151574500Y-98679000D01*
X151544261Y-98606428D01*
X153292023Y-100148571D02*
X153322261Y-100039714D01*
X153322261Y-99858285D01*
X153292023Y-99785714D01*
X153261785Y-99749428D01*
X153201309Y-99713142D01*
X153140833Y-99713142D01*
X153080357Y-99749428D01*
X153050119Y-99785714D01*
X153019880Y-99858285D01*
X152989642Y-100003428D01*
X152959404Y-100076000D01*
X152929166Y-100112285D01*
X152868690Y-100148571D01*
X152808214Y-100148571D01*
X152747738Y-100112285D01*
X152717500Y-100076000D01*
X152687261Y-100003428D01*
X152687261Y-99822000D01*
X152717500Y-99713142D01*
X153322261Y-99386571D02*
X152687261Y-99386571D01*
X152687261Y-99205142D01*
X152717500Y-99096285D01*
X152777976Y-99023714D01*
X152838452Y-98987428D01*
X152959404Y-98951142D01*
X153050119Y-98951142D01*
X153171071Y-98987428D01*
X153231547Y-99023714D01*
X153292023Y-99096285D01*
X153322261Y-99205142D01*
X153322261Y-99386571D01*
X153322261Y-98225428D02*
X153322261Y-98660857D01*
X153322261Y-98443142D02*
X152687261Y-98443142D01*
X152777976Y-98515714D01*
X152838452Y-98588285D01*
X152868690Y-98660857D01*
X152179261Y-96919142D02*
X152179261Y-97354571D01*
X152179261Y-97136857D02*
X151544261Y-97136857D01*
X151634976Y-97209428D01*
X151695452Y-97282000D01*
X151725690Y-97354571D01*
X151544261Y-96229714D02*
X151544261Y-96592571D01*
X151846642Y-96628857D01*
X151816404Y-96592571D01*
X151786166Y-96520000D01*
X151786166Y-96338571D01*
X151816404Y-96266000D01*
X151846642Y-96229714D01*
X151907119Y-96193428D01*
X152058309Y-96193428D01*
X152118785Y-96229714D01*
X152149023Y-96266000D01*
X152179261Y-96338571D01*
X152179261Y-96520000D01*
X152149023Y-96592571D01*
X152118785Y-96628857D01*
X152747738Y-96991714D02*
X152717500Y-96955428D01*
X152687261Y-96882857D01*
X152687261Y-96701428D01*
X152717500Y-96628857D01*
X152747738Y-96592571D01*
X152808214Y-96556285D01*
X152868690Y-96556285D01*
X152959404Y-96592571D01*
X153322261Y-97028000D01*
X153322261Y-96556285D01*
X151544261Y-94397285D02*
X151544261Y-94324714D01*
X151574500Y-94252142D01*
X151604738Y-94215857D01*
X151665214Y-94179571D01*
X151786166Y-94143285D01*
X151937357Y-94143285D01*
X152058309Y-94179571D01*
X152118785Y-94215857D01*
X152149023Y-94252142D01*
X152179261Y-94324714D01*
X152179261Y-94397285D01*
X152149023Y-94469857D01*
X152118785Y-94506142D01*
X152058309Y-94542428D01*
X151937357Y-94578714D01*
X151786166Y-94578714D01*
X151665214Y-94542428D01*
X151604738Y-94506142D01*
X151574500Y-94469857D01*
X151544261Y-94397285D01*
X152898928Y-94088857D02*
X153322261Y-94088857D01*
X152657023Y-94270285D02*
X153110595Y-94451714D01*
X153110595Y-93980000D01*
X152179261Y-91839142D02*
X152179261Y-92274571D01*
X152179261Y-92056857D02*
X151544261Y-92056857D01*
X151634976Y-92129428D01*
X151695452Y-92202000D01*
X151725690Y-92274571D01*
X151544261Y-91186000D02*
X151544261Y-91331142D01*
X151574500Y-91403714D01*
X151604738Y-91440000D01*
X151695452Y-91512571D01*
X151816404Y-91548857D01*
X152058309Y-91548857D01*
X152118785Y-91512571D01*
X152149023Y-91476285D01*
X152179261Y-91403714D01*
X152179261Y-91258571D01*
X152149023Y-91186000D01*
X152118785Y-91149714D01*
X152058309Y-91113428D01*
X151907119Y-91113428D01*
X151846642Y-91149714D01*
X151816404Y-91186000D01*
X151786166Y-91258571D01*
X151786166Y-91403714D01*
X151816404Y-91476285D01*
X151846642Y-91512571D01*
X151907119Y-91548857D01*
X153322261Y-91712142D02*
X153322261Y-92147571D01*
X153322261Y-91929857D02*
X152687261Y-91929857D01*
X152777976Y-92002428D01*
X152838452Y-92075000D01*
X152868690Y-92147571D01*
X152687261Y-91458142D02*
X152687261Y-90950142D01*
X153322261Y-91276714D01*
X151544261Y-88845571D02*
X151544261Y-89208428D01*
X151846642Y-89244714D01*
X151816404Y-89208428D01*
X151786166Y-89135857D01*
X151786166Y-88954428D01*
X151816404Y-88881857D01*
X151846642Y-88845571D01*
X151907119Y-88809285D01*
X152058309Y-88809285D01*
X152118785Y-88845571D01*
X152149023Y-88881857D01*
X152179261Y-88954428D01*
X152179261Y-89135857D01*
X152149023Y-89208428D01*
X152118785Y-89244714D01*
X153322261Y-89299142D02*
X153322261Y-89734571D01*
X153322261Y-89516857D02*
X152687261Y-89516857D01*
X152777976Y-89589428D01*
X152838452Y-89662000D01*
X152868690Y-89734571D01*
X152959404Y-88863714D02*
X152929166Y-88936285D01*
X152898928Y-88972571D01*
X152838452Y-89008857D01*
X152808214Y-89008857D01*
X152747738Y-88972571D01*
X152717500Y-88936285D01*
X152687261Y-88863714D01*
X152687261Y-88718571D01*
X152717500Y-88646000D01*
X152747738Y-88609714D01*
X152808214Y-88573428D01*
X152838452Y-88573428D01*
X152898928Y-88609714D01*
X152929166Y-88646000D01*
X152959404Y-88718571D01*
X152959404Y-88863714D01*
X152989642Y-88936285D01*
X153019880Y-88972571D01*
X153080357Y-89008857D01*
X153201309Y-89008857D01*
X153261785Y-88972571D01*
X153292023Y-88936285D01*
X153322261Y-88863714D01*
X153322261Y-88718571D01*
X153292023Y-88646000D01*
X153261785Y-88609714D01*
X153201309Y-88573428D01*
X153080357Y-88573428D01*
X153019880Y-88609714D01*
X152989642Y-88646000D01*
X152959404Y-88718571D01*
X152179261Y-86632142D02*
X152179261Y-87067571D01*
X152179261Y-86849857D02*
X151544261Y-86849857D01*
X151634976Y-86922428D01*
X151695452Y-86995000D01*
X151725690Y-87067571D01*
X152179261Y-86269285D02*
X152179261Y-86124142D01*
X152149023Y-86051571D01*
X152118785Y-86015285D01*
X152028071Y-85942714D01*
X151907119Y-85906428D01*
X151665214Y-85906428D01*
X151604738Y-85942714D01*
X151574500Y-85979000D01*
X151544261Y-86051571D01*
X151544261Y-86196714D01*
X151574500Y-86269285D01*
X151604738Y-86305571D01*
X151665214Y-86341857D01*
X151816404Y-86341857D01*
X151876880Y-86305571D01*
X151907119Y-86269285D01*
X151937357Y-86196714D01*
X151937357Y-86051571D01*
X151907119Y-85979000D01*
X151876880Y-85942714D01*
X151816404Y-85906428D01*
X152747738Y-87067571D02*
X152717500Y-87031285D01*
X152687261Y-86958714D01*
X152687261Y-86777285D01*
X152717500Y-86704714D01*
X152747738Y-86668428D01*
X152808214Y-86632142D01*
X152868690Y-86632142D01*
X152959404Y-86668428D01*
X153322261Y-87103857D01*
X153322261Y-86632142D01*
X152687261Y-86160428D02*
X152687261Y-86087857D01*
X152717500Y-86015285D01*
X152747738Y-85979000D01*
X152808214Y-85942714D01*
X152929166Y-85906428D01*
X153080357Y-85906428D01*
X153201309Y-85942714D01*
X153261785Y-85979000D01*
X153292023Y-86015285D01*
X153322261Y-86087857D01*
X153322261Y-86160428D01*
X153292023Y-86233000D01*
X153261785Y-86269285D01*
X153201309Y-86305571D01*
X153080357Y-86341857D01*
X152929166Y-86341857D01*
X152808214Y-86305571D01*
X152747738Y-86269285D01*
X152717500Y-86233000D01*
X152687261Y-86160428D01*
X151604738Y-84527571D02*
X151574500Y-84491285D01*
X151544261Y-84418714D01*
X151544261Y-84237285D01*
X151574500Y-84164714D01*
X151604738Y-84128428D01*
X151665214Y-84092142D01*
X151725690Y-84092142D01*
X151816404Y-84128428D01*
X152179261Y-84563857D01*
X152179261Y-84092142D01*
X152179261Y-83366428D02*
X152179261Y-83801857D01*
X152179261Y-83584142D02*
X151544261Y-83584142D01*
X151634976Y-83656714D01*
X151695452Y-83729285D01*
X151725690Y-83801857D01*
X153322261Y-84455000D02*
X153019880Y-84709000D01*
X153322261Y-84890428D02*
X152687261Y-84890428D01*
X152687261Y-84600142D01*
X152717500Y-84527571D01*
X152747738Y-84491285D01*
X152808214Y-84455000D01*
X152898928Y-84455000D01*
X152959404Y-84491285D01*
X152989642Y-84527571D01*
X153019880Y-84600142D01*
X153019880Y-84890428D01*
X152687261Y-84201000D02*
X153322261Y-83693000D01*
X152687261Y-83693000D02*
X153322261Y-84201000D01*
X153322261Y-83402714D02*
X152687261Y-83402714D01*
X152687261Y-83221285D01*
X152717500Y-83112428D01*
X152777976Y-83039857D01*
X152838452Y-83003571D01*
X152959404Y-82967285D01*
X153050119Y-82967285D01*
X153171071Y-83003571D01*
X153231547Y-83039857D01*
X153292023Y-83112428D01*
X153322261Y-83221285D01*
X153322261Y-83402714D01*
X151544261Y-82368571D02*
X151544261Y-81933142D01*
X152179261Y-82150857D02*
X151544261Y-82150857D01*
X151544261Y-81751714D02*
X152179261Y-81243714D01*
X151544261Y-81243714D02*
X152179261Y-81751714D01*
X152179261Y-80953428D02*
X151544261Y-80953428D01*
X151544261Y-80772000D01*
X151574500Y-80663142D01*
X151634976Y-80590571D01*
X151695452Y-80554285D01*
X151816404Y-80518000D01*
X151907119Y-80518000D01*
X152028071Y-80554285D01*
X152088547Y-80590571D01*
X152149023Y-80663142D01*
X152179261Y-80772000D01*
X152179261Y-80953428D01*
X152747738Y-81860571D02*
X152717500Y-81824285D01*
X152687261Y-81751714D01*
X152687261Y-81570285D01*
X152717500Y-81497714D01*
X152747738Y-81461428D01*
X152808214Y-81425142D01*
X152868690Y-81425142D01*
X152959404Y-81461428D01*
X153322261Y-81896857D01*
X153322261Y-81425142D01*
X152747738Y-81134857D02*
X152717500Y-81098571D01*
X152687261Y-81026000D01*
X152687261Y-80844571D01*
X152717500Y-80772000D01*
X152747738Y-80735714D01*
X152808214Y-80699428D01*
X152868690Y-80699428D01*
X152959404Y-80735714D01*
X153322261Y-81171142D01*
X153322261Y-80699428D01*
X151604738Y-79447571D02*
X151574500Y-79411285D01*
X151544261Y-79338714D01*
X151544261Y-79157285D01*
X151574500Y-79084714D01*
X151604738Y-79048428D01*
X151665214Y-79012142D01*
X151725690Y-79012142D01*
X151816404Y-79048428D01*
X152179261Y-79483857D01*
X152179261Y-79012142D01*
X151544261Y-78758142D02*
X151544261Y-78286428D01*
X151786166Y-78540428D01*
X151786166Y-78431571D01*
X151816404Y-78359000D01*
X151846642Y-78322714D01*
X151907119Y-78286428D01*
X152058309Y-78286428D01*
X152118785Y-78322714D01*
X152149023Y-78359000D01*
X152179261Y-78431571D01*
X152179261Y-78649285D01*
X152149023Y-78721857D01*
X152118785Y-78758142D01*
X152717500Y-79320571D02*
X152687261Y-79393142D01*
X152687261Y-79502000D01*
X152717500Y-79610857D01*
X152777976Y-79683428D01*
X152838452Y-79719714D01*
X152959404Y-79756000D01*
X153050119Y-79756000D01*
X153171071Y-79719714D01*
X153231547Y-79683428D01*
X153292023Y-79610857D01*
X153322261Y-79502000D01*
X153322261Y-79429428D01*
X153292023Y-79320571D01*
X153261785Y-79284285D01*
X153050119Y-79284285D01*
X153050119Y-79429428D01*
X153322261Y-78957714D02*
X152687261Y-78957714D01*
X153322261Y-78522285D01*
X152687261Y-78522285D01*
X153322261Y-78159428D02*
X152687261Y-78159428D01*
X152687261Y-77978000D01*
X152717500Y-77869142D01*
X152777976Y-77796571D01*
X152838452Y-77760285D01*
X152959404Y-77724000D01*
X153050119Y-77724000D01*
X153171071Y-77760285D01*
X153231547Y-77796571D01*
X153292023Y-77869142D01*
X153322261Y-77978000D01*
X153322261Y-78159428D01*
X127408214Y-101273428D02*
X127377976Y-101237142D01*
X127347738Y-101128285D01*
X127347738Y-101055714D01*
X127377976Y-100946857D01*
X127438452Y-100874285D01*
X127498928Y-100838000D01*
X127619880Y-100801714D01*
X127710595Y-100801714D01*
X127831547Y-100838000D01*
X127892023Y-100874285D01*
X127952500Y-100946857D01*
X127982738Y-101055714D01*
X127982738Y-101128285D01*
X127952500Y-101237142D01*
X127922261Y-101273428D01*
X127347738Y-101962857D02*
X127347738Y-101600000D01*
X127982738Y-101600000D01*
X127347738Y-102216857D02*
X127982738Y-102216857D01*
X127347738Y-102652285D02*
X127710595Y-102325714D01*
X127982738Y-102652285D02*
X127619880Y-102216857D01*
X126138214Y-101146428D02*
X126107976Y-101110142D01*
X126077738Y-101001285D01*
X126077738Y-100928714D01*
X126107976Y-100819857D01*
X126168452Y-100747285D01*
X126228928Y-100711000D01*
X126349880Y-100674714D01*
X126440595Y-100674714D01*
X126561547Y-100711000D01*
X126622023Y-100747285D01*
X126682500Y-100819857D01*
X126712738Y-100928714D01*
X126712738Y-101001285D01*
X126682500Y-101110142D01*
X126652261Y-101146428D01*
X126077738Y-101473000D02*
X126712738Y-101473000D01*
X126259166Y-101727000D01*
X126712738Y-101981000D01*
X126077738Y-101981000D01*
X126077738Y-102343857D02*
X126712738Y-102343857D01*
X126712738Y-102525285D01*
X126682500Y-102634142D01*
X126622023Y-102706714D01*
X126561547Y-102743000D01*
X126440595Y-102779285D01*
X126349880Y-102779285D01*
X126228928Y-102743000D01*
X126168452Y-102706714D01*
X126107976Y-102634142D01*
X126077738Y-102525285D01*
X126077738Y-102343857D01*
X127377976Y-98098428D02*
X127347738Y-98207285D01*
X127347738Y-98388714D01*
X127377976Y-98461285D01*
X127408214Y-98497571D01*
X127468690Y-98533857D01*
X127529166Y-98533857D01*
X127589642Y-98497571D01*
X127619880Y-98461285D01*
X127650119Y-98388714D01*
X127680357Y-98243571D01*
X127710595Y-98171000D01*
X127740833Y-98134714D01*
X127801309Y-98098428D01*
X127861785Y-98098428D01*
X127922261Y-98134714D01*
X127952500Y-98171000D01*
X127982738Y-98243571D01*
X127982738Y-98425000D01*
X127952500Y-98533857D01*
X127347738Y-98860428D02*
X127982738Y-98860428D01*
X127982738Y-99041857D01*
X127952500Y-99150714D01*
X127892023Y-99223285D01*
X127831547Y-99259571D01*
X127710595Y-99295857D01*
X127619880Y-99295857D01*
X127498928Y-99259571D01*
X127438452Y-99223285D01*
X127377976Y-99150714D01*
X127347738Y-99041857D01*
X127347738Y-98860428D01*
X127982738Y-99549857D02*
X127982738Y-100021571D01*
X127740833Y-99767571D01*
X127740833Y-99876428D01*
X127710595Y-99949000D01*
X127680357Y-99985285D01*
X127619880Y-100021571D01*
X127468690Y-100021571D01*
X127408214Y-99985285D01*
X127377976Y-99949000D01*
X127347738Y-99876428D01*
X127347738Y-99658714D01*
X127377976Y-99586142D01*
X127408214Y-99549857D01*
X126107976Y-98098428D02*
X126077738Y-98207285D01*
X126077738Y-98388714D01*
X126107976Y-98461285D01*
X126138214Y-98497571D01*
X126198690Y-98533857D01*
X126259166Y-98533857D01*
X126319642Y-98497571D01*
X126349880Y-98461285D01*
X126380119Y-98388714D01*
X126410357Y-98243571D01*
X126440595Y-98171000D01*
X126470833Y-98134714D01*
X126531309Y-98098428D01*
X126591785Y-98098428D01*
X126652261Y-98134714D01*
X126682500Y-98171000D01*
X126712738Y-98243571D01*
X126712738Y-98425000D01*
X126682500Y-98533857D01*
X126077738Y-98860428D02*
X126712738Y-98860428D01*
X126712738Y-99041857D01*
X126682500Y-99150714D01*
X126622023Y-99223285D01*
X126561547Y-99259571D01*
X126440595Y-99295857D01*
X126349880Y-99295857D01*
X126228928Y-99259571D01*
X126168452Y-99223285D01*
X126107976Y-99150714D01*
X126077738Y-99041857D01*
X126077738Y-98860428D01*
X126652261Y-99586142D02*
X126682500Y-99622428D01*
X126712738Y-99695000D01*
X126712738Y-99876428D01*
X126682500Y-99949000D01*
X126652261Y-99985285D01*
X126591785Y-100021571D01*
X126531309Y-100021571D01*
X126440595Y-99985285D01*
X126077738Y-99549857D01*
X126077738Y-100021571D01*
X127347738Y-96501857D02*
X127347738Y-96066428D01*
X127347738Y-96284142D02*
X127982738Y-96284142D01*
X127892023Y-96211571D01*
X127831547Y-96139000D01*
X127801309Y-96066428D01*
X127982738Y-96755857D02*
X127982738Y-97227571D01*
X127740833Y-96973571D01*
X127740833Y-97082428D01*
X127710595Y-97155000D01*
X127680357Y-97191285D01*
X127619880Y-97227571D01*
X127468690Y-97227571D01*
X127408214Y-97191285D01*
X127377976Y-97155000D01*
X127347738Y-97082428D01*
X127347738Y-96864714D01*
X127377976Y-96792142D01*
X127408214Y-96755857D01*
X126682500Y-95939428D02*
X126712738Y-95866857D01*
X126712738Y-95758000D01*
X126682500Y-95649142D01*
X126622023Y-95576571D01*
X126561547Y-95540285D01*
X126440595Y-95504000D01*
X126349880Y-95504000D01*
X126228928Y-95540285D01*
X126168452Y-95576571D01*
X126107976Y-95649142D01*
X126077738Y-95758000D01*
X126077738Y-95830571D01*
X126107976Y-95939428D01*
X126138214Y-95975714D01*
X126349880Y-95975714D01*
X126349880Y-95830571D01*
X126077738Y-96302285D02*
X126712738Y-96302285D01*
X126077738Y-96737714D01*
X126712738Y-96737714D01*
X126077738Y-97100571D02*
X126712738Y-97100571D01*
X126712738Y-97282000D01*
X126682500Y-97390857D01*
X126622023Y-97463428D01*
X126561547Y-97499714D01*
X126440595Y-97536000D01*
X126349880Y-97536000D01*
X126228928Y-97499714D01*
X126168452Y-97463428D01*
X126107976Y-97390857D01*
X126077738Y-97282000D01*
X126077738Y-97100571D01*
X127347738Y-93961857D02*
X127347738Y-93526428D01*
X127347738Y-93744142D02*
X127982738Y-93744142D01*
X127892023Y-93671571D01*
X127831547Y-93599000D01*
X127801309Y-93526428D01*
X127922261Y-94252142D02*
X127952500Y-94288428D01*
X127982738Y-94361000D01*
X127982738Y-94542428D01*
X127952500Y-94615000D01*
X127922261Y-94651285D01*
X127861785Y-94687571D01*
X127801309Y-94687571D01*
X127710595Y-94651285D01*
X127347738Y-94215857D01*
X127347738Y-94687571D01*
X126077738Y-93961857D02*
X126077738Y-93526428D01*
X126077738Y-93744142D02*
X126712738Y-93744142D01*
X126622023Y-93671571D01*
X126561547Y-93599000D01*
X126531309Y-93526428D01*
X126501071Y-94615000D02*
X126077738Y-94615000D01*
X126742976Y-94433571D02*
X126289404Y-94252142D01*
X126289404Y-94723857D01*
X127922261Y-90986428D02*
X127952500Y-91022714D01*
X127982738Y-91095285D01*
X127982738Y-91276714D01*
X127952500Y-91349285D01*
X127922261Y-91385571D01*
X127861785Y-91421857D01*
X127801309Y-91421857D01*
X127710595Y-91385571D01*
X127347738Y-90950142D01*
X127347738Y-91421857D01*
X127982738Y-91675857D02*
X127982738Y-92183857D01*
X127347738Y-91857285D01*
X126652261Y-90986428D02*
X126682500Y-91022714D01*
X126712738Y-91095285D01*
X126712738Y-91276714D01*
X126682500Y-91349285D01*
X126652261Y-91385571D01*
X126591785Y-91421857D01*
X126531309Y-91421857D01*
X126440595Y-91385571D01*
X126077738Y-90950142D01*
X126077738Y-91421857D01*
X126712738Y-92075000D02*
X126712738Y-91929857D01*
X126682500Y-91857285D01*
X126652261Y-91821000D01*
X126561547Y-91748428D01*
X126440595Y-91712142D01*
X126198690Y-91712142D01*
X126138214Y-91748428D01*
X126107976Y-91784714D01*
X126077738Y-91857285D01*
X126077738Y-92002428D01*
X126107976Y-92075000D01*
X126138214Y-92111285D01*
X126198690Y-92147571D01*
X126349880Y-92147571D01*
X126410357Y-92111285D01*
X126440595Y-92075000D01*
X126470833Y-92002428D01*
X126470833Y-91857285D01*
X126440595Y-91784714D01*
X126410357Y-91748428D01*
X126349880Y-91712142D01*
X127922261Y-88446428D02*
X127952500Y-88482714D01*
X127982738Y-88555285D01*
X127982738Y-88736714D01*
X127952500Y-88809285D01*
X127922261Y-88845571D01*
X127861785Y-88881857D01*
X127801309Y-88881857D01*
X127710595Y-88845571D01*
X127347738Y-88410142D01*
X127347738Y-88881857D01*
X127982738Y-89571285D02*
X127982738Y-89208428D01*
X127680357Y-89172142D01*
X127710595Y-89208428D01*
X127740833Y-89281000D01*
X127740833Y-89462428D01*
X127710595Y-89535000D01*
X127680357Y-89571285D01*
X127619880Y-89607571D01*
X127468690Y-89607571D01*
X127408214Y-89571285D01*
X127377976Y-89535000D01*
X127347738Y-89462428D01*
X127347738Y-89281000D01*
X127377976Y-89208428D01*
X127408214Y-89172142D01*
X126712738Y-88410142D02*
X126712738Y-88881857D01*
X126470833Y-88627857D01*
X126470833Y-88736714D01*
X126440595Y-88809285D01*
X126410357Y-88845571D01*
X126349880Y-88881857D01*
X126198690Y-88881857D01*
X126138214Y-88845571D01*
X126107976Y-88809285D01*
X126077738Y-88736714D01*
X126077738Y-88519000D01*
X126107976Y-88446428D01*
X126138214Y-88410142D01*
X126712738Y-89135857D02*
X126712738Y-89607571D01*
X126470833Y-89353571D01*
X126470833Y-89462428D01*
X126440595Y-89535000D01*
X126410357Y-89571285D01*
X126349880Y-89607571D01*
X126198690Y-89607571D01*
X126138214Y-89571285D01*
X126107976Y-89535000D01*
X126077738Y-89462428D01*
X126077738Y-89244714D01*
X126107976Y-89172142D01*
X126138214Y-89135857D01*
X127982738Y-85870142D02*
X127982738Y-86341857D01*
X127740833Y-86087857D01*
X127740833Y-86196714D01*
X127710595Y-86269285D01*
X127680357Y-86305571D01*
X127619880Y-86341857D01*
X127468690Y-86341857D01*
X127408214Y-86305571D01*
X127377976Y-86269285D01*
X127347738Y-86196714D01*
X127347738Y-85979000D01*
X127377976Y-85906428D01*
X127408214Y-85870142D01*
X127922261Y-86632142D02*
X127952500Y-86668428D01*
X127982738Y-86741000D01*
X127982738Y-86922428D01*
X127952500Y-86995000D01*
X127922261Y-87031285D01*
X127861785Y-87067571D01*
X127801309Y-87067571D01*
X127710595Y-87031285D01*
X127347738Y-86595857D01*
X127347738Y-87067571D01*
X126712738Y-85870142D02*
X126712738Y-86341857D01*
X126470833Y-86087857D01*
X126470833Y-86196714D01*
X126440595Y-86269285D01*
X126410357Y-86305571D01*
X126349880Y-86341857D01*
X126198690Y-86341857D01*
X126138214Y-86305571D01*
X126107976Y-86269285D01*
X126077738Y-86196714D01*
X126077738Y-85979000D01*
X126107976Y-85906428D01*
X126138214Y-85870142D01*
X126712738Y-87031285D02*
X126712738Y-86668428D01*
X126410357Y-86632142D01*
X126440595Y-86668428D01*
X126470833Y-86741000D01*
X126470833Y-86922428D01*
X126440595Y-86995000D01*
X126410357Y-87031285D01*
X126349880Y-87067571D01*
X126198690Y-87067571D01*
X126138214Y-87031285D01*
X126107976Y-86995000D01*
X126077738Y-86922428D01*
X126077738Y-86741000D01*
X126107976Y-86668428D01*
X126138214Y-86632142D01*
X127982738Y-83330142D02*
X127982738Y-83801857D01*
X127740833Y-83547857D01*
X127740833Y-83656714D01*
X127710595Y-83729285D01*
X127680357Y-83765571D01*
X127619880Y-83801857D01*
X127468690Y-83801857D01*
X127408214Y-83765571D01*
X127377976Y-83729285D01*
X127347738Y-83656714D01*
X127347738Y-83439000D01*
X127377976Y-83366428D01*
X127408214Y-83330142D01*
X127771071Y-84455000D02*
X127347738Y-84455000D01*
X128012976Y-84273571D02*
X127559404Y-84092142D01*
X127559404Y-84563857D01*
X126107976Y-82876571D02*
X126077738Y-82985428D01*
X126077738Y-83166857D01*
X126107976Y-83239428D01*
X126138214Y-83275714D01*
X126198690Y-83312000D01*
X126259166Y-83312000D01*
X126319642Y-83275714D01*
X126349880Y-83239428D01*
X126380119Y-83166857D01*
X126410357Y-83021714D01*
X126440595Y-82949142D01*
X126470833Y-82912857D01*
X126531309Y-82876571D01*
X126591785Y-82876571D01*
X126652261Y-82912857D01*
X126682500Y-82949142D01*
X126712738Y-83021714D01*
X126712738Y-83203142D01*
X126682500Y-83312000D01*
X126712738Y-83529714D02*
X126077738Y-83783714D01*
X126712738Y-84037714D01*
X126077738Y-84291714D02*
X126712738Y-84291714D01*
X126077738Y-84727142D01*
X126712738Y-84727142D01*
X127377976Y-80481714D02*
X127347738Y-80590571D01*
X127347738Y-80772000D01*
X127377976Y-80844571D01*
X127408214Y-80880857D01*
X127468690Y-80917142D01*
X127529166Y-80917142D01*
X127589642Y-80880857D01*
X127619880Y-80844571D01*
X127650119Y-80772000D01*
X127680357Y-80626857D01*
X127710595Y-80554285D01*
X127740833Y-80518000D01*
X127801309Y-80481714D01*
X127861785Y-80481714D01*
X127922261Y-80518000D01*
X127952500Y-80554285D01*
X127982738Y-80626857D01*
X127982738Y-80808285D01*
X127952500Y-80917142D01*
X127982738Y-81134857D02*
X127347738Y-81388857D01*
X127982738Y-81642857D01*
X127347738Y-81896857D02*
X127982738Y-81896857D01*
X127982738Y-82187142D01*
X127952500Y-82259714D01*
X127922261Y-82296000D01*
X127861785Y-82332285D01*
X127771071Y-82332285D01*
X127710595Y-82296000D01*
X127680357Y-82259714D01*
X127650119Y-82187142D01*
X127650119Y-81896857D01*
X126410357Y-80844571D02*
X126410357Y-81098571D01*
X126077738Y-81207428D02*
X126077738Y-80844571D01*
X126712738Y-80844571D01*
X126712738Y-81207428D01*
X126077738Y-81534000D02*
X126712738Y-81534000D01*
X126077738Y-81969428D01*
X126712738Y-81969428D01*
X126682500Y-78159428D02*
X126712738Y-78086857D01*
X126712738Y-77978000D01*
X126682500Y-77869142D01*
X126622023Y-77796571D01*
X126561547Y-77760285D01*
X126440595Y-77724000D01*
X126349880Y-77724000D01*
X126228928Y-77760285D01*
X126168452Y-77796571D01*
X126107976Y-77869142D01*
X126077738Y-77978000D01*
X126077738Y-78050571D01*
X126107976Y-78159428D01*
X126138214Y-78195714D01*
X126349880Y-78195714D01*
X126349880Y-78050571D01*
X126077738Y-78522285D02*
X126712738Y-78522285D01*
X126077738Y-78957714D01*
X126712738Y-78957714D01*
X126077738Y-79320571D02*
X126712738Y-79320571D01*
X126712738Y-79502000D01*
X126682500Y-79610857D01*
X126622023Y-79683428D01*
X126561547Y-79719714D01*
X126440595Y-79756000D01*
X126349880Y-79756000D01*
X126228928Y-79719714D01*
X126168452Y-79683428D01*
X126107976Y-79610857D01*
X126077738Y-79502000D01*
X126077738Y-79320571D01*
X128109738Y-77832857D02*
X128109738Y-78304571D01*
X127867833Y-78050571D01*
X127867833Y-78159428D01*
X127837595Y-78232000D01*
X127807357Y-78268285D01*
X127746880Y-78304571D01*
X127595690Y-78304571D01*
X127535214Y-78268285D01*
X127504976Y-78232000D01*
X127474738Y-78159428D01*
X127474738Y-77941714D01*
X127504976Y-77869142D01*
X127535214Y-77832857D01*
X127898071Y-78558571D02*
X127474738Y-78740000D01*
X127898071Y-78921428D01*
X128109738Y-79139142D02*
X128109738Y-79610857D01*
X127867833Y-79356857D01*
X127867833Y-79465714D01*
X127837595Y-79538285D01*
X127807357Y-79574571D01*
X127746880Y-79610857D01*
X127595690Y-79610857D01*
X127535214Y-79574571D01*
X127504976Y-79538285D01*
X127474738Y-79465714D01*
X127474738Y-79248000D01*
X127504976Y-79175428D01*
X127535214Y-79139142D01*
D11*
X151384000Y-80010000D02*
X151384000Y-80010000D01*
X153543000Y-80010000D02*
X151384000Y-80010000D01*
X151384000Y-82677000D02*
X151384000Y-82677000D01*
X153543000Y-82677000D02*
X151384000Y-82677000D01*
X151384000Y-85090000D02*
X151384000Y-85090000D01*
X153543000Y-85090000D02*
X151384000Y-85090000D01*
X151384000Y-87757000D02*
X151384000Y-87757000D01*
X153543000Y-87757000D02*
X151384000Y-87757000D01*
X151384000Y-90170000D02*
X151384000Y-90170000D01*
X153543000Y-90170000D02*
X151384000Y-90170000D01*
X151384000Y-92964000D02*
X151384000Y-92964000D01*
X153543000Y-92964000D02*
X151384000Y-92964000D01*
X151384000Y-95504000D02*
X151384000Y-95504000D01*
X153543000Y-95504000D02*
X151384000Y-95504000D01*
X151384000Y-97917000D02*
X151384000Y-97917000D01*
X153543000Y-97917000D02*
X151384000Y-97917000D01*
X151384000Y-100457000D02*
X151384000Y-100457000D01*
X153543000Y-100457000D02*
X151384000Y-100457000D01*
X128397000Y-80010000D02*
X128397000Y-80010000D01*
X125857000Y-80010000D02*
X128397000Y-80010000D01*
X128397000Y-82550000D02*
X128397000Y-82550000D01*
X125857000Y-82550000D02*
X128397000Y-82550000D01*
X128397000Y-85090000D02*
X128397000Y-85090000D01*
X125857000Y-85090000D02*
X128397000Y-85090000D01*
X128397000Y-87630000D02*
X128397000Y-87630000D01*
X125857000Y-87630000D02*
X128397000Y-87630000D01*
X128397000Y-90170000D02*
X128397000Y-90170000D01*
X125857000Y-90170000D02*
X128397000Y-90170000D01*
X128397000Y-92710000D02*
X128397000Y-92710000D01*
X125857000Y-92710000D02*
X128397000Y-92710000D01*
X128397000Y-95250000D02*
X128397000Y-95250000D01*
X125857000Y-95250000D02*
X128397000Y-95250000D01*
X128397000Y-97790000D02*
X128397000Y-97790000D01*
X125857000Y-97790000D02*
X128397000Y-97790000D01*
X128397000Y-100330000D02*
X128397000Y-100330000D01*
X125857000Y-100330000D02*
X128397000Y-100330000D01*
X127127000Y-102997000D02*
X127127000Y-102997000D01*
X127127000Y-77343000D02*
X127127000Y-102997000D01*
X152400000Y-102997000D02*
X152400000Y-102997000D01*
X152400000Y-77343000D02*
X152400000Y-102997000D01*
X153543000Y-77343000D02*
X153543000Y-77343000D01*
X153543000Y-102997000D02*
X153543000Y-77343000D01*
X151384000Y-102997000D02*
X153543000Y-102997000D01*
X151384000Y-77343000D02*
X151384000Y-102997000D01*
X153543000Y-77343000D02*
X151384000Y-77343000D01*
X125857000Y-77343000D02*
X125857000Y-77343000D01*
X125857000Y-102997000D02*
X125857000Y-77343000D01*
X128397000Y-102997000D02*
X125857000Y-102997000D01*
X128397000Y-77343000D02*
X128397000Y-102997000D01*
X125857000Y-77343000D02*
X128397000Y-77343000D01*
D12*
X148974000Y-70333500D02*
X148974000Y-70333500D01*
D13*
X120530000Y-77350000D02*
X121920000Y-77350000D01*
X120530000Y-78740000D02*
X120530000Y-77350000D01*
X123190000Y-80010000D02*
X120530000Y-80010000D01*
X123190000Y-77350000D02*
X123190000Y-80010000D01*
X125850000Y-77350000D02*
X123190000Y-77350000D01*
X125850000Y-102990000D02*
X125850000Y-77350000D01*
X120530000Y-102990000D02*
X125850000Y-102990000D01*
X120530000Y-80010000D02*
X120530000Y-102990000D01*
X153550000Y-80010000D02*
X153550000Y-102990000D01*
X153550000Y-102990000D02*
X158870000Y-102990000D01*
X158870000Y-102990000D02*
X158870000Y-77350000D01*
X158870000Y-77350000D02*
X156210000Y-77350000D01*
X156210000Y-77350000D02*
X156210000Y-80010000D01*
X156210000Y-80010000D02*
X153550000Y-80010000D01*
X153550000Y-78740000D02*
X153550000Y-77350000D01*
X153550000Y-77350000D02*
X154940000Y-77350000D01*
D12*
X130512095Y-96285880D02*
X130512095Y-97095404D01*
X130559714Y-97190642D01*
X130607333Y-97238261D01*
X130702571Y-97285880D01*
X130893047Y-97285880D01*
X130988285Y-97238261D01*
X131035904Y-97190642D01*
X131083523Y-97095404D01*
X131083523Y-96285880D01*
X132083523Y-97285880D02*
X131512095Y-97285880D01*
X131797809Y-97285880D02*
X131797809Y-96285880D01*
X131702571Y-96428738D01*
X131607333Y-96523976D01*
X131512095Y-96571595D01*
X122856666Y-75802380D02*
X122856666Y-76516666D01*
X122809047Y-76659523D01*
X122713809Y-76754761D01*
X122570952Y-76802380D01*
X122475714Y-76802380D01*
X123285238Y-75897619D02*
X123332857Y-75850000D01*
X123428095Y-75802380D01*
X123666190Y-75802380D01*
X123761428Y-75850000D01*
X123809047Y-75897619D01*
X123856666Y-75992857D01*
X123856666Y-76088095D01*
X123809047Y-76230952D01*
X123237619Y-76802380D01*
X123856666Y-76802380D01*
X155876666Y-75802380D02*
X155876666Y-76516666D01*
X155829047Y-76659523D01*
X155733809Y-76754761D01*
X155590952Y-76802380D01*
X155495714Y-76802380D01*
X156876666Y-76802380D02*
X156305238Y-76802380D01*
X156590952Y-76802380D02*
X156590952Y-75802380D01*
X156495714Y-75945238D01*
X156400476Y-76040476D01*
X156305238Y-76088095D01*
M02*
