G04 #@! TF.FileFunction,Copper,L1,Top,Signal*
%FSLAX46Y46*%
G04 Gerber Fmt 4.6, Leading zero omitted, Abs format (unit mm)*
G04 Created by KiCad (PCBNEW 4.0.6-e0-6349~53~ubuntu16.04.1) date Fri Apr 21 00:48:36 2017*
%MOMM*%
%LPD*%
G01*
G04 APERTURE LIST*
%ADD10C,0.100000*%
%ADD11R,2.800000X1.500000*%
%ADD12C,3.000000*%
%ADD13C,1.400000*%
%ADD14O,1.400000X1.400000*%
%ADD15C,3.500000*%
%ADD16C,0.250000*%
%ADD17C,0.254000*%
G04 APERTURE END LIST*
D10*
D11*
X87376000Y-76606400D03*
X87376000Y-78943200D03*
X87376000Y-81178400D03*
X91744800Y-81178400D03*
X91744800Y-78943200D03*
X91744800Y-76606400D03*
X100076000Y-76606400D03*
X100076000Y-78943200D03*
X100076000Y-81178400D03*
X104444800Y-81178400D03*
X104444800Y-78943200D03*
X104444800Y-76606400D03*
X112776000Y-76606400D03*
X112776000Y-78943200D03*
X112776000Y-81178400D03*
X117144800Y-81178400D03*
X117144800Y-78943200D03*
X117144800Y-76606400D03*
X125476000Y-76606400D03*
X125476000Y-78943200D03*
X125476000Y-81178400D03*
X129844800Y-81178400D03*
X129844800Y-78943200D03*
X129844800Y-76606400D03*
X138176000Y-76606400D03*
X138176000Y-78943200D03*
X138176000Y-81178400D03*
X142544800Y-81178400D03*
X142544800Y-78943200D03*
X142544800Y-76606400D03*
X150876000Y-76606400D03*
X150876000Y-78943200D03*
X150876000Y-81178400D03*
X155244800Y-81178400D03*
X155244800Y-78943200D03*
X155244800Y-76606400D03*
X164084000Y-76606400D03*
X164084000Y-78943200D03*
X164084000Y-81178400D03*
X168452800Y-81178400D03*
X168452800Y-78943200D03*
X168452800Y-76606400D03*
X176784000Y-76606400D03*
X176784000Y-78943200D03*
X176784000Y-81178400D03*
X181152800Y-81178400D03*
X181152800Y-78943200D03*
X181152800Y-76606400D03*
D12*
X188722000Y-75692000D03*
X82804000Y-78232000D03*
D13*
X96012000Y-82804000D03*
D14*
X96012000Y-75184000D03*
D13*
X108458000Y-82804000D03*
D14*
X108458000Y-75184000D03*
D13*
X121412000Y-82804000D03*
D14*
X121412000Y-75184000D03*
D13*
X134112000Y-82804000D03*
D14*
X134112000Y-75184000D03*
D13*
X147066000Y-82804000D03*
D14*
X147066000Y-75184000D03*
D13*
X159512000Y-82804000D03*
D14*
X159512000Y-75184000D03*
D13*
X172720000Y-82804000D03*
D14*
X172720000Y-75184000D03*
D13*
X185420000Y-82804000D03*
D14*
X185420000Y-75184000D03*
D15*
X83058000Y-82296000D03*
X188849000Y-81788000D03*
D16*
X87376000Y-81178400D02*
X87376000Y-78943200D01*
X87376000Y-78943200D02*
X87376000Y-76606400D01*
X87376000Y-81178400D02*
X87376000Y-83058000D01*
X87503000Y-83185000D02*
X95631000Y-83185000D01*
X87376000Y-83058000D02*
X87503000Y-83185000D01*
X95631000Y-83185000D02*
X96012000Y-82804000D01*
X168452800Y-76606400D02*
X168452800Y-78943200D01*
X168452800Y-78943200D02*
X168452800Y-81178400D01*
X155244800Y-76606400D02*
X155244800Y-78943200D01*
X155244800Y-78943200D02*
X155244800Y-81178400D01*
X142544800Y-76606400D02*
X142544800Y-78943200D01*
X142544800Y-78943200D02*
X142544800Y-81178400D01*
X129844800Y-76606400D02*
X129844800Y-78943200D01*
X129844800Y-78943200D02*
X129844800Y-81178400D01*
X117144800Y-76606400D02*
X117144800Y-78943200D01*
X117144800Y-78943200D02*
X117144800Y-81178400D01*
X104444800Y-76606400D02*
X104444800Y-78943200D01*
X104444800Y-78943200D02*
X104444800Y-81178400D01*
X82804000Y-78232000D02*
X82804000Y-75184000D01*
X91744800Y-75361800D02*
X91744800Y-78943200D01*
X91313000Y-74930000D02*
X91744800Y-75361800D01*
X83058000Y-74930000D02*
X91313000Y-74930000D01*
X82804000Y-75184000D02*
X83058000Y-74930000D01*
X91744800Y-78943200D02*
X91744800Y-81178400D01*
X100076000Y-81178400D02*
X100076000Y-82804000D01*
X100076000Y-82804000D02*
X108458000Y-82804000D01*
X100076000Y-81178400D02*
X100076000Y-78943200D01*
X100076000Y-78943200D02*
X100076000Y-76606400D01*
X112776000Y-81178400D02*
X112776000Y-82804000D01*
X113030000Y-83058000D02*
X121158000Y-83058000D01*
X112776000Y-82804000D02*
X113030000Y-83058000D01*
X121158000Y-83058000D02*
X121412000Y-82804000D01*
X112776000Y-76606400D02*
X112776000Y-78943200D01*
X112776000Y-78943200D02*
X112776000Y-81178400D01*
X125476000Y-81178400D02*
X125476000Y-82550000D01*
X125730000Y-82804000D02*
X134112000Y-82804000D01*
X125476000Y-82550000D02*
X125730000Y-82804000D01*
X125476000Y-76606400D02*
X125476000Y-78943200D01*
X125476000Y-78943200D02*
X125476000Y-81178400D01*
X138176000Y-81178400D02*
X138176000Y-82804000D01*
X138176000Y-82804000D02*
X147066000Y-82804000D01*
X138176000Y-76606400D02*
X138176000Y-78943200D01*
X138176000Y-78943200D02*
X138176000Y-81178400D01*
X150876000Y-81178400D02*
X150876000Y-82550000D01*
X151130000Y-82804000D02*
X159512000Y-82804000D01*
X150876000Y-82550000D02*
X151130000Y-82804000D01*
X150876000Y-76606400D02*
X150876000Y-78943200D01*
X150876000Y-78943200D02*
X150876000Y-81178400D01*
X164084000Y-76606400D02*
X164084000Y-78943200D01*
X164084000Y-78943200D02*
X164084000Y-81178400D01*
X164084000Y-81178400D02*
X164084000Y-82804000D01*
X164084000Y-82804000D02*
X172720000Y-82804000D01*
X176784000Y-81178400D02*
X176784000Y-82550000D01*
X177038000Y-82804000D02*
X185420000Y-82804000D01*
X176784000Y-82550000D02*
X177038000Y-82804000D01*
X176784000Y-76606400D02*
X176784000Y-78943200D01*
X176784000Y-78943200D02*
X176784000Y-81178400D01*
X185420000Y-75184000D02*
X188214000Y-75184000D01*
X188214000Y-75184000D02*
X188722000Y-75692000D01*
X172720000Y-74422000D02*
X185420000Y-74422000D01*
X185420000Y-74422000D02*
X185420000Y-75184000D01*
X159512000Y-74422000D02*
X172720000Y-74422000D01*
X172720000Y-74422000D02*
X172720000Y-75184000D01*
X147066000Y-74422000D02*
X159512000Y-74422000D01*
X159512000Y-74422000D02*
X159512000Y-75184000D01*
X134112000Y-74422000D02*
X147066000Y-74422000D01*
X147066000Y-74422000D02*
X147066000Y-75184000D01*
X121412000Y-74422000D02*
X134112000Y-74422000D01*
X134112000Y-74422000D02*
X134112000Y-75184000D01*
X108458000Y-74422000D02*
X121412000Y-74422000D01*
X121412000Y-74422000D02*
X121412000Y-75184000D01*
X96012000Y-75184000D02*
X96774000Y-74422000D01*
X108458000Y-74422000D02*
X108458000Y-75184000D01*
X96774000Y-74422000D02*
X108458000Y-74422000D01*
D17*
G36*
X94778621Y-74646964D02*
X94677000Y-75157846D01*
X94677000Y-75210154D01*
X94778621Y-75721036D01*
X95068012Y-76154142D01*
X95501118Y-76443533D01*
X96012000Y-76545154D01*
X96522882Y-76443533D01*
X96955988Y-76154142D01*
X97154932Y-75856400D01*
X98028560Y-75856400D01*
X98028560Y-77356400D01*
X98072838Y-77591717D01*
X98191954Y-77776829D01*
X98079569Y-77941310D01*
X98028560Y-78193200D01*
X98028560Y-79693200D01*
X98072838Y-79928517D01*
X98158285Y-80061305D01*
X98079569Y-80176510D01*
X98028560Y-80428400D01*
X98028560Y-81928400D01*
X98072838Y-82163717D01*
X98211910Y-82379841D01*
X98424110Y-82524831D01*
X98676000Y-82575840D01*
X99316000Y-82575840D01*
X99316000Y-82804000D01*
X99373852Y-83094839D01*
X99538599Y-83341401D01*
X99785161Y-83506148D01*
X100076000Y-83564000D01*
X107330345Y-83564000D01*
X107700796Y-83935098D01*
X108191287Y-84138768D01*
X108722383Y-84139231D01*
X109213229Y-83936418D01*
X109589098Y-83561204D01*
X109792768Y-83070713D01*
X109793231Y-82539617D01*
X109590418Y-82048771D01*
X109215204Y-81672902D01*
X108724713Y-81469232D01*
X108193617Y-81468769D01*
X107702771Y-81671582D01*
X107329703Y-82044000D01*
X106479800Y-82044000D01*
X106479800Y-81464150D01*
X106321050Y-81305400D01*
X104571800Y-81305400D01*
X104571800Y-81325400D01*
X104317800Y-81325400D01*
X104317800Y-81305400D01*
X102568550Y-81305400D01*
X102409800Y-81464150D01*
X102409800Y-82044000D01*
X102100030Y-82044000D01*
X102123440Y-81928400D01*
X102123440Y-80428400D01*
X102079162Y-80193083D01*
X101993715Y-80060295D01*
X102072431Y-79945090D01*
X102123440Y-79693200D01*
X102123440Y-79228950D01*
X102409800Y-79228950D01*
X102409800Y-79819509D01*
X102506473Y-80052898D01*
X102514375Y-80060800D01*
X102506473Y-80068702D01*
X102409800Y-80302091D01*
X102409800Y-80892650D01*
X102568550Y-81051400D01*
X104317800Y-81051400D01*
X104317800Y-79070200D01*
X104571800Y-79070200D01*
X104571800Y-81051400D01*
X106321050Y-81051400D01*
X106479800Y-80892650D01*
X106479800Y-80302091D01*
X106383127Y-80068702D01*
X106375225Y-80060800D01*
X106383127Y-80052898D01*
X106479800Y-79819509D01*
X106479800Y-79228950D01*
X106321050Y-79070200D01*
X104571800Y-79070200D01*
X104317800Y-79070200D01*
X102568550Y-79070200D01*
X102409800Y-79228950D01*
X102123440Y-79228950D01*
X102123440Y-78193200D01*
X102079162Y-77957883D01*
X101960046Y-77772771D01*
X102072431Y-77608290D01*
X102123440Y-77356400D01*
X102123440Y-76892150D01*
X102409800Y-76892150D01*
X102409800Y-77482709D01*
X102506473Y-77716098D01*
X102565175Y-77774800D01*
X102506473Y-77833502D01*
X102409800Y-78066891D01*
X102409800Y-78657450D01*
X102568550Y-78816200D01*
X104317800Y-78816200D01*
X104317800Y-76733400D01*
X104571800Y-76733400D01*
X104571800Y-78816200D01*
X106321050Y-78816200D01*
X106479800Y-78657450D01*
X106479800Y-78066891D01*
X106383127Y-77833502D01*
X106324425Y-77774800D01*
X106383127Y-77716098D01*
X106479800Y-77482709D01*
X106479800Y-76892150D01*
X106321050Y-76733400D01*
X104571800Y-76733400D01*
X104317800Y-76733400D01*
X102568550Y-76733400D01*
X102409800Y-76892150D01*
X102123440Y-76892150D01*
X102123440Y-75856400D01*
X102099674Y-75730091D01*
X102409800Y-75730091D01*
X102409800Y-76320650D01*
X102568550Y-76479400D01*
X104317800Y-76479400D01*
X104317800Y-75380150D01*
X104571800Y-75380150D01*
X104571800Y-76479400D01*
X106321050Y-76479400D01*
X106479800Y-76320650D01*
X106479800Y-75730091D01*
X106383127Y-75496702D01*
X106204499Y-75318073D01*
X105971110Y-75221400D01*
X104730550Y-75221400D01*
X104571800Y-75380150D01*
X104317800Y-75380150D01*
X104159050Y-75221400D01*
X102918490Y-75221400D01*
X102685101Y-75318073D01*
X102506473Y-75496702D01*
X102409800Y-75730091D01*
X102099674Y-75730091D01*
X102079162Y-75621083D01*
X101940090Y-75404959D01*
X101727890Y-75259969D01*
X101476000Y-75208960D01*
X98676000Y-75208960D01*
X98440683Y-75253238D01*
X98224559Y-75392310D01*
X98079569Y-75604510D01*
X98028560Y-75856400D01*
X97154932Y-75856400D01*
X97245379Y-75721036D01*
X97347000Y-75210154D01*
X97347000Y-75182000D01*
X107123000Y-75182000D01*
X107123000Y-75210154D01*
X107224621Y-75721036D01*
X107514012Y-76154142D01*
X107947118Y-76443533D01*
X108458000Y-76545154D01*
X108968882Y-76443533D01*
X109401988Y-76154142D01*
X109600932Y-75856400D01*
X110728560Y-75856400D01*
X110728560Y-77356400D01*
X110772838Y-77591717D01*
X110891954Y-77776829D01*
X110779569Y-77941310D01*
X110728560Y-78193200D01*
X110728560Y-79693200D01*
X110772838Y-79928517D01*
X110858285Y-80061305D01*
X110779569Y-80176510D01*
X110728560Y-80428400D01*
X110728560Y-81928400D01*
X110772838Y-82163717D01*
X110911910Y-82379841D01*
X111124110Y-82524831D01*
X111376000Y-82575840D01*
X112016000Y-82575840D01*
X112016000Y-82804000D01*
X112073852Y-83094839D01*
X112238599Y-83341401D01*
X112492599Y-83595401D01*
X112739160Y-83760148D01*
X113030000Y-83818000D01*
X120537902Y-83818000D01*
X120654796Y-83935098D01*
X121145287Y-84138768D01*
X121676383Y-84139231D01*
X122167229Y-83936418D01*
X122543098Y-83561204D01*
X122746768Y-83070713D01*
X122747231Y-82539617D01*
X122544418Y-82048771D01*
X122169204Y-81672902D01*
X121678713Y-81469232D01*
X121147617Y-81468769D01*
X120656771Y-81671582D01*
X120280902Y-82046796D01*
X120176593Y-82298000D01*
X119073225Y-82298000D01*
X119083127Y-82288098D01*
X119179800Y-82054709D01*
X119179800Y-81464150D01*
X119021050Y-81305400D01*
X117271800Y-81305400D01*
X117271800Y-81325400D01*
X117017800Y-81325400D01*
X117017800Y-81305400D01*
X115268550Y-81305400D01*
X115109800Y-81464150D01*
X115109800Y-82054709D01*
X115206473Y-82288098D01*
X115216375Y-82298000D01*
X114692003Y-82298000D01*
X114772431Y-82180290D01*
X114823440Y-81928400D01*
X114823440Y-80428400D01*
X114779162Y-80193083D01*
X114693715Y-80060295D01*
X114772431Y-79945090D01*
X114823440Y-79693200D01*
X114823440Y-79228950D01*
X115109800Y-79228950D01*
X115109800Y-79819509D01*
X115206473Y-80052898D01*
X115214375Y-80060800D01*
X115206473Y-80068702D01*
X115109800Y-80302091D01*
X115109800Y-80892650D01*
X115268550Y-81051400D01*
X117017800Y-81051400D01*
X117017800Y-79070200D01*
X117271800Y-79070200D01*
X117271800Y-81051400D01*
X119021050Y-81051400D01*
X119179800Y-80892650D01*
X119179800Y-80302091D01*
X119083127Y-80068702D01*
X119075225Y-80060800D01*
X119083127Y-80052898D01*
X119179800Y-79819509D01*
X119179800Y-79228950D01*
X119021050Y-79070200D01*
X117271800Y-79070200D01*
X117017800Y-79070200D01*
X115268550Y-79070200D01*
X115109800Y-79228950D01*
X114823440Y-79228950D01*
X114823440Y-78193200D01*
X114779162Y-77957883D01*
X114660046Y-77772771D01*
X114772431Y-77608290D01*
X114823440Y-77356400D01*
X114823440Y-76892150D01*
X115109800Y-76892150D01*
X115109800Y-77482709D01*
X115206473Y-77716098D01*
X115265175Y-77774800D01*
X115206473Y-77833502D01*
X115109800Y-78066891D01*
X115109800Y-78657450D01*
X115268550Y-78816200D01*
X117017800Y-78816200D01*
X117017800Y-76733400D01*
X117271800Y-76733400D01*
X117271800Y-78816200D01*
X119021050Y-78816200D01*
X119179800Y-78657450D01*
X119179800Y-78066891D01*
X119083127Y-77833502D01*
X119024425Y-77774800D01*
X119083127Y-77716098D01*
X119179800Y-77482709D01*
X119179800Y-76892150D01*
X119021050Y-76733400D01*
X117271800Y-76733400D01*
X117017800Y-76733400D01*
X115268550Y-76733400D01*
X115109800Y-76892150D01*
X114823440Y-76892150D01*
X114823440Y-75856400D01*
X114799674Y-75730091D01*
X115109800Y-75730091D01*
X115109800Y-76320650D01*
X115268550Y-76479400D01*
X117017800Y-76479400D01*
X117017800Y-75380150D01*
X117271800Y-75380150D01*
X117271800Y-76479400D01*
X119021050Y-76479400D01*
X119179800Y-76320650D01*
X119179800Y-75730091D01*
X119083127Y-75496702D01*
X118904499Y-75318073D01*
X118671110Y-75221400D01*
X117430550Y-75221400D01*
X117271800Y-75380150D01*
X117017800Y-75380150D01*
X116859050Y-75221400D01*
X115618490Y-75221400D01*
X115385101Y-75318073D01*
X115206473Y-75496702D01*
X115109800Y-75730091D01*
X114799674Y-75730091D01*
X114779162Y-75621083D01*
X114640090Y-75404959D01*
X114427890Y-75259969D01*
X114176000Y-75208960D01*
X111376000Y-75208960D01*
X111140683Y-75253238D01*
X110924559Y-75392310D01*
X110779569Y-75604510D01*
X110728560Y-75856400D01*
X109600932Y-75856400D01*
X109691379Y-75721036D01*
X109793000Y-75210154D01*
X109793000Y-75182000D01*
X120077000Y-75182000D01*
X120077000Y-75210154D01*
X120178621Y-75721036D01*
X120468012Y-76154142D01*
X120901118Y-76443533D01*
X121412000Y-76545154D01*
X121922882Y-76443533D01*
X122355988Y-76154142D01*
X122554932Y-75856400D01*
X123428560Y-75856400D01*
X123428560Y-77356400D01*
X123472838Y-77591717D01*
X123591954Y-77776829D01*
X123479569Y-77941310D01*
X123428560Y-78193200D01*
X123428560Y-79693200D01*
X123472838Y-79928517D01*
X123558285Y-80061305D01*
X123479569Y-80176510D01*
X123428560Y-80428400D01*
X123428560Y-81928400D01*
X123472838Y-82163717D01*
X123611910Y-82379841D01*
X123824110Y-82524831D01*
X124076000Y-82575840D01*
X124721140Y-82575840D01*
X124773852Y-82840839D01*
X124938599Y-83087401D01*
X125192599Y-83341401D01*
X125439160Y-83506148D01*
X125730000Y-83564000D01*
X132984345Y-83564000D01*
X133354796Y-83935098D01*
X133845287Y-84138768D01*
X134376383Y-84139231D01*
X134867229Y-83936418D01*
X135243098Y-83561204D01*
X135446768Y-83070713D01*
X135447231Y-82539617D01*
X135244418Y-82048771D01*
X134869204Y-81672902D01*
X134378713Y-81469232D01*
X133847617Y-81468769D01*
X133356771Y-81671582D01*
X132983703Y-82044000D01*
X131879800Y-82044000D01*
X131879800Y-81464150D01*
X131721050Y-81305400D01*
X129971800Y-81305400D01*
X129971800Y-81325400D01*
X129717800Y-81325400D01*
X129717800Y-81305400D01*
X127968550Y-81305400D01*
X127809800Y-81464150D01*
X127809800Y-82044000D01*
X127500030Y-82044000D01*
X127523440Y-81928400D01*
X127523440Y-80428400D01*
X127479162Y-80193083D01*
X127393715Y-80060295D01*
X127472431Y-79945090D01*
X127523440Y-79693200D01*
X127523440Y-79228950D01*
X127809800Y-79228950D01*
X127809800Y-79819509D01*
X127906473Y-80052898D01*
X127914375Y-80060800D01*
X127906473Y-80068702D01*
X127809800Y-80302091D01*
X127809800Y-80892650D01*
X127968550Y-81051400D01*
X129717800Y-81051400D01*
X129717800Y-79070200D01*
X129971800Y-79070200D01*
X129971800Y-81051400D01*
X131721050Y-81051400D01*
X131879800Y-80892650D01*
X131879800Y-80302091D01*
X131783127Y-80068702D01*
X131775225Y-80060800D01*
X131783127Y-80052898D01*
X131879800Y-79819509D01*
X131879800Y-79228950D01*
X131721050Y-79070200D01*
X129971800Y-79070200D01*
X129717800Y-79070200D01*
X127968550Y-79070200D01*
X127809800Y-79228950D01*
X127523440Y-79228950D01*
X127523440Y-78193200D01*
X127479162Y-77957883D01*
X127360046Y-77772771D01*
X127472431Y-77608290D01*
X127523440Y-77356400D01*
X127523440Y-76892150D01*
X127809800Y-76892150D01*
X127809800Y-77482709D01*
X127906473Y-77716098D01*
X127965175Y-77774800D01*
X127906473Y-77833502D01*
X127809800Y-78066891D01*
X127809800Y-78657450D01*
X127968550Y-78816200D01*
X129717800Y-78816200D01*
X129717800Y-76733400D01*
X129971800Y-76733400D01*
X129971800Y-78816200D01*
X131721050Y-78816200D01*
X131879800Y-78657450D01*
X131879800Y-78066891D01*
X131783127Y-77833502D01*
X131724425Y-77774800D01*
X131783127Y-77716098D01*
X131879800Y-77482709D01*
X131879800Y-76892150D01*
X131721050Y-76733400D01*
X129971800Y-76733400D01*
X129717800Y-76733400D01*
X127968550Y-76733400D01*
X127809800Y-76892150D01*
X127523440Y-76892150D01*
X127523440Y-75856400D01*
X127499674Y-75730091D01*
X127809800Y-75730091D01*
X127809800Y-76320650D01*
X127968550Y-76479400D01*
X129717800Y-76479400D01*
X129717800Y-75380150D01*
X129971800Y-75380150D01*
X129971800Y-76479400D01*
X131721050Y-76479400D01*
X131879800Y-76320650D01*
X131879800Y-75730091D01*
X131783127Y-75496702D01*
X131604499Y-75318073D01*
X131371110Y-75221400D01*
X130130550Y-75221400D01*
X129971800Y-75380150D01*
X129717800Y-75380150D01*
X129559050Y-75221400D01*
X128318490Y-75221400D01*
X128085101Y-75318073D01*
X127906473Y-75496702D01*
X127809800Y-75730091D01*
X127499674Y-75730091D01*
X127479162Y-75621083D01*
X127340090Y-75404959D01*
X127127890Y-75259969D01*
X126876000Y-75208960D01*
X124076000Y-75208960D01*
X123840683Y-75253238D01*
X123624559Y-75392310D01*
X123479569Y-75604510D01*
X123428560Y-75856400D01*
X122554932Y-75856400D01*
X122645379Y-75721036D01*
X122747000Y-75210154D01*
X122747000Y-75182000D01*
X132777000Y-75182000D01*
X132777000Y-75210154D01*
X132878621Y-75721036D01*
X133168012Y-76154142D01*
X133601118Y-76443533D01*
X134112000Y-76545154D01*
X134622882Y-76443533D01*
X135055988Y-76154142D01*
X135254932Y-75856400D01*
X136128560Y-75856400D01*
X136128560Y-77356400D01*
X136172838Y-77591717D01*
X136291954Y-77776829D01*
X136179569Y-77941310D01*
X136128560Y-78193200D01*
X136128560Y-79693200D01*
X136172838Y-79928517D01*
X136258285Y-80061305D01*
X136179569Y-80176510D01*
X136128560Y-80428400D01*
X136128560Y-81928400D01*
X136172838Y-82163717D01*
X136311910Y-82379841D01*
X136524110Y-82524831D01*
X136776000Y-82575840D01*
X137416000Y-82575840D01*
X137416000Y-82804000D01*
X137473852Y-83094839D01*
X137638599Y-83341401D01*
X137885161Y-83506148D01*
X138176000Y-83564000D01*
X145938345Y-83564000D01*
X146308796Y-83935098D01*
X146799287Y-84138768D01*
X147330383Y-84139231D01*
X147821229Y-83936418D01*
X148197098Y-83561204D01*
X148400768Y-83070713D01*
X148401231Y-82539617D01*
X148198418Y-82048771D01*
X147823204Y-81672902D01*
X147332713Y-81469232D01*
X146801617Y-81468769D01*
X146310771Y-81671582D01*
X145937703Y-82044000D01*
X144579800Y-82044000D01*
X144579800Y-81464150D01*
X144421050Y-81305400D01*
X142671800Y-81305400D01*
X142671800Y-81325400D01*
X142417800Y-81325400D01*
X142417800Y-81305400D01*
X140668550Y-81305400D01*
X140509800Y-81464150D01*
X140509800Y-82044000D01*
X140200030Y-82044000D01*
X140223440Y-81928400D01*
X140223440Y-80428400D01*
X140179162Y-80193083D01*
X140093715Y-80060295D01*
X140172431Y-79945090D01*
X140223440Y-79693200D01*
X140223440Y-79228950D01*
X140509800Y-79228950D01*
X140509800Y-79819509D01*
X140606473Y-80052898D01*
X140614375Y-80060800D01*
X140606473Y-80068702D01*
X140509800Y-80302091D01*
X140509800Y-80892650D01*
X140668550Y-81051400D01*
X142417800Y-81051400D01*
X142417800Y-79070200D01*
X142671800Y-79070200D01*
X142671800Y-81051400D01*
X144421050Y-81051400D01*
X144579800Y-80892650D01*
X144579800Y-80302091D01*
X144483127Y-80068702D01*
X144475225Y-80060800D01*
X144483127Y-80052898D01*
X144579800Y-79819509D01*
X144579800Y-79228950D01*
X144421050Y-79070200D01*
X142671800Y-79070200D01*
X142417800Y-79070200D01*
X140668550Y-79070200D01*
X140509800Y-79228950D01*
X140223440Y-79228950D01*
X140223440Y-78193200D01*
X140179162Y-77957883D01*
X140060046Y-77772771D01*
X140172431Y-77608290D01*
X140223440Y-77356400D01*
X140223440Y-76892150D01*
X140509800Y-76892150D01*
X140509800Y-77482709D01*
X140606473Y-77716098D01*
X140665175Y-77774800D01*
X140606473Y-77833502D01*
X140509800Y-78066891D01*
X140509800Y-78657450D01*
X140668550Y-78816200D01*
X142417800Y-78816200D01*
X142417800Y-76733400D01*
X142671800Y-76733400D01*
X142671800Y-78816200D01*
X144421050Y-78816200D01*
X144579800Y-78657450D01*
X144579800Y-78066891D01*
X144483127Y-77833502D01*
X144424425Y-77774800D01*
X144483127Y-77716098D01*
X144579800Y-77482709D01*
X144579800Y-76892150D01*
X144421050Y-76733400D01*
X142671800Y-76733400D01*
X142417800Y-76733400D01*
X140668550Y-76733400D01*
X140509800Y-76892150D01*
X140223440Y-76892150D01*
X140223440Y-75856400D01*
X140199674Y-75730091D01*
X140509800Y-75730091D01*
X140509800Y-76320650D01*
X140668550Y-76479400D01*
X142417800Y-76479400D01*
X142417800Y-75380150D01*
X142671800Y-75380150D01*
X142671800Y-76479400D01*
X144421050Y-76479400D01*
X144579800Y-76320650D01*
X144579800Y-75730091D01*
X144483127Y-75496702D01*
X144304499Y-75318073D01*
X144071110Y-75221400D01*
X142830550Y-75221400D01*
X142671800Y-75380150D01*
X142417800Y-75380150D01*
X142259050Y-75221400D01*
X141018490Y-75221400D01*
X140785101Y-75318073D01*
X140606473Y-75496702D01*
X140509800Y-75730091D01*
X140199674Y-75730091D01*
X140179162Y-75621083D01*
X140040090Y-75404959D01*
X139827890Y-75259969D01*
X139576000Y-75208960D01*
X136776000Y-75208960D01*
X136540683Y-75253238D01*
X136324559Y-75392310D01*
X136179569Y-75604510D01*
X136128560Y-75856400D01*
X135254932Y-75856400D01*
X135345379Y-75721036D01*
X135447000Y-75210154D01*
X135447000Y-75182000D01*
X145731000Y-75182000D01*
X145731000Y-75210154D01*
X145832621Y-75721036D01*
X146122012Y-76154142D01*
X146555118Y-76443533D01*
X147066000Y-76545154D01*
X147576882Y-76443533D01*
X148009988Y-76154142D01*
X148208932Y-75856400D01*
X148828560Y-75856400D01*
X148828560Y-77356400D01*
X148872838Y-77591717D01*
X148991954Y-77776829D01*
X148879569Y-77941310D01*
X148828560Y-78193200D01*
X148828560Y-79693200D01*
X148872838Y-79928517D01*
X148958285Y-80061305D01*
X148879569Y-80176510D01*
X148828560Y-80428400D01*
X148828560Y-81928400D01*
X148872838Y-82163717D01*
X149011910Y-82379841D01*
X149224110Y-82524831D01*
X149476000Y-82575840D01*
X150121140Y-82575840D01*
X150173852Y-82840839D01*
X150338599Y-83087401D01*
X150592599Y-83341401D01*
X150839160Y-83506148D01*
X151130000Y-83564000D01*
X158384345Y-83564000D01*
X158754796Y-83935098D01*
X159245287Y-84138768D01*
X159776383Y-84139231D01*
X160267229Y-83936418D01*
X160643098Y-83561204D01*
X160846768Y-83070713D01*
X160847231Y-82539617D01*
X160644418Y-82048771D01*
X160269204Y-81672902D01*
X159778713Y-81469232D01*
X159247617Y-81468769D01*
X158756771Y-81671582D01*
X158383703Y-82044000D01*
X157279800Y-82044000D01*
X157279800Y-81464150D01*
X157121050Y-81305400D01*
X155371800Y-81305400D01*
X155371800Y-81325400D01*
X155117800Y-81325400D01*
X155117800Y-81305400D01*
X153368550Y-81305400D01*
X153209800Y-81464150D01*
X153209800Y-82044000D01*
X152900030Y-82044000D01*
X152923440Y-81928400D01*
X152923440Y-80428400D01*
X152879162Y-80193083D01*
X152793715Y-80060295D01*
X152872431Y-79945090D01*
X152923440Y-79693200D01*
X152923440Y-79228950D01*
X153209800Y-79228950D01*
X153209800Y-79819509D01*
X153306473Y-80052898D01*
X153314375Y-80060800D01*
X153306473Y-80068702D01*
X153209800Y-80302091D01*
X153209800Y-80892650D01*
X153368550Y-81051400D01*
X155117800Y-81051400D01*
X155117800Y-79070200D01*
X155371800Y-79070200D01*
X155371800Y-81051400D01*
X157121050Y-81051400D01*
X157279800Y-80892650D01*
X157279800Y-80302091D01*
X157183127Y-80068702D01*
X157175225Y-80060800D01*
X157183127Y-80052898D01*
X157279800Y-79819509D01*
X157279800Y-79228950D01*
X157121050Y-79070200D01*
X155371800Y-79070200D01*
X155117800Y-79070200D01*
X153368550Y-79070200D01*
X153209800Y-79228950D01*
X152923440Y-79228950D01*
X152923440Y-78193200D01*
X152879162Y-77957883D01*
X152760046Y-77772771D01*
X152872431Y-77608290D01*
X152923440Y-77356400D01*
X152923440Y-76892150D01*
X153209800Y-76892150D01*
X153209800Y-77482709D01*
X153306473Y-77716098D01*
X153365175Y-77774800D01*
X153306473Y-77833502D01*
X153209800Y-78066891D01*
X153209800Y-78657450D01*
X153368550Y-78816200D01*
X155117800Y-78816200D01*
X155117800Y-76733400D01*
X155371800Y-76733400D01*
X155371800Y-78816200D01*
X157121050Y-78816200D01*
X157279800Y-78657450D01*
X157279800Y-78066891D01*
X157183127Y-77833502D01*
X157124425Y-77774800D01*
X157183127Y-77716098D01*
X157279800Y-77482709D01*
X157279800Y-76892150D01*
X157121050Y-76733400D01*
X155371800Y-76733400D01*
X155117800Y-76733400D01*
X153368550Y-76733400D01*
X153209800Y-76892150D01*
X152923440Y-76892150D01*
X152923440Y-75856400D01*
X152899674Y-75730091D01*
X153209800Y-75730091D01*
X153209800Y-76320650D01*
X153368550Y-76479400D01*
X155117800Y-76479400D01*
X155117800Y-75380150D01*
X155371800Y-75380150D01*
X155371800Y-76479400D01*
X157121050Y-76479400D01*
X157279800Y-76320650D01*
X157279800Y-75730091D01*
X157183127Y-75496702D01*
X157004499Y-75318073D01*
X156771110Y-75221400D01*
X155530550Y-75221400D01*
X155371800Y-75380150D01*
X155117800Y-75380150D01*
X154959050Y-75221400D01*
X153718490Y-75221400D01*
X153485101Y-75318073D01*
X153306473Y-75496702D01*
X153209800Y-75730091D01*
X152899674Y-75730091D01*
X152879162Y-75621083D01*
X152740090Y-75404959D01*
X152527890Y-75259969D01*
X152276000Y-75208960D01*
X149476000Y-75208960D01*
X149240683Y-75253238D01*
X149024559Y-75392310D01*
X148879569Y-75604510D01*
X148828560Y-75856400D01*
X148208932Y-75856400D01*
X148299379Y-75721036D01*
X148401000Y-75210154D01*
X148401000Y-75182000D01*
X158177000Y-75182000D01*
X158177000Y-75210154D01*
X158278621Y-75721036D01*
X158568012Y-76154142D01*
X159001118Y-76443533D01*
X159512000Y-76545154D01*
X160022882Y-76443533D01*
X160455988Y-76154142D01*
X160654932Y-75856400D01*
X162036560Y-75856400D01*
X162036560Y-77356400D01*
X162080838Y-77591717D01*
X162199954Y-77776829D01*
X162087569Y-77941310D01*
X162036560Y-78193200D01*
X162036560Y-79693200D01*
X162080838Y-79928517D01*
X162166285Y-80061305D01*
X162087569Y-80176510D01*
X162036560Y-80428400D01*
X162036560Y-81928400D01*
X162080838Y-82163717D01*
X162219910Y-82379841D01*
X162432110Y-82524831D01*
X162684000Y-82575840D01*
X163324000Y-82575840D01*
X163324000Y-82804000D01*
X163381852Y-83094839D01*
X163546599Y-83341401D01*
X163793161Y-83506148D01*
X164084000Y-83564000D01*
X171592345Y-83564000D01*
X171962796Y-83935098D01*
X172453287Y-84138768D01*
X172984383Y-84139231D01*
X173475229Y-83936418D01*
X173851098Y-83561204D01*
X174054768Y-83070713D01*
X174055231Y-82539617D01*
X173852418Y-82048771D01*
X173477204Y-81672902D01*
X172986713Y-81469232D01*
X172455617Y-81468769D01*
X171964771Y-81671582D01*
X171591703Y-82044000D01*
X170487800Y-82044000D01*
X170487800Y-81464150D01*
X170329050Y-81305400D01*
X168579800Y-81305400D01*
X168579800Y-81325400D01*
X168325800Y-81325400D01*
X168325800Y-81305400D01*
X166576550Y-81305400D01*
X166417800Y-81464150D01*
X166417800Y-82044000D01*
X166108030Y-82044000D01*
X166131440Y-81928400D01*
X166131440Y-80428400D01*
X166087162Y-80193083D01*
X166001715Y-80060295D01*
X166080431Y-79945090D01*
X166131440Y-79693200D01*
X166131440Y-79228950D01*
X166417800Y-79228950D01*
X166417800Y-79819509D01*
X166514473Y-80052898D01*
X166522375Y-80060800D01*
X166514473Y-80068702D01*
X166417800Y-80302091D01*
X166417800Y-80892650D01*
X166576550Y-81051400D01*
X168325800Y-81051400D01*
X168325800Y-79070200D01*
X168579800Y-79070200D01*
X168579800Y-81051400D01*
X170329050Y-81051400D01*
X170487800Y-80892650D01*
X170487800Y-80302091D01*
X170391127Y-80068702D01*
X170383225Y-80060800D01*
X170391127Y-80052898D01*
X170487800Y-79819509D01*
X170487800Y-79228950D01*
X170329050Y-79070200D01*
X168579800Y-79070200D01*
X168325800Y-79070200D01*
X166576550Y-79070200D01*
X166417800Y-79228950D01*
X166131440Y-79228950D01*
X166131440Y-78193200D01*
X166087162Y-77957883D01*
X165968046Y-77772771D01*
X166080431Y-77608290D01*
X166131440Y-77356400D01*
X166131440Y-76892150D01*
X166417800Y-76892150D01*
X166417800Y-77482709D01*
X166514473Y-77716098D01*
X166573175Y-77774800D01*
X166514473Y-77833502D01*
X166417800Y-78066891D01*
X166417800Y-78657450D01*
X166576550Y-78816200D01*
X168325800Y-78816200D01*
X168325800Y-76733400D01*
X168579800Y-76733400D01*
X168579800Y-78816200D01*
X170329050Y-78816200D01*
X170487800Y-78657450D01*
X170487800Y-78066891D01*
X170391127Y-77833502D01*
X170332425Y-77774800D01*
X170391127Y-77716098D01*
X170487800Y-77482709D01*
X170487800Y-76892150D01*
X170329050Y-76733400D01*
X168579800Y-76733400D01*
X168325800Y-76733400D01*
X166576550Y-76733400D01*
X166417800Y-76892150D01*
X166131440Y-76892150D01*
X166131440Y-75856400D01*
X166107674Y-75730091D01*
X166417800Y-75730091D01*
X166417800Y-76320650D01*
X166576550Y-76479400D01*
X168325800Y-76479400D01*
X168325800Y-75380150D01*
X168579800Y-75380150D01*
X168579800Y-76479400D01*
X170329050Y-76479400D01*
X170487800Y-76320650D01*
X170487800Y-75730091D01*
X170391127Y-75496702D01*
X170212499Y-75318073D01*
X169979110Y-75221400D01*
X168738550Y-75221400D01*
X168579800Y-75380150D01*
X168325800Y-75380150D01*
X168167050Y-75221400D01*
X166926490Y-75221400D01*
X166693101Y-75318073D01*
X166514473Y-75496702D01*
X166417800Y-75730091D01*
X166107674Y-75730091D01*
X166087162Y-75621083D01*
X165948090Y-75404959D01*
X165735890Y-75259969D01*
X165484000Y-75208960D01*
X162684000Y-75208960D01*
X162448683Y-75253238D01*
X162232559Y-75392310D01*
X162087569Y-75604510D01*
X162036560Y-75856400D01*
X160654932Y-75856400D01*
X160745379Y-75721036D01*
X160847000Y-75210154D01*
X160847000Y-75182000D01*
X171385000Y-75182000D01*
X171385000Y-75210154D01*
X171486621Y-75721036D01*
X171776012Y-76154142D01*
X172209118Y-76443533D01*
X172720000Y-76545154D01*
X173230882Y-76443533D01*
X173663988Y-76154142D01*
X173953379Y-75721036D01*
X174055000Y-75210154D01*
X174055000Y-75182000D01*
X184085000Y-75182000D01*
X184085000Y-75210154D01*
X184186621Y-75721036D01*
X184476012Y-76154142D01*
X184909118Y-76443533D01*
X185420000Y-76545154D01*
X185930882Y-76443533D01*
X186363988Y-76154142D01*
X186504400Y-75944000D01*
X186586779Y-75944000D01*
X186586630Y-76114815D01*
X186910980Y-76899800D01*
X187511041Y-77500909D01*
X188295459Y-77826628D01*
X189144815Y-77827370D01*
X189929800Y-77503020D01*
X190323000Y-77110506D01*
X190323000Y-79888728D01*
X190201758Y-79767274D01*
X189325487Y-79403415D01*
X188376675Y-79402587D01*
X187499771Y-79764916D01*
X186828274Y-80435242D01*
X186464415Y-81311513D01*
X186463849Y-81960047D01*
X186177204Y-81672902D01*
X185686713Y-81469232D01*
X185155617Y-81468769D01*
X184664771Y-81671582D01*
X184291703Y-82044000D01*
X183187800Y-82044000D01*
X183187800Y-81464150D01*
X183029050Y-81305400D01*
X181279800Y-81305400D01*
X181279800Y-81325400D01*
X181025800Y-81325400D01*
X181025800Y-81305400D01*
X179276550Y-81305400D01*
X179117800Y-81464150D01*
X179117800Y-82044000D01*
X178808030Y-82044000D01*
X178831440Y-81928400D01*
X178831440Y-80428400D01*
X178787162Y-80193083D01*
X178701715Y-80060295D01*
X178780431Y-79945090D01*
X178831440Y-79693200D01*
X178831440Y-79228950D01*
X179117800Y-79228950D01*
X179117800Y-79819509D01*
X179214473Y-80052898D01*
X179222375Y-80060800D01*
X179214473Y-80068702D01*
X179117800Y-80302091D01*
X179117800Y-80892650D01*
X179276550Y-81051400D01*
X181025800Y-81051400D01*
X181025800Y-79070200D01*
X181279800Y-79070200D01*
X181279800Y-81051400D01*
X183029050Y-81051400D01*
X183187800Y-80892650D01*
X183187800Y-80302091D01*
X183091127Y-80068702D01*
X183083225Y-80060800D01*
X183091127Y-80052898D01*
X183187800Y-79819509D01*
X183187800Y-79228950D01*
X183029050Y-79070200D01*
X181279800Y-79070200D01*
X181025800Y-79070200D01*
X179276550Y-79070200D01*
X179117800Y-79228950D01*
X178831440Y-79228950D01*
X178831440Y-78193200D01*
X178787162Y-77957883D01*
X178668046Y-77772771D01*
X178780431Y-77608290D01*
X178831440Y-77356400D01*
X178831440Y-76892150D01*
X179117800Y-76892150D01*
X179117800Y-77482709D01*
X179214473Y-77716098D01*
X179273175Y-77774800D01*
X179214473Y-77833502D01*
X179117800Y-78066891D01*
X179117800Y-78657450D01*
X179276550Y-78816200D01*
X181025800Y-78816200D01*
X181025800Y-76733400D01*
X181279800Y-76733400D01*
X181279800Y-78816200D01*
X183029050Y-78816200D01*
X183187800Y-78657450D01*
X183187800Y-78066891D01*
X183091127Y-77833502D01*
X183032425Y-77774800D01*
X183091127Y-77716098D01*
X183187800Y-77482709D01*
X183187800Y-76892150D01*
X183029050Y-76733400D01*
X181279800Y-76733400D01*
X181025800Y-76733400D01*
X179276550Y-76733400D01*
X179117800Y-76892150D01*
X178831440Y-76892150D01*
X178831440Y-75856400D01*
X178807674Y-75730091D01*
X179117800Y-75730091D01*
X179117800Y-76320650D01*
X179276550Y-76479400D01*
X181025800Y-76479400D01*
X181025800Y-75380150D01*
X181279800Y-75380150D01*
X181279800Y-76479400D01*
X183029050Y-76479400D01*
X183187800Y-76320650D01*
X183187800Y-75730091D01*
X183091127Y-75496702D01*
X182912499Y-75318073D01*
X182679110Y-75221400D01*
X181438550Y-75221400D01*
X181279800Y-75380150D01*
X181025800Y-75380150D01*
X180867050Y-75221400D01*
X179626490Y-75221400D01*
X179393101Y-75318073D01*
X179214473Y-75496702D01*
X179117800Y-75730091D01*
X178807674Y-75730091D01*
X178787162Y-75621083D01*
X178648090Y-75404959D01*
X178435890Y-75259969D01*
X178184000Y-75208960D01*
X175384000Y-75208960D01*
X175148683Y-75253238D01*
X174932559Y-75392310D01*
X174787569Y-75604510D01*
X174736560Y-75856400D01*
X174736560Y-77356400D01*
X174780838Y-77591717D01*
X174899954Y-77776829D01*
X174787569Y-77941310D01*
X174736560Y-78193200D01*
X174736560Y-79693200D01*
X174780838Y-79928517D01*
X174866285Y-80061305D01*
X174787569Y-80176510D01*
X174736560Y-80428400D01*
X174736560Y-81928400D01*
X174780838Y-82163717D01*
X174919910Y-82379841D01*
X175132110Y-82524831D01*
X175384000Y-82575840D01*
X176029140Y-82575840D01*
X176081852Y-82840839D01*
X176246599Y-83087401D01*
X176500599Y-83341401D01*
X176747160Y-83506148D01*
X177038000Y-83564000D01*
X184292345Y-83564000D01*
X184662796Y-83935098D01*
X185153287Y-84138768D01*
X185684383Y-84139231D01*
X186175229Y-83936418D01*
X186551098Y-83561204D01*
X186754768Y-83070713D01*
X186754860Y-82965260D01*
X186825916Y-83137229D01*
X187496242Y-83808726D01*
X188372513Y-84172585D01*
X189321325Y-84173413D01*
X190198229Y-83811084D01*
X190323000Y-83686531D01*
X190323000Y-84405000D01*
X84199296Y-84405000D01*
X84407229Y-84319084D01*
X85078726Y-83648758D01*
X85442585Y-82772487D01*
X85443021Y-82272785D01*
X85511910Y-82379841D01*
X85724110Y-82524831D01*
X85976000Y-82575840D01*
X86616000Y-82575840D01*
X86616000Y-83058000D01*
X86673852Y-83348839D01*
X86838599Y-83595401D01*
X86965599Y-83722401D01*
X87212161Y-83887148D01*
X87503000Y-83945000D01*
X95278643Y-83945000D01*
X95745287Y-84138768D01*
X96276383Y-84139231D01*
X96767229Y-83936418D01*
X97143098Y-83561204D01*
X97346768Y-83070713D01*
X97347231Y-82539617D01*
X97144418Y-82048771D01*
X96769204Y-81672902D01*
X96278713Y-81469232D01*
X95747617Y-81468769D01*
X95256771Y-81671582D01*
X94880902Y-82046796D01*
X94723858Y-82425000D01*
X93546226Y-82425000D01*
X93683127Y-82288098D01*
X93779800Y-82054709D01*
X93779800Y-81464150D01*
X93621050Y-81305400D01*
X91871800Y-81305400D01*
X91871800Y-81325400D01*
X91617800Y-81325400D01*
X91617800Y-81305400D01*
X89868550Y-81305400D01*
X89709800Y-81464150D01*
X89709800Y-82054709D01*
X89806473Y-82288098D01*
X89943374Y-82425000D01*
X89176919Y-82425000D01*
X89227441Y-82392490D01*
X89372431Y-82180290D01*
X89423440Y-81928400D01*
X89423440Y-80428400D01*
X89379162Y-80193083D01*
X89293715Y-80060295D01*
X89372431Y-79945090D01*
X89423440Y-79693200D01*
X89423440Y-79228950D01*
X89709800Y-79228950D01*
X89709800Y-79819509D01*
X89806473Y-80052898D01*
X89814375Y-80060800D01*
X89806473Y-80068702D01*
X89709800Y-80302091D01*
X89709800Y-80892650D01*
X89868550Y-81051400D01*
X91617800Y-81051400D01*
X91617800Y-79070200D01*
X91871800Y-79070200D01*
X91871800Y-81051400D01*
X93621050Y-81051400D01*
X93779800Y-80892650D01*
X93779800Y-80302091D01*
X93683127Y-80068702D01*
X93675225Y-80060800D01*
X93683127Y-80052898D01*
X93779800Y-79819509D01*
X93779800Y-79228950D01*
X93621050Y-79070200D01*
X91871800Y-79070200D01*
X91617800Y-79070200D01*
X89868550Y-79070200D01*
X89709800Y-79228950D01*
X89423440Y-79228950D01*
X89423440Y-78193200D01*
X89379162Y-77957883D01*
X89260046Y-77772771D01*
X89372431Y-77608290D01*
X89423440Y-77356400D01*
X89423440Y-76892150D01*
X89709800Y-76892150D01*
X89709800Y-77482709D01*
X89806473Y-77716098D01*
X89865175Y-77774800D01*
X89806473Y-77833502D01*
X89709800Y-78066891D01*
X89709800Y-78657450D01*
X89868550Y-78816200D01*
X91617800Y-78816200D01*
X91617800Y-76733400D01*
X91871800Y-76733400D01*
X91871800Y-78816200D01*
X93621050Y-78816200D01*
X93779800Y-78657450D01*
X93779800Y-78066891D01*
X93683127Y-77833502D01*
X93624425Y-77774800D01*
X93683127Y-77716098D01*
X93779800Y-77482709D01*
X93779800Y-76892150D01*
X93621050Y-76733400D01*
X91871800Y-76733400D01*
X91617800Y-76733400D01*
X89868550Y-76733400D01*
X89709800Y-76892150D01*
X89423440Y-76892150D01*
X89423440Y-75856400D01*
X89399674Y-75730091D01*
X89709800Y-75730091D01*
X89709800Y-76320650D01*
X89868550Y-76479400D01*
X91617800Y-76479400D01*
X91617800Y-75380150D01*
X91871800Y-75380150D01*
X91871800Y-76479400D01*
X93621050Y-76479400D01*
X93779800Y-76320650D01*
X93779800Y-75730091D01*
X93683127Y-75496702D01*
X93504499Y-75318073D01*
X93271110Y-75221400D01*
X92030550Y-75221400D01*
X91871800Y-75380150D01*
X91617800Y-75380150D01*
X91459050Y-75221400D01*
X90218490Y-75221400D01*
X89985101Y-75318073D01*
X89806473Y-75496702D01*
X89709800Y-75730091D01*
X89399674Y-75730091D01*
X89379162Y-75621083D01*
X89240090Y-75404959D01*
X89027890Y-75259969D01*
X88776000Y-75208960D01*
X85976000Y-75208960D01*
X85740683Y-75253238D01*
X85524559Y-75392310D01*
X85379569Y-75604510D01*
X85328560Y-75856400D01*
X85328560Y-77356400D01*
X85372838Y-77591717D01*
X85491954Y-77776829D01*
X85379569Y-77941310D01*
X85328560Y-78193200D01*
X85328560Y-79693200D01*
X85372838Y-79928517D01*
X85458285Y-80061305D01*
X85379569Y-80176510D01*
X85328560Y-80428400D01*
X85328560Y-81545709D01*
X85081084Y-80946771D01*
X84410758Y-80275274D01*
X83941111Y-80080260D01*
X83978582Y-80064739D01*
X84138365Y-79745970D01*
X82804000Y-78411605D01*
X81469635Y-79745970D01*
X81629418Y-80064739D01*
X81928681Y-80182051D01*
X81708771Y-80272916D01*
X81203000Y-80777805D01*
X81203000Y-79522741D01*
X81290030Y-79566365D01*
X82624395Y-78232000D01*
X82983605Y-78232000D01*
X84317970Y-79566365D01*
X84636739Y-79406582D01*
X84946723Y-78615813D01*
X84930497Y-77766613D01*
X84636739Y-77057418D01*
X84317970Y-76897635D01*
X82983605Y-78232000D01*
X82624395Y-78232000D01*
X81290030Y-76897635D01*
X81203000Y-76941259D01*
X81203000Y-76718030D01*
X81469635Y-76718030D01*
X82804000Y-78052395D01*
X84138365Y-76718030D01*
X83978582Y-76399261D01*
X83187813Y-76089277D01*
X82338613Y-76105503D01*
X81629418Y-76399261D01*
X81469635Y-76718030D01*
X81203000Y-76718030D01*
X81203000Y-74345000D01*
X94980386Y-74345000D01*
X94778621Y-74646964D01*
X94778621Y-74646964D01*
G37*
X94778621Y-74646964D02*
X94677000Y-75157846D01*
X94677000Y-75210154D01*
X94778621Y-75721036D01*
X95068012Y-76154142D01*
X95501118Y-76443533D01*
X96012000Y-76545154D01*
X96522882Y-76443533D01*
X96955988Y-76154142D01*
X97154932Y-75856400D01*
X98028560Y-75856400D01*
X98028560Y-77356400D01*
X98072838Y-77591717D01*
X98191954Y-77776829D01*
X98079569Y-77941310D01*
X98028560Y-78193200D01*
X98028560Y-79693200D01*
X98072838Y-79928517D01*
X98158285Y-80061305D01*
X98079569Y-80176510D01*
X98028560Y-80428400D01*
X98028560Y-81928400D01*
X98072838Y-82163717D01*
X98211910Y-82379841D01*
X98424110Y-82524831D01*
X98676000Y-82575840D01*
X99316000Y-82575840D01*
X99316000Y-82804000D01*
X99373852Y-83094839D01*
X99538599Y-83341401D01*
X99785161Y-83506148D01*
X100076000Y-83564000D01*
X107330345Y-83564000D01*
X107700796Y-83935098D01*
X108191287Y-84138768D01*
X108722383Y-84139231D01*
X109213229Y-83936418D01*
X109589098Y-83561204D01*
X109792768Y-83070713D01*
X109793231Y-82539617D01*
X109590418Y-82048771D01*
X109215204Y-81672902D01*
X108724713Y-81469232D01*
X108193617Y-81468769D01*
X107702771Y-81671582D01*
X107329703Y-82044000D01*
X106479800Y-82044000D01*
X106479800Y-81464150D01*
X106321050Y-81305400D01*
X104571800Y-81305400D01*
X104571800Y-81325400D01*
X104317800Y-81325400D01*
X104317800Y-81305400D01*
X102568550Y-81305400D01*
X102409800Y-81464150D01*
X102409800Y-82044000D01*
X102100030Y-82044000D01*
X102123440Y-81928400D01*
X102123440Y-80428400D01*
X102079162Y-80193083D01*
X101993715Y-80060295D01*
X102072431Y-79945090D01*
X102123440Y-79693200D01*
X102123440Y-79228950D01*
X102409800Y-79228950D01*
X102409800Y-79819509D01*
X102506473Y-80052898D01*
X102514375Y-80060800D01*
X102506473Y-80068702D01*
X102409800Y-80302091D01*
X102409800Y-80892650D01*
X102568550Y-81051400D01*
X104317800Y-81051400D01*
X104317800Y-79070200D01*
X104571800Y-79070200D01*
X104571800Y-81051400D01*
X106321050Y-81051400D01*
X106479800Y-80892650D01*
X106479800Y-80302091D01*
X106383127Y-80068702D01*
X106375225Y-80060800D01*
X106383127Y-80052898D01*
X106479800Y-79819509D01*
X106479800Y-79228950D01*
X106321050Y-79070200D01*
X104571800Y-79070200D01*
X104317800Y-79070200D01*
X102568550Y-79070200D01*
X102409800Y-79228950D01*
X102123440Y-79228950D01*
X102123440Y-78193200D01*
X102079162Y-77957883D01*
X101960046Y-77772771D01*
X102072431Y-77608290D01*
X102123440Y-77356400D01*
X102123440Y-76892150D01*
X102409800Y-76892150D01*
X102409800Y-77482709D01*
X102506473Y-77716098D01*
X102565175Y-77774800D01*
X102506473Y-77833502D01*
X102409800Y-78066891D01*
X102409800Y-78657450D01*
X102568550Y-78816200D01*
X104317800Y-78816200D01*
X104317800Y-76733400D01*
X104571800Y-76733400D01*
X104571800Y-78816200D01*
X106321050Y-78816200D01*
X106479800Y-78657450D01*
X106479800Y-78066891D01*
X106383127Y-77833502D01*
X106324425Y-77774800D01*
X106383127Y-77716098D01*
X106479800Y-77482709D01*
X106479800Y-76892150D01*
X106321050Y-76733400D01*
X104571800Y-76733400D01*
X104317800Y-76733400D01*
X102568550Y-76733400D01*
X102409800Y-76892150D01*
X102123440Y-76892150D01*
X102123440Y-75856400D01*
X102099674Y-75730091D01*
X102409800Y-75730091D01*
X102409800Y-76320650D01*
X102568550Y-76479400D01*
X104317800Y-76479400D01*
X104317800Y-75380150D01*
X104571800Y-75380150D01*
X104571800Y-76479400D01*
X106321050Y-76479400D01*
X106479800Y-76320650D01*
X106479800Y-75730091D01*
X106383127Y-75496702D01*
X106204499Y-75318073D01*
X105971110Y-75221400D01*
X104730550Y-75221400D01*
X104571800Y-75380150D01*
X104317800Y-75380150D01*
X104159050Y-75221400D01*
X102918490Y-75221400D01*
X102685101Y-75318073D01*
X102506473Y-75496702D01*
X102409800Y-75730091D01*
X102099674Y-75730091D01*
X102079162Y-75621083D01*
X101940090Y-75404959D01*
X101727890Y-75259969D01*
X101476000Y-75208960D01*
X98676000Y-75208960D01*
X98440683Y-75253238D01*
X98224559Y-75392310D01*
X98079569Y-75604510D01*
X98028560Y-75856400D01*
X97154932Y-75856400D01*
X97245379Y-75721036D01*
X97347000Y-75210154D01*
X97347000Y-75182000D01*
X107123000Y-75182000D01*
X107123000Y-75210154D01*
X107224621Y-75721036D01*
X107514012Y-76154142D01*
X107947118Y-76443533D01*
X108458000Y-76545154D01*
X108968882Y-76443533D01*
X109401988Y-76154142D01*
X109600932Y-75856400D01*
X110728560Y-75856400D01*
X110728560Y-77356400D01*
X110772838Y-77591717D01*
X110891954Y-77776829D01*
X110779569Y-77941310D01*
X110728560Y-78193200D01*
X110728560Y-79693200D01*
X110772838Y-79928517D01*
X110858285Y-80061305D01*
X110779569Y-80176510D01*
X110728560Y-80428400D01*
X110728560Y-81928400D01*
X110772838Y-82163717D01*
X110911910Y-82379841D01*
X111124110Y-82524831D01*
X111376000Y-82575840D01*
X112016000Y-82575840D01*
X112016000Y-82804000D01*
X112073852Y-83094839D01*
X112238599Y-83341401D01*
X112492599Y-83595401D01*
X112739160Y-83760148D01*
X113030000Y-83818000D01*
X120537902Y-83818000D01*
X120654796Y-83935098D01*
X121145287Y-84138768D01*
X121676383Y-84139231D01*
X122167229Y-83936418D01*
X122543098Y-83561204D01*
X122746768Y-83070713D01*
X122747231Y-82539617D01*
X122544418Y-82048771D01*
X122169204Y-81672902D01*
X121678713Y-81469232D01*
X121147617Y-81468769D01*
X120656771Y-81671582D01*
X120280902Y-82046796D01*
X120176593Y-82298000D01*
X119073225Y-82298000D01*
X119083127Y-82288098D01*
X119179800Y-82054709D01*
X119179800Y-81464150D01*
X119021050Y-81305400D01*
X117271800Y-81305400D01*
X117271800Y-81325400D01*
X117017800Y-81325400D01*
X117017800Y-81305400D01*
X115268550Y-81305400D01*
X115109800Y-81464150D01*
X115109800Y-82054709D01*
X115206473Y-82288098D01*
X115216375Y-82298000D01*
X114692003Y-82298000D01*
X114772431Y-82180290D01*
X114823440Y-81928400D01*
X114823440Y-80428400D01*
X114779162Y-80193083D01*
X114693715Y-80060295D01*
X114772431Y-79945090D01*
X114823440Y-79693200D01*
X114823440Y-79228950D01*
X115109800Y-79228950D01*
X115109800Y-79819509D01*
X115206473Y-80052898D01*
X115214375Y-80060800D01*
X115206473Y-80068702D01*
X115109800Y-80302091D01*
X115109800Y-80892650D01*
X115268550Y-81051400D01*
X117017800Y-81051400D01*
X117017800Y-79070200D01*
X117271800Y-79070200D01*
X117271800Y-81051400D01*
X119021050Y-81051400D01*
X119179800Y-80892650D01*
X119179800Y-80302091D01*
X119083127Y-80068702D01*
X119075225Y-80060800D01*
X119083127Y-80052898D01*
X119179800Y-79819509D01*
X119179800Y-79228950D01*
X119021050Y-79070200D01*
X117271800Y-79070200D01*
X117017800Y-79070200D01*
X115268550Y-79070200D01*
X115109800Y-79228950D01*
X114823440Y-79228950D01*
X114823440Y-78193200D01*
X114779162Y-77957883D01*
X114660046Y-77772771D01*
X114772431Y-77608290D01*
X114823440Y-77356400D01*
X114823440Y-76892150D01*
X115109800Y-76892150D01*
X115109800Y-77482709D01*
X115206473Y-77716098D01*
X115265175Y-77774800D01*
X115206473Y-77833502D01*
X115109800Y-78066891D01*
X115109800Y-78657450D01*
X115268550Y-78816200D01*
X117017800Y-78816200D01*
X117017800Y-76733400D01*
X117271800Y-76733400D01*
X117271800Y-78816200D01*
X119021050Y-78816200D01*
X119179800Y-78657450D01*
X119179800Y-78066891D01*
X119083127Y-77833502D01*
X119024425Y-77774800D01*
X119083127Y-77716098D01*
X119179800Y-77482709D01*
X119179800Y-76892150D01*
X119021050Y-76733400D01*
X117271800Y-76733400D01*
X117017800Y-76733400D01*
X115268550Y-76733400D01*
X115109800Y-76892150D01*
X114823440Y-76892150D01*
X114823440Y-75856400D01*
X114799674Y-75730091D01*
X115109800Y-75730091D01*
X115109800Y-76320650D01*
X115268550Y-76479400D01*
X117017800Y-76479400D01*
X117017800Y-75380150D01*
X117271800Y-75380150D01*
X117271800Y-76479400D01*
X119021050Y-76479400D01*
X119179800Y-76320650D01*
X119179800Y-75730091D01*
X119083127Y-75496702D01*
X118904499Y-75318073D01*
X118671110Y-75221400D01*
X117430550Y-75221400D01*
X117271800Y-75380150D01*
X117017800Y-75380150D01*
X116859050Y-75221400D01*
X115618490Y-75221400D01*
X115385101Y-75318073D01*
X115206473Y-75496702D01*
X115109800Y-75730091D01*
X114799674Y-75730091D01*
X114779162Y-75621083D01*
X114640090Y-75404959D01*
X114427890Y-75259969D01*
X114176000Y-75208960D01*
X111376000Y-75208960D01*
X111140683Y-75253238D01*
X110924559Y-75392310D01*
X110779569Y-75604510D01*
X110728560Y-75856400D01*
X109600932Y-75856400D01*
X109691379Y-75721036D01*
X109793000Y-75210154D01*
X109793000Y-75182000D01*
X120077000Y-75182000D01*
X120077000Y-75210154D01*
X120178621Y-75721036D01*
X120468012Y-76154142D01*
X120901118Y-76443533D01*
X121412000Y-76545154D01*
X121922882Y-76443533D01*
X122355988Y-76154142D01*
X122554932Y-75856400D01*
X123428560Y-75856400D01*
X123428560Y-77356400D01*
X123472838Y-77591717D01*
X123591954Y-77776829D01*
X123479569Y-77941310D01*
X123428560Y-78193200D01*
X123428560Y-79693200D01*
X123472838Y-79928517D01*
X123558285Y-80061305D01*
X123479569Y-80176510D01*
X123428560Y-80428400D01*
X123428560Y-81928400D01*
X123472838Y-82163717D01*
X123611910Y-82379841D01*
X123824110Y-82524831D01*
X124076000Y-82575840D01*
X124721140Y-82575840D01*
X124773852Y-82840839D01*
X124938599Y-83087401D01*
X125192599Y-83341401D01*
X125439160Y-83506148D01*
X125730000Y-83564000D01*
X132984345Y-83564000D01*
X133354796Y-83935098D01*
X133845287Y-84138768D01*
X134376383Y-84139231D01*
X134867229Y-83936418D01*
X135243098Y-83561204D01*
X135446768Y-83070713D01*
X135447231Y-82539617D01*
X135244418Y-82048771D01*
X134869204Y-81672902D01*
X134378713Y-81469232D01*
X133847617Y-81468769D01*
X133356771Y-81671582D01*
X132983703Y-82044000D01*
X131879800Y-82044000D01*
X131879800Y-81464150D01*
X131721050Y-81305400D01*
X129971800Y-81305400D01*
X129971800Y-81325400D01*
X129717800Y-81325400D01*
X129717800Y-81305400D01*
X127968550Y-81305400D01*
X127809800Y-81464150D01*
X127809800Y-82044000D01*
X127500030Y-82044000D01*
X127523440Y-81928400D01*
X127523440Y-80428400D01*
X127479162Y-80193083D01*
X127393715Y-80060295D01*
X127472431Y-79945090D01*
X127523440Y-79693200D01*
X127523440Y-79228950D01*
X127809800Y-79228950D01*
X127809800Y-79819509D01*
X127906473Y-80052898D01*
X127914375Y-80060800D01*
X127906473Y-80068702D01*
X127809800Y-80302091D01*
X127809800Y-80892650D01*
X127968550Y-81051400D01*
X129717800Y-81051400D01*
X129717800Y-79070200D01*
X129971800Y-79070200D01*
X129971800Y-81051400D01*
X131721050Y-81051400D01*
X131879800Y-80892650D01*
X131879800Y-80302091D01*
X131783127Y-80068702D01*
X131775225Y-80060800D01*
X131783127Y-80052898D01*
X131879800Y-79819509D01*
X131879800Y-79228950D01*
X131721050Y-79070200D01*
X129971800Y-79070200D01*
X129717800Y-79070200D01*
X127968550Y-79070200D01*
X127809800Y-79228950D01*
X127523440Y-79228950D01*
X127523440Y-78193200D01*
X127479162Y-77957883D01*
X127360046Y-77772771D01*
X127472431Y-77608290D01*
X127523440Y-77356400D01*
X127523440Y-76892150D01*
X127809800Y-76892150D01*
X127809800Y-77482709D01*
X127906473Y-77716098D01*
X127965175Y-77774800D01*
X127906473Y-77833502D01*
X127809800Y-78066891D01*
X127809800Y-78657450D01*
X127968550Y-78816200D01*
X129717800Y-78816200D01*
X129717800Y-76733400D01*
X129971800Y-76733400D01*
X129971800Y-78816200D01*
X131721050Y-78816200D01*
X131879800Y-78657450D01*
X131879800Y-78066891D01*
X131783127Y-77833502D01*
X131724425Y-77774800D01*
X131783127Y-77716098D01*
X131879800Y-77482709D01*
X131879800Y-76892150D01*
X131721050Y-76733400D01*
X129971800Y-76733400D01*
X129717800Y-76733400D01*
X127968550Y-76733400D01*
X127809800Y-76892150D01*
X127523440Y-76892150D01*
X127523440Y-75856400D01*
X127499674Y-75730091D01*
X127809800Y-75730091D01*
X127809800Y-76320650D01*
X127968550Y-76479400D01*
X129717800Y-76479400D01*
X129717800Y-75380150D01*
X129971800Y-75380150D01*
X129971800Y-76479400D01*
X131721050Y-76479400D01*
X131879800Y-76320650D01*
X131879800Y-75730091D01*
X131783127Y-75496702D01*
X131604499Y-75318073D01*
X131371110Y-75221400D01*
X130130550Y-75221400D01*
X129971800Y-75380150D01*
X129717800Y-75380150D01*
X129559050Y-75221400D01*
X128318490Y-75221400D01*
X128085101Y-75318073D01*
X127906473Y-75496702D01*
X127809800Y-75730091D01*
X127499674Y-75730091D01*
X127479162Y-75621083D01*
X127340090Y-75404959D01*
X127127890Y-75259969D01*
X126876000Y-75208960D01*
X124076000Y-75208960D01*
X123840683Y-75253238D01*
X123624559Y-75392310D01*
X123479569Y-75604510D01*
X123428560Y-75856400D01*
X122554932Y-75856400D01*
X122645379Y-75721036D01*
X122747000Y-75210154D01*
X122747000Y-75182000D01*
X132777000Y-75182000D01*
X132777000Y-75210154D01*
X132878621Y-75721036D01*
X133168012Y-76154142D01*
X133601118Y-76443533D01*
X134112000Y-76545154D01*
X134622882Y-76443533D01*
X135055988Y-76154142D01*
X135254932Y-75856400D01*
X136128560Y-75856400D01*
X136128560Y-77356400D01*
X136172838Y-77591717D01*
X136291954Y-77776829D01*
X136179569Y-77941310D01*
X136128560Y-78193200D01*
X136128560Y-79693200D01*
X136172838Y-79928517D01*
X136258285Y-80061305D01*
X136179569Y-80176510D01*
X136128560Y-80428400D01*
X136128560Y-81928400D01*
X136172838Y-82163717D01*
X136311910Y-82379841D01*
X136524110Y-82524831D01*
X136776000Y-82575840D01*
X137416000Y-82575840D01*
X137416000Y-82804000D01*
X137473852Y-83094839D01*
X137638599Y-83341401D01*
X137885161Y-83506148D01*
X138176000Y-83564000D01*
X145938345Y-83564000D01*
X146308796Y-83935098D01*
X146799287Y-84138768D01*
X147330383Y-84139231D01*
X147821229Y-83936418D01*
X148197098Y-83561204D01*
X148400768Y-83070713D01*
X148401231Y-82539617D01*
X148198418Y-82048771D01*
X147823204Y-81672902D01*
X147332713Y-81469232D01*
X146801617Y-81468769D01*
X146310771Y-81671582D01*
X145937703Y-82044000D01*
X144579800Y-82044000D01*
X144579800Y-81464150D01*
X144421050Y-81305400D01*
X142671800Y-81305400D01*
X142671800Y-81325400D01*
X142417800Y-81325400D01*
X142417800Y-81305400D01*
X140668550Y-81305400D01*
X140509800Y-81464150D01*
X140509800Y-82044000D01*
X140200030Y-82044000D01*
X140223440Y-81928400D01*
X140223440Y-80428400D01*
X140179162Y-80193083D01*
X140093715Y-80060295D01*
X140172431Y-79945090D01*
X140223440Y-79693200D01*
X140223440Y-79228950D01*
X140509800Y-79228950D01*
X140509800Y-79819509D01*
X140606473Y-80052898D01*
X140614375Y-80060800D01*
X140606473Y-80068702D01*
X140509800Y-80302091D01*
X140509800Y-80892650D01*
X140668550Y-81051400D01*
X142417800Y-81051400D01*
X142417800Y-79070200D01*
X142671800Y-79070200D01*
X142671800Y-81051400D01*
X144421050Y-81051400D01*
X144579800Y-80892650D01*
X144579800Y-80302091D01*
X144483127Y-80068702D01*
X144475225Y-80060800D01*
X144483127Y-80052898D01*
X144579800Y-79819509D01*
X144579800Y-79228950D01*
X144421050Y-79070200D01*
X142671800Y-79070200D01*
X142417800Y-79070200D01*
X140668550Y-79070200D01*
X140509800Y-79228950D01*
X140223440Y-79228950D01*
X140223440Y-78193200D01*
X140179162Y-77957883D01*
X140060046Y-77772771D01*
X140172431Y-77608290D01*
X140223440Y-77356400D01*
X140223440Y-76892150D01*
X140509800Y-76892150D01*
X140509800Y-77482709D01*
X140606473Y-77716098D01*
X140665175Y-77774800D01*
X140606473Y-77833502D01*
X140509800Y-78066891D01*
X140509800Y-78657450D01*
X140668550Y-78816200D01*
X142417800Y-78816200D01*
X142417800Y-76733400D01*
X142671800Y-76733400D01*
X142671800Y-78816200D01*
X144421050Y-78816200D01*
X144579800Y-78657450D01*
X144579800Y-78066891D01*
X144483127Y-77833502D01*
X144424425Y-77774800D01*
X144483127Y-77716098D01*
X144579800Y-77482709D01*
X144579800Y-76892150D01*
X144421050Y-76733400D01*
X142671800Y-76733400D01*
X142417800Y-76733400D01*
X140668550Y-76733400D01*
X140509800Y-76892150D01*
X140223440Y-76892150D01*
X140223440Y-75856400D01*
X140199674Y-75730091D01*
X140509800Y-75730091D01*
X140509800Y-76320650D01*
X140668550Y-76479400D01*
X142417800Y-76479400D01*
X142417800Y-75380150D01*
X142671800Y-75380150D01*
X142671800Y-76479400D01*
X144421050Y-76479400D01*
X144579800Y-76320650D01*
X144579800Y-75730091D01*
X144483127Y-75496702D01*
X144304499Y-75318073D01*
X144071110Y-75221400D01*
X142830550Y-75221400D01*
X142671800Y-75380150D01*
X142417800Y-75380150D01*
X142259050Y-75221400D01*
X141018490Y-75221400D01*
X140785101Y-75318073D01*
X140606473Y-75496702D01*
X140509800Y-75730091D01*
X140199674Y-75730091D01*
X140179162Y-75621083D01*
X140040090Y-75404959D01*
X139827890Y-75259969D01*
X139576000Y-75208960D01*
X136776000Y-75208960D01*
X136540683Y-75253238D01*
X136324559Y-75392310D01*
X136179569Y-75604510D01*
X136128560Y-75856400D01*
X135254932Y-75856400D01*
X135345379Y-75721036D01*
X135447000Y-75210154D01*
X135447000Y-75182000D01*
X145731000Y-75182000D01*
X145731000Y-75210154D01*
X145832621Y-75721036D01*
X146122012Y-76154142D01*
X146555118Y-76443533D01*
X147066000Y-76545154D01*
X147576882Y-76443533D01*
X148009988Y-76154142D01*
X148208932Y-75856400D01*
X148828560Y-75856400D01*
X148828560Y-77356400D01*
X148872838Y-77591717D01*
X148991954Y-77776829D01*
X148879569Y-77941310D01*
X148828560Y-78193200D01*
X148828560Y-79693200D01*
X148872838Y-79928517D01*
X148958285Y-80061305D01*
X148879569Y-80176510D01*
X148828560Y-80428400D01*
X148828560Y-81928400D01*
X148872838Y-82163717D01*
X149011910Y-82379841D01*
X149224110Y-82524831D01*
X149476000Y-82575840D01*
X150121140Y-82575840D01*
X150173852Y-82840839D01*
X150338599Y-83087401D01*
X150592599Y-83341401D01*
X150839160Y-83506148D01*
X151130000Y-83564000D01*
X158384345Y-83564000D01*
X158754796Y-83935098D01*
X159245287Y-84138768D01*
X159776383Y-84139231D01*
X160267229Y-83936418D01*
X160643098Y-83561204D01*
X160846768Y-83070713D01*
X160847231Y-82539617D01*
X160644418Y-82048771D01*
X160269204Y-81672902D01*
X159778713Y-81469232D01*
X159247617Y-81468769D01*
X158756771Y-81671582D01*
X158383703Y-82044000D01*
X157279800Y-82044000D01*
X157279800Y-81464150D01*
X157121050Y-81305400D01*
X155371800Y-81305400D01*
X155371800Y-81325400D01*
X155117800Y-81325400D01*
X155117800Y-81305400D01*
X153368550Y-81305400D01*
X153209800Y-81464150D01*
X153209800Y-82044000D01*
X152900030Y-82044000D01*
X152923440Y-81928400D01*
X152923440Y-80428400D01*
X152879162Y-80193083D01*
X152793715Y-80060295D01*
X152872431Y-79945090D01*
X152923440Y-79693200D01*
X152923440Y-79228950D01*
X153209800Y-79228950D01*
X153209800Y-79819509D01*
X153306473Y-80052898D01*
X153314375Y-80060800D01*
X153306473Y-80068702D01*
X153209800Y-80302091D01*
X153209800Y-80892650D01*
X153368550Y-81051400D01*
X155117800Y-81051400D01*
X155117800Y-79070200D01*
X155371800Y-79070200D01*
X155371800Y-81051400D01*
X157121050Y-81051400D01*
X157279800Y-80892650D01*
X157279800Y-80302091D01*
X157183127Y-80068702D01*
X157175225Y-80060800D01*
X157183127Y-80052898D01*
X157279800Y-79819509D01*
X157279800Y-79228950D01*
X157121050Y-79070200D01*
X155371800Y-79070200D01*
X155117800Y-79070200D01*
X153368550Y-79070200D01*
X153209800Y-79228950D01*
X152923440Y-79228950D01*
X152923440Y-78193200D01*
X152879162Y-77957883D01*
X152760046Y-77772771D01*
X152872431Y-77608290D01*
X152923440Y-77356400D01*
X152923440Y-76892150D01*
X153209800Y-76892150D01*
X153209800Y-77482709D01*
X153306473Y-77716098D01*
X153365175Y-77774800D01*
X153306473Y-77833502D01*
X153209800Y-78066891D01*
X153209800Y-78657450D01*
X153368550Y-78816200D01*
X155117800Y-78816200D01*
X155117800Y-76733400D01*
X155371800Y-76733400D01*
X155371800Y-78816200D01*
X157121050Y-78816200D01*
X157279800Y-78657450D01*
X157279800Y-78066891D01*
X157183127Y-77833502D01*
X157124425Y-77774800D01*
X157183127Y-77716098D01*
X157279800Y-77482709D01*
X157279800Y-76892150D01*
X157121050Y-76733400D01*
X155371800Y-76733400D01*
X155117800Y-76733400D01*
X153368550Y-76733400D01*
X153209800Y-76892150D01*
X152923440Y-76892150D01*
X152923440Y-75856400D01*
X152899674Y-75730091D01*
X153209800Y-75730091D01*
X153209800Y-76320650D01*
X153368550Y-76479400D01*
X155117800Y-76479400D01*
X155117800Y-75380150D01*
X155371800Y-75380150D01*
X155371800Y-76479400D01*
X157121050Y-76479400D01*
X157279800Y-76320650D01*
X157279800Y-75730091D01*
X157183127Y-75496702D01*
X157004499Y-75318073D01*
X156771110Y-75221400D01*
X155530550Y-75221400D01*
X155371800Y-75380150D01*
X155117800Y-75380150D01*
X154959050Y-75221400D01*
X153718490Y-75221400D01*
X153485101Y-75318073D01*
X153306473Y-75496702D01*
X153209800Y-75730091D01*
X152899674Y-75730091D01*
X152879162Y-75621083D01*
X152740090Y-75404959D01*
X152527890Y-75259969D01*
X152276000Y-75208960D01*
X149476000Y-75208960D01*
X149240683Y-75253238D01*
X149024559Y-75392310D01*
X148879569Y-75604510D01*
X148828560Y-75856400D01*
X148208932Y-75856400D01*
X148299379Y-75721036D01*
X148401000Y-75210154D01*
X148401000Y-75182000D01*
X158177000Y-75182000D01*
X158177000Y-75210154D01*
X158278621Y-75721036D01*
X158568012Y-76154142D01*
X159001118Y-76443533D01*
X159512000Y-76545154D01*
X160022882Y-76443533D01*
X160455988Y-76154142D01*
X160654932Y-75856400D01*
X162036560Y-75856400D01*
X162036560Y-77356400D01*
X162080838Y-77591717D01*
X162199954Y-77776829D01*
X162087569Y-77941310D01*
X162036560Y-78193200D01*
X162036560Y-79693200D01*
X162080838Y-79928517D01*
X162166285Y-80061305D01*
X162087569Y-80176510D01*
X162036560Y-80428400D01*
X162036560Y-81928400D01*
X162080838Y-82163717D01*
X162219910Y-82379841D01*
X162432110Y-82524831D01*
X162684000Y-82575840D01*
X163324000Y-82575840D01*
X163324000Y-82804000D01*
X163381852Y-83094839D01*
X163546599Y-83341401D01*
X163793161Y-83506148D01*
X164084000Y-83564000D01*
X171592345Y-83564000D01*
X171962796Y-83935098D01*
X172453287Y-84138768D01*
X172984383Y-84139231D01*
X173475229Y-83936418D01*
X173851098Y-83561204D01*
X174054768Y-83070713D01*
X174055231Y-82539617D01*
X173852418Y-82048771D01*
X173477204Y-81672902D01*
X172986713Y-81469232D01*
X172455617Y-81468769D01*
X171964771Y-81671582D01*
X171591703Y-82044000D01*
X170487800Y-82044000D01*
X170487800Y-81464150D01*
X170329050Y-81305400D01*
X168579800Y-81305400D01*
X168579800Y-81325400D01*
X168325800Y-81325400D01*
X168325800Y-81305400D01*
X166576550Y-81305400D01*
X166417800Y-81464150D01*
X166417800Y-82044000D01*
X166108030Y-82044000D01*
X166131440Y-81928400D01*
X166131440Y-80428400D01*
X166087162Y-80193083D01*
X166001715Y-80060295D01*
X166080431Y-79945090D01*
X166131440Y-79693200D01*
X166131440Y-79228950D01*
X166417800Y-79228950D01*
X166417800Y-79819509D01*
X166514473Y-80052898D01*
X166522375Y-80060800D01*
X166514473Y-80068702D01*
X166417800Y-80302091D01*
X166417800Y-80892650D01*
X166576550Y-81051400D01*
X168325800Y-81051400D01*
X168325800Y-79070200D01*
X168579800Y-79070200D01*
X168579800Y-81051400D01*
X170329050Y-81051400D01*
X170487800Y-80892650D01*
X170487800Y-80302091D01*
X170391127Y-80068702D01*
X170383225Y-80060800D01*
X170391127Y-80052898D01*
X170487800Y-79819509D01*
X170487800Y-79228950D01*
X170329050Y-79070200D01*
X168579800Y-79070200D01*
X168325800Y-79070200D01*
X166576550Y-79070200D01*
X166417800Y-79228950D01*
X166131440Y-79228950D01*
X166131440Y-78193200D01*
X166087162Y-77957883D01*
X165968046Y-77772771D01*
X166080431Y-77608290D01*
X166131440Y-77356400D01*
X166131440Y-76892150D01*
X166417800Y-76892150D01*
X166417800Y-77482709D01*
X166514473Y-77716098D01*
X166573175Y-77774800D01*
X166514473Y-77833502D01*
X166417800Y-78066891D01*
X166417800Y-78657450D01*
X166576550Y-78816200D01*
X168325800Y-78816200D01*
X168325800Y-76733400D01*
X168579800Y-76733400D01*
X168579800Y-78816200D01*
X170329050Y-78816200D01*
X170487800Y-78657450D01*
X170487800Y-78066891D01*
X170391127Y-77833502D01*
X170332425Y-77774800D01*
X170391127Y-77716098D01*
X170487800Y-77482709D01*
X170487800Y-76892150D01*
X170329050Y-76733400D01*
X168579800Y-76733400D01*
X168325800Y-76733400D01*
X166576550Y-76733400D01*
X166417800Y-76892150D01*
X166131440Y-76892150D01*
X166131440Y-75856400D01*
X166107674Y-75730091D01*
X166417800Y-75730091D01*
X166417800Y-76320650D01*
X166576550Y-76479400D01*
X168325800Y-76479400D01*
X168325800Y-75380150D01*
X168579800Y-75380150D01*
X168579800Y-76479400D01*
X170329050Y-76479400D01*
X170487800Y-76320650D01*
X170487800Y-75730091D01*
X170391127Y-75496702D01*
X170212499Y-75318073D01*
X169979110Y-75221400D01*
X168738550Y-75221400D01*
X168579800Y-75380150D01*
X168325800Y-75380150D01*
X168167050Y-75221400D01*
X166926490Y-75221400D01*
X166693101Y-75318073D01*
X166514473Y-75496702D01*
X166417800Y-75730091D01*
X166107674Y-75730091D01*
X166087162Y-75621083D01*
X165948090Y-75404959D01*
X165735890Y-75259969D01*
X165484000Y-75208960D01*
X162684000Y-75208960D01*
X162448683Y-75253238D01*
X162232559Y-75392310D01*
X162087569Y-75604510D01*
X162036560Y-75856400D01*
X160654932Y-75856400D01*
X160745379Y-75721036D01*
X160847000Y-75210154D01*
X160847000Y-75182000D01*
X171385000Y-75182000D01*
X171385000Y-75210154D01*
X171486621Y-75721036D01*
X171776012Y-76154142D01*
X172209118Y-76443533D01*
X172720000Y-76545154D01*
X173230882Y-76443533D01*
X173663988Y-76154142D01*
X173953379Y-75721036D01*
X174055000Y-75210154D01*
X174055000Y-75182000D01*
X184085000Y-75182000D01*
X184085000Y-75210154D01*
X184186621Y-75721036D01*
X184476012Y-76154142D01*
X184909118Y-76443533D01*
X185420000Y-76545154D01*
X185930882Y-76443533D01*
X186363988Y-76154142D01*
X186504400Y-75944000D01*
X186586779Y-75944000D01*
X186586630Y-76114815D01*
X186910980Y-76899800D01*
X187511041Y-77500909D01*
X188295459Y-77826628D01*
X189144815Y-77827370D01*
X189929800Y-77503020D01*
X190323000Y-77110506D01*
X190323000Y-79888728D01*
X190201758Y-79767274D01*
X189325487Y-79403415D01*
X188376675Y-79402587D01*
X187499771Y-79764916D01*
X186828274Y-80435242D01*
X186464415Y-81311513D01*
X186463849Y-81960047D01*
X186177204Y-81672902D01*
X185686713Y-81469232D01*
X185155617Y-81468769D01*
X184664771Y-81671582D01*
X184291703Y-82044000D01*
X183187800Y-82044000D01*
X183187800Y-81464150D01*
X183029050Y-81305400D01*
X181279800Y-81305400D01*
X181279800Y-81325400D01*
X181025800Y-81325400D01*
X181025800Y-81305400D01*
X179276550Y-81305400D01*
X179117800Y-81464150D01*
X179117800Y-82044000D01*
X178808030Y-82044000D01*
X178831440Y-81928400D01*
X178831440Y-80428400D01*
X178787162Y-80193083D01*
X178701715Y-80060295D01*
X178780431Y-79945090D01*
X178831440Y-79693200D01*
X178831440Y-79228950D01*
X179117800Y-79228950D01*
X179117800Y-79819509D01*
X179214473Y-80052898D01*
X179222375Y-80060800D01*
X179214473Y-80068702D01*
X179117800Y-80302091D01*
X179117800Y-80892650D01*
X179276550Y-81051400D01*
X181025800Y-81051400D01*
X181025800Y-79070200D01*
X181279800Y-79070200D01*
X181279800Y-81051400D01*
X183029050Y-81051400D01*
X183187800Y-80892650D01*
X183187800Y-80302091D01*
X183091127Y-80068702D01*
X183083225Y-80060800D01*
X183091127Y-80052898D01*
X183187800Y-79819509D01*
X183187800Y-79228950D01*
X183029050Y-79070200D01*
X181279800Y-79070200D01*
X181025800Y-79070200D01*
X179276550Y-79070200D01*
X179117800Y-79228950D01*
X178831440Y-79228950D01*
X178831440Y-78193200D01*
X178787162Y-77957883D01*
X178668046Y-77772771D01*
X178780431Y-77608290D01*
X178831440Y-77356400D01*
X178831440Y-76892150D01*
X179117800Y-76892150D01*
X179117800Y-77482709D01*
X179214473Y-77716098D01*
X179273175Y-77774800D01*
X179214473Y-77833502D01*
X179117800Y-78066891D01*
X179117800Y-78657450D01*
X179276550Y-78816200D01*
X181025800Y-78816200D01*
X181025800Y-76733400D01*
X181279800Y-76733400D01*
X181279800Y-78816200D01*
X183029050Y-78816200D01*
X183187800Y-78657450D01*
X183187800Y-78066891D01*
X183091127Y-77833502D01*
X183032425Y-77774800D01*
X183091127Y-77716098D01*
X183187800Y-77482709D01*
X183187800Y-76892150D01*
X183029050Y-76733400D01*
X181279800Y-76733400D01*
X181025800Y-76733400D01*
X179276550Y-76733400D01*
X179117800Y-76892150D01*
X178831440Y-76892150D01*
X178831440Y-75856400D01*
X178807674Y-75730091D01*
X179117800Y-75730091D01*
X179117800Y-76320650D01*
X179276550Y-76479400D01*
X181025800Y-76479400D01*
X181025800Y-75380150D01*
X181279800Y-75380150D01*
X181279800Y-76479400D01*
X183029050Y-76479400D01*
X183187800Y-76320650D01*
X183187800Y-75730091D01*
X183091127Y-75496702D01*
X182912499Y-75318073D01*
X182679110Y-75221400D01*
X181438550Y-75221400D01*
X181279800Y-75380150D01*
X181025800Y-75380150D01*
X180867050Y-75221400D01*
X179626490Y-75221400D01*
X179393101Y-75318073D01*
X179214473Y-75496702D01*
X179117800Y-75730091D01*
X178807674Y-75730091D01*
X178787162Y-75621083D01*
X178648090Y-75404959D01*
X178435890Y-75259969D01*
X178184000Y-75208960D01*
X175384000Y-75208960D01*
X175148683Y-75253238D01*
X174932559Y-75392310D01*
X174787569Y-75604510D01*
X174736560Y-75856400D01*
X174736560Y-77356400D01*
X174780838Y-77591717D01*
X174899954Y-77776829D01*
X174787569Y-77941310D01*
X174736560Y-78193200D01*
X174736560Y-79693200D01*
X174780838Y-79928517D01*
X174866285Y-80061305D01*
X174787569Y-80176510D01*
X174736560Y-80428400D01*
X174736560Y-81928400D01*
X174780838Y-82163717D01*
X174919910Y-82379841D01*
X175132110Y-82524831D01*
X175384000Y-82575840D01*
X176029140Y-82575840D01*
X176081852Y-82840839D01*
X176246599Y-83087401D01*
X176500599Y-83341401D01*
X176747160Y-83506148D01*
X177038000Y-83564000D01*
X184292345Y-83564000D01*
X184662796Y-83935098D01*
X185153287Y-84138768D01*
X185684383Y-84139231D01*
X186175229Y-83936418D01*
X186551098Y-83561204D01*
X186754768Y-83070713D01*
X186754860Y-82965260D01*
X186825916Y-83137229D01*
X187496242Y-83808726D01*
X188372513Y-84172585D01*
X189321325Y-84173413D01*
X190198229Y-83811084D01*
X190323000Y-83686531D01*
X190323000Y-84405000D01*
X84199296Y-84405000D01*
X84407229Y-84319084D01*
X85078726Y-83648758D01*
X85442585Y-82772487D01*
X85443021Y-82272785D01*
X85511910Y-82379841D01*
X85724110Y-82524831D01*
X85976000Y-82575840D01*
X86616000Y-82575840D01*
X86616000Y-83058000D01*
X86673852Y-83348839D01*
X86838599Y-83595401D01*
X86965599Y-83722401D01*
X87212161Y-83887148D01*
X87503000Y-83945000D01*
X95278643Y-83945000D01*
X95745287Y-84138768D01*
X96276383Y-84139231D01*
X96767229Y-83936418D01*
X97143098Y-83561204D01*
X97346768Y-83070713D01*
X97347231Y-82539617D01*
X97144418Y-82048771D01*
X96769204Y-81672902D01*
X96278713Y-81469232D01*
X95747617Y-81468769D01*
X95256771Y-81671582D01*
X94880902Y-82046796D01*
X94723858Y-82425000D01*
X93546226Y-82425000D01*
X93683127Y-82288098D01*
X93779800Y-82054709D01*
X93779800Y-81464150D01*
X93621050Y-81305400D01*
X91871800Y-81305400D01*
X91871800Y-81325400D01*
X91617800Y-81325400D01*
X91617800Y-81305400D01*
X89868550Y-81305400D01*
X89709800Y-81464150D01*
X89709800Y-82054709D01*
X89806473Y-82288098D01*
X89943374Y-82425000D01*
X89176919Y-82425000D01*
X89227441Y-82392490D01*
X89372431Y-82180290D01*
X89423440Y-81928400D01*
X89423440Y-80428400D01*
X89379162Y-80193083D01*
X89293715Y-80060295D01*
X89372431Y-79945090D01*
X89423440Y-79693200D01*
X89423440Y-79228950D01*
X89709800Y-79228950D01*
X89709800Y-79819509D01*
X89806473Y-80052898D01*
X89814375Y-80060800D01*
X89806473Y-80068702D01*
X89709800Y-80302091D01*
X89709800Y-80892650D01*
X89868550Y-81051400D01*
X91617800Y-81051400D01*
X91617800Y-79070200D01*
X91871800Y-79070200D01*
X91871800Y-81051400D01*
X93621050Y-81051400D01*
X93779800Y-80892650D01*
X93779800Y-80302091D01*
X93683127Y-80068702D01*
X93675225Y-80060800D01*
X93683127Y-80052898D01*
X93779800Y-79819509D01*
X93779800Y-79228950D01*
X93621050Y-79070200D01*
X91871800Y-79070200D01*
X91617800Y-79070200D01*
X89868550Y-79070200D01*
X89709800Y-79228950D01*
X89423440Y-79228950D01*
X89423440Y-78193200D01*
X89379162Y-77957883D01*
X89260046Y-77772771D01*
X89372431Y-77608290D01*
X89423440Y-77356400D01*
X89423440Y-76892150D01*
X89709800Y-76892150D01*
X89709800Y-77482709D01*
X89806473Y-77716098D01*
X89865175Y-77774800D01*
X89806473Y-77833502D01*
X89709800Y-78066891D01*
X89709800Y-78657450D01*
X89868550Y-78816200D01*
X91617800Y-78816200D01*
X91617800Y-76733400D01*
X91871800Y-76733400D01*
X91871800Y-78816200D01*
X93621050Y-78816200D01*
X93779800Y-78657450D01*
X93779800Y-78066891D01*
X93683127Y-77833502D01*
X93624425Y-77774800D01*
X93683127Y-77716098D01*
X93779800Y-77482709D01*
X93779800Y-76892150D01*
X93621050Y-76733400D01*
X91871800Y-76733400D01*
X91617800Y-76733400D01*
X89868550Y-76733400D01*
X89709800Y-76892150D01*
X89423440Y-76892150D01*
X89423440Y-75856400D01*
X89399674Y-75730091D01*
X89709800Y-75730091D01*
X89709800Y-76320650D01*
X89868550Y-76479400D01*
X91617800Y-76479400D01*
X91617800Y-75380150D01*
X91871800Y-75380150D01*
X91871800Y-76479400D01*
X93621050Y-76479400D01*
X93779800Y-76320650D01*
X93779800Y-75730091D01*
X93683127Y-75496702D01*
X93504499Y-75318073D01*
X93271110Y-75221400D01*
X92030550Y-75221400D01*
X91871800Y-75380150D01*
X91617800Y-75380150D01*
X91459050Y-75221400D01*
X90218490Y-75221400D01*
X89985101Y-75318073D01*
X89806473Y-75496702D01*
X89709800Y-75730091D01*
X89399674Y-75730091D01*
X89379162Y-75621083D01*
X89240090Y-75404959D01*
X89027890Y-75259969D01*
X88776000Y-75208960D01*
X85976000Y-75208960D01*
X85740683Y-75253238D01*
X85524559Y-75392310D01*
X85379569Y-75604510D01*
X85328560Y-75856400D01*
X85328560Y-77356400D01*
X85372838Y-77591717D01*
X85491954Y-77776829D01*
X85379569Y-77941310D01*
X85328560Y-78193200D01*
X85328560Y-79693200D01*
X85372838Y-79928517D01*
X85458285Y-80061305D01*
X85379569Y-80176510D01*
X85328560Y-80428400D01*
X85328560Y-81545709D01*
X85081084Y-80946771D01*
X84410758Y-80275274D01*
X83941111Y-80080260D01*
X83978582Y-80064739D01*
X84138365Y-79745970D01*
X82804000Y-78411605D01*
X81469635Y-79745970D01*
X81629418Y-80064739D01*
X81928681Y-80182051D01*
X81708771Y-80272916D01*
X81203000Y-80777805D01*
X81203000Y-79522741D01*
X81290030Y-79566365D01*
X82624395Y-78232000D01*
X82983605Y-78232000D01*
X84317970Y-79566365D01*
X84636739Y-79406582D01*
X84946723Y-78615813D01*
X84930497Y-77766613D01*
X84636739Y-77057418D01*
X84317970Y-76897635D01*
X82983605Y-78232000D01*
X82624395Y-78232000D01*
X81290030Y-76897635D01*
X81203000Y-76941259D01*
X81203000Y-76718030D01*
X81469635Y-76718030D01*
X82804000Y-78052395D01*
X84138365Y-76718030D01*
X83978582Y-76399261D01*
X83187813Y-76089277D01*
X82338613Y-76105503D01*
X81629418Y-76399261D01*
X81469635Y-76718030D01*
X81203000Y-76718030D01*
X81203000Y-74345000D01*
X94980386Y-74345000D01*
X94778621Y-74646964D01*
M02*
