M48
INCH,TZ
T1C0.016
T2C0.030
T3C0.031
T4C0.035
T5C0.039
T6C0.039
T7C0.051
%
G90
G05
T1
X8000Y-44000
X8000Y-45000
X8000Y-46000
X8000Y-47000
X8000Y-48000
X8000Y-49000
X8000Y-50000
X8000Y-51000
X8000Y-52000
X8000Y-53000
X8000Y-54000
X8000Y-55000
X8000Y-56000
X8000Y-57000
X8000Y-58000
X8000Y-62000
X8000Y-63000
X9000Y-44000
X9000Y-45000
X9000Y-46000
X9000Y-47000
X9000Y-48000
X9000Y-49000
X9000Y-50000
X9000Y-51000
X9000Y-52000
X9000Y-53000
X9000Y-54000
X9000Y-55000
X9000Y-56000
X9000Y-57000
X9000Y-58000
X10000Y-44000
X10000Y-45000
X10000Y-46000
X10000Y-47000
X10000Y-48000
X10000Y-49000
X10000Y-50000
X10000Y-51000
X10000Y-52000
X10000Y-53000
X10000Y-54000
X10000Y-55000
X10000Y-56000
X10000Y-57000
X10000Y-58000
X10000Y-59000
X10000Y-60000
X10000Y-61000
X10000Y-63000
X10000Y-64000
X11000Y-31000
X11000Y-33000
X11000Y-43000
X11000Y-44000
X11000Y-45000
X11000Y-46000
X11000Y-47000
X11000Y-48000
X11000Y-49000
X11000Y-50000
X11000Y-51000
X11000Y-52000
X11000Y-53000
X11000Y-54000
X11000Y-55000
X11000Y-56000
X11000Y-57000
X11000Y-58000
X11000Y-59000
X11000Y-60000
X11000Y-61000
X12000Y-31000
X12000Y-34000
X12000Y-35000
X12000Y-36000
X12000Y-37000
X12000Y-38000
X12000Y-42000
X12000Y-43000
X12000Y-44000
X12000Y-45000
X12000Y-46000
X12000Y-47000
X12000Y-48000
X12000Y-49000
X12000Y-50000
X12000Y-51000
X12000Y-52000
X12000Y-53000
X12000Y-54000
X12000Y-55000
X12000Y-56000
X12000Y-57000
X12000Y-58000
X12000Y-59000
X12000Y-60000
X12000Y-61000
X12000Y-62000
X12600Y-37800
X13000Y-31000
X13000Y-32000
X13000Y-33000
X13000Y-35000
X13000Y-37000
X13000Y-42000
X13000Y-43000
X13000Y-44000
X13000Y-45000
X13000Y-46000
X13000Y-47000
X13000Y-48000
X13000Y-49000
X13000Y-50000
X13000Y-51000
X13000Y-52000
X13000Y-53000
X13000Y-54000
X13000Y-55000
X13000Y-56000
X13000Y-57000
X13000Y-58000
X13000Y-59000
X13000Y-60000
X13000Y-61000
X13000Y-62000
X13000Y-64000
X13533Y-24894
X13783Y-21844
X14000Y-32000
X14000Y-33000
X14000Y-36000
X14000Y-42000
X14000Y-43000
X14000Y-44000
X14000Y-45000
X14000Y-46000
X14000Y-47000
X14000Y-48000
X14000Y-49000
X14000Y-50000
X14000Y-51000
X14000Y-52000
X14000Y-53000
X14000Y-54000
X14000Y-55000
X14000Y-56000
X14000Y-57000
X14000Y-58000
X14000Y-59000
X14000Y-60000
X14000Y-61000
X14000Y-62000
X14033Y-23694
X15000Y-32000
X15000Y-33000
X15000Y-36000
X15000Y-42000
X15000Y-43000
X15000Y-44000
X15000Y-45000
X15000Y-46000
X15000Y-47000
X15000Y-48000
X15000Y-49000
X15000Y-50000
X15000Y-51000
X15000Y-52000
X15000Y-53000
X15000Y-54000
X15000Y-55000
X15000Y-56000
X15000Y-57000
X15000Y-58000
X15000Y-59000
X15000Y-60000
X15000Y-61000
X15000Y-62000
X15000Y-64000
X16000Y-32000
X16000Y-33000
X16000Y-36000
X16000Y-37000
X16000Y-42000
X16000Y-42400
X16000Y-42800
X16000Y-43200
X16000Y-44000
X16000Y-45000
X16000Y-46000
X16000Y-47000
X16000Y-48000
X16000Y-49000
X16000Y-50000
X16000Y-51000
X16000Y-52000
X16000Y-53000
X16000Y-54000
X16000Y-55000
X16000Y-56000
X16000Y-57000
X16000Y-58000
X16000Y-61000
X16000Y-62000
X16000Y-63000
X16000Y-64000
X16400Y-42000
X16400Y-42400
X16400Y-42800
X16400Y-43200
X16800Y-42000
X16800Y-42400
X16800Y-42800
X16800Y-43200
X17000Y-32000
X17000Y-33000
X17000Y-35000
X17000Y-44000
X17000Y-45000
X17000Y-46000
X17000Y-47000
X17000Y-48000
X17000Y-49000
X17000Y-50000
X17000Y-51000
X17000Y-52000
X17000Y-53000
X17000Y-54000
X17000Y-55000
X17000Y-56000
X17000Y-57000
X17000Y-58000
X17000Y-61000
X17000Y-62000
X17000Y-63000
X17000Y-64000
X17200Y-42000
X17200Y-42400
X17200Y-42800
X17200Y-43200
X17333Y-16394
X17683Y-18694
X18000Y-32000
X18000Y-33000
X18000Y-34000
X18000Y-35000
X18000Y-36000
X18000Y-38000
X18000Y-44000
X18000Y-45000
X18000Y-46000
X18000Y-47000
X18000Y-48000
X18000Y-49000
X18000Y-50000
X18000Y-51000
X18000Y-52000
X18000Y-53000
X18000Y-54000
X18000Y-55000
X18000Y-56000
X18000Y-57000
X18000Y-61000
X18000Y-62000
X18000Y-63000
X18000Y-64000
X18583Y-16944
X19333Y-17894
X20100Y-50900
X20683Y-20494
X22183Y-14994
X22183Y-38344
X22433Y-17944
X22683Y-18694
X22683Y-20894
X22702Y-20110
X22783Y-14344
X23088Y-38031
X23283Y-21294
X23400Y-49100
X23483Y-38344
X23536Y-37403
X23583Y-17944
X23633Y-14244
X23683Y-21894
X23883Y-21294
X24706Y-56105
X24883Y-20694
X25083Y-32894
X25083Y-48615
X25483Y-26894
X25624Y-20950
X25683Y-21894
X25700Y-56648
X25783Y-37644
X25832Y-14401
X25933Y-38394
X26000Y-54400
X26056Y-20549
X26083Y-27094
X26198Y-29297
X26200Y-43000
X26225Y-40157
X26271Y-56484
X26283Y-32609
X26300Y-57200
X26383Y-17344
X26419Y-37558
X26485Y-23293
X26491Y-27209
X26496Y-32048
X26600Y-45900
X26627Y-56981
X26647Y-51460
X26679Y-23859
X26683Y-50883
X26683Y-21694
X26683Y-35094
X26700Y-49200
X26755Y-54878
X26783Y-40794
X26800Y-53700
X26883Y-28294
X26883Y-30094
X26883Y-32894
X26929Y-28927
X26947Y-29320
X26968Y-40422
X27000Y-46326
X27000Y-38800
X27076Y-34279
X27078Y-38052
X27083Y-19894
X27083Y-32294
X27083Y-39294
X27100Y-55900
X27133Y-56471
X27136Y-48712
X27228Y-50315
X27251Y-34632
X27254Y-51019
X27283Y-21294
X27283Y-23294
X27283Y-26494
X27283Y-31894
X27285Y-32893
X27292Y-55150
X27300Y-42600
X27300Y-54106
X27300Y-54500
X27319Y-29606
X27400Y-45400
X27400Y-48000
X27400Y-57600
X27414Y-56137
X27478Y-25696
X27483Y-18294
X27483Y-26094
X27483Y-27694
X27483Y-28294
X27483Y-28694
X27483Y-30094
X27483Y-39944
X27494Y-40338
X27500Y-53500
X27513Y-49439
X27569Y-45835
X27633Y-38894
X27655Y-50885
X27656Y-34267
X27683Y-22894
X27703Y-44331
X27724Y-46405
X27782Y-39589
X27871Y-50103
X27900Y-55200
X27910Y-39217
X27911Y-45195
X27918Y-46017
X27969Y-28892
X28028Y-51169
X28048Y-40859
X28085Y-35096
X28200Y-50600
X28283Y-34494
X28433Y-14444
X28507Y-44933
X28528Y-46285
X28783Y-40544
X28883Y-34694
X29083Y-29494
X29183Y-14444
X29200Y-45200
X29300Y-42600
X29383Y-39894
X29483Y-28094
X29582Y-28596
X30283Y-29694
X30333Y-14744
X30400Y-50000
X31033Y-15164
X31283Y-33694
X31483Y-14744
X32433Y-14494
X32500Y-45200
X32683Y-33694
X33083Y-15164
X33083Y-18694
X33200Y-44600
X33283Y-34294
X33357Y-18032
X33437Y-14691
X33886Y-19180
X34083Y-20009
X34285Y-18693
X34400Y-44600
X36000Y-14800
X36083Y-20294
X36300Y-15500
X36800Y-16100
X37883Y-40094
X38283Y-19094
X38286Y-20009
X38500Y-14800
X38600Y-15200
X39883Y-20294
X40400Y-46300
X43183Y-19144
X43883Y-45694
X44683Y-56694
X46500Y-51200
X46683Y-18094
X47100Y-14300
X47500Y-54000
X47600Y-42600
X48614Y-28964
X48883Y-26694
X49643Y-54446
X49683Y-43094
X49726Y-37278
X49883Y-21494
X49883Y-32032
X50300Y-54000
X50769Y-48653
X50883Y-26094
X50883Y-32094
X51000Y-49400
X51000Y-53900
X51083Y-23494
X51100Y-43500
X51100Y-51700
X51200Y-51100
X51283Y-34294
X51447Y-26780
X51454Y-32176
X51500Y-45700
X51500Y-56900
X51600Y-45115
X51613Y-51390
X51683Y-21494
X51683Y-34894
X51686Y-23580
X51700Y-46600
X51711Y-28411
X51732Y-50815
X51796Y-48991
X51875Y-40003
X51883Y-27094
X51900Y-16764
X51900Y-53700
X51962Y-34616
X51992Y-44937
X52083Y-20494
X52083Y-26694
X52083Y-27494
X52083Y-31694
X52083Y-32294
X52083Y-39294
X52101Y-37000
X52183Y-49193
X52200Y-56300
X52283Y-30894
X52400Y-46600
X52400Y-47900
X52400Y-51900
X52400Y-57000
X52483Y-22894
X52483Y-24294
X52483Y-28494
X52483Y-29694
X52483Y-33494
X52484Y-39717
X52500Y-57900
X52528Y-53620
X52536Y-45985
X52542Y-44439
X52600Y-42200
X52600Y-55400
X52625Y-27232
X52654Y-39145
X52664Y-37075
X52682Y-23696
X52683Y-25894
X52683Y-34094
X52683Y-35894
X52714Y-50325
X52824Y-34580
X52883Y-39698
X52883Y-29294
X52969Y-40096
X52975Y-45143
X53000Y-50600
X53000Y-55800
X53002Y-44750
X53005Y-39324
X53083Y-23694
X53083Y-28894
X53083Y-35494
X53100Y-57000
X53400Y-56200
X53483Y-29694
X53483Y-33694
X53500Y-44300
X53500Y-57400
X53596Y-45357
X53683Y-23694
X53683Y-27894
X53697Y-23281
X53711Y-45733
X53900Y-15800
X54200Y-53700
X54300Y-45100
X54300Y-49000
X54483Y-23294
X54500Y-45700
X54683Y-22694
X54683Y-28294
X54700Y-61400
X56200Y-42500
X56683Y-28894
X56883Y-40694
X57083Y-27894
X58283Y-39694
X58900Y-50200
X60100Y-16300
X62000Y-15600
X62200Y-53300
X64883Y-40094
T2
X8033Y-13694
X8033Y-14694
X8033Y-26694
X8033Y-27694
X9033Y-13794
X9033Y-14794
X9033Y-26794
X9033Y-27794
X10033Y-13694
X10033Y-14694
X10033Y-26694
X10033Y-27694
X11033Y-13794
X11033Y-14794
X11033Y-26794
X11033Y-27794
X12033Y-13694
X12033Y-14694
X12033Y-26694
X12033Y-27694
X13033Y-13794
X13033Y-14794
X13033Y-26794
X13033Y-27794
X14033Y-13694
X14033Y-14694
X14033Y-26694
X14033Y-27694
X15033Y-13794
X15033Y-14794
X15033Y-26794
X15033Y-27794
X16033Y-13694
X16033Y-14694
X16033Y-26694
X16033Y-27694
X17033Y-13794
X17033Y-14794
X17033Y-26794
X17033Y-27794
T3
X44183Y-19594
X44183Y-22594
X45183Y-19594
X45183Y-22594
X46183Y-19594
X46183Y-22594
X47183Y-19594
X47183Y-22594
X48183Y-19594
X48183Y-22594
X49183Y-19594
X49183Y-22594
X50183Y-19594
X50183Y-22594
X51183Y-19594
X51183Y-22594
X48700Y-13200
X48700Y-16200
X19383Y-13344
X19383Y-16344
X20383Y-13344
X20383Y-16344
X21383Y-13344
X21383Y-16344
X22383Y-13344
X22383Y-16344
X23383Y-13344
X23383Y-16344
X24383Y-13344
X24383Y-16344
X25383Y-13344
X25383Y-16344
X26383Y-13344
X26383Y-16344
X17283Y-33594
X17283Y-36594
X44183Y-36094
X44183Y-39094
X45183Y-36094
X45183Y-39094
X46183Y-36094
X46183Y-39094
X47183Y-36094
X47183Y-39094
X48183Y-36094
X48183Y-39094
X49183Y-36094
X49183Y-39094
X50183Y-36094
X50183Y-39094
X51183Y-36094
X51183Y-39094
X24283Y-40594
X25268Y-40594
X44183Y-47094
X44183Y-50094
X45183Y-47094
X45183Y-50094
X46183Y-47094
X46183Y-50094
X47183Y-47094
X47183Y-50094
X48183Y-47094
X48183Y-50094
X49183Y-47094
X49183Y-50094
X50183Y-47094
X50183Y-50094
X51183Y-47094
X51183Y-50094
X24299Y-51594
X25283Y-51594
X24299Y-35094
X25283Y-35094
X49299Y-29594
X50283Y-29594
X50400Y-13200
X50400Y-16200
X44183Y-52594
X44183Y-55594
X45183Y-52594
X45183Y-55594
X46183Y-52594
X46183Y-55594
X47183Y-52594
X47183Y-55594
X48183Y-52594
X48183Y-55594
X49183Y-52594
X49183Y-55594
X50183Y-52594
X50183Y-55594
X51183Y-52594
X51183Y-55594
X44183Y-25094
X44183Y-28094
X45183Y-25094
X45183Y-28094
X46183Y-25094
X46183Y-28094
X47183Y-25094
X47183Y-28094
X48183Y-25094
X48183Y-28094
X49183Y-25094
X49183Y-28094
X50183Y-25094
X50183Y-28094
X51183Y-25094
X51183Y-28094
X14299Y-30594
X15283Y-30594
X38100Y-13200
X38100Y-16200
X44183Y-41594
X44183Y-44594
X45183Y-41594
X45183Y-44594
X46183Y-41594
X46183Y-44594
X47183Y-41594
X47183Y-44594
X48183Y-41594
X48183Y-44594
X49183Y-41594
X49183Y-44594
X50183Y-41594
X50183Y-44594
X51183Y-41594
X51183Y-44594
X24283Y-46094
X25268Y-46094
X49283Y-40594
X50268Y-40594
X19283Y-47094
X19283Y-50094
X20283Y-47094
X20283Y-50094
X21283Y-47094
X21283Y-50094
X22283Y-47094
X22283Y-50094
X23283Y-47094
X23283Y-50094
X24283Y-47094
X24283Y-50094
X25283Y-47094
X25283Y-50094
X26283Y-47094
X26283Y-50094
X27783Y-13344
X27783Y-16344
X28783Y-13344
X28783Y-16344
X29783Y-13344
X29783Y-16344
X30783Y-13344
X30783Y-16344
X31783Y-13344
X31783Y-16344
X32783Y-13344
X32783Y-16344
X33783Y-13344
X33783Y-16344
X34783Y-13344
X34783Y-16344
X35783Y-13344
X35783Y-16344
X19283Y-25094
X19283Y-28094
X20283Y-25094
X20283Y-28094
X21283Y-25094
X21283Y-28094
X22283Y-25094
X22283Y-28094
X23283Y-25094
X23283Y-28094
X24283Y-25094
X24283Y-28094
X25283Y-25094
X25283Y-28094
X26283Y-25094
X26283Y-28094
X49299Y-46094
X50283Y-46094
X19283Y-58094
X19283Y-61094
X20283Y-58094
X20283Y-61094
X21283Y-58094
X21283Y-61094
X22283Y-58094
X22283Y-61094
X23283Y-58094
X23283Y-61094
X24283Y-58094
X24283Y-61094
X25283Y-58094
X25283Y-61094
X26283Y-58094
X26283Y-61094
X49283Y-57094
X50268Y-57094
X19283Y-41594
X19283Y-44594
X20283Y-41594
X20283Y-44594
X21283Y-41594
X21283Y-44594
X22283Y-41594
X22283Y-44594
X23283Y-41594
X23283Y-44594
X24283Y-41594
X24283Y-44594
X25283Y-41594
X25283Y-44594
X26283Y-41594
X26283Y-44594
X24283Y-57094
X25268Y-57094
X47000Y-13200
X47000Y-16200
X24283Y-29594
X25268Y-29594
X43400Y-13200
X43400Y-16200
X19283Y-36094
X19283Y-39094
X20283Y-36094
X20283Y-39094
X21283Y-36094
X21283Y-39094
X22283Y-36094
X22283Y-39094
X23283Y-36094
X23283Y-39094
X24283Y-36094
X24283Y-39094
X25283Y-36094
X25283Y-39094
X26283Y-36094
X26283Y-39094
X41600Y-13200
X41600Y-16200
X49299Y-24094
X50283Y-24094
X49299Y-51594
X50283Y-51594
X24283Y-24094
X25268Y-24094
X44183Y-58094
X44183Y-61094
X45183Y-58094
X45183Y-61094
X46183Y-58094
X46183Y-61094
X47183Y-58094
X47183Y-61094
X48183Y-58094
X48183Y-61094
X49183Y-58094
X49183Y-61094
X50183Y-58094
X50183Y-61094
X51183Y-58094
X51183Y-61094
X12000Y-40600
X15000Y-40600
X45200Y-13200
X45200Y-16200
X19283Y-52594
X19283Y-55594
X20283Y-52594
X20283Y-55594
X21283Y-52594
X21283Y-55594
X22283Y-52594
X22283Y-55594
X23283Y-52594
X23283Y-55594
X24283Y-52594
X24283Y-55594
X25283Y-52594
X25283Y-55594
X26283Y-52594
X26283Y-55594
X49283Y-35094
X50268Y-35094
X39900Y-13200
X39900Y-16200
X24299Y-18094
X25283Y-18094
X49200Y-18500
X50184Y-18500
X19283Y-30594
X19283Y-33594
X20283Y-30594
X20283Y-33594
X21283Y-30594
X21283Y-33594
X22283Y-30594
X22283Y-33594
X23283Y-30594
X23283Y-33594
X24283Y-30594
X24283Y-33594
X25283Y-30594
X25283Y-33594
X26283Y-30594
X26283Y-33594
X16799Y-30594
X17783Y-30594
X19283Y-19594
X19283Y-22594
X20283Y-19594
X20283Y-22594
X21283Y-19594
X21283Y-22594
X22283Y-19594
X22283Y-22594
X23283Y-19594
X23283Y-22594
X24283Y-19594
X24283Y-22594
X25283Y-19594
X25283Y-22594
X26283Y-19594
X26283Y-22594
X44183Y-30594
X44183Y-33594
X45183Y-30594
X45183Y-33594
X46183Y-30594
X46183Y-33594
X47183Y-30594
X47183Y-33594
X48183Y-30594
X48183Y-33594
X49183Y-30594
X49183Y-33594
X50183Y-30594
X50183Y-33594
X51183Y-30594
X51183Y-33594
T4
X14283Y-34594
X15283Y-34594
T5
X16200Y-40600
X18200Y-40600
T6
X8183Y-30644
X9183Y-30644
X10183Y-30644
X13500Y-38000
X14500Y-38000
X15500Y-38000
T7
X32302Y-37794
X34270Y-37794
X65076Y-32294
X67044Y-32294
X8783Y-37594
X8783Y-39563
X65076Y-26794
X67044Y-26794
X65076Y-48794
X67044Y-48794
X53265Y-43294
X55233Y-43294
X61139Y-43294
X63107Y-43294
X28365Y-26794
X30333Y-26794
X36239Y-26794
X38207Y-26794
X65076Y-21260
X67044Y-21260
X36239Y-54294
X38207Y-54294
X36239Y-37794
X38207Y-37794
X53265Y-54294
X55233Y-54294
X28365Y-43300
X30333Y-43300
X61139Y-26794
X63107Y-26794
X32302Y-26794
X34270Y-26794
X65076Y-54294
X67044Y-54294
X65076Y-37794
X67044Y-37794
X36239Y-43294
X38207Y-43294
X28365Y-37794
X30333Y-37794
X11731Y-63300
X13700Y-63300
X57202Y-26794
X59170Y-26794
X32302Y-54294
X34270Y-54294
X57202Y-43294
X59170Y-43294
X65076Y-43294
X67044Y-43294
X57202Y-32294
X59170Y-32294
X53265Y-48794
X55233Y-48794
X57202Y-59794
X59170Y-59794
X32302Y-43294
X34270Y-43294
X57202Y-21294
X59170Y-21294
X40176Y-26794
X42144Y-26794
X61139Y-59794
X63107Y-59794
X53265Y-21294
X55233Y-21294
X61139Y-21260
X63107Y-21260
X57202Y-37794
X59170Y-37794
X36239Y-48794
X38207Y-48794
X36239Y-59794
X38207Y-59794
X32302Y-32294
X34270Y-32294
X28365Y-54294
X30333Y-54294
X32302Y-21294
X34270Y-21294
X53183Y-14500
X55152Y-14500
X8783Y-33594
X8783Y-35563
X61139Y-48794
X63107Y-48794
X53265Y-26794
X55233Y-26794
X40176Y-21294
X42144Y-21294
X40176Y-32294
X42144Y-32294
X40176Y-54294
X42144Y-54294
X57202Y-48794
X59170Y-48794
X57120Y-14494
X59089Y-14494
X40176Y-43294
X42144Y-43294
X61057Y-14500
X63026Y-14500
X61139Y-54294
X63107Y-54294
X53265Y-59794
X55233Y-59794
X53265Y-32294
X55233Y-32294
X53265Y-37794
X55233Y-37794
X61139Y-37794
X63107Y-37794
X28365Y-59794
X30333Y-59794
X40176Y-48794
X42144Y-48794
X40176Y-59794
X42144Y-59794
X64994Y-14494
X66963Y-14494
X36239Y-32294
X38207Y-32294
X65076Y-59794
X67044Y-59794
X32302Y-48794
X34270Y-48794
X36239Y-21294
X38207Y-21294
X57202Y-54294
X59170Y-54294
X28365Y-48794
X30333Y-48794
X28365Y-32294
X30333Y-32294
X61139Y-32294
X63107Y-32294
X28365Y-21294
X30333Y-21294
X32302Y-59794
X34270Y-59794
X40176Y-37794
X42144Y-37794
T0
M30
