G04 #@! TF.GenerationSoftware,KiCad,Pcbnew,no-vcs-found-08c4a0b~58~ubuntu16.04.1*
G04 #@! TF.CreationDate,2017-08-29T22:18:21+03:00*
G04 #@! TF.ProjectId,ND-03,4E442D30332E6B696361645F70636200,1*
G04 #@! TF.SameCoordinates,Original
G04 #@! TF.FileFunction,Soldermask,Top*
G04 #@! TF.FilePolarity,Negative*
%FSLAX46Y46*%
G04 Gerber Fmt 4.6, Leading zero omitted, Abs format (unit mm)*
G04 Created by KiCad (PCBNEW no-vcs-found-08c4a0b~58~ubuntu16.04.1) date Tue Aug 29 22:18:21 2017*
%MOMM*%
%LPD*%
G01*
G04 APERTURE LIST*
%ADD10C,3.600000*%
%ADD11C,2.000000*%
%ADD12O,2.000000X2.000000*%
%ADD13R,1.670000X1.370000*%
%ADD14R,2.400000X2.400000*%
%ADD15O,2.400000X2.400000*%
%ADD16O,2.099260X3.900120*%
%ADD17R,2.900000X2.900000*%
%ADD18C,2.900000*%
%ADD19O,2.000000X2.800000*%
%ADD20R,2.000000X2.800000*%
%ADD21O,1.901140X2.899360*%
%ADD22R,2.000000X2.000000*%
%ADD23R,2.200000X2.200000*%
%ADD24C,2.200000*%
%ADD25C,1.924000*%
%ADD26R,4.083000X4.083000*%
G04 APERTURE END LIST*
D10*
X169000000Y-45000000D03*
X169000000Y-162000000D03*
X22500000Y-162000000D03*
D11*
X38100000Y-103124000D03*
D12*
X30480000Y-103124000D03*
D13*
X44196000Y-100208000D03*
X44196000Y-98928000D03*
X42164000Y-98928000D03*
X42164000Y-100208000D03*
D14*
X41148000Y-103124000D03*
D15*
X46228000Y-103124000D03*
D16*
X36830000Y-96520000D03*
X34290000Y-96520000D03*
X39370000Y-96520000D03*
D12*
X96774000Y-41148000D03*
D11*
X96774000Y-33528000D03*
X101346000Y-33528000D03*
D12*
X101346000Y-41148000D03*
X105664000Y-41148000D03*
D11*
X105664000Y-33528000D03*
X110236000Y-33528000D03*
D12*
X110236000Y-41148000D03*
X114808000Y-41148000D03*
D11*
X114808000Y-33528000D03*
X119380000Y-33528000D03*
D12*
X119380000Y-41148000D03*
X123698000Y-41148000D03*
D11*
X123698000Y-33528000D03*
X128016000Y-33528000D03*
D12*
X128016000Y-41148000D03*
D17*
X72047000Y-109982000D03*
D18*
X77047000Y-109982000D03*
D19*
X112226000Y-63740000D03*
X130006000Y-71360000D03*
X114766000Y-63740000D03*
X127466000Y-71360000D03*
X117306000Y-63740000D03*
X124926000Y-71360000D03*
X119846000Y-63740000D03*
X122386000Y-71360000D03*
X122386000Y-63740000D03*
X119846000Y-71360000D03*
X124926000Y-63740000D03*
X117306000Y-71360000D03*
X127466000Y-63740000D03*
X114766000Y-71360000D03*
X130006000Y-63740000D03*
D20*
X112226000Y-71360000D03*
D13*
X44027000Y-41642000D03*
X44027000Y-42912000D03*
X44027000Y-44182000D03*
D21*
X23326000Y-77837000D03*
X25866000Y-77837000D03*
X20786000Y-77837000D03*
D19*
X112226000Y-147560000D03*
X130006000Y-155180000D03*
X114766000Y-147560000D03*
X127466000Y-155180000D03*
X117306000Y-147560000D03*
X124926000Y-155180000D03*
X119846000Y-147560000D03*
X122386000Y-155180000D03*
X122386000Y-147560000D03*
X119846000Y-155180000D03*
X124926000Y-147560000D03*
X117306000Y-155180000D03*
X127466000Y-147560000D03*
X114766000Y-155180000D03*
X130006000Y-147560000D03*
D20*
X112226000Y-155180000D03*
X48980000Y-155180000D03*
D19*
X66760000Y-147560000D03*
X51520000Y-155180000D03*
X64220000Y-147560000D03*
X54060000Y-155180000D03*
X61680000Y-147560000D03*
X56600000Y-155180000D03*
X59140000Y-147560000D03*
X59140000Y-155180000D03*
X56600000Y-147560000D03*
X61680000Y-155180000D03*
X54060000Y-147560000D03*
X64220000Y-155180000D03*
X51520000Y-147560000D03*
X66760000Y-155180000D03*
X48980000Y-147560000D03*
X48980000Y-119620000D03*
X66760000Y-127240000D03*
X51520000Y-119620000D03*
X64220000Y-127240000D03*
X54060000Y-119620000D03*
X61680000Y-127240000D03*
X56600000Y-119620000D03*
X59140000Y-127240000D03*
X59140000Y-119620000D03*
X56600000Y-127240000D03*
X61680000Y-119620000D03*
X54060000Y-127240000D03*
X64220000Y-119620000D03*
X51520000Y-127240000D03*
X66760000Y-119620000D03*
D20*
X48980000Y-127240000D03*
X112226000Y-57390000D03*
D19*
X130006000Y-49770000D03*
X114766000Y-57390000D03*
X127466000Y-49770000D03*
X117306000Y-57390000D03*
X124926000Y-49770000D03*
X119846000Y-57390000D03*
X122386000Y-49770000D03*
X122386000Y-57390000D03*
X119846000Y-49770000D03*
X124926000Y-57390000D03*
X117306000Y-49770000D03*
X127466000Y-57390000D03*
X114766000Y-49770000D03*
X130006000Y-57390000D03*
X112226000Y-49770000D03*
X112226000Y-119620000D03*
X130006000Y-127240000D03*
X114766000Y-119620000D03*
X127466000Y-127240000D03*
X117306000Y-119620000D03*
X124926000Y-127240000D03*
X119846000Y-119620000D03*
X122386000Y-127240000D03*
X122386000Y-119620000D03*
X119846000Y-127240000D03*
X124926000Y-119620000D03*
X117306000Y-127240000D03*
X127466000Y-119620000D03*
X114766000Y-127240000D03*
X130006000Y-119620000D03*
D20*
X112226000Y-127240000D03*
X112226000Y-113270000D03*
D19*
X130006000Y-105650000D03*
X114766000Y-113270000D03*
X127466000Y-105650000D03*
X117306000Y-113270000D03*
X124926000Y-105650000D03*
X119846000Y-113270000D03*
X122386000Y-105650000D03*
X122386000Y-113270000D03*
X119846000Y-105650000D03*
X124926000Y-113270000D03*
X117306000Y-105650000D03*
X127466000Y-113270000D03*
X114766000Y-105650000D03*
X130006000Y-113270000D03*
X112226000Y-105650000D03*
X48980000Y-49770000D03*
X66760000Y-57390000D03*
X51520000Y-49770000D03*
X64220000Y-57390000D03*
X54060000Y-49770000D03*
X61680000Y-57390000D03*
X56600000Y-49770000D03*
X59140000Y-57390000D03*
X59140000Y-49770000D03*
X56600000Y-57390000D03*
X61680000Y-49770000D03*
X54060000Y-57390000D03*
X64220000Y-49770000D03*
X51520000Y-57390000D03*
X66760000Y-49770000D03*
D20*
X48980000Y-57390000D03*
X48980000Y-113270000D03*
D19*
X66760000Y-105650000D03*
X51520000Y-113270000D03*
X64220000Y-105650000D03*
X54060000Y-113270000D03*
X61680000Y-105650000D03*
X56600000Y-113270000D03*
X59140000Y-105650000D03*
X59140000Y-113270000D03*
X56600000Y-105650000D03*
X61680000Y-113270000D03*
X54060000Y-105650000D03*
X64220000Y-113270000D03*
X51520000Y-105650000D03*
X66760000Y-113270000D03*
X48980000Y-105650000D03*
D20*
X48980000Y-71360000D03*
D19*
X66760000Y-63740000D03*
X51520000Y-71360000D03*
X64220000Y-63740000D03*
X54060000Y-71360000D03*
X61680000Y-63740000D03*
X56600000Y-71360000D03*
X59140000Y-63740000D03*
X59140000Y-71360000D03*
X56600000Y-63740000D03*
X61680000Y-71360000D03*
X54060000Y-63740000D03*
X64220000Y-71360000D03*
X51520000Y-63740000D03*
X66760000Y-71360000D03*
X48980000Y-63740000D03*
X48980000Y-77710000D03*
X66760000Y-85330000D03*
X51520000Y-77710000D03*
X64220000Y-85330000D03*
X54060000Y-77710000D03*
X61680000Y-85330000D03*
X56600000Y-77710000D03*
X59140000Y-85330000D03*
X59140000Y-77710000D03*
X56600000Y-85330000D03*
X61680000Y-77710000D03*
X54060000Y-85330000D03*
X64220000Y-77710000D03*
X51520000Y-85330000D03*
X66760000Y-77710000D03*
D20*
X48980000Y-85330000D03*
X112226000Y-85330000D03*
D19*
X130006000Y-77710000D03*
X114766000Y-85330000D03*
X127466000Y-77710000D03*
X117306000Y-85330000D03*
X124926000Y-77710000D03*
X119846000Y-85330000D03*
X122386000Y-77710000D03*
X122386000Y-85330000D03*
X119846000Y-77710000D03*
X124926000Y-85330000D03*
X117306000Y-77710000D03*
X127466000Y-85330000D03*
X114766000Y-77710000D03*
X130006000Y-85330000D03*
X112226000Y-77710000D03*
X112226000Y-91680000D03*
X130006000Y-99300000D03*
X114766000Y-91680000D03*
X127466000Y-99300000D03*
X117306000Y-91680000D03*
X124926000Y-99300000D03*
X119846000Y-91680000D03*
X122386000Y-99300000D03*
X122386000Y-91680000D03*
X119846000Y-99300000D03*
X124926000Y-91680000D03*
X117306000Y-99300000D03*
X127466000Y-91680000D03*
X114766000Y-99300000D03*
X130006000Y-91680000D03*
D20*
X112226000Y-99300000D03*
X48980000Y-141210000D03*
D19*
X66760000Y-133590000D03*
X51520000Y-141210000D03*
X64220000Y-133590000D03*
X54060000Y-141210000D03*
X61680000Y-133590000D03*
X56600000Y-141210000D03*
X59140000Y-133590000D03*
X59140000Y-141210000D03*
X56600000Y-133590000D03*
X61680000Y-141210000D03*
X54060000Y-133590000D03*
X64220000Y-141210000D03*
X51520000Y-133590000D03*
X66760000Y-141210000D03*
X48980000Y-133590000D03*
X112226000Y-133590000D03*
X130006000Y-141210000D03*
X114766000Y-133590000D03*
X127466000Y-141210000D03*
X117306000Y-133590000D03*
X124926000Y-141210000D03*
X119846000Y-133590000D03*
X122386000Y-141210000D03*
X122386000Y-133590000D03*
X119846000Y-141210000D03*
X124926000Y-133590000D03*
X117306000Y-141210000D03*
X127466000Y-133590000D03*
X114766000Y-141210000D03*
X130006000Y-133590000D03*
D20*
X112226000Y-141210000D03*
X48980000Y-99300000D03*
D19*
X66760000Y-91680000D03*
X51520000Y-99300000D03*
X64220000Y-91680000D03*
X54060000Y-99300000D03*
X61680000Y-91680000D03*
X56600000Y-99300000D03*
X59140000Y-91680000D03*
X59140000Y-99300000D03*
X56600000Y-91680000D03*
X61680000Y-99300000D03*
X54060000Y-91680000D03*
X64220000Y-99300000D03*
X51520000Y-91680000D03*
X66760000Y-99300000D03*
X48980000Y-91680000D03*
D20*
X90890000Y-33895000D03*
D19*
X70570000Y-41515000D03*
X88350000Y-33895000D03*
X73110000Y-41515000D03*
X85810000Y-33895000D03*
X75650000Y-41515000D03*
X83270000Y-33895000D03*
X78190000Y-41515000D03*
X80730000Y-33895000D03*
X80730000Y-41515000D03*
X78190000Y-33895000D03*
X83270000Y-41515000D03*
X75650000Y-33895000D03*
X85810000Y-41515000D03*
X73110000Y-33895000D03*
X88350000Y-41515000D03*
X70570000Y-33895000D03*
X90890000Y-41515000D03*
D11*
X45170000Y-77710000D03*
D22*
X42670000Y-77710000D03*
X38820000Y-77710000D03*
D11*
X36320000Y-77710000D03*
X61720000Y-89140000D03*
X64220000Y-89140000D03*
X127680000Y-103110000D03*
X125180000Y-103110000D03*
X125180000Y-89140000D03*
X127680000Y-89140000D03*
X64180000Y-117080000D03*
X61680000Y-117080000D03*
X125180000Y-145020000D03*
X127680000Y-145020000D03*
X127720000Y-131050000D03*
X125220000Y-131050000D03*
X61680000Y-145020000D03*
X64180000Y-145020000D03*
X64220000Y-131050000D03*
X61720000Y-131050000D03*
X61680000Y-61200000D03*
X64180000Y-61200000D03*
X64180000Y-75170000D03*
X61680000Y-75170000D03*
X125220000Y-61200000D03*
X127720000Y-61200000D03*
X127720000Y-75170000D03*
X125220000Y-75170000D03*
X125220000Y-117080000D03*
X127720000Y-117080000D03*
X64180000Y-103110000D03*
X61680000Y-103110000D03*
X124968000Y-46990000D03*
X127468000Y-46990000D03*
X64220000Y-45960000D03*
X61720000Y-45960000D03*
D17*
X155293000Y-109968000D03*
D18*
X160293000Y-109968000D03*
X150086000Y-36816000D03*
D17*
X145086000Y-36816000D03*
X165086000Y-36816000D03*
D18*
X170086000Y-36816000D03*
X160086000Y-36830000D03*
D17*
X155086000Y-36830000D03*
X77047000Y-123938000D03*
D18*
X72047000Y-123938000D03*
X82047000Y-123938000D03*
D17*
X87047000Y-123938000D03*
X97047000Y-123938000D03*
D18*
X92047000Y-123938000D03*
X102047000Y-123938000D03*
D17*
X107047000Y-123938000D03*
X135293000Y-109968000D03*
D18*
X140293000Y-109968000D03*
X107047000Y-109968000D03*
D17*
X102047000Y-109968000D03*
X92047000Y-109968000D03*
D18*
X97047000Y-109968000D03*
X87047000Y-109968000D03*
D17*
X82047000Y-109968000D03*
D18*
X135293000Y-123938000D03*
D17*
X140293000Y-123938000D03*
X87047000Y-68058000D03*
D18*
X82047000Y-68058000D03*
X150293000Y-109968000D03*
D17*
X145293000Y-109968000D03*
X135086000Y-36830000D03*
D18*
X140086000Y-36830000D03*
X145293000Y-123938000D03*
D17*
X150293000Y-123938000D03*
X160293000Y-123938000D03*
D18*
X155293000Y-123938000D03*
X165293000Y-123938000D03*
D17*
X170293000Y-123938000D03*
X77047000Y-151878000D03*
D18*
X72047000Y-151878000D03*
X82047000Y-151878000D03*
D17*
X87047000Y-151878000D03*
X97047000Y-151878000D03*
D18*
X92047000Y-151878000D03*
X102047000Y-151878000D03*
D17*
X107047000Y-151878000D03*
X145293000Y-137908000D03*
D18*
X150293000Y-137908000D03*
X135293000Y-68058000D03*
D17*
X140293000Y-68058000D03*
X102047000Y-137908000D03*
D18*
X107047000Y-137908000D03*
X97047000Y-137908000D03*
D17*
X92047000Y-137908000D03*
X82047000Y-137908000D03*
D18*
X87047000Y-137908000D03*
X77047000Y-137908000D03*
D17*
X72047000Y-137908000D03*
X140293000Y-151878000D03*
D18*
X135293000Y-151878000D03*
X170293000Y-137908000D03*
D17*
X165293000Y-137908000D03*
X150293000Y-151878000D03*
D18*
X145293000Y-151878000D03*
X160293000Y-137908000D03*
D17*
X155293000Y-137908000D03*
X135293000Y-137908000D03*
D18*
X140293000Y-137908000D03*
X165293000Y-151878000D03*
D17*
X170293000Y-151878000D03*
X77047000Y-95998000D03*
D18*
X72047000Y-95998000D03*
X82047000Y-95998000D03*
D17*
X87047000Y-95998000D03*
X97047000Y-95998000D03*
D18*
X92047000Y-95998000D03*
X102047000Y-95998000D03*
D17*
X107047000Y-95998000D03*
X145293000Y-82028000D03*
D18*
X150293000Y-82028000D03*
X140293000Y-82028000D03*
D17*
X135293000Y-82028000D03*
X102047000Y-82028000D03*
D18*
X107047000Y-82028000D03*
X165293000Y-95998000D03*
D17*
X170293000Y-95998000D03*
X82047000Y-82028000D03*
D18*
X87047000Y-82028000D03*
X77047000Y-82028000D03*
D17*
X72047000Y-82028000D03*
X140293000Y-95998000D03*
D18*
X135293000Y-95998000D03*
X170293000Y-82028000D03*
D17*
X165293000Y-82028000D03*
X155293000Y-82028000D03*
D18*
X160293000Y-82028000D03*
X145293000Y-95998000D03*
D17*
X150293000Y-95998000D03*
X160293000Y-95998000D03*
D18*
X155293000Y-95998000D03*
X72047000Y-68058000D03*
D17*
X77047000Y-68058000D03*
X92047000Y-82028000D03*
D18*
X97047000Y-82028000D03*
X92047000Y-68058000D03*
D17*
X97047000Y-68058000D03*
X165293000Y-109968000D03*
D18*
X170293000Y-109968000D03*
X102047000Y-68058000D03*
D17*
X107047000Y-68058000D03*
X145293000Y-54088000D03*
D18*
X150293000Y-54088000D03*
X140293000Y-54088000D03*
D17*
X135293000Y-54088000D03*
X102047000Y-54088000D03*
D18*
X107047000Y-54088000D03*
X97047000Y-54088000D03*
D17*
X92047000Y-54088000D03*
X82047000Y-54088000D03*
D18*
X87047000Y-54088000D03*
X77047000Y-54088000D03*
D17*
X72047000Y-54088000D03*
X22310000Y-95490000D03*
D18*
X22310000Y-100490000D03*
X34798000Y-160782000D03*
D17*
X29798000Y-160782000D03*
X170293000Y-68058000D03*
D18*
X165293000Y-68058000D03*
X155293000Y-68058000D03*
D17*
X160293000Y-68058000D03*
X150293000Y-68058000D03*
D18*
X145293000Y-68058000D03*
X160293000Y-54000000D03*
D17*
X155293000Y-54000000D03*
X165293000Y-54000000D03*
D18*
X170293000Y-54000000D03*
X22310000Y-90330000D03*
D17*
X22310000Y-85330000D03*
X160293000Y-151878000D03*
D18*
X155293000Y-151878000D03*
D20*
X67014000Y-33895000D03*
D19*
X49234000Y-41515000D03*
X64474000Y-33895000D03*
X51774000Y-41515000D03*
X61934000Y-33895000D03*
X54314000Y-41515000D03*
X59394000Y-33895000D03*
X56854000Y-41515000D03*
X56854000Y-33895000D03*
X59394000Y-41515000D03*
X54314000Y-33895000D03*
X61934000Y-41515000D03*
X51774000Y-33895000D03*
X64474000Y-41515000D03*
X49234000Y-33895000D03*
X67014000Y-41515000D03*
D23*
X38820000Y-87870000D03*
D24*
X36280000Y-87870000D03*
D11*
X43900000Y-85330000D03*
D12*
X43900000Y-92950000D03*
D25*
X20405000Y-70344000D03*
X20405000Y-67804000D03*
X22945000Y-70598000D03*
X22945000Y-68058000D03*
X25485000Y-70344000D03*
X25485000Y-67804000D03*
X28025000Y-70598000D03*
X28025000Y-68058000D03*
X30565000Y-70344000D03*
X30565000Y-67804000D03*
X33105000Y-70598000D03*
X33105000Y-68058000D03*
X35645000Y-70344000D03*
X35645000Y-67804000D03*
X38185000Y-70598000D03*
X38185000Y-68058000D03*
X40725000Y-70344000D03*
X40725000Y-67804000D03*
X43265000Y-70598000D03*
X43265000Y-68058000D03*
X20405000Y-34784000D03*
X20405000Y-37324000D03*
X22945000Y-35038000D03*
X22945000Y-37578000D03*
X25485000Y-34784000D03*
X25485000Y-37324000D03*
X28025000Y-35038000D03*
X28025000Y-37578000D03*
X30565000Y-34784000D03*
X30565000Y-37324000D03*
X33105000Y-35038000D03*
X33105000Y-37578000D03*
X35645000Y-34784000D03*
X35645000Y-37324000D03*
X38185000Y-35038000D03*
X38185000Y-37578000D03*
X40725000Y-34784000D03*
X40725000Y-37324000D03*
X43265000Y-35038000D03*
X43265000Y-37578000D03*
D26*
X42122000Y-151370000D03*
X21040000Y-151370000D03*
X21040000Y-108190000D03*
X42122000Y-108190000D03*
M02*
