  0
SECTION
  2
HEADER
  9
$ANGBASE
  50
0.0
  9
$ANGDIR
  70
  1
  9
$MEASUREMENT
  70
0
  0
ENDSEC
  0
SECTION
  2
TABLES
  0
TABLE
  2
LTYPE
  70
1
  0
LTYPE
  2
CONTINUOUS
  70
0
  3
Solid line
  72
65
  73
0
  40
0.0
  0
ENDTAB
  0
TABLE
  2
STYLE
  70
4
  0
STYLE
  2
KICAD
  70
0
  40
0
  41
1
  42
1
  50
0
  71
0
  3
isocp.shx
  0
STYLE
  2
KICADB
  70
0
  40
0
  41
1
  42
1
  50
0
  71
0
  3
isocp.shx
  0
STYLE
  2
KICADI
  70
0
  40
0
  41
1
  42
1
  50
15
  71
0
  3
isocp.shx
  0
STYLE
  2
KICADBI
  70
0
  40
0
  41
1
  42
1
  50
15
  71
0
  3
isocp.shx
  0
ENDTAB
  0
TABLE
  2
LAYER
  70
30
  0
LAYER
  2
BLACK
  70
0
  62
7
  6
CONTINUOUS
  0
LAYER
  2
GRAY1
  70
0
  62
251
  6
CONTINUOUS
  0
LAYER
  2
GRAY2
  70
0
  62
8
  6
CONTINUOUS
  0
LAYER
  2
GRAY3
  70
0
  62
9
  6
CONTINUOUS
  0
LAYER
  2
WHITE
  70
0
  62
7
  6
CONTINUOUS
  0
LAYER
  2
LYELLOW
  70
0
  62
51
  6
CONTINUOUS
  0
LAYER
  2
BLUE1
  70
0
  62
178
  6
CONTINUOUS
  0
LAYER
  2
GREEN1
  70
0
  62
98
  6
CONTINUOUS
  0
LAYER
  2
CYAN1
  70
0
  62
138
  6
CONTINUOUS
  0
LAYER
  2
RED1
  70
0
  62
18
  6
CONTINUOUS
  0
LAYER
  2
MAGENTA1
  70
0
  62
228
  6
CONTINUOUS
  0
LAYER
  2
BROWN1
  70
0
  62
58
  6
CONTINUOUS
  0
LAYER
  2
BLUE2
  70
0
  62
5
  6
CONTINUOUS
  0
LAYER
  2
GREEN2
  70
0
  62
3
  6
CONTINUOUS
  0
LAYER
  2
CYAN2
  70
0
  62
4
  6
CONTINUOUS
  0
LAYER
  2
RED2
  70
0
  62
1
  6
CONTINUOUS
  0
LAYER
  2
MAGENTA2
  70
0
  62
6
  6
CONTINUOUS
  0
LAYER
  2
BROWN2
  70
0
  62
54
  6
CONTINUOUS
  0
LAYER
  2
BLUE3
  70
0
  62
171
  6
CONTINUOUS
  0
LAYER
  2
GREEN3
  70
0
  62
91
  6
CONTINUOUS
  0
LAYER
  2
CYAN3
  70
0
  62
131
  6
CONTINUOUS
  0
LAYER
  2
RED3
  70
0
  62
11
  6
CONTINUOUS
  0
LAYER
  2
MAGENTA3
  70
0
  62
221
  6
CONTINUOUS
  0
LAYER
  2
YELLOW3
  70
0
  62
2
  6
CONTINUOUS
  0
LAYER
  2
BLUE4
  70
0
  62
5
  6
CONTINUOUS
  0
LAYER
  2
GREEN4
  70
0
  62
3
  6
CONTINUOUS
  0
LAYER
  2
CYAN4
  70
0
  62
4
  6
CONTINUOUS
  0
LAYER
  2
RED4
  70
0
  62
1
  6
CONTINUOUS
  0
LAYER
  2
MAGENTA4
  70
0
  62
6
  6
CONTINUOUS
  0
LAYER
  2
YELLOW4
  70
0
  62
2
  6
CONTINUOUS
  0
ENDTAB
  0
ENDSEC
  0
SECTION
  2
ENTITIES
0
LINE
8
BLACK
10
146.154
20
-98.0835
11
145.254
21
-98.0835
0
LINE
8
BLACK
10
145.254
20
-98.0835
11
145.254
21
-95.3835
0
LINE
8
BLACK
10
145.254
20
-95.3835
11
146.154
21
-95.3835
0
LINE
8
BLACK
10
146.154
20
-95.3835
11
146.154
21
-98.0835
0
LINE
8
BLACK
10
144.884
20
-98.0835
11
143.984
21
-98.0835
0
LINE
8
BLACK
10
143.984
20
-98.0835
11
143.984
21
-95.3835
0
LINE
8
BLACK
10
143.984
20
-95.3835
11
144.884
21
-95.3835
0
LINE
8
BLACK
10
144.884
20
-95.3835
11
144.884
21
-98.0835
0
LINE
8
BLACK
10
143.614
20
-98.0835
11
142.714
21
-98.0835
0
LINE
8
BLACK
10
142.714
20
-98.0835
11
142.714
21
-95.3835
0
LINE
8
BLACK
10
142.714
20
-95.3835
11
143.614
21
-95.3835
0
LINE
8
BLACK
10
143.614
20
-95.3835
11
143.614
21
-98.0835
0
LINE
8
BLACK
10
142.344
20
-98.0835
11
141.444
21
-98.0835
0
LINE
8
BLACK
10
141.444
20
-98.0835
11
141.444
21
-95.3835
0
LINE
8
BLACK
10
141.444
20
-95.3835
11
142.344
21
-95.3835
0
LINE
8
BLACK
10
142.344
20
-95.3835
11
142.344
21
-98.0835
0
LINE
8
BLACK
10
141.074
20
-98.0835
11
140.174
21
-98.0835
0
LINE
8
BLACK
10
140.174
20
-98.0835
11
140.174
21
-95.3835
0
LINE
8
BLACK
10
140.174
20
-95.3835
11
141.074
21
-95.3835
0
LINE
8
BLACK
10
141.074
20
-95.3835
11
141.074
21
-98.0835
0
LINE
8
BLACK
10
139.804
20
-98.0835
11
138.904
21
-98.0835
0
LINE
8
BLACK
10
138.904
20
-98.0835
11
138.904
21
-95.3835
0
LINE
8
BLACK
10
138.904
20
-95.3835
11
139.804
21
-95.3835
0
LINE
8
BLACK
10
139.804
20
-95.3835
11
139.804
21
-98.0835
0
LINE
8
BLACK
10
138.534
20
-98.0835
11
137.634
21
-98.0835
0
LINE
8
BLACK
10
137.634
20
-98.0835
11
137.634
21
-95.3835
0
LINE
8
BLACK
10
137.634
20
-95.3835
11
138.534
21
-95.3835
0
LINE
8
BLACK
10
138.534
20
-95.3835
11
138.534
21
-98.0835
0
LINE
8
BLACK
10
137.264
20
-98.0835
11
136.364
21
-98.0835
0
LINE
8
BLACK
10
136.364
20
-98.0835
11
136.364
21
-95.3835
0
LINE
8
BLACK
10
136.364
20
-95.3835
11
137.264
21
-95.3835
0
LINE
8
BLACK
10
137.264
20
-95.3835
11
137.264
21
-98.0835
0
LINE
8
BLACK
10
135.994
20
-98.0835
11
135.094
21
-98.0835
0
LINE
8
BLACK
10
135.094
20
-98.0835
11
135.094
21
-95.3835
0
LINE
8
BLACK
10
135.094
20
-95.3835
11
135.994
21
-95.3835
0
LINE
8
BLACK
10
135.994
20
-95.3835
11
135.994
21
-98.0835
0
LINE
8
BLACK
10
134.724
20
-98.0835
11
133.824
21
-98.0835
0
LINE
8
BLACK
10
133.824
20
-98.0835
11
133.824
21
-95.3835
0
LINE
8
BLACK
10
133.824
20
-95.3835
11
134.724
21
-95.3835
0
LINE
8
BLACK
10
134.724
20
-95.3835
11
134.724
21
-98.0835
0
LINE
8
BLACK
10
131.424
20
-94.7835
11
128.724
21
-94.7835
0
LINE
8
BLACK
10
128.724
20
-94.7835
11
128.724
21
-93.8835
0
LINE
8
BLACK
10
128.724
20
-93.8835
11
131.424
21
-93.8835
0
LINE
8
BLACK
10
131.424
20
-93.8835
11
131.424
21
-94.7835
0
LINE
8
BLACK
10
151.224
20
-94.7835
11
148.524
21
-94.7835
0
LINE
8
BLACK
10
148.524
20
-94.7835
11
148.524
21
-93.8835
0
LINE
8
BLACK
10
148.524
20
-93.8835
11
151.224
21
-93.8835
0
LINE
8
BLACK
10
151.224
20
-93.8835
11
151.224
21
-94.7835
0
LINE
8
BLACK
10
131.424
20
-93.5135
11
128.724
21
-93.5135
0
LINE
8
BLACK
10
128.724
20
-93.5135
11
128.724
21
-92.6135
0
LINE
8
BLACK
10
128.724
20
-92.6135
11
131.424
21
-92.6135
0
LINE
8
BLACK
10
131.424
20
-92.6135
11
131.424
21
-93.5135
0
LINE
8
BLACK
10
151.224
20
-93.5135
11
148.524
21
-93.5135
0
LINE
8
BLACK
10
148.524
20
-93.5135
11
148.524
21
-92.6135
0
LINE
8
BLACK
10
148.524
20
-92.6135
11
151.224
21
-92.6135
0
LINE
8
BLACK
10
151.224
20
-92.6135
11
151.224
21
-93.5135
0
LINE
8
BLACK
10
131.424
20
-92.2435
11
128.724
21
-92.2435
0
LINE
8
BLACK
10
128.724
20
-92.2435
11
128.724
21
-91.3435
0
LINE
8
BLACK
10
128.724
20
-91.3435
11
131.424
21
-91.3435
0
LINE
8
BLACK
10
131.424
20
-91.3435
11
131.424
21
-92.2435
0
LINE
8
BLACK
10
151.224
20
-92.2435
11
148.524
21
-92.2435
0
LINE
8
BLACK
10
148.524
20
-92.2435
11
148.524
21
-91.3435
0
LINE
8
BLACK
10
148.524
20
-91.3435
11
151.224
21
-91.3435
0
LINE
8
BLACK
10
151.224
20
-91.3435
11
151.224
21
-92.2435
0
LINE
8
BLACK
10
151.224
20
-90.9735
11
148.524
21
-90.9735
0
LINE
8
BLACK
10
148.524
20
-90.9735
11
148.524
21
-90.0735
0
LINE
8
BLACK
10
148.524
20
-90.0735
11
151.224
21
-90.0735
0
LINE
8
BLACK
10
151.224
20
-90.0735
11
151.224
21
-90.9735
0
LINE
8
BLACK
10
131.424
20
-90.9735
11
128.724
21
-90.9735
0
LINE
8
BLACK
10
128.724
20
-90.9735
11
128.724
21
-90.0735
0
LINE
8
BLACK
10
128.724
20
-90.0735
11
131.424
21
-90.0735
0
LINE
8
BLACK
10
131.424
20
-90.0735
11
131.424
21
-90.9735
0
LINE
8
BLACK
10
151.224
20
-89.7035
11
148.524
21
-89.7035
0
LINE
8
BLACK
10
148.524
20
-89.7035
11
148.524
21
-88.8035
0
LINE
8
BLACK
10
148.524
20
-88.8035
11
151.224
21
-88.8035
0
LINE
8
BLACK
10
151.224
20
-88.8035
11
151.224
21
-89.7035
0
LINE
8
BLACK
10
131.424
20
-89.7035
11
128.724
21
-89.7035
0
LINE
8
BLACK
10
128.724
20
-89.7035
11
128.724
21
-88.8035
0
LINE
8
BLACK
10
128.724
20
-88.8035
11
131.424
21
-88.8035
0
LINE
8
BLACK
10
131.424
20
-88.8035
11
131.424
21
-89.7035
0
LINE
8
BLACK
10
141.274
20
-88.5335
11
137.274
21
-88.5335
0
LINE
8
BLACK
10
137.274
20
-88.5335
11
137.274
21
-84.5335
0
LINE
8
BLACK
10
137.274
20
-84.5335
11
141.274
21
-84.5335
0
LINE
8
BLACK
10
141.274
20
-84.5335
11
141.274
21
-88.5335
0
LINE
8
BLACK
10
151.224
20
-88.4335
11
148.524
21
-88.4335
0
LINE
8
BLACK
10
148.524
20
-88.4335
11
148.524
21
-87.5335
0
LINE
8
BLACK
10
148.524
20
-87.5335
11
151.224
21
-87.5335
0
LINE
8
BLACK
10
151.224
20
-87.5335
11
151.224
21
-88.4335
0
LINE
8
BLACK
10
131.424
20
-88.4335
11
128.724
21
-88.4335
0
LINE
8
BLACK
10
128.724
20
-88.4335
11
128.724
21
-87.5335
0
LINE
8
BLACK
10
128.724
20
-87.5335
11
131.424
21
-87.5335
0
LINE
8
BLACK
10
131.424
20
-87.5335
11
131.424
21
-88.4335
0
LINE
8
BLACK
10
151.224
20
-87.1635
11
148.524
21
-87.1635
0
LINE
8
BLACK
10
148.524
20
-87.1635
11
148.524
21
-86.2635
0
LINE
8
BLACK
10
148.524
20
-86.2635
11
151.224
21
-86.2635
0
LINE
8
BLACK
10
151.224
20
-86.2635
11
151.224
21
-87.1635
0
LINE
8
BLACK
10
131.424
20
-87.1635
11
128.724
21
-87.1635
0
LINE
8
BLACK
10
128.724
20
-87.1635
11
128.724
21
-86.2635
0
LINE
8
BLACK
10
128.724
20
-86.2635
11
131.424
21
-86.2635
0
LINE
8
BLACK
10
131.424
20
-86.2635
11
131.424
21
-87.1635
0
LINE
8
BLACK
10
151.224
20
-85.8935
11
148.524
21
-85.8935
0
LINE
8
BLACK
10
148.524
20
-85.8935
11
148.524
21
-84.9935
0
LINE
8
BLACK
10
148.524
20
-84.9935
11
151.224
21
-84.9935
0
LINE
8
BLACK
10
151.224
20
-84.9935
11
151.224
21
-85.8935
0
LINE
8
BLACK
10
131.424
20
-85.8935
11
128.724
21
-85.8935
0
LINE
8
BLACK
10
128.724
20
-85.8935
11
128.724
21
-84.9935
0
LINE
8
BLACK
10
128.724
20
-84.9935
11
131.424
21
-84.9935
0
LINE
8
BLACK
10
131.424
20
-84.9935
11
131.424
21
-85.8935
0
LINE
8
BLACK
10
151.224
20
-84.6235
11
148.524
21
-84.6235
0
LINE
8
BLACK
10
148.524
20
-84.6235
11
148.524
21
-83.7235
0
LINE
8
BLACK
10
148.524
20
-83.7235
11
151.224
21
-83.7235
0
LINE
8
BLACK
10
151.224
20
-83.7235
11
151.224
21
-84.6235
0
LINE
8
BLACK
10
131.424
20
-84.6235
11
128.724
21
-84.6235
0
LINE
8
BLACK
10
128.724
20
-84.6235
11
128.724
21
-83.7235
0
LINE
8
BLACK
10
128.724
20
-83.7235
11
131.424
21
-83.7235
0
LINE
8
BLACK
10
131.424
20
-83.7235
11
131.424
21
-84.6235
0
LINE
8
BLACK
10
131.424
20
-83.3535
11
128.724
21
-83.3535
0
LINE
8
BLACK
10
128.724
20
-83.3535
11
128.724
21
-82.4535
0
LINE
8
BLACK
10
128.724
20
-82.4535
11
131.424
21
-82.4535
0
LINE
8
BLACK
10
131.424
20
-82.4535
11
131.424
21
-83.3535
0
LINE
8
BLACK
10
151.224
20
-83.3535
11
148.524
21
-83.3535
0
LINE
8
BLACK
10
148.524
20
-83.3535
11
148.524
21
-82.4535
0
LINE
8
BLACK
10
148.524
20
-82.4535
11
151.224
21
-82.4535
0
LINE
8
BLACK
10
151.224
20
-82.4535
11
151.224
21
-83.3535
0
LINE
8
BLACK
10
131.424
20
-82.0835
11
128.724
21
-82.0835
0
LINE
8
BLACK
10
128.724
20
-82.0835
11
128.724
21
-81.1835
0
LINE
8
BLACK
10
128.724
20
-81.1835
11
131.424
21
-81.1835
0
LINE
8
BLACK
10
131.424
20
-81.1835
11
131.424
21
-82.0835
0
LINE
8
BLACK
10
151.224
20
-82.0835
11
148.524
21
-82.0835
0
LINE
8
BLACK
10
148.524
20
-82.0835
11
148.524
21
-81.1835
0
LINE
8
BLACK
10
148.524
20
-81.1835
11
151.224
21
-81.1835
0
LINE
8
BLACK
10
151.224
20
-81.1835
11
151.224
21
-82.0835
0
LINE
8
BLACK
10
151.224
20
-80.8135
11
148.524
21
-80.8135
0
LINE
8
BLACK
10
148.524
20
-80.8135
11
148.524
21
-79.9135
0
LINE
8
BLACK
10
148.524
20
-79.9135
11
151.224
21
-79.9135
0
LINE
8
BLACK
10
151.224
20
-79.9135
11
151.224
21
-80.8135
0
LINE
8
BLACK
10
131.424
20
-80.8135
11
128.724
21
-80.8135
0
LINE
8
BLACK
10
128.724
20
-80.8135
11
128.724
21
-79.9135
0
LINE
8
BLACK
10
128.724
20
-79.9135
11
131.424
21
-79.9135
0
LINE
8
BLACK
10
131.424
20
-79.9135
11
131.424
21
-80.8135
0
LINE
8
BLACK
10
151.224
20
-79.5435
11
148.524
21
-79.5435
0
LINE
8
BLACK
10
148.524
20
-79.5435
11
148.524
21
-78.6435
0
LINE
8
BLACK
10
148.524
20
-78.6435
11
151.224
21
-78.6435
0
LINE
8
BLACK
10
151.224
20
-78.6435
11
151.224
21
-79.5435
0
LINE
8
BLACK
10
131.424
20
-79.5435
11
128.724
21
-79.5435
0
LINE
8
BLACK
10
128.724
20
-79.5435
11
128.724
21
-78.6435
0
LINE
8
BLACK
10
128.724
20
-78.6435
11
131.424
21
-78.6435
0
LINE
8
BLACK
10
131.424
20
-78.6435
11
131.424
21
-79.5435
0
LINE
8
BLACK
10
131.424
20
-78.2735
11
128.724
21
-78.2735
0
LINE
8
BLACK
10
128.724
20
-78.2735
11
128.724
21
-77.3735
0
LINE
8
BLACK
10
128.724
20
-77.3735
11
131.424
21
-77.3735
0
LINE
8
BLACK
10
131.424
20
-77.3735
11
131.424
21
-78.2735
0
LINE
8
BLACK
10
151.224
20
-78.2735
11
148.524
21
-78.2735
0
LINE
8
BLACK
10
148.524
20
-78.2735
11
148.524
21
-77.3735
0
LINE
8
BLACK
10
148.524
20
-77.3735
11
151.224
21
-77.3735
0
LINE
8
BLACK
10
151.224
20
-77.3735
11
151.224
21
-78.2735
  0
ENDSEC
  0
EOF
