M48
INCH,TZ
T1C0.016
T2C0.020
T3C0.022
T4C0.031
T5C0.035
T6C0.039
T7C0.047
T8C0.240
%
G90
G05
T1
X16700Y-38300
X17000Y-35400
X17212Y-39230
X17250Y-36500
X17250Y-38750
X17600Y-41600
X17750Y-31285
X17750Y-39500
X17750Y-45250
X18000Y-38750
X18106Y-38250
X18215Y-35790
X18215Y-37528
X18250Y-30500
X18250Y-36500
X18500Y-33750
X18500Y-38250
X18707Y-33235
X18750Y-37250
X19250Y-37500
X19250Y-38250
X19450Y-33670
X19750Y-36500
X19750Y-38750
X19750Y-41500
X20000Y-30750
X20000Y-37500
X20250Y-33188
X20250Y-38250
X20496Y-33745
X20500Y-42000
X21000Y-37500
X21250Y-34562
X21250Y-41000
X21900Y-44150
X22105Y-46134
X22171Y-33210
X22500Y-38750
X22778Y-39035
X23000Y-40750
X23250Y-37750
X23694Y-44048
X23750Y-31250
X24000Y-41000
X24250Y-38750
X24423Y-33173
X24750Y-37500
X25000Y-34563
X25000Y-39035
X25500Y-38500
X25500Y-39000
X26250Y-38890
X26250Y-44750
X26746Y-38235
X26750Y-30750
X27000Y-33500
X27025Y-36807
X27250Y-30250
X27250Y-36250
X27250Y-42000
X27500Y-34500
X27500Y-40500
X27520Y-29712
X27586Y-45535
X28215Y-37248
X28250Y-29394
X28250Y-29787
X28250Y-40750
X28486Y-43716
X28500Y-34000
X28715Y-35000
X28750Y-31750
X28760Y-33557
X29000Y-42750
X29045Y-37322
X29071Y-34083
X29110Y-36933
X29164Y-41067
X29247Y-43127
X29322Y-34483
X29389Y-42107
X29400Y-46300
X29424Y-40771
X29468Y-44062
X29502Y-33289
X29750Y-30250
X29750Y-31250
X29759Y-36005
X30071Y-44745
X30178Y-42754
X30250Y-33998
X30250Y-33250
X30250Y-36750
X30450Y-45850
X30452Y-44645
X30500Y-37750
X30500Y-44000
X30748Y-42648
X30750Y-31500
X30865Y-46917
X31077Y-45789
X31150Y-41500
X31182Y-33780
X31200Y-43600
X31250Y-30750
X31250Y-31250
X31262Y-33393
X31300Y-44450
X31574Y-45815
X32000Y-42650
X32168Y-43614
X32500Y-42615
X32722Y-43866
X32787Y-45740
X32800Y-37050
X32800Y-38100
X32800Y-39900
X33000Y-34965
X33050Y-42615
X33250Y-29750
X33500Y-42615
X33800Y-37000
X34009Y-42615
X34050Y-35300
X34200Y-38000
X34219Y-31572
X34365Y-43930
X34500Y-36950
X34502Y-32310
X34750Y-29500
X34784Y-35457
X34802Y-43176
X34810Y-37328
X35053Y-46153
X35100Y-40350
X35278Y-32215
X35300Y-35000
X35486Y-42212
X35548Y-43353
X35928Y-32487
X36000Y-31739
X36050Y-40050
X36060Y-43176
X36343Y-34965
X36446Y-42231
X36500Y-40450
X36501Y-43812
X37000Y-46450
X37074Y-43137
X37200Y-34813
X37250Y-36750
X37250Y-37750
X37294Y-42808
X37600Y-33000
X37700Y-40106
X37730Y-31462
X38014Y-45760
X38130Y-43774
X38150Y-40450
X38250Y-32000
X38250Y-34750
X38450Y-38150
X38682Y-39756
X38837Y-42810
X38960Y-45940
X39004Y-32433
X39098Y-29305
X39107Y-40407
X39199Y-37457
X39200Y-35100
X39221Y-46765
X39289Y-43135
X39413Y-40065
X39500Y-38250
X39553Y-40739
X39656Y-32009
X39657Y-37640
X39750Y-44550
X39782Y-29565
X39812Y-43478
X39871Y-45273
X39891Y-35790
X39946Y-34224
X39947Y-40652
X39959Y-35000
X39971Y-32754
X39999Y-46198
X40000Y-31700
X40015Y-33145
X40035Y-38965
X40038Y-38520
X40100Y-36250
X40159Y-33893
X40167Y-45013
X40203Y-38030
X40205Y-43458
X40250Y-39483
X40334Y-31207
X40363Y-32163
X40364Y-40652
X40418Y-42037
X40494Y-43726
X40500Y-39000
X40532Y-32541
X40536Y-37820
X40586Y-38218
X40587Y-35874
X40593Y-30605
X40696Y-34342
X40716Y-45859
X40773Y-45084
X40815Y-42063
X40872Y-36146
X40911Y-33516
X40914Y-37337
X40971Y-36531
X41023Y-31002
X41065Y-42391
X41139Y-44265
X41169Y-45890
X41170Y-45142
X41200Y-31750
X41200Y-32900
X41231Y-42034
X41329Y-38483
X41400Y-46550
X41421Y-32086
X41448Y-43139
X41448Y-43139
X41500Y-44482
X41500Y-39250
X41542Y-37288
X41562Y-43734
X41689Y-34529
X41698Y-42214
X41761Y-45216
X41816Y-33622
X41893Y-43520
X42000Y-38500
X42000Y-39500
X42033Y-36676
X42048Y-42407
X42060Y-36024
X42076Y-32520
X42095Y-45424
X42100Y-46735
X42175Y-37685
X42234Y-43726
X42245Y-44640
X42324Y-33652
X42344Y-34416
X42508Y-37896
X42522Y-31161
X42550Y-41979
X42681Y-42619
X42730Y-29905
X42750Y-32400
X42750Y-41000
X42896Y-31825
X43000Y-40000
X43028Y-45917
X43074Y-29713
X43339Y-32615
X43491Y-35125
X43517Y-31825
X43707Y-42569
X43850Y-38463
X43885Y-35125
X44208Y-29748
X44260Y-39965
X44263Y-45386
X44443Y-36991
X44740Y-35323
X44800Y-38200
X44850Y-45839
X44900Y-32450
X44900Y-42600
X44901Y-36991
X45403Y-32183
X45449Y-45834
X45550Y-40100
X45600Y-40848
X45608Y-32520
X46000Y-38100
X46023Y-32085
X46250Y-42215
X46264Y-32637
X46572Y-32332
X46711Y-35023
X46734Y-37141
X46741Y-33592
X46815Y-37141
X46891Y-30174
X47001Y-45763
X47012Y-42185
X47022Y-32750
X47345Y-29523
X47350Y-42386
X47350Y-40437
X47410Y-37141
X47457Y-34668
X47582Y-45763
X47650Y-36537
X47764Y-32191
X47901Y-34760
X48012Y-45763
X48048Y-37141
X48182Y-33083
X48648Y-36559
X48759Y-32594
X48769Y-34957
X48799Y-42165
X48801Y-45763
X48899Y-30164
X49235Y-29675
X49250Y-46235
X49297Y-32313
X49571Y-40261
X49750Y-34938
X49756Y-33026
X49762Y-39415
X49765Y-31419
X49802Y-37660
X49942Y-32252
X50212Y-33114
X50350Y-45950
X50375Y-29779
X50451Y-35102
X50772Y-34485
X50811Y-33673
X50939Y-32702
X50944Y-31248
X51092Y-41732
X51122Y-42124
X51159Y-38635
X51231Y-30440
X51237Y-35405
X51265Y-40520
X51303Y-29864
X51397Y-36509
X51403Y-33188
X51429Y-34397
X51479Y-33791
X51500Y-31020
X51535Y-32817
X51546Y-31411
X51546Y-36038
X51650Y-39200
X51816Y-30484
X52009Y-34465
X52052Y-36448
X52228Y-38065
X52249Y-32769
X52250Y-31400
X52275Y-32198
X52315Y-42545
X52350Y-33340
X52374Y-30447
X52550Y-36500
X52596Y-39090
X52758Y-42161
X52833Y-30270
X52864Y-33231
X53007Y-31775
X53280Y-32059
X53388Y-32634
X54135Y-30377
X54219Y-32779
X54828Y-32490
X55466Y-32929
X56187Y-42386
X56700Y-30050
X57042Y-42699
X57216Y-31722
X57325Y-36509
X57334Y-42435
X57727Y-31716
X57971Y-42728
X58000Y-35250
X58237Y-32824
X58341Y-42096
X58545Y-42433
X59165Y-42987
X59774Y-42720
X60200Y-42294
X60228Y-35093
X60273Y-40773
X61375Y-37056
X61750Y-32500
X61763Y-42063
X61766Y-36308
X61886Y-36879
X62106Y-39489
X62178Y-43502
X62230Y-33094
X62362Y-34113
X62427Y-32346
X62713Y-39594
X62741Y-42068
X62766Y-42763
X62933Y-34131
X63600Y-42900
X65009Y-32496
X65100Y-40150
X65633Y-32496
X65700Y-30200
X65750Y-35250
X66100Y-29345
X66125Y-31562
X66200Y-42650
X66316Y-32381
X66350Y-34800
X66489Y-46264
X66932Y-32582
X66950Y-29750
X67030Y-30135
X67250Y-32322
X67250Y-42365
X67632Y-30161
X67700Y-42905
X67746Y-45266
X67750Y-35291
X67821Y-32417
X68102Y-45434
X68140Y-42400
X68251Y-29675
X68300Y-35263
X68375Y-42084
X68396Y-32556
X68450Y-37050
X68800Y-43083
X68850Y-32513
X68850Y-45740
X68883Y-40456
X69024Y-40601
X69125Y-33438
X69220Y-31475
X69244Y-42315
X69406Y-39848
X69409Y-38005
X69427Y-45658
X69675Y-36903
X69800Y-38100
X69809Y-30114
X69859Y-40221
X69919Y-42750
X69998Y-32562
X70044Y-45198
X70176Y-43048
X70245Y-35188
X70261Y-39411
X70344Y-40906
X70376Y-37196
X70522Y-37947
X70594Y-46335
X70632Y-42224
X70724Y-37382
X70800Y-43000
X70829Y-29760
X70843Y-31897
X70911Y-38009
X70928Y-40065
X71030Y-34632
X71032Y-36862
X71045Y-37610
X71157Y-43970
X71301Y-36179
X71301Y-44373
X71350Y-31400
X71350Y-46350
X71371Y-42567
X71382Y-35194
X71400Y-29700
X71417Y-30483
X71429Y-40976
X71437Y-38522
X71543Y-33361
X71548Y-37278
X71587Y-37872
X71628Y-43115
X71732Y-31944
X71749Y-45002
X71760Y-42505
X71766Y-36942
X71787Y-39933
X71788Y-31514
X71803Y-40409
X71824Y-41007
X71841Y-33669
X71875Y-44368
X71902Y-34894
X72103Y-30550
X72269Y-44344
X72331Y-42654
X72362Y-45269
X72397Y-46017
X72398Y-43225
X72410Y-35907
X72515Y-37908
X72536Y-31424
X72563Y-33092
X72568Y-40749
X72585Y-39523
X72585Y-40146
X72589Y-38943
X72589Y-33840
X72600Y-38350
X72689Y-29950
X72700Y-35050
X72715Y-45766
X72762Y-34416
X72766Y-41313
X72850Y-31150
X72872Y-43604
X72890Y-41886
X72966Y-34756
X72994Y-31793
X73000Y-46050
X73116Y-29522
X73511Y-40384
X73529Y-41063
X73531Y-42925
X73757Y-35751
X73917Y-40994
X73950Y-46200
X74163Y-34852
X74300Y-46450
X74338Y-45762
X74403Y-33106
X74450Y-43359
X74985Y-34870
X75145Y-32015
X75330Y-38663
X75400Y-40650
X75470Y-37602
X75539Y-32015
X75629Y-34700
X75800Y-32350
X75850Y-46450
X76392Y-37872
X76418Y-34874
X76771Y-37425
X77000Y-45800
X77272Y-38173
X77600Y-32800
X77600Y-37450
X77942Y-38217
X78050Y-43400
X78850Y-40550
X79000Y-32015
X79350Y-40200
X79400Y-38365
X79978Y-37526
X80000Y-32300
X80300Y-40400
X80657Y-32339
X80737Y-37885
X80750Y-40000
X80800Y-35000
X80965Y-37230
X81073Y-40519
X81100Y-29700
X81150Y-43300
X81281Y-38470
X81335Y-37693
X81355Y-40245
X81472Y-34805
X81695Y-43285
X81696Y-32397
X81740Y-35446
X82003Y-38061
X82800Y-37400
X88050Y-40550
X89100Y-38150
X89471Y-42708
X89500Y-41000
X89538Y-43638
X89785Y-38152
X89887Y-44109
X89902Y-29502
X89941Y-31569
X89999Y-42333
X90057Y-30767
X90065Y-30145
X90080Y-38476
X90123Y-33045
X90166Y-43084
X90182Y-32589
X90250Y-45000
X90267Y-31348
X90282Y-37823
X90400Y-38750
X90458Y-44212
X90481Y-40224
X90500Y-47000
X90505Y-43801
X90637Y-45137
X90650Y-30750
X90700Y-33250
X90705Y-30349
X90744Y-37206
X90753Y-32598
X90783Y-42876
X90859Y-29522
X90861Y-39755
X90898Y-31299
X90921Y-37560
X90962Y-41480
X91000Y-40750
X91019Y-32308
X91208Y-30384
X91250Y-39000
X91300Y-45550
X91326Y-44667
X91551Y-45247
X91750Y-44907
X91986Y-46193
X92178Y-44015
X92250Y-41465
X92300Y-45450
X92360Y-42945
X92391Y-44632
X92633Y-46170
X92734Y-44825
X92800Y-38250
X93046Y-38557
X93102Y-34750
X93198Y-45187
X93552Y-29598
X93609Y-45365
X93635Y-30638
X93650Y-37700
X93750Y-42965
X93813Y-34000
X93928Y-43774
X93965Y-42555
X93973Y-46371
X94000Y-40000
X94000Y-40500
X94000Y-41250
X94035Y-44965
X94100Y-45800
X94200Y-29750
X94242Y-30898
X94250Y-30150
X94450Y-41977
X94500Y-42679
X94500Y-44000
X94750Y-32250
X94750Y-43250
X94750Y-45750
X95221Y-31785
X95250Y-30500
X95400Y-46200
X95500Y-31500
X95500Y-42500
X95750Y-32500
X96150Y-45500
X96222Y-32028
X96496Y-31570
X96700Y-30950
X97100Y-45800
X98200Y-39600
X98250Y-30000
X99100Y-32850
X100500Y-37450
X101500Y-37500
T4
X15766Y-33500
X16750Y-33500
X18750Y-40000
X18750Y-43000
X19750Y-32250
X19750Y-35250
X19750Y-40000
X19750Y-43000
X20750Y-32250
X20750Y-35250
X20750Y-40000
X20750Y-43000
X21750Y-32250
X21750Y-35250
X21750Y-40000
X21750Y-43000
X22750Y-32250
X22750Y-35250
X22750Y-40000
X22750Y-43000
X23750Y-32250
X23750Y-35250
X23750Y-40000
X23750Y-43000
X24750Y-32250
X24750Y-35250
X24750Y-40000
X24750Y-43000
X25750Y-32250
X25750Y-35250
X25750Y-40000
X25750Y-43000
X26250Y-36500
X26250Y-37484
X26750Y-32250
X26750Y-35250
X26750Y-40000
X26750Y-43000
X30531Y-35000
X30531Y-40500
X30781Y-29500
X31516Y-35000
X31516Y-40500
X31766Y-29500
X32000Y-41500
X32000Y-44500
X32250Y-30750
X32250Y-33750
X32250Y-36000
X32250Y-39000
X33000Y-41500
X33000Y-44500
X33250Y-30750
X33250Y-33750
X33250Y-36000
X33250Y-39000
X34000Y-41500
X34000Y-44500
X34250Y-30750
X34250Y-33750
X34250Y-36000
X34250Y-39000
X35000Y-41500
X35000Y-44500
X35250Y-30750
X35250Y-33750
X35250Y-36000
X35250Y-39000
X36000Y-41500
X36000Y-44500
X36250Y-30750
X36250Y-33750
X36250Y-36000
X36250Y-39000
X37000Y-41500
X37000Y-44500
X37250Y-30750
X37250Y-33750
X37250Y-36000
X37250Y-39000
X38000Y-41500
X38000Y-44500
X38250Y-30750
X38250Y-33750
X38250Y-36000
X38250Y-39000
X39000Y-41500
X39000Y-44500
X39250Y-30750
X39250Y-33750
X39250Y-36000
X39250Y-39000
X41016Y-30250
X41016Y-35250
X41250Y-40750
X42000Y-30250
X42000Y-35250
X42234Y-40750
X43250Y-31000
X43250Y-34000
X43250Y-36000
X43250Y-39000
X43250Y-41500
X43250Y-44500
X44250Y-31000
X44250Y-34000
X44250Y-36000
X44250Y-39000
X44250Y-41500
X44250Y-44500
X45250Y-31000
X45250Y-34000
X45250Y-36000
X45250Y-39000
X45250Y-41500
X45250Y-44500
X46250Y-31000
X46250Y-34000
X46250Y-36000
X46250Y-39000
X46250Y-41500
X46250Y-44500
X47250Y-31000
X47250Y-34000
X47250Y-36000
X47250Y-39000
X47250Y-41500
X47250Y-44500
X48250Y-31000
X48250Y-34000
X48250Y-36000
X48250Y-39000
X48250Y-41500
X48250Y-44500
X49250Y-31000
X49250Y-34000
X49250Y-36000
X49250Y-39000
X49250Y-41500
X49250Y-44500
X50250Y-31000
X50250Y-34000
X50250Y-36000
X50250Y-39000
X50250Y-41500
X50250Y-44500
X51766Y-35250
X51766Y-40750
X52031Y-29750
X52750Y-35250
X52750Y-40750
X53016Y-29750
X53750Y-31000
X53750Y-34000
X53750Y-36000
X53750Y-39000
X53750Y-41500
X53750Y-44500
X54750Y-31000
X54750Y-34000
X54750Y-36000
X54750Y-39000
X54750Y-41500
X54750Y-44500
X55750Y-31000
X55750Y-34000
X55750Y-36000
X55750Y-39000
X55750Y-41500
X55750Y-44500
X56750Y-31000
X56750Y-34000
X56750Y-36000
X56750Y-39000
X56750Y-41500
X56750Y-44500
X57750Y-31000
X57750Y-34000
X57750Y-36000
X57750Y-39000
X57750Y-41500
X57750Y-44500
X58750Y-31000
X58750Y-34000
X58750Y-36000
X58750Y-39000
X58750Y-41500
X58750Y-44500
X59750Y-31000
X59750Y-34000
X59750Y-36000
X59750Y-39000
X59750Y-41500
X59750Y-44500
X60750Y-31000
X60750Y-34000
X60750Y-36000
X60750Y-39000
X60750Y-41500
X60750Y-44500
X61766Y-40500
X61781Y-35000
X62016Y-30250
X62750Y-40500
X62766Y-35000
X63000Y-30250
X63750Y-31000
X63750Y-34000
X63750Y-36000
X63750Y-39000
X63750Y-41500
X63750Y-44500
X64750Y-31000
X64750Y-34000
X64750Y-36000
X64750Y-39000
X64750Y-41500
X64750Y-44500
X65750Y-31000
X65750Y-34000
X65750Y-36000
X65750Y-39000
X65750Y-41500
X65750Y-44500
X66750Y-31000
X66750Y-34000
X66750Y-36000
X66750Y-39000
X66750Y-41500
X66750Y-44500
X67750Y-31000
X67750Y-34000
X67750Y-36000
X67750Y-39000
X67750Y-41500
X67750Y-44500
X68750Y-31000
X68750Y-34000
X68750Y-36000
X68750Y-39000
X68750Y-41500
X68750Y-44500
X69750Y-31000
X69750Y-34000
X69750Y-36000
X69750Y-39000
X69750Y-41500
X69750Y-44500
X70750Y-31000
X70750Y-34000
X70750Y-36000
X70750Y-39000
X70750Y-41500
X70750Y-44500
X94716Y-36800
X94766Y-39000
X94766Y-41250
X95700Y-36800
X95750Y-39000
X95750Y-41250
X97750Y-30750
X97750Y-35750
T5
X94750Y-33750
X95750Y-33750
X97500Y-40500
X97500Y-44500
T6
X19750Y-29000
X19750Y-47000
X20750Y-29000
X20750Y-47000
X21750Y-29000
X21750Y-47000
X22750Y-29000
X22750Y-47000
X23750Y-29000
X23750Y-47000
X24750Y-29000
X24750Y-47000
X25750Y-29000
X25750Y-47000
X26750Y-29000
X26750Y-47000
X43750Y-29000
X43750Y-47000
X44750Y-29000
X44750Y-47000
X45750Y-29000
X45750Y-47000
X46750Y-29000
X46750Y-47000
X47750Y-29000
X47750Y-47000
X48750Y-29000
X48750Y-47000
X49750Y-29000
X49750Y-47000
X50750Y-29000
X50750Y-47000
X67750Y-29000
X67750Y-47000
X68750Y-29000
X68750Y-47000
X69750Y-29000
X69750Y-47000
X70750Y-29000
X70750Y-47000
X71750Y-29000
X71750Y-47000
X72750Y-29000
X72750Y-47000
X73750Y-29000
X73750Y-47000
X74750Y-29000
X74750Y-47000
X91750Y-29000
X91750Y-47000
X92750Y-29000
X92750Y-47000
X93750Y-29000
X93750Y-47000
X94750Y-29000
X94750Y-47000
X95750Y-29000
X95750Y-47000
X96750Y-29000
X96750Y-47000
X97750Y-29000
X97750Y-47000
X98750Y-29000
X98750Y-47000
T7
X15750Y-35000
X15750Y-36000
X15750Y-37000
X15750Y-38000
X15750Y-39000
X15750Y-40000
X15750Y-41000
X15750Y-42000
X73750Y-31000
X73750Y-33750
X73750Y-36500
X73750Y-39250
X73750Y-42000
X73750Y-44750
X74750Y-31000
X74750Y-33750
X74750Y-36500
X74750Y-39250
X74750Y-42000
X74750Y-44750
X75750Y-31000
X75750Y-33750
X75750Y-36500
X75750Y-39250
X75750Y-42000
X75750Y-44750
X76750Y-31000
X76750Y-33750
X76750Y-36500
X76750Y-39250
X76750Y-42000
X76750Y-44750
X77750Y-31000
X77750Y-33750
X77750Y-36500
X77750Y-39250
X77750Y-42000
X77750Y-44750
X78750Y-31000
X78750Y-33750
X78750Y-36500
X78750Y-39250
X78750Y-42000
X78750Y-44750
X79750Y-31000
X79750Y-33750
X79750Y-36500
X79750Y-39250
X79750Y-42000
X79750Y-44750
X80750Y-31000
X80750Y-33750
X80750Y-36500
X80750Y-39250
X80750Y-42000
X80750Y-44750
X82250Y-31000
X82250Y-33750
X82250Y-36500
X82250Y-39250
X82250Y-42000
X82250Y-44750
X83250Y-31000
X83250Y-33750
X83250Y-36500
X83250Y-39250
X83250Y-42000
X83250Y-44750
X84250Y-31000
X84250Y-33750
X84250Y-36500
X84250Y-39250
X84250Y-42000
X84250Y-44750
X85250Y-31000
X85250Y-33750
X85250Y-36500
X85250Y-39250
X85250Y-42000
X85250Y-44750
X86250Y-31000
X86250Y-33750
X86250Y-36500
X86250Y-39250
X86250Y-42000
X86250Y-44750
X87250Y-31000
X87250Y-33750
X87250Y-36500
X87250Y-39250
X87250Y-42000
X87250Y-44750
X88250Y-31000
X88250Y-33750
X88250Y-36500
X88250Y-39250
X88250Y-42000
X88250Y-44750
X89250Y-31000
X89250Y-33750
X89250Y-36500
X89250Y-39250
X89250Y-42000
X89250Y-44750
X92000Y-30500
X92000Y-31500
X92000Y-32500
X92000Y-33500
X92000Y-34500
X92000Y-35500
X92000Y-36500
X92000Y-37500
T8
X101750Y-31951
X101750Y-43750
T2
X104128Y-36622G85X103872Y-36622
G05
X104128Y-39378G85X103872Y-39378
G05
T3
X102937Y-37075G85X102937Y-36957
G05
X102937Y-39043G85X102937Y-38925
G05
T0
M30
