G04 #@! TF.GenerationSoftware,KiCad,Pcbnew,no-vcs-found-9992a07~58~ubuntu16.04.1*
G04 #@! TF.CreationDate,2017-04-23T16:15:32+03:00*
G04 #@! TF.ProjectId,ND-01,4E442D30312E6B696361645F70636200,rev?*
G04 #@! TF.FileFunction,Profile,NP*
%FSLAX46Y46*%
G04 Gerber Fmt 4.6, Leading zero omitted, Abs format (unit mm)*
G04 Created by KiCad (PCBNEW no-vcs-found-9992a07~58~ubuntu16.04.1) date Sun Apr 23 16:15:32 2017*
%MOMM*%
%LPD*%
G01*
G04 APERTURE LIST*
%ADD10C,0.100000*%
%ADD11C,0.150000*%
G04 APERTURE END LIST*
D10*
D11*
X43815000Y-121285000D02*
X43815000Y-121285000D01*
X34290000Y-121285000D02*
X43815000Y-121285000D01*
X34290000Y-120650000D02*
X34290000Y-121285000D01*
X34290000Y-71755000D02*
X34290000Y-120650000D01*
X43815000Y-71755000D02*
X34290000Y-71755000D01*
X257175000Y-121285000D02*
X257175000Y-121285000D01*
X266700000Y-121285000D02*
X257175000Y-121285000D01*
X266700000Y-71755000D02*
X266700000Y-121285000D01*
X257175000Y-71755000D02*
X266700000Y-71755000D01*
X233045000Y-71755000D02*
X233045000Y-71755000D01*
X257175000Y-71755000D02*
X233045000Y-71755000D01*
X257175000Y-121285000D02*
X257175000Y-121285000D01*
X233045000Y-121285000D02*
X257175000Y-121285000D01*
X67945000Y-71755000D02*
X67945000Y-71755000D01*
X43815000Y-71755000D02*
X67945000Y-71755000D01*
X257175000Y-71755000D02*
X257175000Y-71755000D01*
X50165000Y-121285000D02*
X50165000Y-121285000D01*
X67945000Y-121285000D02*
X50165000Y-121285000D01*
X111125000Y-121285000D02*
X111125000Y-121285000D01*
X128905000Y-121285000D02*
X111125000Y-121285000D01*
X172085000Y-121285000D02*
X172085000Y-121285000D01*
X189865000Y-121285000D02*
X172085000Y-121285000D01*
X111125000Y-71755000D02*
X111125000Y-71755000D01*
X128905000Y-71755000D02*
X111125000Y-71755000D01*
X172085000Y-71755000D02*
X172085000Y-71755000D01*
X172085000Y-71755000D02*
X172085000Y-71755000D01*
X189865000Y-71755000D02*
X172085000Y-71755000D01*
X172085000Y-71755000D02*
X128905000Y-71755000D01*
X67945000Y-121285000D02*
X111125000Y-121285000D01*
X111125000Y-71755000D02*
X67945000Y-71755000D01*
X172085000Y-67945000D02*
X172085000Y-67945000D01*
X233045000Y-71755000D02*
X189865000Y-71755000D01*
X128905000Y-121285000D02*
X172085000Y-121285000D01*
X189865000Y-121285000D02*
X233045000Y-121285000D01*
X43815000Y-121285000D02*
X50165000Y-121285000D01*
X172085000Y-67945000D02*
X172085000Y-67945000D01*
M02*
