G04 #@! TF.GenerationSoftware,KiCad,Pcbnew,no-vcs-found-9992a07~58~ubuntu16.04.1*
G04 #@! TF.CreationDate,2017-04-23T16:15:32+03:00*
G04 #@! TF.ProjectId,ND-01,4E442D30312E6B696361645F70636200,rev?*
G04 #@! TF.FileFunction,Legend,Top*
G04 #@! TF.FilePolarity,Positive*
%FSLAX46Y46*%
G04 Gerber Fmt 4.6, Leading zero omitted, Abs format (unit mm)*
G04 Created by KiCad (PCBNEW no-vcs-found-9992a07~58~ubuntu16.04.1) date Sun Apr 23 16:15:32 2017*
%MOMM*%
%LPD*%
G01*
G04 APERTURE LIST*
%ADD10C,0.100000*%
%ADD11C,0.120000*%
%ADD12C,0.150000*%
%ADD13O,2.000000X2.800000*%
%ADD14R,2.000000X2.800000*%
%ADD15C,10.560000*%
%ADD16R,1.670000X1.370000*%
%ADD17R,1.370000X1.670000*%
%ADD18R,2.200000X2.200000*%
%ADD19C,2.200000*%
%ADD20C,2.400000*%
%ADD21R,2.000000X2.000000*%
%ADD22C,2.000000*%
%ADD23O,2.400000X3.000000*%
%ADD24R,2.400000X3.000000*%
%ADD25R,3.000000X2.400000*%
%ADD26O,3.000000X2.400000*%
%ADD27O,2.200000X2.200000*%
%ADD28O,2.000000X2.000000*%
%ADD29O,1.950000X1.400000*%
%ADD30O,1.350000X1.650000*%
%ADD31R,1.750000X0.800000*%
G04 APERTURE END LIST*
D10*
D11*
X160535000Y-92880000D02*
X160535000Y-94250000D01*
X181095000Y-92880000D02*
X160535000Y-92880000D01*
X181095000Y-97620000D02*
X181095000Y-92880000D01*
X160535000Y-97620000D02*
X181095000Y-97620000D01*
X160535000Y-96250000D02*
X160535000Y-97620000D01*
X160535000Y-94250000D02*
G75*
G02X160535000Y-96250000I0J-1000000D01*
G01*
X160535000Y-106850000D02*
X160535000Y-108220000D01*
X181095000Y-106850000D02*
X160535000Y-106850000D01*
X181095000Y-111590000D02*
X181095000Y-106850000D01*
X160535000Y-111590000D02*
X181095000Y-111590000D01*
X160535000Y-110220000D02*
X160535000Y-111590000D01*
X160535000Y-108220000D02*
G75*
G02X160535000Y-110220000I0J-1000000D01*
G01*
X263695000Y-111125000D02*
X263695000Y-81125000D01*
X253195000Y-81125000D02*
X253195000Y-111125000D01*
X263695000Y-81125000D02*
G75*
G03X253195000Y-81125000I-5250000J0D01*
G01*
X253195000Y-111125000D02*
G75*
G03X263695000Y-111125000I5250000J0D01*
G01*
X250316000Y-94991000D02*
X250316000Y-98811000D01*
X250316000Y-98811000D02*
X252096000Y-98811000D01*
X252096000Y-98811000D02*
X252096000Y-94991000D01*
X250316000Y-94991000D02*
X252096000Y-94991000D01*
X108465000Y-94250000D02*
G75*
G02X108465000Y-96250000I0J-1000000D01*
G01*
X108465000Y-96250000D02*
X108465000Y-97620000D01*
X108465000Y-97620000D02*
X129025000Y-97620000D01*
X129025000Y-97620000D02*
X129025000Y-92880000D01*
X129025000Y-92880000D02*
X108465000Y-92880000D01*
X108465000Y-92880000D02*
X108465000Y-94250000D01*
X69335000Y-86725000D02*
G75*
G02X69335000Y-84725000I0J1000000D01*
G01*
X69335000Y-84725000D02*
X69335000Y-83355000D01*
X69335000Y-83355000D02*
X48775000Y-83355000D01*
X48775000Y-83355000D02*
X48775000Y-88095000D01*
X48775000Y-88095000D02*
X69335000Y-88095000D01*
X69335000Y-88095000D02*
X69335000Y-86725000D01*
X135135000Y-108220000D02*
G75*
G02X135135000Y-110220000I0J-1000000D01*
G01*
X135135000Y-110220000D02*
X135135000Y-111590000D01*
X135135000Y-111590000D02*
X155695000Y-111590000D01*
X155695000Y-111590000D02*
X155695000Y-106850000D01*
X155695000Y-106850000D02*
X135135000Y-106850000D01*
X135135000Y-106850000D02*
X135135000Y-108220000D01*
X160535000Y-81550000D02*
G75*
G02X160535000Y-83550000I0J-1000000D01*
G01*
X160535000Y-83550000D02*
X160535000Y-84920000D01*
X160535000Y-84920000D02*
X181095000Y-84920000D01*
X181095000Y-84920000D02*
X181095000Y-80180000D01*
X181095000Y-80180000D02*
X160535000Y-80180000D01*
X160535000Y-80180000D02*
X160535000Y-81550000D01*
X70230000Y-107945000D02*
X70230000Y-111765000D01*
X70230000Y-111765000D02*
X72010000Y-111765000D01*
X72010000Y-111765000D02*
X72010000Y-107945000D01*
X70230000Y-107945000D02*
X72010000Y-107945000D01*
X135135000Y-81550000D02*
G75*
G02X135135000Y-83550000I0J-1000000D01*
G01*
X135135000Y-83550000D02*
X135135000Y-84920000D01*
X135135000Y-84920000D02*
X155695000Y-84920000D01*
X155695000Y-84920000D02*
X155695000Y-80180000D01*
X155695000Y-80180000D02*
X135135000Y-80180000D01*
X135135000Y-80180000D02*
X135135000Y-81550000D01*
X70230000Y-104775000D02*
X70230000Y-107315000D01*
X72010000Y-107315000D02*
X72010000Y-104775000D01*
X72010000Y-107315000D02*
X70230000Y-107315000D01*
X70230000Y-104775000D02*
X72010000Y-104775000D01*
X70230000Y-99060000D02*
X70230000Y-101600000D01*
X72010000Y-101600000D02*
X72010000Y-99060000D01*
X72010000Y-101600000D02*
X70230000Y-101600000D01*
X70230000Y-99060000D02*
X72010000Y-99060000D01*
X70230000Y-95885000D02*
X72010000Y-95885000D01*
X72010000Y-98425000D02*
X70230000Y-98425000D01*
X72010000Y-98425000D02*
X72010000Y-95885000D01*
X70230000Y-95885000D02*
X70230000Y-98425000D01*
X70230000Y-90170000D02*
X70230000Y-92710000D01*
X72010000Y-92710000D02*
X72010000Y-90170000D01*
X72010000Y-92710000D02*
X70230000Y-92710000D01*
X70230000Y-90170000D02*
X72010000Y-90170000D01*
X70230000Y-86995000D02*
X72010000Y-86995000D01*
X72010000Y-89535000D02*
X70230000Y-89535000D01*
X72010000Y-89535000D02*
X72010000Y-86995000D01*
X70230000Y-86995000D02*
X70230000Y-89535000D01*
X70362500Y-80010000D02*
X70362500Y-82550000D01*
X72142500Y-82550000D02*
X72142500Y-80010000D01*
X72142500Y-82550000D02*
X70362500Y-82550000D01*
X70362500Y-80010000D02*
X72142500Y-80010000D01*
X70230000Y-83180000D02*
X70230000Y-85720000D01*
X72010000Y-85720000D02*
X72010000Y-83180000D01*
X72010000Y-85720000D02*
X70230000Y-85720000D01*
X70230000Y-83180000D02*
X72010000Y-83180000D01*
X232410000Y-101098000D02*
X232410000Y-99318000D01*
X234950000Y-99318000D02*
X234950000Y-101098000D01*
X234950000Y-99318000D02*
X232410000Y-99318000D01*
X232410000Y-101098000D02*
X234950000Y-101098000D01*
X235331000Y-111893000D02*
X235331000Y-110113000D01*
X237871000Y-110113000D02*
X237871000Y-111893000D01*
X237871000Y-110113000D02*
X235331000Y-110113000D01*
X235331000Y-111893000D02*
X237871000Y-111893000D01*
X232283000Y-111766000D02*
X232283000Y-109986000D01*
X234823000Y-109986000D02*
X234823000Y-111766000D01*
X234823000Y-109986000D02*
X232283000Y-109986000D01*
X232283000Y-111766000D02*
X234823000Y-111766000D01*
X235331000Y-108205000D02*
X237871000Y-108205000D01*
X237871000Y-106425000D02*
X235331000Y-106425000D01*
X237871000Y-106425000D02*
X237871000Y-108205000D01*
X235331000Y-108205000D02*
X235331000Y-106425000D01*
X235458000Y-101098000D02*
X237998000Y-101098000D01*
X237998000Y-99318000D02*
X235458000Y-99318000D01*
X237998000Y-99318000D02*
X237998000Y-101098000D01*
X235458000Y-101098000D02*
X235458000Y-99318000D01*
X232283000Y-104649000D02*
X232283000Y-102869000D01*
X234823000Y-102869000D02*
X234823000Y-104649000D01*
X234823000Y-102869000D02*
X232283000Y-102869000D01*
X232283000Y-104649000D02*
X234823000Y-104649000D01*
X235331000Y-104649000D02*
X235331000Y-102869000D01*
X237871000Y-102869000D02*
X237871000Y-104649000D01*
X237871000Y-102869000D02*
X235331000Y-102869000D01*
X235331000Y-104649000D02*
X237871000Y-104649000D01*
X232283000Y-108205000D02*
X234823000Y-108205000D01*
X234823000Y-106425000D02*
X232283000Y-106425000D01*
X234823000Y-106425000D02*
X234823000Y-108205000D01*
X232283000Y-108205000D02*
X232283000Y-106425000D01*
X238945000Y-85724538D02*
G75*
G03X244495000Y-87269830I2990000J-462D01*
G01*
X238945000Y-85725462D02*
G75*
G02X244495000Y-84180170I2990000J462D01*
G01*
X244435000Y-85725000D02*
G75*
G03X244435000Y-85725000I-2500000J0D01*
G01*
X244495000Y-87270000D02*
X244495000Y-84180000D01*
D12*
X250825000Y-71755000D02*
X250825000Y-71755000D01*
X250825000Y-121285000D02*
X250825000Y-121285000D01*
D11*
X239558137Y-100041400D02*
G75*
G03X244352436Y-100040000I2396863J981400D01*
G01*
X239558137Y-98078600D02*
G75*
G02X244352436Y-98080000I2396863J-981400D01*
G01*
X239558137Y-98078600D02*
G75*
G03X239557564Y-100040000I2396863J-981400D01*
G01*
X241955000Y-101610000D02*
X241955000Y-96510000D01*
X241915000Y-101610000D02*
X241915000Y-96510000D01*
X241875000Y-101609000D02*
X241875000Y-96511000D01*
X241835000Y-101608000D02*
X241835000Y-96512000D01*
X241795000Y-101606000D02*
X241795000Y-96514000D01*
X241755000Y-101603000D02*
X241755000Y-96517000D01*
X241715000Y-101599000D02*
X241715000Y-96521000D01*
X241675000Y-101595000D02*
X241675000Y-100040000D01*
X241675000Y-98080000D02*
X241675000Y-96525000D01*
X241635000Y-101591000D02*
X241635000Y-100040000D01*
X241635000Y-98080000D02*
X241635000Y-96529000D01*
X241595000Y-101585000D02*
X241595000Y-100040000D01*
X241595000Y-98080000D02*
X241595000Y-96535000D01*
X241555000Y-101579000D02*
X241555000Y-100040000D01*
X241555000Y-98080000D02*
X241555000Y-96541000D01*
X241515000Y-101573000D02*
X241515000Y-100040000D01*
X241515000Y-98080000D02*
X241515000Y-96547000D01*
X241475000Y-101566000D02*
X241475000Y-100040000D01*
X241475000Y-98080000D02*
X241475000Y-96554000D01*
X241435000Y-101558000D02*
X241435000Y-100040000D01*
X241435000Y-98080000D02*
X241435000Y-96562000D01*
X241395000Y-101549000D02*
X241395000Y-100040000D01*
X241395000Y-98080000D02*
X241395000Y-96571000D01*
X241355000Y-101540000D02*
X241355000Y-100040000D01*
X241355000Y-98080000D02*
X241355000Y-96580000D01*
X241315000Y-101530000D02*
X241315000Y-100040000D01*
X241315000Y-98080000D02*
X241315000Y-96590000D01*
X241275000Y-101520000D02*
X241275000Y-100040000D01*
X241275000Y-98080000D02*
X241275000Y-96600000D01*
X241234000Y-101508000D02*
X241234000Y-100040000D01*
X241234000Y-98080000D02*
X241234000Y-96612000D01*
X241194000Y-101496000D02*
X241194000Y-100040000D01*
X241194000Y-98080000D02*
X241194000Y-96624000D01*
X241154000Y-101484000D02*
X241154000Y-100040000D01*
X241154000Y-98080000D02*
X241154000Y-96636000D01*
X241114000Y-101470000D02*
X241114000Y-100040000D01*
X241114000Y-98080000D02*
X241114000Y-96650000D01*
X241074000Y-101456000D02*
X241074000Y-100040000D01*
X241074000Y-98080000D02*
X241074000Y-96664000D01*
X241034000Y-101442000D02*
X241034000Y-100040000D01*
X241034000Y-98080000D02*
X241034000Y-96678000D01*
X240994000Y-101426000D02*
X240994000Y-100040000D01*
X240994000Y-98080000D02*
X240994000Y-96694000D01*
X240954000Y-101410000D02*
X240954000Y-100040000D01*
X240954000Y-98080000D02*
X240954000Y-96710000D01*
X240914000Y-101393000D02*
X240914000Y-100040000D01*
X240914000Y-98080000D02*
X240914000Y-96727000D01*
X240874000Y-101375000D02*
X240874000Y-100040000D01*
X240874000Y-98080000D02*
X240874000Y-96745000D01*
X240834000Y-101356000D02*
X240834000Y-100040000D01*
X240834000Y-98080000D02*
X240834000Y-96764000D01*
X240794000Y-101336000D02*
X240794000Y-100040000D01*
X240794000Y-98080000D02*
X240794000Y-96784000D01*
X240754000Y-101316000D02*
X240754000Y-100040000D01*
X240754000Y-98080000D02*
X240754000Y-96804000D01*
X240714000Y-101294000D02*
X240714000Y-100040000D01*
X240714000Y-98080000D02*
X240714000Y-96826000D01*
X240674000Y-101272000D02*
X240674000Y-100040000D01*
X240674000Y-98080000D02*
X240674000Y-96848000D01*
X240634000Y-101249000D02*
X240634000Y-100040000D01*
X240634000Y-98080000D02*
X240634000Y-96871000D01*
X240594000Y-101225000D02*
X240594000Y-100040000D01*
X240594000Y-98080000D02*
X240594000Y-96895000D01*
X240554000Y-101200000D02*
X240554000Y-100040000D01*
X240554000Y-98080000D02*
X240554000Y-96920000D01*
X240514000Y-101173000D02*
X240514000Y-100040000D01*
X240514000Y-98080000D02*
X240514000Y-96947000D01*
X240474000Y-101146000D02*
X240474000Y-100040000D01*
X240474000Y-98080000D02*
X240474000Y-96974000D01*
X240434000Y-101118000D02*
X240434000Y-100040000D01*
X240434000Y-98080000D02*
X240434000Y-97002000D01*
X240394000Y-101088000D02*
X240394000Y-100040000D01*
X240394000Y-98080000D02*
X240394000Y-97032000D01*
X240354000Y-101057000D02*
X240354000Y-100040000D01*
X240354000Y-98080000D02*
X240354000Y-97063000D01*
X240314000Y-101025000D02*
X240314000Y-100040000D01*
X240314000Y-98080000D02*
X240314000Y-97095000D01*
X240274000Y-100992000D02*
X240274000Y-100040000D01*
X240274000Y-98080000D02*
X240274000Y-97128000D01*
X240234000Y-100957000D02*
X240234000Y-100040000D01*
X240234000Y-98080000D02*
X240234000Y-97163000D01*
X240194000Y-100921000D02*
X240194000Y-100040000D01*
X240194000Y-98080000D02*
X240194000Y-97199000D01*
X240154000Y-100883000D02*
X240154000Y-100040000D01*
X240154000Y-98080000D02*
X240154000Y-97237000D01*
X240114000Y-100843000D02*
X240114000Y-100040000D01*
X240114000Y-98080000D02*
X240114000Y-97277000D01*
X240074000Y-100802000D02*
X240074000Y-100040000D01*
X240074000Y-98080000D02*
X240074000Y-97318000D01*
X240034000Y-100759000D02*
X240034000Y-100040000D01*
X240034000Y-98080000D02*
X240034000Y-97361000D01*
X239994000Y-100714000D02*
X239994000Y-100040000D01*
X239994000Y-98080000D02*
X239994000Y-97406000D01*
X239954000Y-100666000D02*
X239954000Y-100040000D01*
X239954000Y-98080000D02*
X239954000Y-97454000D01*
X239914000Y-100616000D02*
X239914000Y-100040000D01*
X239914000Y-98080000D02*
X239914000Y-97504000D01*
X239874000Y-100564000D02*
X239874000Y-100040000D01*
X239874000Y-98080000D02*
X239874000Y-97556000D01*
X239834000Y-100508000D02*
X239834000Y-100040000D01*
X239834000Y-98080000D02*
X239834000Y-97612000D01*
X239794000Y-100450000D02*
X239794000Y-100040000D01*
X239794000Y-98080000D02*
X239794000Y-97670000D01*
X239754000Y-100387000D02*
X239754000Y-100040000D01*
X239754000Y-98080000D02*
X239754000Y-97733000D01*
X239714000Y-100321000D02*
X239714000Y-97799000D01*
X239674000Y-100249000D02*
X239674000Y-97871000D01*
X239634000Y-100172000D02*
X239634000Y-97948000D01*
X239594000Y-100088000D02*
X239594000Y-98032000D01*
X239554000Y-99994000D02*
X239554000Y-98126000D01*
X239514000Y-99889000D02*
X239514000Y-98231000D01*
X239474000Y-99767000D02*
X239474000Y-98353000D01*
X239434000Y-99619000D02*
X239434000Y-98501000D01*
X239394000Y-99414000D02*
X239394000Y-98706000D01*
X245405000Y-99060000D02*
X244205000Y-99060000D01*
X244805000Y-99710000D02*
X244805000Y-98410000D01*
X244678000Y-94122000D02*
X244678000Y-92822000D01*
X245278000Y-93472000D02*
X244078000Y-93472000D01*
X239267000Y-93826000D02*
X239267000Y-93118000D01*
X239307000Y-94031000D02*
X239307000Y-92913000D01*
X239347000Y-94179000D02*
X239347000Y-92765000D01*
X239387000Y-94301000D02*
X239387000Y-92643000D01*
X239427000Y-94406000D02*
X239427000Y-92538000D01*
X239467000Y-94500000D02*
X239467000Y-92444000D01*
X239507000Y-94584000D02*
X239507000Y-92360000D01*
X239547000Y-94661000D02*
X239547000Y-92283000D01*
X239587000Y-94733000D02*
X239587000Y-92211000D01*
X239627000Y-92492000D02*
X239627000Y-92145000D01*
X239627000Y-94799000D02*
X239627000Y-94452000D01*
X239667000Y-92492000D02*
X239667000Y-92082000D01*
X239667000Y-94862000D02*
X239667000Y-94452000D01*
X239707000Y-92492000D02*
X239707000Y-92024000D01*
X239707000Y-94920000D02*
X239707000Y-94452000D01*
X239747000Y-92492000D02*
X239747000Y-91968000D01*
X239747000Y-94976000D02*
X239747000Y-94452000D01*
X239787000Y-92492000D02*
X239787000Y-91916000D01*
X239787000Y-95028000D02*
X239787000Y-94452000D01*
X239827000Y-92492000D02*
X239827000Y-91866000D01*
X239827000Y-95078000D02*
X239827000Y-94452000D01*
X239867000Y-92492000D02*
X239867000Y-91818000D01*
X239867000Y-95126000D02*
X239867000Y-94452000D01*
X239907000Y-92492000D02*
X239907000Y-91773000D01*
X239907000Y-95171000D02*
X239907000Y-94452000D01*
X239947000Y-92492000D02*
X239947000Y-91730000D01*
X239947000Y-95214000D02*
X239947000Y-94452000D01*
X239987000Y-92492000D02*
X239987000Y-91689000D01*
X239987000Y-95255000D02*
X239987000Y-94452000D01*
X240027000Y-92492000D02*
X240027000Y-91649000D01*
X240027000Y-95295000D02*
X240027000Y-94452000D01*
X240067000Y-92492000D02*
X240067000Y-91611000D01*
X240067000Y-95333000D02*
X240067000Y-94452000D01*
X240107000Y-92492000D02*
X240107000Y-91575000D01*
X240107000Y-95369000D02*
X240107000Y-94452000D01*
X240147000Y-92492000D02*
X240147000Y-91540000D01*
X240147000Y-95404000D02*
X240147000Y-94452000D01*
X240187000Y-92492000D02*
X240187000Y-91507000D01*
X240187000Y-95437000D02*
X240187000Y-94452000D01*
X240227000Y-92492000D02*
X240227000Y-91475000D01*
X240227000Y-95469000D02*
X240227000Y-94452000D01*
X240267000Y-92492000D02*
X240267000Y-91444000D01*
X240267000Y-95500000D02*
X240267000Y-94452000D01*
X240307000Y-92492000D02*
X240307000Y-91414000D01*
X240307000Y-95530000D02*
X240307000Y-94452000D01*
X240347000Y-92492000D02*
X240347000Y-91386000D01*
X240347000Y-95558000D02*
X240347000Y-94452000D01*
X240387000Y-92492000D02*
X240387000Y-91359000D01*
X240387000Y-95585000D02*
X240387000Y-94452000D01*
X240427000Y-92492000D02*
X240427000Y-91332000D01*
X240427000Y-95612000D02*
X240427000Y-94452000D01*
X240467000Y-92492000D02*
X240467000Y-91307000D01*
X240467000Y-95637000D02*
X240467000Y-94452000D01*
X240507000Y-92492000D02*
X240507000Y-91283000D01*
X240507000Y-95661000D02*
X240507000Y-94452000D01*
X240547000Y-92492000D02*
X240547000Y-91260000D01*
X240547000Y-95684000D02*
X240547000Y-94452000D01*
X240587000Y-92492000D02*
X240587000Y-91238000D01*
X240587000Y-95706000D02*
X240587000Y-94452000D01*
X240627000Y-92492000D02*
X240627000Y-91216000D01*
X240627000Y-95728000D02*
X240627000Y-94452000D01*
X240667000Y-92492000D02*
X240667000Y-91196000D01*
X240667000Y-95748000D02*
X240667000Y-94452000D01*
X240707000Y-92492000D02*
X240707000Y-91176000D01*
X240707000Y-95768000D02*
X240707000Y-94452000D01*
X240747000Y-92492000D02*
X240747000Y-91157000D01*
X240747000Y-95787000D02*
X240747000Y-94452000D01*
X240787000Y-92492000D02*
X240787000Y-91139000D01*
X240787000Y-95805000D02*
X240787000Y-94452000D01*
X240827000Y-92492000D02*
X240827000Y-91122000D01*
X240827000Y-95822000D02*
X240827000Y-94452000D01*
X240867000Y-92492000D02*
X240867000Y-91106000D01*
X240867000Y-95838000D02*
X240867000Y-94452000D01*
X240907000Y-92492000D02*
X240907000Y-91090000D01*
X240907000Y-95854000D02*
X240907000Y-94452000D01*
X240947000Y-92492000D02*
X240947000Y-91076000D01*
X240947000Y-95868000D02*
X240947000Y-94452000D01*
X240987000Y-92492000D02*
X240987000Y-91062000D01*
X240987000Y-95882000D02*
X240987000Y-94452000D01*
X241027000Y-92492000D02*
X241027000Y-91048000D01*
X241027000Y-95896000D02*
X241027000Y-94452000D01*
X241067000Y-92492000D02*
X241067000Y-91036000D01*
X241067000Y-95908000D02*
X241067000Y-94452000D01*
X241107000Y-92492000D02*
X241107000Y-91024000D01*
X241107000Y-95920000D02*
X241107000Y-94452000D01*
X241148000Y-92492000D02*
X241148000Y-91012000D01*
X241148000Y-95932000D02*
X241148000Y-94452000D01*
X241188000Y-92492000D02*
X241188000Y-91002000D01*
X241188000Y-95942000D02*
X241188000Y-94452000D01*
X241228000Y-92492000D02*
X241228000Y-90992000D01*
X241228000Y-95952000D02*
X241228000Y-94452000D01*
X241268000Y-92492000D02*
X241268000Y-90983000D01*
X241268000Y-95961000D02*
X241268000Y-94452000D01*
X241308000Y-92492000D02*
X241308000Y-90974000D01*
X241308000Y-95970000D02*
X241308000Y-94452000D01*
X241348000Y-92492000D02*
X241348000Y-90966000D01*
X241348000Y-95978000D02*
X241348000Y-94452000D01*
X241388000Y-92492000D02*
X241388000Y-90959000D01*
X241388000Y-95985000D02*
X241388000Y-94452000D01*
X241428000Y-92492000D02*
X241428000Y-90953000D01*
X241428000Y-95991000D02*
X241428000Y-94452000D01*
X241468000Y-92492000D02*
X241468000Y-90947000D01*
X241468000Y-95997000D02*
X241468000Y-94452000D01*
X241508000Y-92492000D02*
X241508000Y-90941000D01*
X241508000Y-96003000D02*
X241508000Y-94452000D01*
X241548000Y-92492000D02*
X241548000Y-90937000D01*
X241548000Y-96007000D02*
X241548000Y-94452000D01*
X241588000Y-96011000D02*
X241588000Y-90933000D01*
X241628000Y-96015000D02*
X241628000Y-90929000D01*
X241668000Y-96018000D02*
X241668000Y-90926000D01*
X241708000Y-96020000D02*
X241708000Y-90924000D01*
X241748000Y-96021000D02*
X241748000Y-90923000D01*
X241788000Y-96022000D02*
X241788000Y-90922000D01*
X241828000Y-96022000D02*
X241828000Y-90922000D01*
X239431137Y-92490600D02*
G75*
G03X239430564Y-94452000I2396863J-981400D01*
G01*
X239431137Y-92490600D02*
G75*
G02X244225436Y-92492000I2396863J-981400D01*
G01*
X239431137Y-94453400D02*
G75*
G03X244225436Y-94452000I2396863J981400D01*
G01*
X239558137Y-105756400D02*
G75*
G03X244352436Y-105755000I2396863J981400D01*
G01*
X239558137Y-103793600D02*
G75*
G02X244352436Y-103795000I2396863J-981400D01*
G01*
X239558137Y-103793600D02*
G75*
G03X239557564Y-105755000I2396863J-981400D01*
G01*
X241955000Y-107325000D02*
X241955000Y-102225000D01*
X241915000Y-107325000D02*
X241915000Y-102225000D01*
X241875000Y-107324000D02*
X241875000Y-102226000D01*
X241835000Y-107323000D02*
X241835000Y-102227000D01*
X241795000Y-107321000D02*
X241795000Y-102229000D01*
X241755000Y-107318000D02*
X241755000Y-102232000D01*
X241715000Y-107314000D02*
X241715000Y-102236000D01*
X241675000Y-107310000D02*
X241675000Y-105755000D01*
X241675000Y-103795000D02*
X241675000Y-102240000D01*
X241635000Y-107306000D02*
X241635000Y-105755000D01*
X241635000Y-103795000D02*
X241635000Y-102244000D01*
X241595000Y-107300000D02*
X241595000Y-105755000D01*
X241595000Y-103795000D02*
X241595000Y-102250000D01*
X241555000Y-107294000D02*
X241555000Y-105755000D01*
X241555000Y-103795000D02*
X241555000Y-102256000D01*
X241515000Y-107288000D02*
X241515000Y-105755000D01*
X241515000Y-103795000D02*
X241515000Y-102262000D01*
X241475000Y-107281000D02*
X241475000Y-105755000D01*
X241475000Y-103795000D02*
X241475000Y-102269000D01*
X241435000Y-107273000D02*
X241435000Y-105755000D01*
X241435000Y-103795000D02*
X241435000Y-102277000D01*
X241395000Y-107264000D02*
X241395000Y-105755000D01*
X241395000Y-103795000D02*
X241395000Y-102286000D01*
X241355000Y-107255000D02*
X241355000Y-105755000D01*
X241355000Y-103795000D02*
X241355000Y-102295000D01*
X241315000Y-107245000D02*
X241315000Y-105755000D01*
X241315000Y-103795000D02*
X241315000Y-102305000D01*
X241275000Y-107235000D02*
X241275000Y-105755000D01*
X241275000Y-103795000D02*
X241275000Y-102315000D01*
X241234000Y-107223000D02*
X241234000Y-105755000D01*
X241234000Y-103795000D02*
X241234000Y-102327000D01*
X241194000Y-107211000D02*
X241194000Y-105755000D01*
X241194000Y-103795000D02*
X241194000Y-102339000D01*
X241154000Y-107199000D02*
X241154000Y-105755000D01*
X241154000Y-103795000D02*
X241154000Y-102351000D01*
X241114000Y-107185000D02*
X241114000Y-105755000D01*
X241114000Y-103795000D02*
X241114000Y-102365000D01*
X241074000Y-107171000D02*
X241074000Y-105755000D01*
X241074000Y-103795000D02*
X241074000Y-102379000D01*
X241034000Y-107157000D02*
X241034000Y-105755000D01*
X241034000Y-103795000D02*
X241034000Y-102393000D01*
X240994000Y-107141000D02*
X240994000Y-105755000D01*
X240994000Y-103795000D02*
X240994000Y-102409000D01*
X240954000Y-107125000D02*
X240954000Y-105755000D01*
X240954000Y-103795000D02*
X240954000Y-102425000D01*
X240914000Y-107108000D02*
X240914000Y-105755000D01*
X240914000Y-103795000D02*
X240914000Y-102442000D01*
X240874000Y-107090000D02*
X240874000Y-105755000D01*
X240874000Y-103795000D02*
X240874000Y-102460000D01*
X240834000Y-107071000D02*
X240834000Y-105755000D01*
X240834000Y-103795000D02*
X240834000Y-102479000D01*
X240794000Y-107051000D02*
X240794000Y-105755000D01*
X240794000Y-103795000D02*
X240794000Y-102499000D01*
X240754000Y-107031000D02*
X240754000Y-105755000D01*
X240754000Y-103795000D02*
X240754000Y-102519000D01*
X240714000Y-107009000D02*
X240714000Y-105755000D01*
X240714000Y-103795000D02*
X240714000Y-102541000D01*
X240674000Y-106987000D02*
X240674000Y-105755000D01*
X240674000Y-103795000D02*
X240674000Y-102563000D01*
X240634000Y-106964000D02*
X240634000Y-105755000D01*
X240634000Y-103795000D02*
X240634000Y-102586000D01*
X240594000Y-106940000D02*
X240594000Y-105755000D01*
X240594000Y-103795000D02*
X240594000Y-102610000D01*
X240554000Y-106915000D02*
X240554000Y-105755000D01*
X240554000Y-103795000D02*
X240554000Y-102635000D01*
X240514000Y-106888000D02*
X240514000Y-105755000D01*
X240514000Y-103795000D02*
X240514000Y-102662000D01*
X240474000Y-106861000D02*
X240474000Y-105755000D01*
X240474000Y-103795000D02*
X240474000Y-102689000D01*
X240434000Y-106833000D02*
X240434000Y-105755000D01*
X240434000Y-103795000D02*
X240434000Y-102717000D01*
X240394000Y-106803000D02*
X240394000Y-105755000D01*
X240394000Y-103795000D02*
X240394000Y-102747000D01*
X240354000Y-106772000D02*
X240354000Y-105755000D01*
X240354000Y-103795000D02*
X240354000Y-102778000D01*
X240314000Y-106740000D02*
X240314000Y-105755000D01*
X240314000Y-103795000D02*
X240314000Y-102810000D01*
X240274000Y-106707000D02*
X240274000Y-105755000D01*
X240274000Y-103795000D02*
X240274000Y-102843000D01*
X240234000Y-106672000D02*
X240234000Y-105755000D01*
X240234000Y-103795000D02*
X240234000Y-102878000D01*
X240194000Y-106636000D02*
X240194000Y-105755000D01*
X240194000Y-103795000D02*
X240194000Y-102914000D01*
X240154000Y-106598000D02*
X240154000Y-105755000D01*
X240154000Y-103795000D02*
X240154000Y-102952000D01*
X240114000Y-106558000D02*
X240114000Y-105755000D01*
X240114000Y-103795000D02*
X240114000Y-102992000D01*
X240074000Y-106517000D02*
X240074000Y-105755000D01*
X240074000Y-103795000D02*
X240074000Y-103033000D01*
X240034000Y-106474000D02*
X240034000Y-105755000D01*
X240034000Y-103795000D02*
X240034000Y-103076000D01*
X239994000Y-106429000D02*
X239994000Y-105755000D01*
X239994000Y-103795000D02*
X239994000Y-103121000D01*
X239954000Y-106381000D02*
X239954000Y-105755000D01*
X239954000Y-103795000D02*
X239954000Y-103169000D01*
X239914000Y-106331000D02*
X239914000Y-105755000D01*
X239914000Y-103795000D02*
X239914000Y-103219000D01*
X239874000Y-106279000D02*
X239874000Y-105755000D01*
X239874000Y-103795000D02*
X239874000Y-103271000D01*
X239834000Y-106223000D02*
X239834000Y-105755000D01*
X239834000Y-103795000D02*
X239834000Y-103327000D01*
X239794000Y-106165000D02*
X239794000Y-105755000D01*
X239794000Y-103795000D02*
X239794000Y-103385000D01*
X239754000Y-106102000D02*
X239754000Y-105755000D01*
X239754000Y-103795000D02*
X239754000Y-103448000D01*
X239714000Y-106036000D02*
X239714000Y-103514000D01*
X239674000Y-105964000D02*
X239674000Y-103586000D01*
X239634000Y-105887000D02*
X239634000Y-103663000D01*
X239594000Y-105803000D02*
X239594000Y-103747000D01*
X239554000Y-105709000D02*
X239554000Y-103841000D01*
X239514000Y-105604000D02*
X239514000Y-103946000D01*
X239474000Y-105482000D02*
X239474000Y-104068000D01*
X239434000Y-105334000D02*
X239434000Y-104216000D01*
X239394000Y-105129000D02*
X239394000Y-104421000D01*
X245405000Y-104775000D02*
X244205000Y-104775000D01*
X244805000Y-105425000D02*
X244805000Y-104125000D01*
X107785000Y-104615000D02*
X104265000Y-104615000D01*
X107785000Y-102395000D02*
X104265000Y-102395000D01*
X107785000Y-104615000D02*
X107785000Y-104501000D01*
X107785000Y-102509000D02*
X107785000Y-102395000D01*
X104265000Y-104615000D02*
X104265000Y-104501000D01*
X104265000Y-102509000D02*
X104265000Y-102395000D01*
X157010000Y-75839000D02*
X157010000Y-75725000D01*
X157010000Y-77945000D02*
X157010000Y-77831000D01*
X160530000Y-75839000D02*
X160530000Y-75725000D01*
X160530000Y-77945000D02*
X160530000Y-77831000D01*
X160530000Y-75725000D02*
X157010000Y-75725000D01*
X160530000Y-77945000D02*
X157010000Y-77945000D01*
X77040000Y-101874000D02*
X77040000Y-101760000D01*
X77040000Y-103980000D02*
X77040000Y-103866000D01*
X80560000Y-101874000D02*
X80560000Y-101760000D01*
X80560000Y-103980000D02*
X80560000Y-103866000D01*
X80560000Y-101760000D02*
X77040000Y-101760000D01*
X80560000Y-103980000D02*
X77040000Y-103980000D01*
X77040000Y-87904000D02*
X77040000Y-87790000D01*
X77040000Y-90010000D02*
X77040000Y-89896000D01*
X80560000Y-87904000D02*
X80560000Y-87790000D01*
X80560000Y-90010000D02*
X80560000Y-89896000D01*
X80560000Y-87790000D02*
X77040000Y-87790000D01*
X80560000Y-90010000D02*
X77040000Y-90010000D01*
X107190000Y-77945000D02*
X103670000Y-77945000D01*
X107190000Y-75725000D02*
X103670000Y-75725000D01*
X107190000Y-77945000D02*
X107190000Y-77831000D01*
X107190000Y-75839000D02*
X107190000Y-75725000D01*
X103670000Y-77945000D02*
X103670000Y-77831000D01*
X103670000Y-75839000D02*
X103670000Y-75725000D01*
X67785000Y-92200000D02*
X67785000Y-95720000D01*
X65565000Y-92200000D02*
X65565000Y-95720000D01*
X67785000Y-92200000D02*
X67671000Y-92200000D01*
X65679000Y-92200000D02*
X65565000Y-92200000D01*
X67785000Y-95720000D02*
X67671000Y-95720000D01*
X65679000Y-95720000D02*
X65565000Y-95720000D01*
X135170000Y-76675000D02*
X131650000Y-76675000D01*
X135170000Y-74455000D02*
X131650000Y-74455000D01*
X135170000Y-76675000D02*
X135170000Y-76561000D01*
X135170000Y-74569000D02*
X135170000Y-74455000D01*
X131650000Y-76675000D02*
X131650000Y-76561000D01*
X131650000Y-74569000D02*
X131650000Y-74455000D01*
X156375000Y-101874000D02*
X156375000Y-101760000D01*
X156375000Y-103980000D02*
X156375000Y-103866000D01*
X159895000Y-101874000D02*
X159895000Y-101760000D01*
X159895000Y-103980000D02*
X159895000Y-103866000D01*
X159895000Y-101760000D02*
X156375000Y-101760000D01*
X159895000Y-103980000D02*
X156375000Y-103980000D01*
X134495000Y-90645000D02*
X130975000Y-90645000D01*
X134495000Y-88425000D02*
X130975000Y-88425000D01*
X134495000Y-90645000D02*
X134495000Y-90531000D01*
X134495000Y-88539000D02*
X134495000Y-88425000D01*
X130975000Y-90645000D02*
X130975000Y-90531000D01*
X130975000Y-88539000D02*
X130975000Y-88425000D01*
X130975000Y-102509000D02*
X130975000Y-102395000D01*
X130975000Y-104615000D02*
X130975000Y-104501000D01*
X134495000Y-102509000D02*
X134495000Y-102395000D01*
X134495000Y-104615000D02*
X134495000Y-104501000D01*
X134495000Y-102395000D02*
X130975000Y-102395000D01*
X134495000Y-104615000D02*
X130975000Y-104615000D01*
X39535000Y-83980000D02*
X43055000Y-83980000D01*
X39535000Y-86200000D02*
X43055000Y-86200000D01*
X39535000Y-83980000D02*
X39535000Y-84094000D01*
X39535000Y-86086000D02*
X39535000Y-86200000D01*
X43055000Y-83980000D02*
X43055000Y-84094000D01*
X43055000Y-86086000D02*
X43055000Y-86200000D01*
X156415000Y-87904000D02*
X156415000Y-87790000D01*
X156415000Y-90010000D02*
X156415000Y-89896000D01*
X159935000Y-87904000D02*
X159935000Y-87790000D01*
X159935000Y-90010000D02*
X159935000Y-89896000D01*
X159935000Y-87790000D02*
X156415000Y-87790000D01*
X159935000Y-90010000D02*
X156415000Y-90010000D01*
X81195000Y-76040000D02*
X77675000Y-76040000D01*
X81195000Y-73820000D02*
X77675000Y-73820000D01*
X81195000Y-76040000D02*
X81195000Y-75926000D01*
X81195000Y-73934000D02*
X81195000Y-73820000D01*
X77675000Y-76040000D02*
X77675000Y-75926000D01*
X77675000Y-73934000D02*
X77675000Y-73820000D01*
X107190000Y-90645000D02*
X103670000Y-90645000D01*
X107190000Y-88425000D02*
X103670000Y-88425000D01*
X107190000Y-90645000D02*
X107190000Y-90531000D01*
X107190000Y-88539000D02*
X107190000Y-88425000D01*
X103670000Y-90645000D02*
X103670000Y-90531000D01*
X103670000Y-88539000D02*
X103670000Y-88425000D01*
D12*
X205905000Y-90310000D02*
X205905000Y-89690000D01*
X204305000Y-90310000D02*
X205905000Y-90310000D01*
X204305000Y-89690000D02*
X204305000Y-90310000D01*
X203365000Y-90310000D02*
X203365000Y-89690000D01*
X201765000Y-90310000D02*
X203365000Y-90310000D01*
X201765000Y-89690000D02*
X201765000Y-90310000D01*
X200825000Y-90310000D02*
X200825000Y-89690000D01*
X199225000Y-90310000D02*
X200825000Y-90310000D01*
X199225000Y-89690000D02*
X199225000Y-90310000D01*
X198285000Y-90310000D02*
X198285000Y-89690000D01*
X196685000Y-90310000D02*
X198285000Y-90310000D01*
X196685000Y-89690000D02*
X196685000Y-90310000D01*
X195745000Y-90310000D02*
X195745000Y-89690000D01*
X194145000Y-90310000D02*
X195745000Y-90310000D01*
X194145000Y-89690000D02*
X194145000Y-90310000D01*
X193205000Y-90310000D02*
X193205000Y-89690000D01*
X191605000Y-90310000D02*
X193205000Y-90310000D01*
X191605000Y-89690000D02*
X191605000Y-90310000D01*
X190665000Y-90310000D02*
X190665000Y-89690000D01*
X189065000Y-90310000D02*
X190665000Y-90310000D01*
X189065000Y-89690000D02*
X189065000Y-90310000D01*
X188125000Y-90310000D02*
X188125000Y-89690000D01*
X186525000Y-90310000D02*
X188125000Y-90310000D01*
X186525000Y-89690000D02*
X186525000Y-90310000D01*
X204855000Y-95690000D02*
X204855000Y-94690000D01*
X200025000Y-94260000D02*
X200025000Y-94690000D01*
X204855000Y-94260000D02*
X200025000Y-94260000D01*
X205105000Y-94690000D02*
X204855000Y-94260000D01*
X200025000Y-94690000D02*
X200025000Y-95690000D01*
X205105000Y-94690000D02*
X200025000Y-94690000D01*
X205105000Y-95690000D02*
X205105000Y-94690000D01*
X187575000Y-95690000D02*
X187575000Y-94690000D01*
X192405000Y-94260000D02*
X192405000Y-94690000D01*
X187575000Y-94260000D02*
X192405000Y-94260000D01*
X187325000Y-94690000D02*
X187575000Y-94260000D01*
X192405000Y-94690000D02*
X192405000Y-95690000D01*
X187325000Y-94690000D02*
X192405000Y-94690000D01*
X187325000Y-95690000D02*
X187325000Y-94690000D01*
X206475000Y-89690000D02*
X185955000Y-89690000D01*
X206475000Y-95690000D02*
X206475000Y-89690000D01*
X185955000Y-95690000D02*
X206475000Y-95690000D01*
X185955000Y-89690000D02*
X185955000Y-95690000D01*
X227495000Y-104280000D02*
X227495000Y-103660000D01*
X225895000Y-104280000D02*
X227495000Y-104280000D01*
X225895000Y-103660000D02*
X225895000Y-104280000D01*
X224955000Y-104280000D02*
X224955000Y-103660000D01*
X223355000Y-104280000D02*
X224955000Y-104280000D01*
X223355000Y-103660000D02*
X223355000Y-104280000D01*
X222415000Y-104280000D02*
X222415000Y-103660000D01*
X220815000Y-104280000D02*
X222415000Y-104280000D01*
X220815000Y-103660000D02*
X220815000Y-104280000D01*
X219875000Y-104280000D02*
X219875000Y-103660000D01*
X218275000Y-104280000D02*
X219875000Y-104280000D01*
X218275000Y-103660000D02*
X218275000Y-104280000D01*
X217335000Y-104280000D02*
X217335000Y-103660000D01*
X215735000Y-104280000D02*
X217335000Y-104280000D01*
X215735000Y-103660000D02*
X215735000Y-104280000D01*
X214795000Y-104280000D02*
X214795000Y-103660000D01*
X213195000Y-104280000D02*
X214795000Y-104280000D01*
X213195000Y-103660000D02*
X213195000Y-104280000D01*
X212255000Y-104280000D02*
X212255000Y-103660000D01*
X210655000Y-104280000D02*
X212255000Y-104280000D01*
X210655000Y-103660000D02*
X210655000Y-104280000D01*
X209715000Y-104280000D02*
X209715000Y-103660000D01*
X208115000Y-104280000D02*
X209715000Y-104280000D01*
X208115000Y-103660000D02*
X208115000Y-104280000D01*
X226445000Y-109660000D02*
X226445000Y-108660000D01*
X221615000Y-108230000D02*
X221615000Y-108660000D01*
X226445000Y-108230000D02*
X221615000Y-108230000D01*
X226695000Y-108660000D02*
X226445000Y-108230000D01*
X221615000Y-108660000D02*
X221615000Y-109660000D01*
X226695000Y-108660000D02*
X221615000Y-108660000D01*
X226695000Y-109660000D02*
X226695000Y-108660000D01*
X209165000Y-109660000D02*
X209165000Y-108660000D01*
X213995000Y-108230000D02*
X213995000Y-108660000D01*
X209165000Y-108230000D02*
X213995000Y-108230000D01*
X208915000Y-108660000D02*
X209165000Y-108230000D01*
X213995000Y-108660000D02*
X213995000Y-109660000D01*
X208915000Y-108660000D02*
X213995000Y-108660000D01*
X208915000Y-109660000D02*
X208915000Y-108660000D01*
X228065000Y-103660000D02*
X207545000Y-103660000D01*
X228065000Y-109660000D02*
X228065000Y-103660000D01*
X207545000Y-109660000D02*
X228065000Y-109660000D01*
X207545000Y-103660000D02*
X207545000Y-109660000D01*
X227495000Y-111265000D02*
X227495000Y-110645000D01*
X225895000Y-111265000D02*
X227495000Y-111265000D01*
X225895000Y-110645000D02*
X225895000Y-111265000D01*
X224955000Y-111265000D02*
X224955000Y-110645000D01*
X223355000Y-111265000D02*
X224955000Y-111265000D01*
X223355000Y-110645000D02*
X223355000Y-111265000D01*
X222415000Y-111265000D02*
X222415000Y-110645000D01*
X220815000Y-111265000D02*
X222415000Y-111265000D01*
X220815000Y-110645000D02*
X220815000Y-111265000D01*
X219875000Y-111265000D02*
X219875000Y-110645000D01*
X218275000Y-111265000D02*
X219875000Y-111265000D01*
X218275000Y-110645000D02*
X218275000Y-111265000D01*
X217335000Y-111265000D02*
X217335000Y-110645000D01*
X215735000Y-111265000D02*
X217335000Y-111265000D01*
X215735000Y-110645000D02*
X215735000Y-111265000D01*
X214795000Y-111265000D02*
X214795000Y-110645000D01*
X213195000Y-111265000D02*
X214795000Y-111265000D01*
X213195000Y-110645000D02*
X213195000Y-111265000D01*
X212255000Y-111265000D02*
X212255000Y-110645000D01*
X210655000Y-111265000D02*
X212255000Y-111265000D01*
X210655000Y-110645000D02*
X210655000Y-111265000D01*
X209715000Y-111265000D02*
X209715000Y-110645000D01*
X208115000Y-111265000D02*
X209715000Y-111265000D01*
X208115000Y-110645000D02*
X208115000Y-111265000D01*
X226445000Y-116645000D02*
X226445000Y-115645000D01*
X221615000Y-115215000D02*
X221615000Y-115645000D01*
X226445000Y-115215000D02*
X221615000Y-115215000D01*
X226695000Y-115645000D02*
X226445000Y-115215000D01*
X221615000Y-115645000D02*
X221615000Y-116645000D01*
X226695000Y-115645000D02*
X221615000Y-115645000D01*
X226695000Y-116645000D02*
X226695000Y-115645000D01*
X209165000Y-116645000D02*
X209165000Y-115645000D01*
X213995000Y-115215000D02*
X213995000Y-115645000D01*
X209165000Y-115215000D02*
X213995000Y-115215000D01*
X208915000Y-115645000D02*
X209165000Y-115215000D01*
X213995000Y-115645000D02*
X213995000Y-116645000D01*
X208915000Y-115645000D02*
X213995000Y-115645000D01*
X208915000Y-116645000D02*
X208915000Y-115645000D01*
X228065000Y-110645000D02*
X207545000Y-110645000D01*
X228065000Y-116645000D02*
X228065000Y-110645000D01*
X207545000Y-116645000D02*
X228065000Y-116645000D01*
X207545000Y-110645000D02*
X207545000Y-116645000D01*
X43025000Y-87530000D02*
X37025000Y-87530000D01*
X37025000Y-87530000D02*
X37025000Y-108050000D01*
X37025000Y-108050000D02*
X43025000Y-108050000D01*
X43025000Y-108050000D02*
X43025000Y-87530000D01*
X37025000Y-88900000D02*
X38025000Y-88900000D01*
X38025000Y-88900000D02*
X38025000Y-93980000D01*
X38025000Y-93980000D02*
X37025000Y-93980000D01*
X38025000Y-88900000D02*
X38455000Y-89150000D01*
X38455000Y-89150000D02*
X38455000Y-93980000D01*
X38455000Y-93980000D02*
X38025000Y-93980000D01*
X37025000Y-89150000D02*
X38025000Y-89150000D01*
X37025000Y-106680000D02*
X38025000Y-106680000D01*
X38025000Y-106680000D02*
X38025000Y-101600000D01*
X38025000Y-101600000D02*
X37025000Y-101600000D01*
X38025000Y-106680000D02*
X38455000Y-106430000D01*
X38455000Y-106430000D02*
X38455000Y-101600000D01*
X38455000Y-101600000D02*
X38025000Y-101600000D01*
X37025000Y-106430000D02*
X38025000Y-106430000D01*
X43025000Y-88100000D02*
X42405000Y-88100000D01*
X42405000Y-88100000D02*
X42405000Y-89700000D01*
X42405000Y-89700000D02*
X43025000Y-89700000D01*
X43025000Y-90640000D02*
X42405000Y-90640000D01*
X42405000Y-90640000D02*
X42405000Y-92240000D01*
X42405000Y-92240000D02*
X43025000Y-92240000D01*
X43025000Y-93180000D02*
X42405000Y-93180000D01*
X42405000Y-93180000D02*
X42405000Y-94780000D01*
X42405000Y-94780000D02*
X43025000Y-94780000D01*
X43025000Y-95720000D02*
X42405000Y-95720000D01*
X42405000Y-95720000D02*
X42405000Y-97320000D01*
X42405000Y-97320000D02*
X43025000Y-97320000D01*
X43025000Y-98260000D02*
X42405000Y-98260000D01*
X42405000Y-98260000D02*
X42405000Y-99860000D01*
X42405000Y-99860000D02*
X43025000Y-99860000D01*
X43025000Y-100800000D02*
X42405000Y-100800000D01*
X42405000Y-100800000D02*
X42405000Y-102400000D01*
X42405000Y-102400000D02*
X43025000Y-102400000D01*
X43025000Y-103340000D02*
X42405000Y-103340000D01*
X42405000Y-103340000D02*
X42405000Y-104940000D01*
X42405000Y-104940000D02*
X43025000Y-104940000D01*
X43025000Y-105880000D02*
X42405000Y-105880000D01*
X42405000Y-105880000D02*
X42405000Y-107480000D01*
X42405000Y-107480000D02*
X43025000Y-107480000D01*
X231280000Y-76670000D02*
X230660000Y-76670000D01*
X231280000Y-78270000D02*
X231280000Y-76670000D01*
X230660000Y-78270000D02*
X231280000Y-78270000D01*
X231280000Y-79210000D02*
X230660000Y-79210000D01*
X231280000Y-80810000D02*
X231280000Y-79210000D01*
X230660000Y-80810000D02*
X231280000Y-80810000D01*
X231280000Y-81750000D02*
X230660000Y-81750000D01*
X231280000Y-83350000D02*
X231280000Y-81750000D01*
X230660000Y-83350000D02*
X231280000Y-83350000D01*
X231280000Y-84290000D02*
X230660000Y-84290000D01*
X231280000Y-85890000D02*
X231280000Y-84290000D01*
X230660000Y-85890000D02*
X231280000Y-85890000D01*
X231280000Y-86830000D02*
X230660000Y-86830000D01*
X231280000Y-88430000D02*
X231280000Y-86830000D01*
X230660000Y-88430000D02*
X231280000Y-88430000D01*
X231280000Y-89370000D02*
X230660000Y-89370000D01*
X231280000Y-90970000D02*
X231280000Y-89370000D01*
X230660000Y-90970000D02*
X231280000Y-90970000D01*
X231280000Y-91910000D02*
X230660000Y-91910000D01*
X231280000Y-93510000D02*
X231280000Y-91910000D01*
X230660000Y-93510000D02*
X231280000Y-93510000D01*
X231280000Y-94450000D02*
X230660000Y-94450000D01*
X231280000Y-96050000D02*
X231280000Y-94450000D01*
X230660000Y-96050000D02*
X231280000Y-96050000D01*
X236660000Y-77720000D02*
X235660000Y-77720000D01*
X235230000Y-82550000D02*
X235660000Y-82550000D01*
X235230000Y-77720000D02*
X235230000Y-82550000D01*
X235660000Y-77470000D02*
X235230000Y-77720000D01*
X235660000Y-82550000D02*
X236660000Y-82550000D01*
X235660000Y-77470000D02*
X235660000Y-82550000D01*
X236660000Y-77470000D02*
X235660000Y-77470000D01*
X236660000Y-95000000D02*
X235660000Y-95000000D01*
X235230000Y-90170000D02*
X235660000Y-90170000D01*
X235230000Y-95000000D02*
X235230000Y-90170000D01*
X235660000Y-95250000D02*
X235230000Y-95000000D01*
X235660000Y-90170000D02*
X236660000Y-90170000D01*
X235660000Y-95250000D02*
X235660000Y-90170000D01*
X236660000Y-95250000D02*
X235660000Y-95250000D01*
X230660000Y-76100000D02*
X230660000Y-96620000D01*
X236660000Y-76100000D02*
X230660000Y-76100000D01*
X236660000Y-96620000D02*
X236660000Y-76100000D01*
X230660000Y-96620000D02*
X236660000Y-96620000D01*
X185955000Y-75720000D02*
X185955000Y-81720000D01*
X185955000Y-81720000D02*
X206475000Y-81720000D01*
X206475000Y-81720000D02*
X206475000Y-75720000D01*
X206475000Y-75720000D02*
X185955000Y-75720000D01*
X187325000Y-81720000D02*
X187325000Y-80720000D01*
X187325000Y-80720000D02*
X192405000Y-80720000D01*
X192405000Y-80720000D02*
X192405000Y-81720000D01*
X187325000Y-80720000D02*
X187575000Y-80290000D01*
X187575000Y-80290000D02*
X192405000Y-80290000D01*
X192405000Y-80290000D02*
X192405000Y-80720000D01*
X187575000Y-81720000D02*
X187575000Y-80720000D01*
X205105000Y-81720000D02*
X205105000Y-80720000D01*
X205105000Y-80720000D02*
X200025000Y-80720000D01*
X200025000Y-80720000D02*
X200025000Y-81720000D01*
X205105000Y-80720000D02*
X204855000Y-80290000D01*
X204855000Y-80290000D02*
X200025000Y-80290000D01*
X200025000Y-80290000D02*
X200025000Y-80720000D01*
X204855000Y-81720000D02*
X204855000Y-80720000D01*
X186525000Y-75720000D02*
X186525000Y-76340000D01*
X186525000Y-76340000D02*
X188125000Y-76340000D01*
X188125000Y-76340000D02*
X188125000Y-75720000D01*
X189065000Y-75720000D02*
X189065000Y-76340000D01*
X189065000Y-76340000D02*
X190665000Y-76340000D01*
X190665000Y-76340000D02*
X190665000Y-75720000D01*
X191605000Y-75720000D02*
X191605000Y-76340000D01*
X191605000Y-76340000D02*
X193205000Y-76340000D01*
X193205000Y-76340000D02*
X193205000Y-75720000D01*
X194145000Y-75720000D02*
X194145000Y-76340000D01*
X194145000Y-76340000D02*
X195745000Y-76340000D01*
X195745000Y-76340000D02*
X195745000Y-75720000D01*
X196685000Y-75720000D02*
X196685000Y-76340000D01*
X196685000Y-76340000D02*
X198285000Y-76340000D01*
X198285000Y-76340000D02*
X198285000Y-75720000D01*
X199225000Y-75720000D02*
X199225000Y-76340000D01*
X199225000Y-76340000D02*
X200825000Y-76340000D01*
X200825000Y-76340000D02*
X200825000Y-75720000D01*
X201765000Y-75720000D02*
X201765000Y-76340000D01*
X201765000Y-76340000D02*
X203365000Y-76340000D01*
X203365000Y-76340000D02*
X203365000Y-75720000D01*
X204305000Y-75720000D02*
X204305000Y-76340000D01*
X204305000Y-76340000D02*
X205905000Y-76340000D01*
X205905000Y-76340000D02*
X205905000Y-75720000D01*
X205905000Y-83325000D02*
X205905000Y-82705000D01*
X204305000Y-83325000D02*
X205905000Y-83325000D01*
X204305000Y-82705000D02*
X204305000Y-83325000D01*
X203365000Y-83325000D02*
X203365000Y-82705000D01*
X201765000Y-83325000D02*
X203365000Y-83325000D01*
X201765000Y-82705000D02*
X201765000Y-83325000D01*
X200825000Y-83325000D02*
X200825000Y-82705000D01*
X199225000Y-83325000D02*
X200825000Y-83325000D01*
X199225000Y-82705000D02*
X199225000Y-83325000D01*
X198285000Y-83325000D02*
X198285000Y-82705000D01*
X196685000Y-83325000D02*
X198285000Y-83325000D01*
X196685000Y-82705000D02*
X196685000Y-83325000D01*
X195745000Y-83325000D02*
X195745000Y-82705000D01*
X194145000Y-83325000D02*
X195745000Y-83325000D01*
X194145000Y-82705000D02*
X194145000Y-83325000D01*
X193205000Y-83325000D02*
X193205000Y-82705000D01*
X191605000Y-83325000D02*
X193205000Y-83325000D01*
X191605000Y-82705000D02*
X191605000Y-83325000D01*
X190665000Y-83325000D02*
X190665000Y-82705000D01*
X189065000Y-83325000D02*
X190665000Y-83325000D01*
X189065000Y-82705000D02*
X189065000Y-83325000D01*
X188125000Y-83325000D02*
X188125000Y-82705000D01*
X186525000Y-83325000D02*
X188125000Y-83325000D01*
X186525000Y-82705000D02*
X186525000Y-83325000D01*
X204855000Y-88705000D02*
X204855000Y-87705000D01*
X200025000Y-87275000D02*
X200025000Y-87705000D01*
X204855000Y-87275000D02*
X200025000Y-87275000D01*
X205105000Y-87705000D02*
X204855000Y-87275000D01*
X200025000Y-87705000D02*
X200025000Y-88705000D01*
X205105000Y-87705000D02*
X200025000Y-87705000D01*
X205105000Y-88705000D02*
X205105000Y-87705000D01*
X187575000Y-88705000D02*
X187575000Y-87705000D01*
X192405000Y-87275000D02*
X192405000Y-87705000D01*
X187575000Y-87275000D02*
X192405000Y-87275000D01*
X187325000Y-87705000D02*
X187575000Y-87275000D01*
X192405000Y-87705000D02*
X192405000Y-88705000D01*
X187325000Y-87705000D02*
X192405000Y-87705000D01*
X187325000Y-88705000D02*
X187325000Y-87705000D01*
X206475000Y-82705000D02*
X185955000Y-82705000D01*
X206475000Y-88705000D02*
X206475000Y-82705000D01*
X185955000Y-88705000D02*
X206475000Y-88705000D01*
X185955000Y-82705000D02*
X185955000Y-88705000D01*
X205905000Y-97295000D02*
X205905000Y-96675000D01*
X204305000Y-97295000D02*
X205905000Y-97295000D01*
X204305000Y-96675000D02*
X204305000Y-97295000D01*
X203365000Y-97295000D02*
X203365000Y-96675000D01*
X201765000Y-97295000D02*
X203365000Y-97295000D01*
X201765000Y-96675000D02*
X201765000Y-97295000D01*
X200825000Y-97295000D02*
X200825000Y-96675000D01*
X199225000Y-97295000D02*
X200825000Y-97295000D01*
X199225000Y-96675000D02*
X199225000Y-97295000D01*
X198285000Y-97295000D02*
X198285000Y-96675000D01*
X196685000Y-97295000D02*
X198285000Y-97295000D01*
X196685000Y-96675000D02*
X196685000Y-97295000D01*
X195745000Y-97295000D02*
X195745000Y-96675000D01*
X194145000Y-97295000D02*
X195745000Y-97295000D01*
X194145000Y-96675000D02*
X194145000Y-97295000D01*
X193205000Y-97295000D02*
X193205000Y-96675000D01*
X191605000Y-97295000D02*
X193205000Y-97295000D01*
X191605000Y-96675000D02*
X191605000Y-97295000D01*
X190665000Y-97295000D02*
X190665000Y-96675000D01*
X189065000Y-97295000D02*
X190665000Y-97295000D01*
X189065000Y-96675000D02*
X189065000Y-97295000D01*
X188125000Y-97295000D02*
X188125000Y-96675000D01*
X186525000Y-97295000D02*
X188125000Y-97295000D01*
X186525000Y-96675000D02*
X186525000Y-97295000D01*
X204855000Y-102675000D02*
X204855000Y-101675000D01*
X200025000Y-101245000D02*
X200025000Y-101675000D01*
X204855000Y-101245000D02*
X200025000Y-101245000D01*
X205105000Y-101675000D02*
X204855000Y-101245000D01*
X200025000Y-101675000D02*
X200025000Y-102675000D01*
X205105000Y-101675000D02*
X200025000Y-101675000D01*
X205105000Y-102675000D02*
X205105000Y-101675000D01*
X187575000Y-102675000D02*
X187575000Y-101675000D01*
X192405000Y-101245000D02*
X192405000Y-101675000D01*
X187575000Y-101245000D02*
X192405000Y-101245000D01*
X187325000Y-101675000D02*
X187575000Y-101245000D01*
X192405000Y-101675000D02*
X192405000Y-102675000D01*
X187325000Y-101675000D02*
X192405000Y-101675000D01*
X187325000Y-102675000D02*
X187325000Y-101675000D01*
X206475000Y-96675000D02*
X185955000Y-96675000D01*
X206475000Y-102675000D02*
X206475000Y-96675000D01*
X185955000Y-102675000D02*
X206475000Y-102675000D01*
X185955000Y-96675000D02*
X185955000Y-102675000D01*
X185955000Y-103660000D02*
X185955000Y-109660000D01*
X185955000Y-109660000D02*
X206475000Y-109660000D01*
X206475000Y-109660000D02*
X206475000Y-103660000D01*
X206475000Y-103660000D02*
X185955000Y-103660000D01*
X187325000Y-109660000D02*
X187325000Y-108660000D01*
X187325000Y-108660000D02*
X192405000Y-108660000D01*
X192405000Y-108660000D02*
X192405000Y-109660000D01*
X187325000Y-108660000D02*
X187575000Y-108230000D01*
X187575000Y-108230000D02*
X192405000Y-108230000D01*
X192405000Y-108230000D02*
X192405000Y-108660000D01*
X187575000Y-109660000D02*
X187575000Y-108660000D01*
X205105000Y-109660000D02*
X205105000Y-108660000D01*
X205105000Y-108660000D02*
X200025000Y-108660000D01*
X200025000Y-108660000D02*
X200025000Y-109660000D01*
X205105000Y-108660000D02*
X204855000Y-108230000D01*
X204855000Y-108230000D02*
X200025000Y-108230000D01*
X200025000Y-108230000D02*
X200025000Y-108660000D01*
X204855000Y-109660000D02*
X204855000Y-108660000D01*
X186525000Y-103660000D02*
X186525000Y-104280000D01*
X186525000Y-104280000D02*
X188125000Y-104280000D01*
X188125000Y-104280000D02*
X188125000Y-103660000D01*
X189065000Y-103660000D02*
X189065000Y-104280000D01*
X189065000Y-104280000D02*
X190665000Y-104280000D01*
X190665000Y-104280000D02*
X190665000Y-103660000D01*
X191605000Y-103660000D02*
X191605000Y-104280000D01*
X191605000Y-104280000D02*
X193205000Y-104280000D01*
X193205000Y-104280000D02*
X193205000Y-103660000D01*
X194145000Y-103660000D02*
X194145000Y-104280000D01*
X194145000Y-104280000D02*
X195745000Y-104280000D01*
X195745000Y-104280000D02*
X195745000Y-103660000D01*
X196685000Y-103660000D02*
X196685000Y-104280000D01*
X196685000Y-104280000D02*
X198285000Y-104280000D01*
X198285000Y-104280000D02*
X198285000Y-103660000D01*
X199225000Y-103660000D02*
X199225000Y-104280000D01*
X199225000Y-104280000D02*
X200825000Y-104280000D01*
X200825000Y-104280000D02*
X200825000Y-103660000D01*
X201765000Y-103660000D02*
X201765000Y-104280000D01*
X201765000Y-104280000D02*
X203365000Y-104280000D01*
X203365000Y-104280000D02*
X203365000Y-103660000D01*
X204305000Y-103660000D02*
X204305000Y-104280000D01*
X204305000Y-104280000D02*
X205905000Y-104280000D01*
X205905000Y-104280000D02*
X205905000Y-103660000D01*
X205905000Y-111265000D02*
X205905000Y-110645000D01*
X204305000Y-111265000D02*
X205905000Y-111265000D01*
X204305000Y-110645000D02*
X204305000Y-111265000D01*
X203365000Y-111265000D02*
X203365000Y-110645000D01*
X201765000Y-111265000D02*
X203365000Y-111265000D01*
X201765000Y-110645000D02*
X201765000Y-111265000D01*
X200825000Y-111265000D02*
X200825000Y-110645000D01*
X199225000Y-111265000D02*
X200825000Y-111265000D01*
X199225000Y-110645000D02*
X199225000Y-111265000D01*
X198285000Y-111265000D02*
X198285000Y-110645000D01*
X196685000Y-111265000D02*
X198285000Y-111265000D01*
X196685000Y-110645000D02*
X196685000Y-111265000D01*
X195745000Y-111265000D02*
X195745000Y-110645000D01*
X194145000Y-111265000D02*
X195745000Y-111265000D01*
X194145000Y-110645000D02*
X194145000Y-111265000D01*
X193205000Y-111265000D02*
X193205000Y-110645000D01*
X191605000Y-111265000D02*
X193205000Y-111265000D01*
X191605000Y-110645000D02*
X191605000Y-111265000D01*
X190665000Y-111265000D02*
X190665000Y-110645000D01*
X189065000Y-111265000D02*
X190665000Y-111265000D01*
X189065000Y-110645000D02*
X189065000Y-111265000D01*
X188125000Y-111265000D02*
X188125000Y-110645000D01*
X186525000Y-111265000D02*
X188125000Y-111265000D01*
X186525000Y-110645000D02*
X186525000Y-111265000D01*
X204855000Y-116645000D02*
X204855000Y-115645000D01*
X200025000Y-115215000D02*
X200025000Y-115645000D01*
X204855000Y-115215000D02*
X200025000Y-115215000D01*
X205105000Y-115645000D02*
X204855000Y-115215000D01*
X200025000Y-115645000D02*
X200025000Y-116645000D01*
X205105000Y-115645000D02*
X200025000Y-115645000D01*
X205105000Y-116645000D02*
X205105000Y-115645000D01*
X187575000Y-116645000D02*
X187575000Y-115645000D01*
X192405000Y-115215000D02*
X192405000Y-115645000D01*
X187575000Y-115215000D02*
X192405000Y-115215000D01*
X187325000Y-115645000D02*
X187575000Y-115215000D01*
X192405000Y-115645000D02*
X192405000Y-116645000D01*
X187325000Y-115645000D02*
X192405000Y-115645000D01*
X187325000Y-116645000D02*
X187325000Y-115645000D01*
X206475000Y-110645000D02*
X185955000Y-110645000D01*
X206475000Y-116645000D02*
X206475000Y-110645000D01*
X185955000Y-116645000D02*
X206475000Y-116645000D01*
X185955000Y-110645000D02*
X185955000Y-116645000D01*
X207545000Y-75720000D02*
X207545000Y-81720000D01*
X207545000Y-81720000D02*
X228065000Y-81720000D01*
X228065000Y-81720000D02*
X228065000Y-75720000D01*
X228065000Y-75720000D02*
X207545000Y-75720000D01*
X208915000Y-81720000D02*
X208915000Y-80720000D01*
X208915000Y-80720000D02*
X213995000Y-80720000D01*
X213995000Y-80720000D02*
X213995000Y-81720000D01*
X208915000Y-80720000D02*
X209165000Y-80290000D01*
X209165000Y-80290000D02*
X213995000Y-80290000D01*
X213995000Y-80290000D02*
X213995000Y-80720000D01*
X209165000Y-81720000D02*
X209165000Y-80720000D01*
X226695000Y-81720000D02*
X226695000Y-80720000D01*
X226695000Y-80720000D02*
X221615000Y-80720000D01*
X221615000Y-80720000D02*
X221615000Y-81720000D01*
X226695000Y-80720000D02*
X226445000Y-80290000D01*
X226445000Y-80290000D02*
X221615000Y-80290000D01*
X221615000Y-80290000D02*
X221615000Y-80720000D01*
X226445000Y-81720000D02*
X226445000Y-80720000D01*
X208115000Y-75720000D02*
X208115000Y-76340000D01*
X208115000Y-76340000D02*
X209715000Y-76340000D01*
X209715000Y-76340000D02*
X209715000Y-75720000D01*
X210655000Y-75720000D02*
X210655000Y-76340000D01*
X210655000Y-76340000D02*
X212255000Y-76340000D01*
X212255000Y-76340000D02*
X212255000Y-75720000D01*
X213195000Y-75720000D02*
X213195000Y-76340000D01*
X213195000Y-76340000D02*
X214795000Y-76340000D01*
X214795000Y-76340000D02*
X214795000Y-75720000D01*
X215735000Y-75720000D02*
X215735000Y-76340000D01*
X215735000Y-76340000D02*
X217335000Y-76340000D01*
X217335000Y-76340000D02*
X217335000Y-75720000D01*
X218275000Y-75720000D02*
X218275000Y-76340000D01*
X218275000Y-76340000D02*
X219875000Y-76340000D01*
X219875000Y-76340000D02*
X219875000Y-75720000D01*
X220815000Y-75720000D02*
X220815000Y-76340000D01*
X220815000Y-76340000D02*
X222415000Y-76340000D01*
X222415000Y-76340000D02*
X222415000Y-75720000D01*
X223355000Y-75720000D02*
X223355000Y-76340000D01*
X223355000Y-76340000D02*
X224955000Y-76340000D01*
X224955000Y-76340000D02*
X224955000Y-75720000D01*
X225895000Y-75720000D02*
X225895000Y-76340000D01*
X225895000Y-76340000D02*
X227495000Y-76340000D01*
X227495000Y-76340000D02*
X227495000Y-75720000D01*
X227495000Y-83325000D02*
X227495000Y-82705000D01*
X225895000Y-83325000D02*
X227495000Y-83325000D01*
X225895000Y-82705000D02*
X225895000Y-83325000D01*
X224955000Y-83325000D02*
X224955000Y-82705000D01*
X223355000Y-83325000D02*
X224955000Y-83325000D01*
X223355000Y-82705000D02*
X223355000Y-83325000D01*
X222415000Y-83325000D02*
X222415000Y-82705000D01*
X220815000Y-83325000D02*
X222415000Y-83325000D01*
X220815000Y-82705000D02*
X220815000Y-83325000D01*
X219875000Y-83325000D02*
X219875000Y-82705000D01*
X218275000Y-83325000D02*
X219875000Y-83325000D01*
X218275000Y-82705000D02*
X218275000Y-83325000D01*
X217335000Y-83325000D02*
X217335000Y-82705000D01*
X215735000Y-83325000D02*
X217335000Y-83325000D01*
X215735000Y-82705000D02*
X215735000Y-83325000D01*
X214795000Y-83325000D02*
X214795000Y-82705000D01*
X213195000Y-83325000D02*
X214795000Y-83325000D01*
X213195000Y-82705000D02*
X213195000Y-83325000D01*
X212255000Y-83325000D02*
X212255000Y-82705000D01*
X210655000Y-83325000D02*
X212255000Y-83325000D01*
X210655000Y-82705000D02*
X210655000Y-83325000D01*
X209715000Y-83325000D02*
X209715000Y-82705000D01*
X208115000Y-83325000D02*
X209715000Y-83325000D01*
X208115000Y-82705000D02*
X208115000Y-83325000D01*
X226445000Y-88705000D02*
X226445000Y-87705000D01*
X221615000Y-87275000D02*
X221615000Y-87705000D01*
X226445000Y-87275000D02*
X221615000Y-87275000D01*
X226695000Y-87705000D02*
X226445000Y-87275000D01*
X221615000Y-87705000D02*
X221615000Y-88705000D01*
X226695000Y-87705000D02*
X221615000Y-87705000D01*
X226695000Y-88705000D02*
X226695000Y-87705000D01*
X209165000Y-88705000D02*
X209165000Y-87705000D01*
X213995000Y-87275000D02*
X213995000Y-87705000D01*
X209165000Y-87275000D02*
X213995000Y-87275000D01*
X208915000Y-87705000D02*
X209165000Y-87275000D01*
X213995000Y-87705000D02*
X213995000Y-88705000D01*
X208915000Y-87705000D02*
X213995000Y-87705000D01*
X208915000Y-88705000D02*
X208915000Y-87705000D01*
X228065000Y-82705000D02*
X207545000Y-82705000D01*
X228065000Y-88705000D02*
X228065000Y-82705000D01*
X207545000Y-88705000D02*
X228065000Y-88705000D01*
X207545000Y-82705000D02*
X207545000Y-88705000D01*
X207545000Y-89690000D02*
X207545000Y-95690000D01*
X207545000Y-95690000D02*
X228065000Y-95690000D01*
X228065000Y-95690000D02*
X228065000Y-89690000D01*
X228065000Y-89690000D02*
X207545000Y-89690000D01*
X208915000Y-95690000D02*
X208915000Y-94690000D01*
X208915000Y-94690000D02*
X213995000Y-94690000D01*
X213995000Y-94690000D02*
X213995000Y-95690000D01*
X208915000Y-94690000D02*
X209165000Y-94260000D01*
X209165000Y-94260000D02*
X213995000Y-94260000D01*
X213995000Y-94260000D02*
X213995000Y-94690000D01*
X209165000Y-95690000D02*
X209165000Y-94690000D01*
X226695000Y-95690000D02*
X226695000Y-94690000D01*
X226695000Y-94690000D02*
X221615000Y-94690000D01*
X221615000Y-94690000D02*
X221615000Y-95690000D01*
X226695000Y-94690000D02*
X226445000Y-94260000D01*
X226445000Y-94260000D02*
X221615000Y-94260000D01*
X221615000Y-94260000D02*
X221615000Y-94690000D01*
X226445000Y-95690000D02*
X226445000Y-94690000D01*
X208115000Y-89690000D02*
X208115000Y-90310000D01*
X208115000Y-90310000D02*
X209715000Y-90310000D01*
X209715000Y-90310000D02*
X209715000Y-89690000D01*
X210655000Y-89690000D02*
X210655000Y-90310000D01*
X210655000Y-90310000D02*
X212255000Y-90310000D01*
X212255000Y-90310000D02*
X212255000Y-89690000D01*
X213195000Y-89690000D02*
X213195000Y-90310000D01*
X213195000Y-90310000D02*
X214795000Y-90310000D01*
X214795000Y-90310000D02*
X214795000Y-89690000D01*
X215735000Y-89690000D02*
X215735000Y-90310000D01*
X215735000Y-90310000D02*
X217335000Y-90310000D01*
X217335000Y-90310000D02*
X217335000Y-89690000D01*
X218275000Y-89690000D02*
X218275000Y-90310000D01*
X218275000Y-90310000D02*
X219875000Y-90310000D01*
X219875000Y-90310000D02*
X219875000Y-89690000D01*
X220815000Y-89690000D02*
X220815000Y-90310000D01*
X220815000Y-90310000D02*
X222415000Y-90310000D01*
X222415000Y-90310000D02*
X222415000Y-89690000D01*
X223355000Y-89690000D02*
X223355000Y-90310000D01*
X223355000Y-90310000D02*
X224955000Y-90310000D01*
X224955000Y-90310000D02*
X224955000Y-89690000D01*
X225895000Y-89690000D02*
X225895000Y-90310000D01*
X225895000Y-90310000D02*
X227495000Y-90310000D01*
X227495000Y-90310000D02*
X227495000Y-89690000D01*
X207545000Y-96675000D02*
X207545000Y-102675000D01*
X207545000Y-102675000D02*
X228065000Y-102675000D01*
X228065000Y-102675000D02*
X228065000Y-96675000D01*
X228065000Y-96675000D02*
X207545000Y-96675000D01*
X208915000Y-102675000D02*
X208915000Y-101675000D01*
X208915000Y-101675000D02*
X213995000Y-101675000D01*
X213995000Y-101675000D02*
X213995000Y-102675000D01*
X208915000Y-101675000D02*
X209165000Y-101245000D01*
X209165000Y-101245000D02*
X213995000Y-101245000D01*
X213995000Y-101245000D02*
X213995000Y-101675000D01*
X209165000Y-102675000D02*
X209165000Y-101675000D01*
X226695000Y-102675000D02*
X226695000Y-101675000D01*
X226695000Y-101675000D02*
X221615000Y-101675000D01*
X221615000Y-101675000D02*
X221615000Y-102675000D01*
X226695000Y-101675000D02*
X226445000Y-101245000D01*
X226445000Y-101245000D02*
X221615000Y-101245000D01*
X221615000Y-101245000D02*
X221615000Y-101675000D01*
X226445000Y-102675000D02*
X226445000Y-101675000D01*
X208115000Y-96675000D02*
X208115000Y-97295000D01*
X208115000Y-97295000D02*
X209715000Y-97295000D01*
X209715000Y-97295000D02*
X209715000Y-96675000D01*
X210655000Y-96675000D02*
X210655000Y-97295000D01*
X210655000Y-97295000D02*
X212255000Y-97295000D01*
X212255000Y-97295000D02*
X212255000Y-96675000D01*
X213195000Y-96675000D02*
X213195000Y-97295000D01*
X213195000Y-97295000D02*
X214795000Y-97295000D01*
X214795000Y-97295000D02*
X214795000Y-96675000D01*
X215735000Y-96675000D02*
X215735000Y-97295000D01*
X215735000Y-97295000D02*
X217335000Y-97295000D01*
X217335000Y-97295000D02*
X217335000Y-96675000D01*
X218275000Y-96675000D02*
X218275000Y-97295000D01*
X218275000Y-97295000D02*
X219875000Y-97295000D01*
X219875000Y-97295000D02*
X219875000Y-96675000D01*
X220815000Y-96675000D02*
X220815000Y-97295000D01*
X220815000Y-97295000D02*
X222415000Y-97295000D01*
X222415000Y-97295000D02*
X222415000Y-96675000D01*
X223355000Y-96675000D02*
X223355000Y-97295000D01*
X223355000Y-97295000D02*
X224955000Y-97295000D01*
X224955000Y-97295000D02*
X224955000Y-96675000D01*
X225895000Y-96675000D02*
X225895000Y-97295000D01*
X225895000Y-97295000D02*
X227495000Y-97295000D01*
X227495000Y-97295000D02*
X227495000Y-96675000D01*
D11*
X249060000Y-106130000D02*
X246240000Y-106130000D01*
X247650000Y-111950000D02*
X247650000Y-110610000D01*
X247650000Y-103950000D02*
X247650000Y-105290000D01*
X249060000Y-110610000D02*
X249060000Y-105290000D01*
X246240000Y-110610000D02*
X249060000Y-110610000D01*
X246240000Y-105290000D02*
X246240000Y-110610000D01*
X249060000Y-105290000D02*
X246240000Y-105290000D01*
X135135000Y-92880000D02*
X135135000Y-94250000D01*
X155695000Y-92880000D02*
X135135000Y-92880000D01*
X155695000Y-97620000D02*
X155695000Y-92880000D01*
X135135000Y-97620000D02*
X155695000Y-97620000D01*
X135135000Y-96250000D02*
X135135000Y-97620000D01*
X135135000Y-94250000D02*
G75*
G02X135135000Y-96250000I0J-1000000D01*
G01*
X108465000Y-106850000D02*
X108465000Y-108220000D01*
X129025000Y-106850000D02*
X108465000Y-106850000D01*
X129025000Y-111590000D02*
X129025000Y-106850000D01*
X108465000Y-111590000D02*
X129025000Y-111590000D01*
X108465000Y-110220000D02*
X108465000Y-111590000D01*
X108465000Y-108220000D02*
G75*
G02X108465000Y-110220000I0J-1000000D01*
G01*
X108465000Y-80180000D02*
X108465000Y-81550000D01*
X129025000Y-80180000D02*
X108465000Y-80180000D01*
X129025000Y-84920000D02*
X129025000Y-80180000D01*
X108465000Y-84920000D02*
X129025000Y-84920000D01*
X108465000Y-83550000D02*
X108465000Y-84920000D01*
X108465000Y-81550000D02*
G75*
G02X108465000Y-83550000I0J-1000000D01*
G01*
X80525000Y-92880000D02*
X80525000Y-94250000D01*
X101085000Y-92880000D02*
X80525000Y-92880000D01*
X101085000Y-97620000D02*
X101085000Y-92880000D01*
X80525000Y-97620000D02*
X101085000Y-97620000D01*
X80525000Y-96250000D02*
X80525000Y-97620000D01*
X80525000Y-94250000D02*
G75*
G02X80525000Y-96250000I0J-1000000D01*
G01*
X79890000Y-108220000D02*
G75*
G02X79890000Y-110220000I0J-1000000D01*
G01*
X79890000Y-110220000D02*
X79890000Y-111590000D01*
X79890000Y-111590000D02*
X100450000Y-111590000D01*
X100450000Y-111590000D02*
X100450000Y-106850000D01*
X100450000Y-106850000D02*
X79890000Y-106850000D01*
X79890000Y-106850000D02*
X79890000Y-108220000D01*
X80525000Y-80915000D02*
G75*
G02X80525000Y-82915000I0J-1000000D01*
G01*
X80525000Y-82915000D02*
X80525000Y-84285000D01*
X80525000Y-84285000D02*
X101085000Y-84285000D01*
X101085000Y-84285000D02*
X101085000Y-79545000D01*
X101085000Y-79545000D02*
X80525000Y-79545000D01*
X80525000Y-79545000D02*
X80525000Y-80915000D01*
X69335000Y-106410000D02*
G75*
G02X69335000Y-104410000I0J1000000D01*
G01*
X69335000Y-104410000D02*
X69335000Y-103040000D01*
X69335000Y-103040000D02*
X46235000Y-103040000D01*
X46235000Y-103040000D02*
X46235000Y-107780000D01*
X46235000Y-107780000D02*
X69335000Y-107780000D01*
X69335000Y-107780000D02*
X69335000Y-106410000D01*
X246625000Y-89015000D02*
X249945000Y-89015000D01*
X249945000Y-89015000D02*
X249945000Y-79895000D01*
X249945000Y-79895000D02*
X246625000Y-79895000D01*
X246625000Y-79895000D02*
X246625000Y-89015000D01*
X248285000Y-89825000D02*
X248285000Y-89015000D01*
X248285000Y-79085000D02*
X248285000Y-79895000D01*
X266840000Y-100870000D02*
X260430000Y-100870000D01*
X265610000Y-92170000D02*
X265610000Y-100870000D01*
X260430000Y-92170000D02*
X266840000Y-92170000D01*
X260430000Y-100870000D02*
X260430000Y-92170000D01*
X266840000Y-100870000D02*
X266840000Y-92170000D01*
D12*
X158987380Y-96488095D02*
X159796904Y-96488095D01*
X159892142Y-96440476D01*
X159939761Y-96392857D01*
X159987380Y-96297619D01*
X159987380Y-96107142D01*
X159939761Y-96011904D01*
X159892142Y-95964285D01*
X159796904Y-95916666D01*
X158987380Y-95916666D01*
X159987380Y-94916666D02*
X159987380Y-95488095D01*
X159987380Y-95202380D02*
X158987380Y-95202380D01*
X159130238Y-95297619D01*
X159225476Y-95392857D01*
X159273095Y-95488095D01*
X158987380Y-94583333D02*
X158987380Y-93964285D01*
X159368333Y-94297619D01*
X159368333Y-94154761D01*
X159415952Y-94059523D01*
X159463571Y-94011904D01*
X159558809Y-93964285D01*
X159796904Y-93964285D01*
X159892142Y-94011904D01*
X159939761Y-94059523D01*
X159987380Y-94154761D01*
X159987380Y-94440476D01*
X159939761Y-94535714D01*
X159892142Y-94583333D01*
X158987380Y-110458095D02*
X159796904Y-110458095D01*
X159892142Y-110410476D01*
X159939761Y-110362857D01*
X159987380Y-110267619D01*
X159987380Y-110077142D01*
X159939761Y-109981904D01*
X159892142Y-109934285D01*
X159796904Y-109886666D01*
X158987380Y-109886666D01*
X159987380Y-108886666D02*
X159987380Y-109458095D01*
X159987380Y-109172380D02*
X158987380Y-109172380D01*
X159130238Y-109267619D01*
X159225476Y-109362857D01*
X159273095Y-109458095D01*
X159320714Y-108029523D02*
X159987380Y-108029523D01*
X158939761Y-108267619D02*
X159654047Y-108505714D01*
X159654047Y-107886666D01*
X258746666Y-101052380D02*
X258746666Y-101766666D01*
X258699047Y-101909523D01*
X258603809Y-102004761D01*
X258460952Y-102052380D01*
X258365714Y-102052380D01*
X259746666Y-102052380D02*
X259175238Y-102052380D01*
X259460952Y-102052380D02*
X259460952Y-101052380D01*
X259365714Y-101195238D01*
X259270476Y-101290476D01*
X259175238Y-101338095D01*
X248958380Y-97710523D02*
X249672666Y-97710523D01*
X249815523Y-97758142D01*
X249910761Y-97853380D01*
X249958380Y-97996238D01*
X249958380Y-98091476D01*
X249291714Y-96805761D02*
X249958380Y-96805761D01*
X248910761Y-97043857D02*
X249625047Y-97281952D01*
X249625047Y-96662904D01*
X249958380Y-95758142D02*
X249958380Y-96329571D01*
X249958380Y-96043857D02*
X248958380Y-96043857D01*
X249101238Y-96139095D01*
X249196476Y-96234333D01*
X249244095Y-96329571D01*
X106917380Y-96011904D02*
X107726904Y-96011904D01*
X107822142Y-95964285D01*
X107869761Y-95916666D01*
X107917380Y-95821428D01*
X107917380Y-95630952D01*
X107869761Y-95535714D01*
X107822142Y-95488095D01*
X107726904Y-95440476D01*
X106917380Y-95440476D01*
X106917380Y-95059523D02*
X106917380Y-94392857D01*
X107917380Y-94821428D01*
X64643095Y-78827380D02*
X64643095Y-79636904D01*
X64690714Y-79732142D01*
X64738333Y-79779761D01*
X64833571Y-79827380D01*
X65024047Y-79827380D01*
X65119285Y-79779761D01*
X65166904Y-79732142D01*
X65214523Y-79636904D01*
X65214523Y-78827380D01*
X65643095Y-78922619D02*
X65690714Y-78875000D01*
X65785952Y-78827380D01*
X66024047Y-78827380D01*
X66119285Y-78875000D01*
X66166904Y-78922619D01*
X66214523Y-79017857D01*
X66214523Y-79113095D01*
X66166904Y-79255952D01*
X65595476Y-79827380D01*
X66214523Y-79827380D01*
X133587380Y-110458095D02*
X134396904Y-110458095D01*
X134492142Y-110410476D01*
X134539761Y-110362857D01*
X134587380Y-110267619D01*
X134587380Y-110077142D01*
X134539761Y-109981904D01*
X134492142Y-109934285D01*
X134396904Y-109886666D01*
X133587380Y-109886666D01*
X134587380Y-108886666D02*
X134587380Y-109458095D01*
X134587380Y-109172380D02*
X133587380Y-109172380D01*
X133730238Y-109267619D01*
X133825476Y-109362857D01*
X133873095Y-109458095D01*
X134587380Y-107934285D02*
X134587380Y-108505714D01*
X134587380Y-108220000D02*
X133587380Y-108220000D01*
X133730238Y-108315238D01*
X133825476Y-108410476D01*
X133873095Y-108505714D01*
X158987380Y-83788095D02*
X159796904Y-83788095D01*
X159892142Y-83740476D01*
X159939761Y-83692857D01*
X159987380Y-83597619D01*
X159987380Y-83407142D01*
X159939761Y-83311904D01*
X159892142Y-83264285D01*
X159796904Y-83216666D01*
X158987380Y-83216666D01*
X159987380Y-82216666D02*
X159987380Y-82788095D01*
X159987380Y-82502380D02*
X158987380Y-82502380D01*
X159130238Y-82597619D01*
X159225476Y-82692857D01*
X159273095Y-82788095D01*
X159082619Y-81835714D02*
X159035000Y-81788095D01*
X158987380Y-81692857D01*
X158987380Y-81454761D01*
X159035000Y-81359523D01*
X159082619Y-81311904D01*
X159177857Y-81264285D01*
X159273095Y-81264285D01*
X159415952Y-81311904D01*
X159987380Y-81883333D01*
X159987380Y-81264285D01*
X72477380Y-111426523D02*
X73191666Y-111426523D01*
X73334523Y-111474142D01*
X73429761Y-111569380D01*
X73477380Y-111712238D01*
X73477380Y-111807476D01*
X72810714Y-110521761D02*
X73477380Y-110521761D01*
X72429761Y-110759857D02*
X73144047Y-110997952D01*
X73144047Y-110378904D01*
X72477380Y-109807476D02*
X72477380Y-109712238D01*
X72525000Y-109617000D01*
X72572619Y-109569380D01*
X72667857Y-109521761D01*
X72858333Y-109474142D01*
X73096428Y-109474142D01*
X73286904Y-109521761D01*
X73382142Y-109569380D01*
X73429761Y-109617000D01*
X73477380Y-109712238D01*
X73477380Y-109807476D01*
X73429761Y-109902714D01*
X73382142Y-109950333D01*
X73286904Y-109997952D01*
X73096428Y-110045571D01*
X72858333Y-110045571D01*
X72667857Y-109997952D01*
X72572619Y-109950333D01*
X72525000Y-109902714D01*
X72477380Y-109807476D01*
X133587380Y-83311904D02*
X134396904Y-83311904D01*
X134492142Y-83264285D01*
X134539761Y-83216666D01*
X134587380Y-83121428D01*
X134587380Y-82930952D01*
X134539761Y-82835714D01*
X134492142Y-82788095D01*
X134396904Y-82740476D01*
X133587380Y-82740476D01*
X134587380Y-82216666D02*
X134587380Y-82026190D01*
X134539761Y-81930952D01*
X134492142Y-81883333D01*
X134349285Y-81788095D01*
X134158809Y-81740476D01*
X133777857Y-81740476D01*
X133682619Y-81788095D01*
X133635000Y-81835714D01*
X133587380Y-81930952D01*
X133587380Y-82121428D01*
X133635000Y-82216666D01*
X133682619Y-82264285D01*
X133777857Y-82311904D01*
X134015952Y-82311904D01*
X134111190Y-82264285D01*
X134158809Y-82216666D01*
X134206428Y-82121428D01*
X134206428Y-81930952D01*
X134158809Y-81835714D01*
X134111190Y-81788095D01*
X134015952Y-81740476D01*
X72352380Y-106854523D02*
X73066666Y-106854523D01*
X73209523Y-106902142D01*
X73304761Y-106997380D01*
X73352380Y-107140238D01*
X73352380Y-107235476D01*
X72352380Y-106473571D02*
X72352380Y-105854523D01*
X72733333Y-106187857D01*
X72733333Y-106045000D01*
X72780952Y-105949761D01*
X72828571Y-105902142D01*
X72923809Y-105854523D01*
X73161904Y-105854523D01*
X73257142Y-105902142D01*
X73304761Y-105949761D01*
X73352380Y-106045000D01*
X73352380Y-106330714D01*
X73304761Y-106425952D01*
X73257142Y-106473571D01*
X73352380Y-105378333D02*
X73352380Y-105187857D01*
X73304761Y-105092619D01*
X73257142Y-105045000D01*
X73114285Y-104949761D01*
X72923809Y-104902142D01*
X72542857Y-104902142D01*
X72447619Y-104949761D01*
X72400000Y-104997380D01*
X72352380Y-105092619D01*
X72352380Y-105283095D01*
X72400000Y-105378333D01*
X72447619Y-105425952D01*
X72542857Y-105473571D01*
X72780952Y-105473571D01*
X72876190Y-105425952D01*
X72923809Y-105378333D01*
X72971428Y-105283095D01*
X72971428Y-105092619D01*
X72923809Y-104997380D01*
X72876190Y-104949761D01*
X72780952Y-104902142D01*
X72352380Y-101139523D02*
X73066666Y-101139523D01*
X73209523Y-101187142D01*
X73304761Y-101282380D01*
X73352380Y-101425238D01*
X73352380Y-101520476D01*
X72352380Y-100758571D02*
X72352380Y-100139523D01*
X72733333Y-100472857D01*
X72733333Y-100330000D01*
X72780952Y-100234761D01*
X72828571Y-100187142D01*
X72923809Y-100139523D01*
X73161904Y-100139523D01*
X73257142Y-100187142D01*
X73304761Y-100234761D01*
X73352380Y-100330000D01*
X73352380Y-100615714D01*
X73304761Y-100710952D01*
X73257142Y-100758571D01*
X72780952Y-99568095D02*
X72733333Y-99663333D01*
X72685714Y-99710952D01*
X72590476Y-99758571D01*
X72542857Y-99758571D01*
X72447619Y-99710952D01*
X72400000Y-99663333D01*
X72352380Y-99568095D01*
X72352380Y-99377619D01*
X72400000Y-99282380D01*
X72447619Y-99234761D01*
X72542857Y-99187142D01*
X72590476Y-99187142D01*
X72685714Y-99234761D01*
X72733333Y-99282380D01*
X72780952Y-99377619D01*
X72780952Y-99568095D01*
X72828571Y-99663333D01*
X72876190Y-99710952D01*
X72971428Y-99758571D01*
X73161904Y-99758571D01*
X73257142Y-99710952D01*
X73304761Y-99663333D01*
X73352380Y-99568095D01*
X73352380Y-99377619D01*
X73304761Y-99282380D01*
X73257142Y-99234761D01*
X73161904Y-99187142D01*
X72971428Y-99187142D01*
X72876190Y-99234761D01*
X72828571Y-99282380D01*
X72780952Y-99377619D01*
X72352380Y-97964523D02*
X73066666Y-97964523D01*
X73209523Y-98012142D01*
X73304761Y-98107380D01*
X73352380Y-98250238D01*
X73352380Y-98345476D01*
X72352380Y-97583571D02*
X72352380Y-96964523D01*
X72733333Y-97297857D01*
X72733333Y-97155000D01*
X72780952Y-97059761D01*
X72828571Y-97012142D01*
X72923809Y-96964523D01*
X73161904Y-96964523D01*
X73257142Y-97012142D01*
X73304761Y-97059761D01*
X73352380Y-97155000D01*
X73352380Y-97440714D01*
X73304761Y-97535952D01*
X73257142Y-97583571D01*
X72352380Y-96631190D02*
X72352380Y-95964523D01*
X73352380Y-96393095D01*
X72352380Y-92249523D02*
X73066666Y-92249523D01*
X73209523Y-92297142D01*
X73304761Y-92392380D01*
X73352380Y-92535238D01*
X73352380Y-92630476D01*
X72352380Y-91868571D02*
X72352380Y-91249523D01*
X72733333Y-91582857D01*
X72733333Y-91440000D01*
X72780952Y-91344761D01*
X72828571Y-91297142D01*
X72923809Y-91249523D01*
X73161904Y-91249523D01*
X73257142Y-91297142D01*
X73304761Y-91344761D01*
X73352380Y-91440000D01*
X73352380Y-91725714D01*
X73304761Y-91820952D01*
X73257142Y-91868571D01*
X72352380Y-90392380D02*
X72352380Y-90582857D01*
X72400000Y-90678095D01*
X72447619Y-90725714D01*
X72590476Y-90820952D01*
X72780952Y-90868571D01*
X73161904Y-90868571D01*
X73257142Y-90820952D01*
X73304761Y-90773333D01*
X73352380Y-90678095D01*
X73352380Y-90487619D01*
X73304761Y-90392380D01*
X73257142Y-90344761D01*
X73161904Y-90297142D01*
X72923809Y-90297142D01*
X72828571Y-90344761D01*
X72780952Y-90392380D01*
X72733333Y-90487619D01*
X72733333Y-90678095D01*
X72780952Y-90773333D01*
X72828571Y-90820952D01*
X72923809Y-90868571D01*
X72352380Y-89074523D02*
X73066666Y-89074523D01*
X73209523Y-89122142D01*
X73304761Y-89217380D01*
X73352380Y-89360238D01*
X73352380Y-89455476D01*
X72352380Y-88693571D02*
X72352380Y-88074523D01*
X72733333Y-88407857D01*
X72733333Y-88265000D01*
X72780952Y-88169761D01*
X72828571Y-88122142D01*
X72923809Y-88074523D01*
X73161904Y-88074523D01*
X73257142Y-88122142D01*
X73304761Y-88169761D01*
X73352380Y-88265000D01*
X73352380Y-88550714D01*
X73304761Y-88645952D01*
X73257142Y-88693571D01*
X72352380Y-87169761D02*
X72352380Y-87645952D01*
X72828571Y-87693571D01*
X72780952Y-87645952D01*
X72733333Y-87550714D01*
X72733333Y-87312619D01*
X72780952Y-87217380D01*
X72828571Y-87169761D01*
X72923809Y-87122142D01*
X73161904Y-87122142D01*
X73257142Y-87169761D01*
X73304761Y-87217380D01*
X73352380Y-87312619D01*
X73352380Y-87550714D01*
X73304761Y-87645952D01*
X73257142Y-87693571D01*
X72484880Y-82089523D02*
X73199166Y-82089523D01*
X73342023Y-82137142D01*
X73437261Y-82232380D01*
X73484880Y-82375238D01*
X73484880Y-82470476D01*
X72484880Y-81708571D02*
X72484880Y-81089523D01*
X72865833Y-81422857D01*
X72865833Y-81280000D01*
X72913452Y-81184761D01*
X72961071Y-81137142D01*
X73056309Y-81089523D01*
X73294404Y-81089523D01*
X73389642Y-81137142D01*
X73437261Y-81184761D01*
X73484880Y-81280000D01*
X73484880Y-81565714D01*
X73437261Y-81660952D01*
X73389642Y-81708571D01*
X72484880Y-80756190D02*
X72484880Y-80137142D01*
X72865833Y-80470476D01*
X72865833Y-80327619D01*
X72913452Y-80232380D01*
X72961071Y-80184761D01*
X73056309Y-80137142D01*
X73294404Y-80137142D01*
X73389642Y-80184761D01*
X73437261Y-80232380D01*
X73484880Y-80327619D01*
X73484880Y-80613333D01*
X73437261Y-80708571D01*
X73389642Y-80756190D01*
X72352380Y-85259523D02*
X73066666Y-85259523D01*
X73209523Y-85307142D01*
X73304761Y-85402380D01*
X73352380Y-85545238D01*
X73352380Y-85640476D01*
X72352380Y-84878571D02*
X72352380Y-84259523D01*
X72733333Y-84592857D01*
X72733333Y-84450000D01*
X72780952Y-84354761D01*
X72828571Y-84307142D01*
X72923809Y-84259523D01*
X73161904Y-84259523D01*
X73257142Y-84307142D01*
X73304761Y-84354761D01*
X73352380Y-84450000D01*
X73352380Y-84735714D01*
X73304761Y-84830952D01*
X73257142Y-84878571D01*
X72685714Y-83402380D02*
X73352380Y-83402380D01*
X72304761Y-83640476D02*
X73019047Y-83878571D01*
X73019047Y-83259523D01*
X232870476Y-97880380D02*
X232870476Y-98594666D01*
X232822857Y-98737523D01*
X232727619Y-98832761D01*
X232584761Y-98880380D01*
X232489523Y-98880380D01*
X233870476Y-98880380D02*
X233299047Y-98880380D01*
X233584761Y-98880380D02*
X233584761Y-97880380D01*
X233489523Y-98023238D01*
X233394285Y-98118476D01*
X233299047Y-98166095D01*
X234441904Y-98308952D02*
X234346666Y-98261333D01*
X234299047Y-98213714D01*
X234251428Y-98118476D01*
X234251428Y-98070857D01*
X234299047Y-97975619D01*
X234346666Y-97928000D01*
X234441904Y-97880380D01*
X234632380Y-97880380D01*
X234727619Y-97928000D01*
X234775238Y-97975619D01*
X234822857Y-98070857D01*
X234822857Y-98118476D01*
X234775238Y-98213714D01*
X234727619Y-98261333D01*
X234632380Y-98308952D01*
X234441904Y-98308952D01*
X234346666Y-98356571D01*
X234299047Y-98404190D01*
X234251428Y-98499428D01*
X234251428Y-98689904D01*
X234299047Y-98785142D01*
X234346666Y-98832761D01*
X234441904Y-98880380D01*
X234632380Y-98880380D01*
X234727619Y-98832761D01*
X234775238Y-98785142D01*
X234822857Y-98689904D01*
X234822857Y-98499428D01*
X234775238Y-98404190D01*
X234727619Y-98356571D01*
X234632380Y-98308952D01*
X235791476Y-108675380D02*
X235791476Y-109389666D01*
X235743857Y-109532523D01*
X235648619Y-109627761D01*
X235505761Y-109675380D01*
X235410523Y-109675380D01*
X236172428Y-108675380D02*
X236791476Y-108675380D01*
X236458142Y-109056333D01*
X236601000Y-109056333D01*
X236696238Y-109103952D01*
X236743857Y-109151571D01*
X236791476Y-109246809D01*
X236791476Y-109484904D01*
X236743857Y-109580142D01*
X236696238Y-109627761D01*
X236601000Y-109675380D01*
X236315285Y-109675380D01*
X236220047Y-109627761D01*
X236172428Y-109580142D01*
X237172428Y-108770619D02*
X237220047Y-108723000D01*
X237315285Y-108675380D01*
X237553380Y-108675380D01*
X237648619Y-108723000D01*
X237696238Y-108770619D01*
X237743857Y-108865857D01*
X237743857Y-108961095D01*
X237696238Y-109103952D01*
X237124809Y-109675380D01*
X237743857Y-109675380D01*
X232743476Y-108548380D02*
X232743476Y-109262666D01*
X232695857Y-109405523D01*
X232600619Y-109500761D01*
X232457761Y-109548380D01*
X232362523Y-109548380D01*
X233124428Y-108548380D02*
X233743476Y-108548380D01*
X233410142Y-108929333D01*
X233553000Y-108929333D01*
X233648238Y-108976952D01*
X233695857Y-109024571D01*
X233743476Y-109119809D01*
X233743476Y-109357904D01*
X233695857Y-109453142D01*
X233648238Y-109500761D01*
X233553000Y-109548380D01*
X233267285Y-109548380D01*
X233172047Y-109500761D01*
X233124428Y-109453142D01*
X234362523Y-108548380D02*
X234457761Y-108548380D01*
X234553000Y-108596000D01*
X234600619Y-108643619D01*
X234648238Y-108738857D01*
X234695857Y-108929333D01*
X234695857Y-109167428D01*
X234648238Y-109357904D01*
X234600619Y-109453142D01*
X234553000Y-109500761D01*
X234457761Y-109548380D01*
X234362523Y-109548380D01*
X234267285Y-109500761D01*
X234219666Y-109453142D01*
X234172047Y-109357904D01*
X234124428Y-109167428D01*
X234124428Y-108929333D01*
X234172047Y-108738857D01*
X234219666Y-108643619D01*
X234267285Y-108596000D01*
X234362523Y-108548380D01*
X235791476Y-104987380D02*
X235791476Y-105701666D01*
X235743857Y-105844523D01*
X235648619Y-105939761D01*
X235505761Y-105987380D01*
X235410523Y-105987380D01*
X236220047Y-105082619D02*
X236267666Y-105035000D01*
X236362904Y-104987380D01*
X236601000Y-104987380D01*
X236696238Y-105035000D01*
X236743857Y-105082619D01*
X236791476Y-105177857D01*
X236791476Y-105273095D01*
X236743857Y-105415952D01*
X236172428Y-105987380D01*
X236791476Y-105987380D01*
X237362904Y-105415952D02*
X237267666Y-105368333D01*
X237220047Y-105320714D01*
X237172428Y-105225476D01*
X237172428Y-105177857D01*
X237220047Y-105082619D01*
X237267666Y-105035000D01*
X237362904Y-104987380D01*
X237553380Y-104987380D01*
X237648619Y-105035000D01*
X237696238Y-105082619D01*
X237743857Y-105177857D01*
X237743857Y-105225476D01*
X237696238Y-105320714D01*
X237648619Y-105368333D01*
X237553380Y-105415952D01*
X237362904Y-105415952D01*
X237267666Y-105463571D01*
X237220047Y-105511190D01*
X237172428Y-105606428D01*
X237172428Y-105796904D01*
X237220047Y-105892142D01*
X237267666Y-105939761D01*
X237362904Y-105987380D01*
X237553380Y-105987380D01*
X237648619Y-105939761D01*
X237696238Y-105892142D01*
X237743857Y-105796904D01*
X237743857Y-105606428D01*
X237696238Y-105511190D01*
X237648619Y-105463571D01*
X237553380Y-105415952D01*
X235918476Y-97880380D02*
X235918476Y-98594666D01*
X235870857Y-98737523D01*
X235775619Y-98832761D01*
X235632761Y-98880380D01*
X235537523Y-98880380D01*
X236347047Y-97975619D02*
X236394666Y-97928000D01*
X236489904Y-97880380D01*
X236728000Y-97880380D01*
X236823238Y-97928000D01*
X236870857Y-97975619D01*
X236918476Y-98070857D01*
X236918476Y-98166095D01*
X236870857Y-98308952D01*
X236299428Y-98880380D01*
X236918476Y-98880380D01*
X237537523Y-97880380D02*
X237632761Y-97880380D01*
X237728000Y-97928000D01*
X237775619Y-97975619D01*
X237823238Y-98070857D01*
X237870857Y-98261333D01*
X237870857Y-98499428D01*
X237823238Y-98689904D01*
X237775619Y-98785142D01*
X237728000Y-98832761D01*
X237632761Y-98880380D01*
X237537523Y-98880380D01*
X237442285Y-98832761D01*
X237394666Y-98785142D01*
X237347047Y-98689904D01*
X237299428Y-98499428D01*
X237299428Y-98261333D01*
X237347047Y-98070857D01*
X237394666Y-97975619D01*
X237442285Y-97928000D01*
X237537523Y-97880380D01*
X232743476Y-101431380D02*
X232743476Y-102145666D01*
X232695857Y-102288523D01*
X232600619Y-102383761D01*
X232457761Y-102431380D01*
X232362523Y-102431380D01*
X233172047Y-101526619D02*
X233219666Y-101479000D01*
X233314904Y-101431380D01*
X233553000Y-101431380D01*
X233648238Y-101479000D01*
X233695857Y-101526619D01*
X233743476Y-101621857D01*
X233743476Y-101717095D01*
X233695857Y-101859952D01*
X233124428Y-102431380D01*
X233743476Y-102431380D01*
X234124428Y-101526619D02*
X234172047Y-101479000D01*
X234267285Y-101431380D01*
X234505380Y-101431380D01*
X234600619Y-101479000D01*
X234648238Y-101526619D01*
X234695857Y-101621857D01*
X234695857Y-101717095D01*
X234648238Y-101859952D01*
X234076809Y-102431380D01*
X234695857Y-102431380D01*
X235791476Y-101431380D02*
X235791476Y-102145666D01*
X235743857Y-102288523D01*
X235648619Y-102383761D01*
X235505761Y-102431380D01*
X235410523Y-102431380D01*
X236220047Y-101526619D02*
X236267666Y-101479000D01*
X236362904Y-101431380D01*
X236601000Y-101431380D01*
X236696238Y-101479000D01*
X236743857Y-101526619D01*
X236791476Y-101621857D01*
X236791476Y-101717095D01*
X236743857Y-101859952D01*
X236172428Y-102431380D01*
X236791476Y-102431380D01*
X237648619Y-101764714D02*
X237648619Y-102431380D01*
X237410523Y-101383761D02*
X237172428Y-102098047D01*
X237791476Y-102098047D01*
X232743476Y-104987380D02*
X232743476Y-105701666D01*
X232695857Y-105844523D01*
X232600619Y-105939761D01*
X232457761Y-105987380D01*
X232362523Y-105987380D01*
X233172047Y-105082619D02*
X233219666Y-105035000D01*
X233314904Y-104987380D01*
X233553000Y-104987380D01*
X233648238Y-105035000D01*
X233695857Y-105082619D01*
X233743476Y-105177857D01*
X233743476Y-105273095D01*
X233695857Y-105415952D01*
X233124428Y-105987380D01*
X233743476Y-105987380D01*
X234600619Y-104987380D02*
X234410142Y-104987380D01*
X234314904Y-105035000D01*
X234267285Y-105082619D01*
X234172047Y-105225476D01*
X234124428Y-105415952D01*
X234124428Y-105796904D01*
X234172047Y-105892142D01*
X234219666Y-105939761D01*
X234314904Y-105987380D01*
X234505380Y-105987380D01*
X234600619Y-105939761D01*
X234648238Y-105892142D01*
X234695857Y-105796904D01*
X234695857Y-105558809D01*
X234648238Y-105463571D01*
X234600619Y-105415952D01*
X234505380Y-105368333D01*
X234314904Y-105368333D01*
X234219666Y-105415952D01*
X234172047Y-105463571D01*
X234124428Y-105558809D01*
X241196904Y-90137380D02*
X241196904Y-89137380D01*
X241435000Y-89137380D01*
X241577857Y-89185000D01*
X241673095Y-89280238D01*
X241720714Y-89375476D01*
X241768333Y-89565952D01*
X241768333Y-89708809D01*
X241720714Y-89899285D01*
X241673095Y-89994523D01*
X241577857Y-90089761D01*
X241435000Y-90137380D01*
X241196904Y-90137380D01*
X242149285Y-89232619D02*
X242196904Y-89185000D01*
X242292142Y-89137380D01*
X242530238Y-89137380D01*
X242625476Y-89185000D01*
X242673095Y-89232619D01*
X242720714Y-89327857D01*
X242720714Y-89423095D01*
X242673095Y-89565952D01*
X242101666Y-90137380D01*
X242720714Y-90137380D01*
X37925476Y-119832380D02*
X37925476Y-118832380D01*
X38258809Y-119546666D01*
X38592142Y-118832380D01*
X38592142Y-119832380D01*
X39592142Y-119832380D02*
X39020714Y-119832380D01*
X39306428Y-119832380D02*
X39306428Y-118832380D01*
X39211190Y-118975238D01*
X39115952Y-119070476D01*
X39020714Y-119118095D01*
X237958333Y-99417142D02*
X237910714Y-99464761D01*
X237767857Y-99512380D01*
X237672619Y-99512380D01*
X237529761Y-99464761D01*
X237434523Y-99369523D01*
X237386904Y-99274285D01*
X237339285Y-99083809D01*
X237339285Y-98940952D01*
X237386904Y-98750476D01*
X237434523Y-98655238D01*
X237529761Y-98560000D01*
X237672619Y-98512380D01*
X237767857Y-98512380D01*
X237910714Y-98560000D01*
X237958333Y-98607619D01*
X238910714Y-99512380D02*
X238339285Y-99512380D01*
X238625000Y-99512380D02*
X238625000Y-98512380D01*
X238529761Y-98655238D01*
X238434523Y-98750476D01*
X238339285Y-98798095D01*
X237831333Y-93829142D02*
X237783714Y-93876761D01*
X237640857Y-93924380D01*
X237545619Y-93924380D01*
X237402761Y-93876761D01*
X237307523Y-93781523D01*
X237259904Y-93686285D01*
X237212285Y-93495809D01*
X237212285Y-93352952D01*
X237259904Y-93162476D01*
X237307523Y-93067238D01*
X237402761Y-92972000D01*
X237545619Y-92924380D01*
X237640857Y-92924380D01*
X237783714Y-92972000D01*
X237831333Y-93019619D01*
X238212285Y-93019619D02*
X238259904Y-92972000D01*
X238355142Y-92924380D01*
X238593238Y-92924380D01*
X238688476Y-92972000D01*
X238736095Y-93019619D01*
X238783714Y-93114857D01*
X238783714Y-93210095D01*
X238736095Y-93352952D01*
X238164666Y-93924380D01*
X238783714Y-93924380D01*
X241768333Y-101322142D02*
X241720714Y-101369761D01*
X241577857Y-101417380D01*
X241482619Y-101417380D01*
X241339761Y-101369761D01*
X241244523Y-101274523D01*
X241196904Y-101179285D01*
X241149285Y-100988809D01*
X241149285Y-100845952D01*
X241196904Y-100655476D01*
X241244523Y-100560238D01*
X241339761Y-100465000D01*
X241482619Y-100417380D01*
X241577857Y-100417380D01*
X241720714Y-100465000D01*
X241768333Y-100512619D01*
X242101666Y-100417380D02*
X242720714Y-100417380D01*
X242387380Y-100798333D01*
X242530238Y-100798333D01*
X242625476Y-100845952D01*
X242673095Y-100893571D01*
X242720714Y-100988809D01*
X242720714Y-101226904D01*
X242673095Y-101322142D01*
X242625476Y-101369761D01*
X242530238Y-101417380D01*
X242244523Y-101417380D01*
X242149285Y-101369761D01*
X242101666Y-101322142D01*
X106640333Y-106021142D02*
X106592714Y-106068761D01*
X106449857Y-106116380D01*
X106354619Y-106116380D01*
X106211761Y-106068761D01*
X106116523Y-105973523D01*
X106068904Y-105878285D01*
X106021285Y-105687809D01*
X106021285Y-105544952D01*
X106068904Y-105354476D01*
X106116523Y-105259238D01*
X106211761Y-105164000D01*
X106354619Y-105116380D01*
X106449857Y-105116380D01*
X106592714Y-105164000D01*
X106640333Y-105211619D01*
X107497476Y-105449714D02*
X107497476Y-106116380D01*
X107259380Y-105068761D02*
X107021285Y-105783047D01*
X107640333Y-105783047D01*
X158127142Y-79302142D02*
X158079523Y-79349761D01*
X157936666Y-79397380D01*
X157841428Y-79397380D01*
X157698571Y-79349761D01*
X157603333Y-79254523D01*
X157555714Y-79159285D01*
X157508095Y-78968809D01*
X157508095Y-78825952D01*
X157555714Y-78635476D01*
X157603333Y-78540238D01*
X157698571Y-78445000D01*
X157841428Y-78397380D01*
X157936666Y-78397380D01*
X158079523Y-78445000D01*
X158127142Y-78492619D01*
X159079523Y-79397380D02*
X158508095Y-79397380D01*
X158793809Y-79397380D02*
X158793809Y-78397380D01*
X158698571Y-78540238D01*
X158603333Y-78635476D01*
X158508095Y-78683095D01*
X159412857Y-78397380D02*
X160079523Y-78397380D01*
X159650952Y-79397380D01*
X78633333Y-105337142D02*
X78585714Y-105384761D01*
X78442857Y-105432380D01*
X78347619Y-105432380D01*
X78204761Y-105384761D01*
X78109523Y-105289523D01*
X78061904Y-105194285D01*
X78014285Y-105003809D01*
X78014285Y-104860952D01*
X78061904Y-104670476D01*
X78109523Y-104575238D01*
X78204761Y-104480000D01*
X78347619Y-104432380D01*
X78442857Y-104432380D01*
X78585714Y-104480000D01*
X78633333Y-104527619D01*
X79538095Y-104432380D02*
X79061904Y-104432380D01*
X79014285Y-104908571D01*
X79061904Y-104860952D01*
X79157142Y-104813333D01*
X79395238Y-104813333D01*
X79490476Y-104860952D01*
X79538095Y-104908571D01*
X79585714Y-105003809D01*
X79585714Y-105241904D01*
X79538095Y-105337142D01*
X79490476Y-105384761D01*
X79395238Y-105432380D01*
X79157142Y-105432380D01*
X79061904Y-105384761D01*
X79014285Y-105337142D01*
X78633333Y-91367142D02*
X78585714Y-91414761D01*
X78442857Y-91462380D01*
X78347619Y-91462380D01*
X78204761Y-91414761D01*
X78109523Y-91319523D01*
X78061904Y-91224285D01*
X78014285Y-91033809D01*
X78014285Y-90890952D01*
X78061904Y-90700476D01*
X78109523Y-90605238D01*
X78204761Y-90510000D01*
X78347619Y-90462380D01*
X78442857Y-90462380D01*
X78585714Y-90510000D01*
X78633333Y-90557619D01*
X79490476Y-90462380D02*
X79300000Y-90462380D01*
X79204761Y-90510000D01*
X79157142Y-90557619D01*
X79061904Y-90700476D01*
X79014285Y-90890952D01*
X79014285Y-91271904D01*
X79061904Y-91367142D01*
X79109523Y-91414761D01*
X79204761Y-91462380D01*
X79395238Y-91462380D01*
X79490476Y-91414761D01*
X79538095Y-91367142D01*
X79585714Y-91271904D01*
X79585714Y-91033809D01*
X79538095Y-90938571D01*
X79490476Y-90890952D01*
X79395238Y-90843333D01*
X79204761Y-90843333D01*
X79109523Y-90890952D01*
X79061904Y-90938571D01*
X79014285Y-91033809D01*
X105263333Y-79302142D02*
X105215714Y-79349761D01*
X105072857Y-79397380D01*
X104977619Y-79397380D01*
X104834761Y-79349761D01*
X104739523Y-79254523D01*
X104691904Y-79159285D01*
X104644285Y-78968809D01*
X104644285Y-78825952D01*
X104691904Y-78635476D01*
X104739523Y-78540238D01*
X104834761Y-78445000D01*
X104977619Y-78397380D01*
X105072857Y-78397380D01*
X105215714Y-78445000D01*
X105263333Y-78492619D01*
X105596666Y-78397380D02*
X106263333Y-78397380D01*
X105834761Y-79397380D01*
X64492142Y-94146666D02*
X64539761Y-94194285D01*
X64587380Y-94337142D01*
X64587380Y-94432380D01*
X64539761Y-94575238D01*
X64444523Y-94670476D01*
X64349285Y-94718095D01*
X64158809Y-94765714D01*
X64015952Y-94765714D01*
X63825476Y-94718095D01*
X63730238Y-94670476D01*
X63635000Y-94575238D01*
X63587380Y-94432380D01*
X63587380Y-94337142D01*
X63635000Y-94194285D01*
X63682619Y-94146666D01*
X64587380Y-93670476D02*
X64587380Y-93480000D01*
X64539761Y-93384761D01*
X64492142Y-93337142D01*
X64349285Y-93241904D01*
X64158809Y-93194285D01*
X63777857Y-93194285D01*
X63682619Y-93241904D01*
X63635000Y-93289523D01*
X63587380Y-93384761D01*
X63587380Y-93575238D01*
X63635000Y-93670476D01*
X63682619Y-93718095D01*
X63777857Y-93765714D01*
X64015952Y-93765714D01*
X64111190Y-93718095D01*
X64158809Y-93670476D01*
X64206428Y-93575238D01*
X64206428Y-93384761D01*
X64158809Y-93289523D01*
X64111190Y-93241904D01*
X64015952Y-93194285D01*
X132767142Y-78032142D02*
X132719523Y-78079761D01*
X132576666Y-78127380D01*
X132481428Y-78127380D01*
X132338571Y-78079761D01*
X132243333Y-77984523D01*
X132195714Y-77889285D01*
X132148095Y-77698809D01*
X132148095Y-77555952D01*
X132195714Y-77365476D01*
X132243333Y-77270238D01*
X132338571Y-77175000D01*
X132481428Y-77127380D01*
X132576666Y-77127380D01*
X132719523Y-77175000D01*
X132767142Y-77222619D01*
X133719523Y-78127380D02*
X133148095Y-78127380D01*
X133433809Y-78127380D02*
X133433809Y-77127380D01*
X133338571Y-77270238D01*
X133243333Y-77365476D01*
X133148095Y-77413095D01*
X134338571Y-77127380D02*
X134433809Y-77127380D01*
X134529047Y-77175000D01*
X134576666Y-77222619D01*
X134624285Y-77317857D01*
X134671904Y-77508333D01*
X134671904Y-77746428D01*
X134624285Y-77936904D01*
X134576666Y-78032142D01*
X134529047Y-78079761D01*
X134433809Y-78127380D01*
X134338571Y-78127380D01*
X134243333Y-78079761D01*
X134195714Y-78032142D01*
X134148095Y-77936904D01*
X134100476Y-77746428D01*
X134100476Y-77508333D01*
X134148095Y-77317857D01*
X134195714Y-77222619D01*
X134243333Y-77175000D01*
X134338571Y-77127380D01*
X157492142Y-105337142D02*
X157444523Y-105384761D01*
X157301666Y-105432380D01*
X157206428Y-105432380D01*
X157063571Y-105384761D01*
X156968333Y-105289523D01*
X156920714Y-105194285D01*
X156873095Y-105003809D01*
X156873095Y-104860952D01*
X156920714Y-104670476D01*
X156968333Y-104575238D01*
X157063571Y-104480000D01*
X157206428Y-104432380D01*
X157301666Y-104432380D01*
X157444523Y-104480000D01*
X157492142Y-104527619D01*
X158444523Y-105432380D02*
X157873095Y-105432380D01*
X158158809Y-105432380D02*
X158158809Y-104432380D01*
X158063571Y-104575238D01*
X157968333Y-104670476D01*
X157873095Y-104718095D01*
X159396904Y-105432380D02*
X158825476Y-105432380D01*
X159111190Y-105432380D02*
X159111190Y-104432380D01*
X159015952Y-104575238D01*
X158920714Y-104670476D01*
X158825476Y-104718095D01*
X132092142Y-92002142D02*
X132044523Y-92049761D01*
X131901666Y-92097380D01*
X131806428Y-92097380D01*
X131663571Y-92049761D01*
X131568333Y-91954523D01*
X131520714Y-91859285D01*
X131473095Y-91668809D01*
X131473095Y-91525952D01*
X131520714Y-91335476D01*
X131568333Y-91240238D01*
X131663571Y-91145000D01*
X131806428Y-91097380D01*
X131901666Y-91097380D01*
X132044523Y-91145000D01*
X132092142Y-91192619D01*
X133044523Y-92097380D02*
X132473095Y-92097380D01*
X132758809Y-92097380D02*
X132758809Y-91097380D01*
X132663571Y-91240238D01*
X132568333Y-91335476D01*
X132473095Y-91383095D01*
X133425476Y-91192619D02*
X133473095Y-91145000D01*
X133568333Y-91097380D01*
X133806428Y-91097380D01*
X133901666Y-91145000D01*
X133949285Y-91192619D01*
X133996904Y-91287857D01*
X133996904Y-91383095D01*
X133949285Y-91525952D01*
X133377857Y-92097380D01*
X133996904Y-92097380D01*
X132092142Y-105972142D02*
X132044523Y-106019761D01*
X131901666Y-106067380D01*
X131806428Y-106067380D01*
X131663571Y-106019761D01*
X131568333Y-105924523D01*
X131520714Y-105829285D01*
X131473095Y-105638809D01*
X131473095Y-105495952D01*
X131520714Y-105305476D01*
X131568333Y-105210238D01*
X131663571Y-105115000D01*
X131806428Y-105067380D01*
X131901666Y-105067380D01*
X132044523Y-105115000D01*
X132092142Y-105162619D01*
X133044523Y-106067380D02*
X132473095Y-106067380D01*
X132758809Y-106067380D02*
X132758809Y-105067380D01*
X132663571Y-105210238D01*
X132568333Y-105305476D01*
X132473095Y-105353095D01*
X133377857Y-105067380D02*
X133996904Y-105067380D01*
X133663571Y-105448333D01*
X133806428Y-105448333D01*
X133901666Y-105495952D01*
X133949285Y-105543571D01*
X133996904Y-105638809D01*
X133996904Y-105876904D01*
X133949285Y-105972142D01*
X133901666Y-106019761D01*
X133806428Y-106067380D01*
X133520714Y-106067380D01*
X133425476Y-106019761D01*
X133377857Y-105972142D01*
X40652142Y-83337142D02*
X40604523Y-83384761D01*
X40461666Y-83432380D01*
X40366428Y-83432380D01*
X40223571Y-83384761D01*
X40128333Y-83289523D01*
X40080714Y-83194285D01*
X40033095Y-83003809D01*
X40033095Y-82860952D01*
X40080714Y-82670476D01*
X40128333Y-82575238D01*
X40223571Y-82480000D01*
X40366428Y-82432380D01*
X40461666Y-82432380D01*
X40604523Y-82480000D01*
X40652142Y-82527619D01*
X41604523Y-83432380D02*
X41033095Y-83432380D01*
X41318809Y-83432380D02*
X41318809Y-82432380D01*
X41223571Y-82575238D01*
X41128333Y-82670476D01*
X41033095Y-82718095D01*
X42461666Y-82765714D02*
X42461666Y-83432380D01*
X42223571Y-82384761D02*
X41985476Y-83099047D01*
X42604523Y-83099047D01*
X157532142Y-91367142D02*
X157484523Y-91414761D01*
X157341666Y-91462380D01*
X157246428Y-91462380D01*
X157103571Y-91414761D01*
X157008333Y-91319523D01*
X156960714Y-91224285D01*
X156913095Y-91033809D01*
X156913095Y-90890952D01*
X156960714Y-90700476D01*
X157008333Y-90605238D01*
X157103571Y-90510000D01*
X157246428Y-90462380D01*
X157341666Y-90462380D01*
X157484523Y-90510000D01*
X157532142Y-90557619D01*
X158484523Y-91462380D02*
X157913095Y-91462380D01*
X158198809Y-91462380D02*
X158198809Y-90462380D01*
X158103571Y-90605238D01*
X158008333Y-90700476D01*
X157913095Y-90748095D01*
X159389285Y-90462380D02*
X158913095Y-90462380D01*
X158865476Y-90938571D01*
X158913095Y-90890952D01*
X159008333Y-90843333D01*
X159246428Y-90843333D01*
X159341666Y-90890952D01*
X159389285Y-90938571D01*
X159436904Y-91033809D01*
X159436904Y-91271904D01*
X159389285Y-91367142D01*
X159341666Y-91414761D01*
X159246428Y-91462380D01*
X159008333Y-91462380D01*
X158913095Y-91414761D01*
X158865476Y-91367142D01*
X78792142Y-77397142D02*
X78744523Y-77444761D01*
X78601666Y-77492380D01*
X78506428Y-77492380D01*
X78363571Y-77444761D01*
X78268333Y-77349523D01*
X78220714Y-77254285D01*
X78173095Y-77063809D01*
X78173095Y-76920952D01*
X78220714Y-76730476D01*
X78268333Y-76635238D01*
X78363571Y-76540000D01*
X78506428Y-76492380D01*
X78601666Y-76492380D01*
X78744523Y-76540000D01*
X78792142Y-76587619D01*
X79744523Y-77492380D02*
X79173095Y-77492380D01*
X79458809Y-77492380D02*
X79458809Y-76492380D01*
X79363571Y-76635238D01*
X79268333Y-76730476D01*
X79173095Y-76778095D01*
X80601666Y-76492380D02*
X80411190Y-76492380D01*
X80315952Y-76540000D01*
X80268333Y-76587619D01*
X80173095Y-76730476D01*
X80125476Y-76920952D01*
X80125476Y-77301904D01*
X80173095Y-77397142D01*
X80220714Y-77444761D01*
X80315952Y-77492380D01*
X80506428Y-77492380D01*
X80601666Y-77444761D01*
X80649285Y-77397142D01*
X80696904Y-77301904D01*
X80696904Y-77063809D01*
X80649285Y-76968571D01*
X80601666Y-76920952D01*
X80506428Y-76873333D01*
X80315952Y-76873333D01*
X80220714Y-76920952D01*
X80173095Y-76968571D01*
X80125476Y-77063809D01*
X105263333Y-92002142D02*
X105215714Y-92049761D01*
X105072857Y-92097380D01*
X104977619Y-92097380D01*
X104834761Y-92049761D01*
X104739523Y-91954523D01*
X104691904Y-91859285D01*
X104644285Y-91668809D01*
X104644285Y-91525952D01*
X104691904Y-91335476D01*
X104739523Y-91240238D01*
X104834761Y-91145000D01*
X104977619Y-91097380D01*
X105072857Y-91097380D01*
X105215714Y-91145000D01*
X105263333Y-91192619D01*
X105834761Y-91525952D02*
X105739523Y-91478333D01*
X105691904Y-91430714D01*
X105644285Y-91335476D01*
X105644285Y-91287857D01*
X105691904Y-91192619D01*
X105739523Y-91145000D01*
X105834761Y-91097380D01*
X106025238Y-91097380D01*
X106120476Y-91145000D01*
X106168095Y-91192619D01*
X106215714Y-91287857D01*
X106215714Y-91335476D01*
X106168095Y-91430714D01*
X106120476Y-91478333D01*
X106025238Y-91525952D01*
X105834761Y-91525952D01*
X105739523Y-91573571D01*
X105691904Y-91621190D01*
X105644285Y-91716428D01*
X105644285Y-91906904D01*
X105691904Y-92002142D01*
X105739523Y-92049761D01*
X105834761Y-92097380D01*
X106025238Y-92097380D01*
X106120476Y-92049761D01*
X106168095Y-92002142D01*
X106215714Y-91906904D01*
X106215714Y-91716428D01*
X106168095Y-91621190D01*
X106120476Y-91573571D01*
X106025238Y-91525952D01*
X184237380Y-90503333D02*
X184951666Y-90503333D01*
X185094523Y-90550952D01*
X185189761Y-90646190D01*
X185237380Y-90789047D01*
X185237380Y-90884285D01*
X184237380Y-90122380D02*
X184237380Y-89455714D01*
X185237380Y-89884285D01*
X228687380Y-104949523D02*
X229401666Y-104949523D01*
X229544523Y-104997142D01*
X229639761Y-105092380D01*
X229687380Y-105235238D01*
X229687380Y-105330476D01*
X229687380Y-103949523D02*
X229687380Y-104520952D01*
X229687380Y-104235238D02*
X228687380Y-104235238D01*
X228830238Y-104330476D01*
X228925476Y-104425714D01*
X228973095Y-104520952D01*
X228687380Y-103044761D02*
X228687380Y-103520952D01*
X229163571Y-103568571D01*
X229115952Y-103520952D01*
X229068333Y-103425714D01*
X229068333Y-103187619D01*
X229115952Y-103092380D01*
X229163571Y-103044761D01*
X229258809Y-102997142D01*
X229496904Y-102997142D01*
X229592142Y-103044761D01*
X229639761Y-103092380D01*
X229687380Y-103187619D01*
X229687380Y-103425714D01*
X229639761Y-103520952D01*
X229592142Y-103568571D01*
X228687380Y-111934523D02*
X229401666Y-111934523D01*
X229544523Y-111982142D01*
X229639761Y-112077380D01*
X229687380Y-112220238D01*
X229687380Y-112315476D01*
X229687380Y-110934523D02*
X229687380Y-111505952D01*
X229687380Y-111220238D02*
X228687380Y-111220238D01*
X228830238Y-111315476D01*
X228925476Y-111410714D01*
X228973095Y-111505952D01*
X228687380Y-110077380D02*
X228687380Y-110267857D01*
X228735000Y-110363095D01*
X228782619Y-110410714D01*
X228925476Y-110505952D01*
X229115952Y-110553571D01*
X229496904Y-110553571D01*
X229592142Y-110505952D01*
X229639761Y-110458333D01*
X229687380Y-110363095D01*
X229687380Y-110172619D01*
X229639761Y-110077380D01*
X229592142Y-110029761D01*
X229496904Y-109982142D01*
X229258809Y-109982142D01*
X229163571Y-110029761D01*
X229115952Y-110077380D01*
X229068333Y-110172619D01*
X229068333Y-110363095D01*
X229115952Y-110458333D01*
X229163571Y-110505952D01*
X229258809Y-110553571D01*
X43957380Y-90233333D02*
X44671666Y-90233333D01*
X44814523Y-90280952D01*
X44909761Y-90376190D01*
X44957380Y-90519047D01*
X44957380Y-90614285D01*
X43957380Y-89852380D02*
X43957380Y-89233333D01*
X44338333Y-89566666D01*
X44338333Y-89423809D01*
X44385952Y-89328571D01*
X44433571Y-89280952D01*
X44528809Y-89233333D01*
X44766904Y-89233333D01*
X44862142Y-89280952D01*
X44909761Y-89328571D01*
X44957380Y-89423809D01*
X44957380Y-89709523D01*
X44909761Y-89804761D01*
X44862142Y-89852380D01*
X229957380Y-98758333D02*
X230671666Y-98758333D01*
X230814523Y-98805952D01*
X230909761Y-98901190D01*
X230957380Y-99044047D01*
X230957380Y-99139285D01*
X230290714Y-97853571D02*
X230957380Y-97853571D01*
X229909761Y-98091666D02*
X230624047Y-98329761D01*
X230624047Y-97710714D01*
X184237380Y-76533333D02*
X184951666Y-76533333D01*
X185094523Y-76580952D01*
X185189761Y-76676190D01*
X185237380Y-76819047D01*
X185237380Y-76914285D01*
X184237380Y-75580952D02*
X184237380Y-76057142D01*
X184713571Y-76104761D01*
X184665952Y-76057142D01*
X184618333Y-75961904D01*
X184618333Y-75723809D01*
X184665952Y-75628571D01*
X184713571Y-75580952D01*
X184808809Y-75533333D01*
X185046904Y-75533333D01*
X185142142Y-75580952D01*
X185189761Y-75628571D01*
X185237380Y-75723809D01*
X185237380Y-75961904D01*
X185189761Y-76057142D01*
X185142142Y-76104761D01*
X184237380Y-84153333D02*
X184951666Y-84153333D01*
X185094523Y-84200952D01*
X185189761Y-84296190D01*
X185237380Y-84439047D01*
X185237380Y-84534285D01*
X184237380Y-83248571D02*
X184237380Y-83439047D01*
X184285000Y-83534285D01*
X184332619Y-83581904D01*
X184475476Y-83677142D01*
X184665952Y-83724761D01*
X185046904Y-83724761D01*
X185142142Y-83677142D01*
X185189761Y-83629523D01*
X185237380Y-83534285D01*
X185237380Y-83343809D01*
X185189761Y-83248571D01*
X185142142Y-83200952D01*
X185046904Y-83153333D01*
X184808809Y-83153333D01*
X184713571Y-83200952D01*
X184665952Y-83248571D01*
X184618333Y-83343809D01*
X184618333Y-83534285D01*
X184665952Y-83629523D01*
X184713571Y-83677142D01*
X184808809Y-83724761D01*
X184237380Y-98123333D02*
X184951666Y-98123333D01*
X185094523Y-98170952D01*
X185189761Y-98266190D01*
X185237380Y-98409047D01*
X185237380Y-98504285D01*
X184665952Y-97504285D02*
X184618333Y-97599523D01*
X184570714Y-97647142D01*
X184475476Y-97694761D01*
X184427857Y-97694761D01*
X184332619Y-97647142D01*
X184285000Y-97599523D01*
X184237380Y-97504285D01*
X184237380Y-97313809D01*
X184285000Y-97218571D01*
X184332619Y-97170952D01*
X184427857Y-97123333D01*
X184475476Y-97123333D01*
X184570714Y-97170952D01*
X184618333Y-97218571D01*
X184665952Y-97313809D01*
X184665952Y-97504285D01*
X184713571Y-97599523D01*
X184761190Y-97647142D01*
X184856428Y-97694761D01*
X185046904Y-97694761D01*
X185142142Y-97647142D01*
X185189761Y-97599523D01*
X185237380Y-97504285D01*
X185237380Y-97313809D01*
X185189761Y-97218571D01*
X185142142Y-97170952D01*
X185046904Y-97123333D01*
X184856428Y-97123333D01*
X184761190Y-97170952D01*
X184713571Y-97218571D01*
X184665952Y-97313809D01*
X184237380Y-105108333D02*
X184951666Y-105108333D01*
X185094523Y-105155952D01*
X185189761Y-105251190D01*
X185237380Y-105394047D01*
X185237380Y-105489285D01*
X185237380Y-104584523D02*
X185237380Y-104394047D01*
X185189761Y-104298809D01*
X185142142Y-104251190D01*
X184999285Y-104155952D01*
X184808809Y-104108333D01*
X184427857Y-104108333D01*
X184332619Y-104155952D01*
X184285000Y-104203571D01*
X184237380Y-104298809D01*
X184237380Y-104489285D01*
X184285000Y-104584523D01*
X184332619Y-104632142D01*
X184427857Y-104679761D01*
X184665952Y-104679761D01*
X184761190Y-104632142D01*
X184808809Y-104584523D01*
X184856428Y-104489285D01*
X184856428Y-104298809D01*
X184808809Y-104203571D01*
X184761190Y-104155952D01*
X184665952Y-104108333D01*
X184237380Y-111934523D02*
X184951666Y-111934523D01*
X185094523Y-111982142D01*
X185189761Y-112077380D01*
X185237380Y-112220238D01*
X185237380Y-112315476D01*
X185237380Y-110934523D02*
X185237380Y-111505952D01*
X185237380Y-111220238D02*
X184237380Y-111220238D01*
X184380238Y-111315476D01*
X184475476Y-111410714D01*
X184523095Y-111505952D01*
X184237380Y-110315476D02*
X184237380Y-110220238D01*
X184285000Y-110125000D01*
X184332619Y-110077380D01*
X184427857Y-110029761D01*
X184618333Y-109982142D01*
X184856428Y-109982142D01*
X185046904Y-110029761D01*
X185142142Y-110077380D01*
X185189761Y-110125000D01*
X185237380Y-110220238D01*
X185237380Y-110315476D01*
X185189761Y-110410714D01*
X185142142Y-110458333D01*
X185046904Y-110505952D01*
X184856428Y-110553571D01*
X184618333Y-110553571D01*
X184427857Y-110505952D01*
X184332619Y-110458333D01*
X184285000Y-110410714D01*
X184237380Y-110315476D01*
X228687380Y-77009523D02*
X229401666Y-77009523D01*
X229544523Y-77057142D01*
X229639761Y-77152380D01*
X229687380Y-77295238D01*
X229687380Y-77390476D01*
X229687380Y-76009523D02*
X229687380Y-76580952D01*
X229687380Y-76295238D02*
X228687380Y-76295238D01*
X228830238Y-76390476D01*
X228925476Y-76485714D01*
X228973095Y-76580952D01*
X229687380Y-75057142D02*
X229687380Y-75628571D01*
X229687380Y-75342857D02*
X228687380Y-75342857D01*
X228830238Y-75438095D01*
X228925476Y-75533333D01*
X228973095Y-75628571D01*
X228687380Y-83994523D02*
X229401666Y-83994523D01*
X229544523Y-84042142D01*
X229639761Y-84137380D01*
X229687380Y-84280238D01*
X229687380Y-84375476D01*
X229687380Y-82994523D02*
X229687380Y-83565952D01*
X229687380Y-83280238D02*
X228687380Y-83280238D01*
X228830238Y-83375476D01*
X228925476Y-83470714D01*
X228973095Y-83565952D01*
X228782619Y-82613571D02*
X228735000Y-82565952D01*
X228687380Y-82470714D01*
X228687380Y-82232619D01*
X228735000Y-82137380D01*
X228782619Y-82089761D01*
X228877857Y-82042142D01*
X228973095Y-82042142D01*
X229115952Y-82089761D01*
X229687380Y-82661190D01*
X229687380Y-82042142D01*
X228687380Y-90979523D02*
X229401666Y-90979523D01*
X229544523Y-91027142D01*
X229639761Y-91122380D01*
X229687380Y-91265238D01*
X229687380Y-91360476D01*
X229687380Y-89979523D02*
X229687380Y-90550952D01*
X229687380Y-90265238D02*
X228687380Y-90265238D01*
X228830238Y-90360476D01*
X228925476Y-90455714D01*
X228973095Y-90550952D01*
X228687380Y-89646190D02*
X228687380Y-89027142D01*
X229068333Y-89360476D01*
X229068333Y-89217619D01*
X229115952Y-89122380D01*
X229163571Y-89074761D01*
X229258809Y-89027142D01*
X229496904Y-89027142D01*
X229592142Y-89074761D01*
X229639761Y-89122380D01*
X229687380Y-89217619D01*
X229687380Y-89503333D01*
X229639761Y-89598571D01*
X229592142Y-89646190D01*
X228687380Y-97329523D02*
X229401666Y-97329523D01*
X229544523Y-97377142D01*
X229639761Y-97472380D01*
X229687380Y-97615238D01*
X229687380Y-97710476D01*
X229687380Y-96329523D02*
X229687380Y-96900952D01*
X229687380Y-96615238D02*
X228687380Y-96615238D01*
X228830238Y-96710476D01*
X228925476Y-96805714D01*
X228973095Y-96900952D01*
X229020714Y-95472380D02*
X229687380Y-95472380D01*
X228639761Y-95710476D02*
X229354047Y-95948571D01*
X229354047Y-95329523D01*
X248102380Y-108688095D02*
X247102380Y-108688095D01*
X247102380Y-108450000D01*
X247150000Y-108307142D01*
X247245238Y-108211904D01*
X247340476Y-108164285D01*
X247530952Y-108116666D01*
X247673809Y-108116666D01*
X247864285Y-108164285D01*
X247959523Y-108211904D01*
X248054761Y-108307142D01*
X248102380Y-108450000D01*
X248102380Y-108688095D01*
X248102380Y-107164285D02*
X248102380Y-107735714D01*
X248102380Y-107450000D02*
X247102380Y-107450000D01*
X247245238Y-107545238D01*
X247340476Y-107640476D01*
X247388095Y-107735714D01*
X133587380Y-96488095D02*
X134396904Y-96488095D01*
X134492142Y-96440476D01*
X134539761Y-96392857D01*
X134587380Y-96297619D01*
X134587380Y-96107142D01*
X134539761Y-96011904D01*
X134492142Y-95964285D01*
X134396904Y-95916666D01*
X133587380Y-95916666D01*
X134587380Y-94916666D02*
X134587380Y-95488095D01*
X134587380Y-95202380D02*
X133587380Y-95202380D01*
X133730238Y-95297619D01*
X133825476Y-95392857D01*
X133873095Y-95488095D01*
X133587380Y-94297619D02*
X133587380Y-94202380D01*
X133635000Y-94107142D01*
X133682619Y-94059523D01*
X133777857Y-94011904D01*
X133968333Y-93964285D01*
X134206428Y-93964285D01*
X134396904Y-94011904D01*
X134492142Y-94059523D01*
X134539761Y-94107142D01*
X134587380Y-94202380D01*
X134587380Y-94297619D01*
X134539761Y-94392857D01*
X134492142Y-94440476D01*
X134396904Y-94488095D01*
X134206428Y-94535714D01*
X133968333Y-94535714D01*
X133777857Y-94488095D01*
X133682619Y-94440476D01*
X133635000Y-94392857D01*
X133587380Y-94297619D01*
X106917380Y-109981904D02*
X107726904Y-109981904D01*
X107822142Y-109934285D01*
X107869761Y-109886666D01*
X107917380Y-109791428D01*
X107917380Y-109600952D01*
X107869761Y-109505714D01*
X107822142Y-109458095D01*
X107726904Y-109410476D01*
X106917380Y-109410476D01*
X107345952Y-108791428D02*
X107298333Y-108886666D01*
X107250714Y-108934285D01*
X107155476Y-108981904D01*
X107107857Y-108981904D01*
X107012619Y-108934285D01*
X106965000Y-108886666D01*
X106917380Y-108791428D01*
X106917380Y-108600952D01*
X106965000Y-108505714D01*
X107012619Y-108458095D01*
X107107857Y-108410476D01*
X107155476Y-108410476D01*
X107250714Y-108458095D01*
X107298333Y-108505714D01*
X107345952Y-108600952D01*
X107345952Y-108791428D01*
X107393571Y-108886666D01*
X107441190Y-108934285D01*
X107536428Y-108981904D01*
X107726904Y-108981904D01*
X107822142Y-108934285D01*
X107869761Y-108886666D01*
X107917380Y-108791428D01*
X107917380Y-108600952D01*
X107869761Y-108505714D01*
X107822142Y-108458095D01*
X107726904Y-108410476D01*
X107536428Y-108410476D01*
X107441190Y-108458095D01*
X107393571Y-108505714D01*
X107345952Y-108600952D01*
X106917380Y-83311904D02*
X107726904Y-83311904D01*
X107822142Y-83264285D01*
X107869761Y-83216666D01*
X107917380Y-83121428D01*
X107917380Y-82930952D01*
X107869761Y-82835714D01*
X107822142Y-82788095D01*
X107726904Y-82740476D01*
X106917380Y-82740476D01*
X106917380Y-82359523D02*
X106917380Y-81740476D01*
X107298333Y-82073809D01*
X107298333Y-81930952D01*
X107345952Y-81835714D01*
X107393571Y-81788095D01*
X107488809Y-81740476D01*
X107726904Y-81740476D01*
X107822142Y-81788095D01*
X107869761Y-81835714D01*
X107917380Y-81930952D01*
X107917380Y-82216666D01*
X107869761Y-82311904D01*
X107822142Y-82359523D01*
X78827380Y-98551904D02*
X79636904Y-98551904D01*
X79732142Y-98504285D01*
X79779761Y-98456666D01*
X79827380Y-98361428D01*
X79827380Y-98170952D01*
X79779761Y-98075714D01*
X79732142Y-98028095D01*
X79636904Y-97980476D01*
X78827380Y-97980476D01*
X79160714Y-97075714D02*
X79827380Y-97075714D01*
X78779761Y-97313809D02*
X79494047Y-97551904D01*
X79494047Y-96932857D01*
X78342380Y-109981904D02*
X79151904Y-109981904D01*
X79247142Y-109934285D01*
X79294761Y-109886666D01*
X79342380Y-109791428D01*
X79342380Y-109600952D01*
X79294761Y-109505714D01*
X79247142Y-109458095D01*
X79151904Y-109410476D01*
X78342380Y-109410476D01*
X78342380Y-108458095D02*
X78342380Y-108934285D01*
X78818571Y-108981904D01*
X78770952Y-108934285D01*
X78723333Y-108839047D01*
X78723333Y-108600952D01*
X78770952Y-108505714D01*
X78818571Y-108458095D01*
X78913809Y-108410476D01*
X79151904Y-108410476D01*
X79247142Y-108458095D01*
X79294761Y-108505714D01*
X79342380Y-108600952D01*
X79342380Y-108839047D01*
X79294761Y-108934285D01*
X79247142Y-108981904D01*
X78827380Y-83565904D02*
X79636904Y-83565904D01*
X79732142Y-83518285D01*
X79779761Y-83470666D01*
X79827380Y-83375428D01*
X79827380Y-83184952D01*
X79779761Y-83089714D01*
X79732142Y-83042095D01*
X79636904Y-82994476D01*
X78827380Y-82994476D01*
X78827380Y-82089714D02*
X78827380Y-82280190D01*
X78875000Y-82375428D01*
X78922619Y-82423047D01*
X79065476Y-82518285D01*
X79255952Y-82565904D01*
X79636904Y-82565904D01*
X79732142Y-82518285D01*
X79779761Y-82470666D01*
X79827380Y-82375428D01*
X79827380Y-82184952D01*
X79779761Y-82089714D01*
X79732142Y-82042095D01*
X79636904Y-81994476D01*
X79398809Y-81994476D01*
X79303571Y-82042095D01*
X79255952Y-82089714D01*
X79208333Y-82184952D01*
X79208333Y-82375428D01*
X79255952Y-82470666D01*
X79303571Y-82518285D01*
X79398809Y-82565904D01*
X63500095Y-111593380D02*
X63500095Y-112402904D01*
X63547714Y-112498142D01*
X63595333Y-112545761D01*
X63690571Y-112593380D01*
X63881047Y-112593380D01*
X63976285Y-112545761D01*
X64023904Y-112498142D01*
X64071523Y-112402904D01*
X64071523Y-111593380D01*
X65071523Y-112593380D02*
X64500095Y-112593380D01*
X64785809Y-112593380D02*
X64785809Y-111593380D01*
X64690571Y-111736238D01*
X64595333Y-111831476D01*
X64500095Y-111879095D01*
X248737380Y-84621666D02*
X248261190Y-84955000D01*
X248737380Y-85193095D02*
X247737380Y-85193095D01*
X247737380Y-84812142D01*
X247785000Y-84716904D01*
X247832619Y-84669285D01*
X247927857Y-84621666D01*
X248070714Y-84621666D01*
X248165952Y-84669285D01*
X248213571Y-84716904D01*
X248261190Y-84812142D01*
X248261190Y-85193095D01*
X248737380Y-83669285D02*
X248737380Y-84240714D01*
X248737380Y-83955000D02*
X247737380Y-83955000D01*
X247880238Y-84050238D01*
X247975476Y-84145476D01*
X248023095Y-84240714D01*
X259022380Y-96853333D02*
X259736666Y-96853333D01*
X259879523Y-96900952D01*
X259974761Y-96996190D01*
X260022380Y-97139047D01*
X260022380Y-97234285D01*
X259117619Y-96424761D02*
X259070000Y-96377142D01*
X259022380Y-96281904D01*
X259022380Y-96043809D01*
X259070000Y-95948571D01*
X259117619Y-95900952D01*
X259212857Y-95853333D01*
X259308095Y-95853333D01*
X259450952Y-95900952D01*
X260022380Y-96472380D01*
X260022380Y-95853333D01*
%LPC*%
D13*
X161925000Y-91440000D03*
X179705000Y-99060000D03*
X164465000Y-91440000D03*
X177165000Y-99060000D03*
X167005000Y-91440000D03*
X174625000Y-99060000D03*
X169545000Y-91440000D03*
X172085000Y-99060000D03*
X172085000Y-91440000D03*
X169545000Y-99060000D03*
X174625000Y-91440000D03*
X167005000Y-99060000D03*
X177165000Y-91440000D03*
X164465000Y-99060000D03*
X179705000Y-91440000D03*
D14*
X161925000Y-99060000D03*
D13*
X161925000Y-105410000D03*
X179705000Y-113030000D03*
X164465000Y-105410000D03*
X177165000Y-113030000D03*
X167005000Y-105410000D03*
X174625000Y-113030000D03*
X169545000Y-105410000D03*
X172085000Y-113030000D03*
X172085000Y-105410000D03*
X169545000Y-113030000D03*
X174625000Y-105410000D03*
X167005000Y-113030000D03*
X177165000Y-105410000D03*
X164465000Y-113030000D03*
X179705000Y-105410000D03*
D14*
X161925000Y-113030000D03*
D15*
X258445000Y-111125000D03*
X258445000Y-81155000D03*
D16*
X251206000Y-95631000D03*
X251206000Y-96901000D03*
X251206000Y-98171000D03*
D14*
X109855000Y-99060000D03*
D13*
X127635000Y-91440000D03*
X112395000Y-99060000D03*
X125095000Y-91440000D03*
X114935000Y-99060000D03*
X122555000Y-91440000D03*
X117475000Y-99060000D03*
X120015000Y-91440000D03*
X120015000Y-99060000D03*
X117475000Y-91440000D03*
X122555000Y-99060000D03*
X114935000Y-91440000D03*
X125095000Y-99060000D03*
X112395000Y-91440000D03*
X127635000Y-99060000D03*
X109855000Y-91440000D03*
D14*
X67945000Y-81915000D03*
D13*
X50165000Y-89535000D03*
X65405000Y-81915000D03*
X52705000Y-89535000D03*
X62865000Y-81915000D03*
X55245000Y-89535000D03*
X60325000Y-81915000D03*
X57785000Y-89535000D03*
X57785000Y-81915000D03*
X60325000Y-89535000D03*
X55245000Y-81915000D03*
X62865000Y-89535000D03*
X52705000Y-81915000D03*
X65405000Y-89535000D03*
X50165000Y-81915000D03*
X67945000Y-89535000D03*
D14*
X136525000Y-113030000D03*
D13*
X154305000Y-105410000D03*
X139065000Y-113030000D03*
X151765000Y-105410000D03*
X141605000Y-113030000D03*
X149225000Y-105410000D03*
X144145000Y-113030000D03*
X146685000Y-105410000D03*
X146685000Y-113030000D03*
X144145000Y-105410000D03*
X149225000Y-113030000D03*
X141605000Y-105410000D03*
X151765000Y-113030000D03*
X139065000Y-105410000D03*
X154305000Y-113030000D03*
X136525000Y-105410000D03*
D14*
X161925000Y-86360000D03*
D13*
X179705000Y-78740000D03*
X164465000Y-86360000D03*
X177165000Y-78740000D03*
X167005000Y-86360000D03*
X174625000Y-78740000D03*
X169545000Y-86360000D03*
X172085000Y-78740000D03*
X172085000Y-86360000D03*
X169545000Y-78740000D03*
X174625000Y-86360000D03*
X167005000Y-78740000D03*
X177165000Y-86360000D03*
X164465000Y-78740000D03*
X179705000Y-86360000D03*
X161925000Y-78740000D03*
D16*
X71120000Y-108585000D03*
X71120000Y-109855000D03*
X71120000Y-111125000D03*
D14*
X136525000Y-86360000D03*
D13*
X154305000Y-78740000D03*
X139065000Y-86360000D03*
X151765000Y-78740000D03*
X141605000Y-86360000D03*
X149225000Y-78740000D03*
X144145000Y-86360000D03*
X146685000Y-78740000D03*
X146685000Y-86360000D03*
X144145000Y-78740000D03*
X149225000Y-86360000D03*
X141605000Y-78740000D03*
X151765000Y-86360000D03*
X139065000Y-78740000D03*
X154305000Y-86360000D03*
X136525000Y-78740000D03*
D16*
X71120000Y-105405000D03*
X71120000Y-106685000D03*
X71120000Y-99690000D03*
X71120000Y-100970000D03*
X71120000Y-97795000D03*
X71120000Y-96515000D03*
X71120000Y-90800000D03*
X71120000Y-92080000D03*
X71120000Y-88905000D03*
X71120000Y-87625000D03*
X71252500Y-80640000D03*
X71252500Y-81920000D03*
X71120000Y-83810000D03*
X71120000Y-85090000D03*
D17*
X234320000Y-100208000D03*
X233040000Y-100208000D03*
X237241000Y-111003000D03*
X235961000Y-111003000D03*
X234193000Y-110876000D03*
X232913000Y-110876000D03*
X235961000Y-107315000D03*
X237241000Y-107315000D03*
X236088000Y-100208000D03*
X237368000Y-100208000D03*
X234193000Y-103759000D03*
X232913000Y-103759000D03*
X237241000Y-103759000D03*
X235961000Y-103759000D03*
X232913000Y-107315000D03*
X234193000Y-107315000D03*
D18*
X243205000Y-85725000D03*
D19*
X240665000Y-85725000D03*
D20*
X50165000Y-119380000D03*
X52705000Y-119380000D03*
X55245000Y-119380000D03*
X57785000Y-119380000D03*
X60325000Y-119380000D03*
X62865000Y-119380000D03*
X65405000Y-119380000D03*
X67945000Y-119380000D03*
X67945000Y-73660000D03*
X65405000Y-73660000D03*
X62865000Y-73660000D03*
X60325000Y-73660000D03*
X57785000Y-73660000D03*
X55245000Y-73660000D03*
X52705000Y-73660000D03*
X50165000Y-73660000D03*
X123825000Y-73660000D03*
X128905000Y-73660000D03*
X111125000Y-73660000D03*
X116205000Y-73660000D03*
X121285000Y-73660000D03*
X126365000Y-73660000D03*
X118745000Y-73660000D03*
X113665000Y-73660000D03*
X116205000Y-119380000D03*
X111125000Y-119380000D03*
X113665000Y-119380000D03*
X128905000Y-119380000D03*
X121285000Y-119380000D03*
X118745000Y-119380000D03*
X126365000Y-119380000D03*
X123825000Y-119380000D03*
X174625000Y-73660000D03*
X172085000Y-73660000D03*
X182245000Y-73660000D03*
X179705000Y-73660000D03*
X184785000Y-73660000D03*
X187325000Y-73660000D03*
X189865000Y-73660000D03*
X177165000Y-73660000D03*
X182245000Y-119380000D03*
X189865000Y-119380000D03*
X179705000Y-119380000D03*
X184785000Y-119380000D03*
X177165000Y-119380000D03*
X172085000Y-119380000D03*
X187325000Y-119380000D03*
X174625000Y-119380000D03*
X245745000Y-73660000D03*
X235585000Y-73660000D03*
X238125000Y-73660000D03*
X248285000Y-73660000D03*
X233045000Y-73660000D03*
X250825000Y-73660000D03*
X243205000Y-73660000D03*
X240665000Y-73660000D03*
X240665000Y-119380000D03*
X250825000Y-119380000D03*
X245745000Y-119380000D03*
X238125000Y-119380000D03*
X233045000Y-119380000D03*
X235585000Y-119380000D03*
X248285000Y-119380000D03*
X243205000Y-119380000D03*
D21*
X243205000Y-99060000D03*
D22*
X240705000Y-99060000D03*
X240578000Y-93472000D03*
D21*
X243078000Y-93472000D03*
X243205000Y-104775000D03*
D22*
X240705000Y-104775000D03*
X107275000Y-103505000D03*
X104775000Y-103505000D03*
X157520000Y-76835000D03*
X160020000Y-76835000D03*
X77550000Y-102870000D03*
X80050000Y-102870000D03*
X77550000Y-88900000D03*
X80050000Y-88900000D03*
X106680000Y-76835000D03*
X104180000Y-76835000D03*
X66675000Y-92710000D03*
X66675000Y-95210000D03*
X134660000Y-75565000D03*
X132160000Y-75565000D03*
X156885000Y-102870000D03*
X159385000Y-102870000D03*
X133985000Y-89535000D03*
X131485000Y-89535000D03*
X131485000Y-103505000D03*
X133985000Y-103505000D03*
X40045000Y-85090000D03*
X42545000Y-85090000D03*
X156925000Y-88900000D03*
X159425000Y-88900000D03*
X80685000Y-74930000D03*
X78185000Y-74930000D03*
X106680000Y-89535000D03*
X104180000Y-89535000D03*
D23*
X205105000Y-92710000D03*
X202565000Y-92710000D03*
X200025000Y-92710000D03*
X197485000Y-92710000D03*
X194945000Y-92710000D03*
X192405000Y-92710000D03*
X189865000Y-92710000D03*
D24*
X187325000Y-92710000D03*
D23*
X226695000Y-106680000D03*
X224155000Y-106680000D03*
X221615000Y-106680000D03*
X219075000Y-106680000D03*
X216535000Y-106680000D03*
X213995000Y-106680000D03*
X211455000Y-106680000D03*
D24*
X208915000Y-106680000D03*
D23*
X226695000Y-113665000D03*
X224155000Y-113665000D03*
X221615000Y-113665000D03*
X219075000Y-113665000D03*
X216535000Y-113665000D03*
X213995000Y-113665000D03*
X211455000Y-113665000D03*
D24*
X208915000Y-113665000D03*
D25*
X40005000Y-88900000D03*
D26*
X40005000Y-91440000D03*
X40005000Y-93980000D03*
X40005000Y-96520000D03*
X40005000Y-99060000D03*
X40005000Y-101600000D03*
X40005000Y-104140000D03*
X40005000Y-106680000D03*
X233680000Y-77470000D03*
X233680000Y-80010000D03*
X233680000Y-82550000D03*
X233680000Y-85090000D03*
X233680000Y-87630000D03*
X233680000Y-90170000D03*
X233680000Y-92710000D03*
D25*
X233680000Y-95250000D03*
D24*
X187325000Y-78740000D03*
D23*
X189865000Y-78740000D03*
X192405000Y-78740000D03*
X194945000Y-78740000D03*
X197485000Y-78740000D03*
X200025000Y-78740000D03*
X202565000Y-78740000D03*
X205105000Y-78740000D03*
X205105000Y-85725000D03*
X202565000Y-85725000D03*
X200025000Y-85725000D03*
X197485000Y-85725000D03*
X194945000Y-85725000D03*
X192405000Y-85725000D03*
X189865000Y-85725000D03*
D24*
X187325000Y-85725000D03*
D23*
X205105000Y-99695000D03*
X202565000Y-99695000D03*
X200025000Y-99695000D03*
X197485000Y-99695000D03*
X194945000Y-99695000D03*
X192405000Y-99695000D03*
X189865000Y-99695000D03*
D24*
X187325000Y-99695000D03*
X187325000Y-106680000D03*
D23*
X189865000Y-106680000D03*
X192405000Y-106680000D03*
X194945000Y-106680000D03*
X197485000Y-106680000D03*
X200025000Y-106680000D03*
X202565000Y-106680000D03*
X205105000Y-106680000D03*
X205105000Y-113665000D03*
X202565000Y-113665000D03*
X200025000Y-113665000D03*
X197485000Y-113665000D03*
X194945000Y-113665000D03*
X192405000Y-113665000D03*
X189865000Y-113665000D03*
D24*
X187325000Y-113665000D03*
X208915000Y-78740000D03*
D23*
X211455000Y-78740000D03*
X213995000Y-78740000D03*
X216535000Y-78740000D03*
X219075000Y-78740000D03*
X221615000Y-78740000D03*
X224155000Y-78740000D03*
X226695000Y-78740000D03*
X226695000Y-85725000D03*
X224155000Y-85725000D03*
X221615000Y-85725000D03*
X219075000Y-85725000D03*
X216535000Y-85725000D03*
X213995000Y-85725000D03*
X211455000Y-85725000D03*
D24*
X208915000Y-85725000D03*
X208915000Y-92710000D03*
D23*
X211455000Y-92710000D03*
X213995000Y-92710000D03*
X216535000Y-92710000D03*
X219075000Y-92710000D03*
X221615000Y-92710000D03*
X224155000Y-92710000D03*
X226695000Y-92710000D03*
D24*
X208915000Y-99695000D03*
D23*
X211455000Y-99695000D03*
X213995000Y-99695000D03*
X216535000Y-99695000D03*
X219075000Y-99695000D03*
X221615000Y-99695000D03*
X224155000Y-99695000D03*
X226695000Y-99695000D03*
D27*
X247650000Y-113030000D03*
D18*
X247650000Y-102870000D03*
D13*
X136525000Y-91440000D03*
X154305000Y-99060000D03*
X139065000Y-91440000D03*
X151765000Y-99060000D03*
X141605000Y-91440000D03*
X149225000Y-99060000D03*
X144145000Y-91440000D03*
X146685000Y-99060000D03*
X146685000Y-91440000D03*
X144145000Y-99060000D03*
X149225000Y-91440000D03*
X141605000Y-99060000D03*
X151765000Y-91440000D03*
X139065000Y-99060000D03*
X154305000Y-91440000D03*
D14*
X136525000Y-99060000D03*
D13*
X109855000Y-105410000D03*
X127635000Y-113030000D03*
X112395000Y-105410000D03*
X125095000Y-113030000D03*
X114935000Y-105410000D03*
X122555000Y-113030000D03*
X117475000Y-105410000D03*
X120015000Y-113030000D03*
X120015000Y-105410000D03*
X117475000Y-113030000D03*
X122555000Y-105410000D03*
X114935000Y-113030000D03*
X125095000Y-105410000D03*
X112395000Y-113030000D03*
X127635000Y-105410000D03*
D14*
X109855000Y-113030000D03*
D13*
X109855000Y-78740000D03*
X127635000Y-86360000D03*
X112395000Y-78740000D03*
X125095000Y-86360000D03*
X114935000Y-78740000D03*
X122555000Y-86360000D03*
X117475000Y-78740000D03*
X120015000Y-86360000D03*
X120015000Y-78740000D03*
X117475000Y-86360000D03*
X122555000Y-78740000D03*
X114935000Y-86360000D03*
X125095000Y-78740000D03*
X112395000Y-86360000D03*
X127635000Y-78740000D03*
D14*
X109855000Y-86360000D03*
D13*
X81915000Y-91440000D03*
X99695000Y-99060000D03*
X84455000Y-91440000D03*
X97155000Y-99060000D03*
X86995000Y-91440000D03*
X94615000Y-99060000D03*
X89535000Y-91440000D03*
X92075000Y-99060000D03*
X92075000Y-91440000D03*
X89535000Y-99060000D03*
X94615000Y-91440000D03*
X86995000Y-99060000D03*
X97155000Y-91440000D03*
X84455000Y-99060000D03*
X99695000Y-91440000D03*
D14*
X81915000Y-99060000D03*
X81280000Y-113030000D03*
D13*
X99060000Y-105410000D03*
X83820000Y-113030000D03*
X96520000Y-105410000D03*
X86360000Y-113030000D03*
X93980000Y-105410000D03*
X88900000Y-113030000D03*
X91440000Y-105410000D03*
X91440000Y-113030000D03*
X88900000Y-105410000D03*
X93980000Y-113030000D03*
X86360000Y-105410000D03*
X96520000Y-113030000D03*
X83820000Y-105410000D03*
X99060000Y-113030000D03*
X81280000Y-105410000D03*
D14*
X81915000Y-85725000D03*
D13*
X99695000Y-78105000D03*
X84455000Y-85725000D03*
X97155000Y-78105000D03*
X86995000Y-85725000D03*
X94615000Y-78105000D03*
X89535000Y-85725000D03*
X92075000Y-78105000D03*
X92075000Y-85725000D03*
X89535000Y-78105000D03*
X94615000Y-85725000D03*
X86995000Y-78105000D03*
X97155000Y-85725000D03*
X84455000Y-78105000D03*
X99695000Y-85725000D03*
X81915000Y-78105000D03*
D14*
X67945000Y-101600000D03*
D13*
X47625000Y-109220000D03*
X65405000Y-101600000D03*
X50165000Y-109220000D03*
X62865000Y-101600000D03*
X52705000Y-109220000D03*
X60325000Y-101600000D03*
X55245000Y-109220000D03*
X57785000Y-101600000D03*
X57785000Y-109220000D03*
X55245000Y-101600000D03*
X60325000Y-109220000D03*
X52705000Y-101600000D03*
X62865000Y-109220000D03*
X50165000Y-101600000D03*
X65405000Y-109220000D03*
X47625000Y-101600000D03*
X67945000Y-109220000D03*
D22*
X248285000Y-90805000D03*
D28*
X248285000Y-78105000D03*
D29*
X264160000Y-93020000D03*
X264160000Y-100020000D03*
D30*
X261460000Y-94020000D03*
X261460000Y-99020000D03*
D31*
X261460000Y-95220000D03*
X261460000Y-95870000D03*
X261460000Y-96520000D03*
X261460000Y-97170000D03*
X261460000Y-97820000D03*
M02*
