G04 #@! TF.GenerationSoftware,KiCad,Pcbnew,no-vcs-found-9992a07~58~ubuntu16.04.1*
G04 #@! TF.CreationDate,2017-04-23T16:15:32+03:00*
G04 #@! TF.ProjectId,ND-01,4E442D30312E6B696361645F70636200,rev?*
G04 #@! TF.FileFunction,Legend,Bot*
G04 #@! TF.FilePolarity,Positive*
%FSLAX46Y46*%
G04 Gerber Fmt 4.6, Leading zero omitted, Abs format (unit mm)*
G04 Created by KiCad (PCBNEW no-vcs-found-9992a07~58~ubuntu16.04.1) date Sun Apr 23 16:15:32 2017*
%MOMM*%
%LPD*%
G01*
G04 APERTURE LIST*
%ADD10C,0.100000*%
%ADD11C,0.120000*%
%ADD12C,0.150000*%
%ADD13O,2.000000X2.800000*%
%ADD14R,2.000000X2.800000*%
%ADD15C,10.560000*%
%ADD16R,2.200000X2.200000*%
%ADD17C,2.200000*%
%ADD18C,2.400000*%
%ADD19R,2.000000X2.000000*%
%ADD20C,2.000000*%
%ADD21O,2.400000X3.000000*%
%ADD22R,2.400000X3.000000*%
%ADD23R,3.000000X2.400000*%
%ADD24O,3.000000X2.400000*%
%ADD25O,2.200000X2.200000*%
%ADD26O,2.000000X2.000000*%
%ADD27O,1.950000X1.400000*%
%ADD28O,1.350000X1.650000*%
G04 APERTURE END LIST*
D10*
D11*
X232283000Y-102869000D02*
X234823000Y-102869000D01*
X234823000Y-104649000D02*
X232283000Y-104649000D01*
X234823000Y-104649000D02*
X234823000Y-102869000D01*
X232283000Y-102869000D02*
X232283000Y-104649000D01*
X235331000Y-110108000D02*
X237871000Y-110108000D01*
X237871000Y-111888000D02*
X235331000Y-111888000D01*
X237871000Y-111888000D02*
X237871000Y-110108000D01*
X235331000Y-110108000D02*
X235331000Y-111888000D01*
X232283000Y-109976000D02*
X232283000Y-111756000D01*
X234823000Y-111756000D02*
X234823000Y-109976000D01*
X234823000Y-111756000D02*
X232283000Y-111756000D01*
X232283000Y-109976000D02*
X234823000Y-109976000D01*
X232410000Y-99313000D02*
X234950000Y-99313000D01*
X234950000Y-101093000D02*
X232410000Y-101093000D01*
X234950000Y-101093000D02*
X234950000Y-99313000D01*
X232410000Y-99313000D02*
X232410000Y-101093000D01*
X235458000Y-99318000D02*
X235458000Y-101098000D01*
X237998000Y-101098000D02*
X237998000Y-99318000D01*
X237998000Y-101098000D02*
X235458000Y-101098000D01*
X235458000Y-99318000D02*
X237998000Y-99318000D01*
X235331000Y-102869000D02*
X237871000Y-102869000D01*
X237871000Y-104649000D02*
X235331000Y-104649000D01*
X237871000Y-104649000D02*
X237871000Y-102869000D01*
X235331000Y-102869000D02*
X235331000Y-104649000D01*
X235331000Y-106430000D02*
X235331000Y-108210000D01*
X237871000Y-108210000D02*
X237871000Y-106430000D01*
X237871000Y-108210000D02*
X235331000Y-108210000D01*
X235331000Y-106430000D02*
X237871000Y-106430000D01*
X232283000Y-106425000D02*
X234823000Y-106425000D01*
X234823000Y-108205000D02*
X232283000Y-108205000D01*
X234823000Y-108205000D02*
X234823000Y-106425000D01*
X232283000Y-106425000D02*
X232283000Y-108205000D01*
D12*
X234362523Y-104991380D02*
X234362523Y-105705666D01*
X234410142Y-105848523D01*
X234505380Y-105943761D01*
X234648238Y-105991380D01*
X234743476Y-105991380D01*
X233933952Y-105086619D02*
X233886333Y-105039000D01*
X233791095Y-104991380D01*
X233553000Y-104991380D01*
X233457761Y-105039000D01*
X233410142Y-105086619D01*
X233362523Y-105181857D01*
X233362523Y-105277095D01*
X233410142Y-105419952D01*
X233981571Y-105991380D01*
X233362523Y-105991380D01*
X232410142Y-105991380D02*
X232981571Y-105991380D01*
X232695857Y-105991380D02*
X232695857Y-104991380D01*
X232791095Y-105134238D01*
X232886333Y-105229476D01*
X232981571Y-105277095D01*
X237410523Y-112230380D02*
X237410523Y-112944666D01*
X237458142Y-113087523D01*
X237553380Y-113182761D01*
X237696238Y-113230380D01*
X237791476Y-113230380D01*
X237029571Y-112230380D02*
X236410523Y-112230380D01*
X236743857Y-112611333D01*
X236601000Y-112611333D01*
X236505761Y-112658952D01*
X236458142Y-112706571D01*
X236410523Y-112801809D01*
X236410523Y-113039904D01*
X236458142Y-113135142D01*
X236505761Y-113182761D01*
X236601000Y-113230380D01*
X236886714Y-113230380D01*
X236981952Y-113182761D01*
X237029571Y-113135142D01*
X235458142Y-113230380D02*
X236029571Y-113230380D01*
X235743857Y-113230380D02*
X235743857Y-112230380D01*
X235839095Y-112373238D01*
X235934333Y-112468476D01*
X236029571Y-112516095D01*
X234362523Y-112098380D02*
X234362523Y-112812666D01*
X234410142Y-112955523D01*
X234505380Y-113050761D01*
X234648238Y-113098380D01*
X234743476Y-113098380D01*
X233933952Y-112193619D02*
X233886333Y-112146000D01*
X233791095Y-112098380D01*
X233553000Y-112098380D01*
X233457761Y-112146000D01*
X233410142Y-112193619D01*
X233362523Y-112288857D01*
X233362523Y-112384095D01*
X233410142Y-112526952D01*
X233981571Y-113098380D01*
X233362523Y-113098380D01*
X232886333Y-113098380D02*
X232695857Y-113098380D01*
X232600619Y-113050761D01*
X232553000Y-113003142D01*
X232457761Y-112860285D01*
X232410142Y-112669809D01*
X232410142Y-112288857D01*
X232457761Y-112193619D01*
X232505380Y-112146000D01*
X232600619Y-112098380D01*
X232791095Y-112098380D01*
X232886333Y-112146000D01*
X232933952Y-112193619D01*
X232981571Y-112288857D01*
X232981571Y-112526952D01*
X232933952Y-112622190D01*
X232886333Y-112669809D01*
X232791095Y-112717428D01*
X232600619Y-112717428D01*
X232505380Y-112669809D01*
X232457761Y-112622190D01*
X232410142Y-112526952D01*
X234489523Y-101435380D02*
X234489523Y-102149666D01*
X234537142Y-102292523D01*
X234632380Y-102387761D01*
X234775238Y-102435380D01*
X234870476Y-102435380D01*
X233489523Y-102435380D02*
X234060952Y-102435380D01*
X233775238Y-102435380D02*
X233775238Y-101435380D01*
X233870476Y-101578238D01*
X233965714Y-101673476D01*
X234060952Y-101721095D01*
X233156190Y-101435380D02*
X232489523Y-101435380D01*
X232918095Y-102435380D01*
X237537523Y-101440380D02*
X237537523Y-102154666D01*
X237585142Y-102297523D01*
X237680380Y-102392761D01*
X237823238Y-102440380D01*
X237918476Y-102440380D01*
X236537523Y-102440380D02*
X237108952Y-102440380D01*
X236823238Y-102440380D02*
X236823238Y-101440380D01*
X236918476Y-101583238D01*
X237013714Y-101678476D01*
X237108952Y-101726095D01*
X236061333Y-102440380D02*
X235870857Y-102440380D01*
X235775619Y-102392761D01*
X235728000Y-102345142D01*
X235632761Y-102202285D01*
X235585142Y-102011809D01*
X235585142Y-101630857D01*
X235632761Y-101535619D01*
X235680380Y-101488000D01*
X235775619Y-101440380D01*
X235966095Y-101440380D01*
X236061333Y-101488000D01*
X236108952Y-101535619D01*
X236156571Y-101630857D01*
X236156571Y-101868952D01*
X236108952Y-101964190D01*
X236061333Y-102011809D01*
X235966095Y-102059428D01*
X235775619Y-102059428D01*
X235680380Y-102011809D01*
X235632761Y-101964190D01*
X235585142Y-101868952D01*
X237410523Y-104991380D02*
X237410523Y-105705666D01*
X237458142Y-105848523D01*
X237553380Y-105943761D01*
X237696238Y-105991380D01*
X237791476Y-105991380D01*
X236981952Y-105086619D02*
X236934333Y-105039000D01*
X236839095Y-104991380D01*
X236601000Y-104991380D01*
X236505761Y-105039000D01*
X236458142Y-105086619D01*
X236410523Y-105181857D01*
X236410523Y-105277095D01*
X236458142Y-105419952D01*
X237029571Y-105991380D01*
X236410523Y-105991380D01*
X236077190Y-104991380D02*
X235458142Y-104991380D01*
X235791476Y-105372333D01*
X235648619Y-105372333D01*
X235553380Y-105419952D01*
X235505761Y-105467571D01*
X235458142Y-105562809D01*
X235458142Y-105800904D01*
X235505761Y-105896142D01*
X235553380Y-105943761D01*
X235648619Y-105991380D01*
X235934333Y-105991380D01*
X236029571Y-105943761D01*
X236077190Y-105896142D01*
X237410523Y-108552380D02*
X237410523Y-109266666D01*
X237458142Y-109409523D01*
X237553380Y-109504761D01*
X237696238Y-109552380D01*
X237791476Y-109552380D01*
X236981952Y-108647619D02*
X236934333Y-108600000D01*
X236839095Y-108552380D01*
X236601000Y-108552380D01*
X236505761Y-108600000D01*
X236458142Y-108647619D01*
X236410523Y-108742857D01*
X236410523Y-108838095D01*
X236458142Y-108980952D01*
X237029571Y-109552380D01*
X236410523Y-109552380D01*
X236077190Y-108552380D02*
X235410523Y-108552380D01*
X235839095Y-109552380D01*
X234362523Y-108547380D02*
X234362523Y-109261666D01*
X234410142Y-109404523D01*
X234505380Y-109499761D01*
X234648238Y-109547380D01*
X234743476Y-109547380D01*
X233933952Y-108642619D02*
X233886333Y-108595000D01*
X233791095Y-108547380D01*
X233553000Y-108547380D01*
X233457761Y-108595000D01*
X233410142Y-108642619D01*
X233362523Y-108737857D01*
X233362523Y-108833095D01*
X233410142Y-108975952D01*
X233981571Y-109547380D01*
X233362523Y-109547380D01*
X232457761Y-108547380D02*
X232933952Y-108547380D01*
X232981571Y-109023571D01*
X232933952Y-108975952D01*
X232838714Y-108928333D01*
X232600619Y-108928333D01*
X232505380Y-108975952D01*
X232457761Y-109023571D01*
X232410142Y-109118809D01*
X232410142Y-109356904D01*
X232457761Y-109452142D01*
X232505380Y-109499761D01*
X232600619Y-109547380D01*
X232838714Y-109547380D01*
X232933952Y-109499761D01*
X232981571Y-109452142D01*
%LPC*%
D13*
X161925000Y-91440000D03*
X179705000Y-99060000D03*
X164465000Y-91440000D03*
X177165000Y-99060000D03*
X167005000Y-91440000D03*
X174625000Y-99060000D03*
X169545000Y-91440000D03*
X172085000Y-99060000D03*
X172085000Y-91440000D03*
X169545000Y-99060000D03*
X174625000Y-91440000D03*
X167005000Y-99060000D03*
X177165000Y-91440000D03*
X164465000Y-99060000D03*
X179705000Y-91440000D03*
D14*
X161925000Y-99060000D03*
D13*
X161925000Y-105410000D03*
X179705000Y-113030000D03*
X164465000Y-105410000D03*
X177165000Y-113030000D03*
X167005000Y-105410000D03*
X174625000Y-113030000D03*
X169545000Y-105410000D03*
X172085000Y-113030000D03*
X172085000Y-105410000D03*
X169545000Y-113030000D03*
X174625000Y-105410000D03*
X167005000Y-113030000D03*
X177165000Y-105410000D03*
X164465000Y-113030000D03*
X179705000Y-105410000D03*
D14*
X161925000Y-113030000D03*
D15*
X258445000Y-111125000D03*
X258445000Y-81155000D03*
D14*
X109855000Y-99060000D03*
D13*
X127635000Y-91440000D03*
X112395000Y-99060000D03*
X125095000Y-91440000D03*
X114935000Y-99060000D03*
X122555000Y-91440000D03*
X117475000Y-99060000D03*
X120015000Y-91440000D03*
X120015000Y-99060000D03*
X117475000Y-91440000D03*
X122555000Y-99060000D03*
X114935000Y-91440000D03*
X125095000Y-99060000D03*
X112395000Y-91440000D03*
X127635000Y-99060000D03*
X109855000Y-91440000D03*
D14*
X67945000Y-81915000D03*
D13*
X50165000Y-89535000D03*
X65405000Y-81915000D03*
X52705000Y-89535000D03*
X62865000Y-81915000D03*
X55245000Y-89535000D03*
X60325000Y-81915000D03*
X57785000Y-89535000D03*
X57785000Y-81915000D03*
X60325000Y-89535000D03*
X55245000Y-81915000D03*
X62865000Y-89535000D03*
X52705000Y-81915000D03*
X65405000Y-89535000D03*
X50165000Y-81915000D03*
X67945000Y-89535000D03*
D14*
X136525000Y-113030000D03*
D13*
X154305000Y-105410000D03*
X139065000Y-113030000D03*
X151765000Y-105410000D03*
X141605000Y-113030000D03*
X149225000Y-105410000D03*
X144145000Y-113030000D03*
X146685000Y-105410000D03*
X146685000Y-113030000D03*
X144145000Y-105410000D03*
X149225000Y-113030000D03*
X141605000Y-105410000D03*
X151765000Y-113030000D03*
X139065000Y-105410000D03*
X154305000Y-113030000D03*
X136525000Y-105410000D03*
D14*
X161925000Y-86360000D03*
D13*
X179705000Y-78740000D03*
X164465000Y-86360000D03*
X177165000Y-78740000D03*
X167005000Y-86360000D03*
X174625000Y-78740000D03*
X169545000Y-86360000D03*
X172085000Y-78740000D03*
X172085000Y-86360000D03*
X169545000Y-78740000D03*
X174625000Y-86360000D03*
X167005000Y-78740000D03*
X177165000Y-86360000D03*
X164465000Y-78740000D03*
X179705000Y-86360000D03*
X161925000Y-78740000D03*
D14*
X136525000Y-86360000D03*
D13*
X154305000Y-78740000D03*
X139065000Y-86360000D03*
X151765000Y-78740000D03*
X141605000Y-86360000D03*
X149225000Y-78740000D03*
X144145000Y-86360000D03*
X146685000Y-78740000D03*
X146685000Y-86360000D03*
X144145000Y-78740000D03*
X149225000Y-86360000D03*
X141605000Y-78740000D03*
X151765000Y-86360000D03*
X139065000Y-78740000D03*
X154305000Y-86360000D03*
X136525000Y-78740000D03*
D16*
X243205000Y-85725000D03*
D17*
X240665000Y-85725000D03*
D18*
X50165000Y-119380000D03*
X52705000Y-119380000D03*
X55245000Y-119380000D03*
X57785000Y-119380000D03*
X60325000Y-119380000D03*
X62865000Y-119380000D03*
X65405000Y-119380000D03*
X67945000Y-119380000D03*
X67945000Y-73660000D03*
X65405000Y-73660000D03*
X62865000Y-73660000D03*
X60325000Y-73660000D03*
X57785000Y-73660000D03*
X55245000Y-73660000D03*
X52705000Y-73660000D03*
X50165000Y-73660000D03*
X123825000Y-73660000D03*
X128905000Y-73660000D03*
X111125000Y-73660000D03*
X116205000Y-73660000D03*
X121285000Y-73660000D03*
X126365000Y-73660000D03*
X118745000Y-73660000D03*
X113665000Y-73660000D03*
X116205000Y-119380000D03*
X111125000Y-119380000D03*
X113665000Y-119380000D03*
X128905000Y-119380000D03*
X121285000Y-119380000D03*
X118745000Y-119380000D03*
X126365000Y-119380000D03*
X123825000Y-119380000D03*
X174625000Y-73660000D03*
X172085000Y-73660000D03*
X182245000Y-73660000D03*
X179705000Y-73660000D03*
X184785000Y-73660000D03*
X187325000Y-73660000D03*
X189865000Y-73660000D03*
X177165000Y-73660000D03*
X182245000Y-119380000D03*
X189865000Y-119380000D03*
X179705000Y-119380000D03*
X184785000Y-119380000D03*
X177165000Y-119380000D03*
X172085000Y-119380000D03*
X187325000Y-119380000D03*
X174625000Y-119380000D03*
X245745000Y-73660000D03*
X235585000Y-73660000D03*
X238125000Y-73660000D03*
X248285000Y-73660000D03*
X233045000Y-73660000D03*
X250825000Y-73660000D03*
X243205000Y-73660000D03*
X240665000Y-73660000D03*
X240665000Y-119380000D03*
X250825000Y-119380000D03*
X245745000Y-119380000D03*
X238125000Y-119380000D03*
X233045000Y-119380000D03*
X235585000Y-119380000D03*
X248285000Y-119380000D03*
X243205000Y-119380000D03*
D19*
X243205000Y-99060000D03*
D20*
X240705000Y-99060000D03*
X240578000Y-93472000D03*
D19*
X243078000Y-93472000D03*
X243205000Y-104775000D03*
D20*
X240705000Y-104775000D03*
X107275000Y-103505000D03*
X104775000Y-103505000D03*
X157520000Y-76835000D03*
X160020000Y-76835000D03*
X77550000Y-102870000D03*
X80050000Y-102870000D03*
X77550000Y-88900000D03*
X80050000Y-88900000D03*
X106680000Y-76835000D03*
X104180000Y-76835000D03*
X66675000Y-92710000D03*
X66675000Y-95210000D03*
X134660000Y-75565000D03*
X132160000Y-75565000D03*
X156885000Y-102870000D03*
X159385000Y-102870000D03*
X133985000Y-89535000D03*
X131485000Y-89535000D03*
X131485000Y-103505000D03*
X133985000Y-103505000D03*
X40045000Y-85090000D03*
X42545000Y-85090000D03*
X156925000Y-88900000D03*
X159425000Y-88900000D03*
X80685000Y-74930000D03*
X78185000Y-74930000D03*
X106680000Y-89535000D03*
X104180000Y-89535000D03*
D21*
X205105000Y-92710000D03*
X202565000Y-92710000D03*
X200025000Y-92710000D03*
X197485000Y-92710000D03*
X194945000Y-92710000D03*
X192405000Y-92710000D03*
X189865000Y-92710000D03*
D22*
X187325000Y-92710000D03*
D21*
X226695000Y-106680000D03*
X224155000Y-106680000D03*
X221615000Y-106680000D03*
X219075000Y-106680000D03*
X216535000Y-106680000D03*
X213995000Y-106680000D03*
X211455000Y-106680000D03*
D22*
X208915000Y-106680000D03*
D21*
X226695000Y-113665000D03*
X224155000Y-113665000D03*
X221615000Y-113665000D03*
X219075000Y-113665000D03*
X216535000Y-113665000D03*
X213995000Y-113665000D03*
X211455000Y-113665000D03*
D22*
X208915000Y-113665000D03*
D23*
X40005000Y-88900000D03*
D24*
X40005000Y-91440000D03*
X40005000Y-93980000D03*
X40005000Y-96520000D03*
X40005000Y-99060000D03*
X40005000Y-101600000D03*
X40005000Y-104140000D03*
X40005000Y-106680000D03*
X233680000Y-77470000D03*
X233680000Y-80010000D03*
X233680000Y-82550000D03*
X233680000Y-85090000D03*
X233680000Y-87630000D03*
X233680000Y-90170000D03*
X233680000Y-92710000D03*
D23*
X233680000Y-95250000D03*
D22*
X187325000Y-78740000D03*
D21*
X189865000Y-78740000D03*
X192405000Y-78740000D03*
X194945000Y-78740000D03*
X197485000Y-78740000D03*
X200025000Y-78740000D03*
X202565000Y-78740000D03*
X205105000Y-78740000D03*
X205105000Y-85725000D03*
X202565000Y-85725000D03*
X200025000Y-85725000D03*
X197485000Y-85725000D03*
X194945000Y-85725000D03*
X192405000Y-85725000D03*
X189865000Y-85725000D03*
D22*
X187325000Y-85725000D03*
D21*
X205105000Y-99695000D03*
X202565000Y-99695000D03*
X200025000Y-99695000D03*
X197485000Y-99695000D03*
X194945000Y-99695000D03*
X192405000Y-99695000D03*
X189865000Y-99695000D03*
D22*
X187325000Y-99695000D03*
X187325000Y-106680000D03*
D21*
X189865000Y-106680000D03*
X192405000Y-106680000D03*
X194945000Y-106680000D03*
X197485000Y-106680000D03*
X200025000Y-106680000D03*
X202565000Y-106680000D03*
X205105000Y-106680000D03*
X205105000Y-113665000D03*
X202565000Y-113665000D03*
X200025000Y-113665000D03*
X197485000Y-113665000D03*
X194945000Y-113665000D03*
X192405000Y-113665000D03*
X189865000Y-113665000D03*
D22*
X187325000Y-113665000D03*
X208915000Y-78740000D03*
D21*
X211455000Y-78740000D03*
X213995000Y-78740000D03*
X216535000Y-78740000D03*
X219075000Y-78740000D03*
X221615000Y-78740000D03*
X224155000Y-78740000D03*
X226695000Y-78740000D03*
X226695000Y-85725000D03*
X224155000Y-85725000D03*
X221615000Y-85725000D03*
X219075000Y-85725000D03*
X216535000Y-85725000D03*
X213995000Y-85725000D03*
X211455000Y-85725000D03*
D22*
X208915000Y-85725000D03*
X208915000Y-92710000D03*
D21*
X211455000Y-92710000D03*
X213995000Y-92710000D03*
X216535000Y-92710000D03*
X219075000Y-92710000D03*
X221615000Y-92710000D03*
X224155000Y-92710000D03*
X226695000Y-92710000D03*
D22*
X208915000Y-99695000D03*
D21*
X211455000Y-99695000D03*
X213995000Y-99695000D03*
X216535000Y-99695000D03*
X219075000Y-99695000D03*
X221615000Y-99695000D03*
X224155000Y-99695000D03*
X226695000Y-99695000D03*
D25*
X247650000Y-113030000D03*
D16*
X247650000Y-102870000D03*
D13*
X136525000Y-91440000D03*
X154305000Y-99060000D03*
X139065000Y-91440000D03*
X151765000Y-99060000D03*
X141605000Y-91440000D03*
X149225000Y-99060000D03*
X144145000Y-91440000D03*
X146685000Y-99060000D03*
X146685000Y-91440000D03*
X144145000Y-99060000D03*
X149225000Y-91440000D03*
X141605000Y-99060000D03*
X151765000Y-91440000D03*
X139065000Y-99060000D03*
X154305000Y-91440000D03*
D14*
X136525000Y-99060000D03*
D13*
X109855000Y-105410000D03*
X127635000Y-113030000D03*
X112395000Y-105410000D03*
X125095000Y-113030000D03*
X114935000Y-105410000D03*
X122555000Y-113030000D03*
X117475000Y-105410000D03*
X120015000Y-113030000D03*
X120015000Y-105410000D03*
X117475000Y-113030000D03*
X122555000Y-105410000D03*
X114935000Y-113030000D03*
X125095000Y-105410000D03*
X112395000Y-113030000D03*
X127635000Y-105410000D03*
D14*
X109855000Y-113030000D03*
D13*
X109855000Y-78740000D03*
X127635000Y-86360000D03*
X112395000Y-78740000D03*
X125095000Y-86360000D03*
X114935000Y-78740000D03*
X122555000Y-86360000D03*
X117475000Y-78740000D03*
X120015000Y-86360000D03*
X120015000Y-78740000D03*
X117475000Y-86360000D03*
X122555000Y-78740000D03*
X114935000Y-86360000D03*
X125095000Y-78740000D03*
X112395000Y-86360000D03*
X127635000Y-78740000D03*
D14*
X109855000Y-86360000D03*
D13*
X81915000Y-91440000D03*
X99695000Y-99060000D03*
X84455000Y-91440000D03*
X97155000Y-99060000D03*
X86995000Y-91440000D03*
X94615000Y-99060000D03*
X89535000Y-91440000D03*
X92075000Y-99060000D03*
X92075000Y-91440000D03*
X89535000Y-99060000D03*
X94615000Y-91440000D03*
X86995000Y-99060000D03*
X97155000Y-91440000D03*
X84455000Y-99060000D03*
X99695000Y-91440000D03*
D14*
X81915000Y-99060000D03*
X81280000Y-113030000D03*
D13*
X99060000Y-105410000D03*
X83820000Y-113030000D03*
X96520000Y-105410000D03*
X86360000Y-113030000D03*
X93980000Y-105410000D03*
X88900000Y-113030000D03*
X91440000Y-105410000D03*
X91440000Y-113030000D03*
X88900000Y-105410000D03*
X93980000Y-113030000D03*
X86360000Y-105410000D03*
X96520000Y-113030000D03*
X83820000Y-105410000D03*
X99060000Y-113030000D03*
X81280000Y-105410000D03*
D14*
X81915000Y-85725000D03*
D13*
X99695000Y-78105000D03*
X84455000Y-85725000D03*
X97155000Y-78105000D03*
X86995000Y-85725000D03*
X94615000Y-78105000D03*
X89535000Y-85725000D03*
X92075000Y-78105000D03*
X92075000Y-85725000D03*
X89535000Y-78105000D03*
X94615000Y-85725000D03*
X86995000Y-78105000D03*
X97155000Y-85725000D03*
X84455000Y-78105000D03*
X99695000Y-85725000D03*
X81915000Y-78105000D03*
D14*
X67945000Y-101600000D03*
D13*
X47625000Y-109220000D03*
X65405000Y-101600000D03*
X50165000Y-109220000D03*
X62865000Y-101600000D03*
X52705000Y-109220000D03*
X60325000Y-101600000D03*
X55245000Y-109220000D03*
X57785000Y-101600000D03*
X57785000Y-109220000D03*
X55245000Y-101600000D03*
X60325000Y-109220000D03*
X52705000Y-101600000D03*
X62865000Y-109220000D03*
X50165000Y-101600000D03*
X65405000Y-109220000D03*
X47625000Y-101600000D03*
X67945000Y-109220000D03*
D20*
X248285000Y-90805000D03*
D26*
X248285000Y-78105000D03*
D27*
X264160000Y-93020000D03*
X264160000Y-100020000D03*
D28*
X261460000Y-94020000D03*
X261460000Y-99020000D03*
M02*
