G04 #@! TF.GenerationSoftware,KiCad,Pcbnew,no-vcs-found-9992a07~58~ubuntu16.04.1*
G04 #@! TF.CreationDate,2017-04-23T16:15:32+03:00*
G04 #@! TF.ProjectId,ND-01,4E442D30312E6B696361645F70636200,rev?*
G04 #@! TF.FileFunction,Soldermask,Bot*
G04 #@! TF.FilePolarity,Negative*
%FSLAX46Y46*%
G04 Gerber Fmt 4.6, Leading zero omitted, Abs format (unit mm)*
G04 Created by KiCad (PCBNEW no-vcs-found-9992a07~58~ubuntu16.04.1) date Sun Apr 23 16:15:32 2017*
%MOMM*%
%LPD*%
G01*
G04 APERTURE LIST*
%ADD10C,0.100000*%
%ADD11O,2.000000X2.800000*%
%ADD12R,2.000000X2.800000*%
%ADD13C,10.560000*%
%ADD14R,2.200000X2.200000*%
%ADD15C,2.200000*%
%ADD16C,2.400000*%
%ADD17R,2.000000X2.000000*%
%ADD18C,2.000000*%
%ADD19O,2.400000X3.000000*%
%ADD20R,2.400000X3.000000*%
%ADD21R,3.000000X2.400000*%
%ADD22O,3.000000X2.400000*%
%ADD23O,2.200000X2.200000*%
%ADD24O,2.000000X2.000000*%
%ADD25O,1.950000X1.400000*%
%ADD26O,1.350000X1.650000*%
G04 APERTURE END LIST*
D10*
D11*
X161925000Y-91440000D03*
X179705000Y-99060000D03*
X164465000Y-91440000D03*
X177165000Y-99060000D03*
X167005000Y-91440000D03*
X174625000Y-99060000D03*
X169545000Y-91440000D03*
X172085000Y-99060000D03*
X172085000Y-91440000D03*
X169545000Y-99060000D03*
X174625000Y-91440000D03*
X167005000Y-99060000D03*
X177165000Y-91440000D03*
X164465000Y-99060000D03*
X179705000Y-91440000D03*
D12*
X161925000Y-99060000D03*
D11*
X161925000Y-105410000D03*
X179705000Y-113030000D03*
X164465000Y-105410000D03*
X177165000Y-113030000D03*
X167005000Y-105410000D03*
X174625000Y-113030000D03*
X169545000Y-105410000D03*
X172085000Y-113030000D03*
X172085000Y-105410000D03*
X169545000Y-113030000D03*
X174625000Y-105410000D03*
X167005000Y-113030000D03*
X177165000Y-105410000D03*
X164465000Y-113030000D03*
X179705000Y-105410000D03*
D12*
X161925000Y-113030000D03*
D13*
X258445000Y-111125000D03*
X258445000Y-81155000D03*
D12*
X109855000Y-99060000D03*
D11*
X127635000Y-91440000D03*
X112395000Y-99060000D03*
X125095000Y-91440000D03*
X114935000Y-99060000D03*
X122555000Y-91440000D03*
X117475000Y-99060000D03*
X120015000Y-91440000D03*
X120015000Y-99060000D03*
X117475000Y-91440000D03*
X122555000Y-99060000D03*
X114935000Y-91440000D03*
X125095000Y-99060000D03*
X112395000Y-91440000D03*
X127635000Y-99060000D03*
X109855000Y-91440000D03*
D12*
X67945000Y-81915000D03*
D11*
X50165000Y-89535000D03*
X65405000Y-81915000D03*
X52705000Y-89535000D03*
X62865000Y-81915000D03*
X55245000Y-89535000D03*
X60325000Y-81915000D03*
X57785000Y-89535000D03*
X57785000Y-81915000D03*
X60325000Y-89535000D03*
X55245000Y-81915000D03*
X62865000Y-89535000D03*
X52705000Y-81915000D03*
X65405000Y-89535000D03*
X50165000Y-81915000D03*
X67945000Y-89535000D03*
D12*
X136525000Y-113030000D03*
D11*
X154305000Y-105410000D03*
X139065000Y-113030000D03*
X151765000Y-105410000D03*
X141605000Y-113030000D03*
X149225000Y-105410000D03*
X144145000Y-113030000D03*
X146685000Y-105410000D03*
X146685000Y-113030000D03*
X144145000Y-105410000D03*
X149225000Y-113030000D03*
X141605000Y-105410000D03*
X151765000Y-113030000D03*
X139065000Y-105410000D03*
X154305000Y-113030000D03*
X136525000Y-105410000D03*
D12*
X161925000Y-86360000D03*
D11*
X179705000Y-78740000D03*
X164465000Y-86360000D03*
X177165000Y-78740000D03*
X167005000Y-86360000D03*
X174625000Y-78740000D03*
X169545000Y-86360000D03*
X172085000Y-78740000D03*
X172085000Y-86360000D03*
X169545000Y-78740000D03*
X174625000Y-86360000D03*
X167005000Y-78740000D03*
X177165000Y-86360000D03*
X164465000Y-78740000D03*
X179705000Y-86360000D03*
X161925000Y-78740000D03*
D12*
X136525000Y-86360000D03*
D11*
X154305000Y-78740000D03*
X139065000Y-86360000D03*
X151765000Y-78740000D03*
X141605000Y-86360000D03*
X149225000Y-78740000D03*
X144145000Y-86360000D03*
X146685000Y-78740000D03*
X146685000Y-86360000D03*
X144145000Y-78740000D03*
X149225000Y-86360000D03*
X141605000Y-78740000D03*
X151765000Y-86360000D03*
X139065000Y-78740000D03*
X154305000Y-86360000D03*
X136525000Y-78740000D03*
D14*
X243205000Y-85725000D03*
D15*
X240665000Y-85725000D03*
D16*
X50165000Y-119380000D03*
X52705000Y-119380000D03*
X55245000Y-119380000D03*
X57785000Y-119380000D03*
X60325000Y-119380000D03*
X62865000Y-119380000D03*
X65405000Y-119380000D03*
X67945000Y-119380000D03*
X67945000Y-73660000D03*
X65405000Y-73660000D03*
X62865000Y-73660000D03*
X60325000Y-73660000D03*
X57785000Y-73660000D03*
X55245000Y-73660000D03*
X52705000Y-73660000D03*
X50165000Y-73660000D03*
X123825000Y-73660000D03*
X128905000Y-73660000D03*
X111125000Y-73660000D03*
X116205000Y-73660000D03*
X121285000Y-73660000D03*
X126365000Y-73660000D03*
X118745000Y-73660000D03*
X113665000Y-73660000D03*
X116205000Y-119380000D03*
X111125000Y-119380000D03*
X113665000Y-119380000D03*
X128905000Y-119380000D03*
X121285000Y-119380000D03*
X118745000Y-119380000D03*
X126365000Y-119380000D03*
X123825000Y-119380000D03*
X174625000Y-73660000D03*
X172085000Y-73660000D03*
X182245000Y-73660000D03*
X179705000Y-73660000D03*
X184785000Y-73660000D03*
X187325000Y-73660000D03*
X189865000Y-73660000D03*
X177165000Y-73660000D03*
X182245000Y-119380000D03*
X189865000Y-119380000D03*
X179705000Y-119380000D03*
X184785000Y-119380000D03*
X177165000Y-119380000D03*
X172085000Y-119380000D03*
X187325000Y-119380000D03*
X174625000Y-119380000D03*
X245745000Y-73660000D03*
X235585000Y-73660000D03*
X238125000Y-73660000D03*
X248285000Y-73660000D03*
X233045000Y-73660000D03*
X250825000Y-73660000D03*
X243205000Y-73660000D03*
X240665000Y-73660000D03*
X240665000Y-119380000D03*
X250825000Y-119380000D03*
X245745000Y-119380000D03*
X238125000Y-119380000D03*
X233045000Y-119380000D03*
X235585000Y-119380000D03*
X248285000Y-119380000D03*
X243205000Y-119380000D03*
D17*
X243205000Y-99060000D03*
D18*
X240705000Y-99060000D03*
X240578000Y-93472000D03*
D17*
X243078000Y-93472000D03*
X243205000Y-104775000D03*
D18*
X240705000Y-104775000D03*
X107275000Y-103505000D03*
X104775000Y-103505000D03*
X157520000Y-76835000D03*
X160020000Y-76835000D03*
X77550000Y-102870000D03*
X80050000Y-102870000D03*
X77550000Y-88900000D03*
X80050000Y-88900000D03*
X106680000Y-76835000D03*
X104180000Y-76835000D03*
X66675000Y-92710000D03*
X66675000Y-95210000D03*
X134660000Y-75565000D03*
X132160000Y-75565000D03*
X156885000Y-102870000D03*
X159385000Y-102870000D03*
X133985000Y-89535000D03*
X131485000Y-89535000D03*
X131485000Y-103505000D03*
X133985000Y-103505000D03*
X40045000Y-85090000D03*
X42545000Y-85090000D03*
X156925000Y-88900000D03*
X159425000Y-88900000D03*
X80685000Y-74930000D03*
X78185000Y-74930000D03*
X106680000Y-89535000D03*
X104180000Y-89535000D03*
D19*
X205105000Y-92710000D03*
X202565000Y-92710000D03*
X200025000Y-92710000D03*
X197485000Y-92710000D03*
X194945000Y-92710000D03*
X192405000Y-92710000D03*
X189865000Y-92710000D03*
D20*
X187325000Y-92710000D03*
D19*
X226695000Y-106680000D03*
X224155000Y-106680000D03*
X221615000Y-106680000D03*
X219075000Y-106680000D03*
X216535000Y-106680000D03*
X213995000Y-106680000D03*
X211455000Y-106680000D03*
D20*
X208915000Y-106680000D03*
D19*
X226695000Y-113665000D03*
X224155000Y-113665000D03*
X221615000Y-113665000D03*
X219075000Y-113665000D03*
X216535000Y-113665000D03*
X213995000Y-113665000D03*
X211455000Y-113665000D03*
D20*
X208915000Y-113665000D03*
D21*
X40005000Y-88900000D03*
D22*
X40005000Y-91440000D03*
X40005000Y-93980000D03*
X40005000Y-96520000D03*
X40005000Y-99060000D03*
X40005000Y-101600000D03*
X40005000Y-104140000D03*
X40005000Y-106680000D03*
X233680000Y-77470000D03*
X233680000Y-80010000D03*
X233680000Y-82550000D03*
X233680000Y-85090000D03*
X233680000Y-87630000D03*
X233680000Y-90170000D03*
X233680000Y-92710000D03*
D21*
X233680000Y-95250000D03*
D20*
X187325000Y-78740000D03*
D19*
X189865000Y-78740000D03*
X192405000Y-78740000D03*
X194945000Y-78740000D03*
X197485000Y-78740000D03*
X200025000Y-78740000D03*
X202565000Y-78740000D03*
X205105000Y-78740000D03*
X205105000Y-85725000D03*
X202565000Y-85725000D03*
X200025000Y-85725000D03*
X197485000Y-85725000D03*
X194945000Y-85725000D03*
X192405000Y-85725000D03*
X189865000Y-85725000D03*
D20*
X187325000Y-85725000D03*
D19*
X205105000Y-99695000D03*
X202565000Y-99695000D03*
X200025000Y-99695000D03*
X197485000Y-99695000D03*
X194945000Y-99695000D03*
X192405000Y-99695000D03*
X189865000Y-99695000D03*
D20*
X187325000Y-99695000D03*
X187325000Y-106680000D03*
D19*
X189865000Y-106680000D03*
X192405000Y-106680000D03*
X194945000Y-106680000D03*
X197485000Y-106680000D03*
X200025000Y-106680000D03*
X202565000Y-106680000D03*
X205105000Y-106680000D03*
X205105000Y-113665000D03*
X202565000Y-113665000D03*
X200025000Y-113665000D03*
X197485000Y-113665000D03*
X194945000Y-113665000D03*
X192405000Y-113665000D03*
X189865000Y-113665000D03*
D20*
X187325000Y-113665000D03*
X208915000Y-78740000D03*
D19*
X211455000Y-78740000D03*
X213995000Y-78740000D03*
X216535000Y-78740000D03*
X219075000Y-78740000D03*
X221615000Y-78740000D03*
X224155000Y-78740000D03*
X226695000Y-78740000D03*
X226695000Y-85725000D03*
X224155000Y-85725000D03*
X221615000Y-85725000D03*
X219075000Y-85725000D03*
X216535000Y-85725000D03*
X213995000Y-85725000D03*
X211455000Y-85725000D03*
D20*
X208915000Y-85725000D03*
X208915000Y-92710000D03*
D19*
X211455000Y-92710000D03*
X213995000Y-92710000D03*
X216535000Y-92710000D03*
X219075000Y-92710000D03*
X221615000Y-92710000D03*
X224155000Y-92710000D03*
X226695000Y-92710000D03*
D20*
X208915000Y-99695000D03*
D19*
X211455000Y-99695000D03*
X213995000Y-99695000D03*
X216535000Y-99695000D03*
X219075000Y-99695000D03*
X221615000Y-99695000D03*
X224155000Y-99695000D03*
X226695000Y-99695000D03*
D23*
X247650000Y-113030000D03*
D14*
X247650000Y-102870000D03*
D11*
X136525000Y-91440000D03*
X154305000Y-99060000D03*
X139065000Y-91440000D03*
X151765000Y-99060000D03*
X141605000Y-91440000D03*
X149225000Y-99060000D03*
X144145000Y-91440000D03*
X146685000Y-99060000D03*
X146685000Y-91440000D03*
X144145000Y-99060000D03*
X149225000Y-91440000D03*
X141605000Y-99060000D03*
X151765000Y-91440000D03*
X139065000Y-99060000D03*
X154305000Y-91440000D03*
D12*
X136525000Y-99060000D03*
D11*
X109855000Y-105410000D03*
X127635000Y-113030000D03*
X112395000Y-105410000D03*
X125095000Y-113030000D03*
X114935000Y-105410000D03*
X122555000Y-113030000D03*
X117475000Y-105410000D03*
X120015000Y-113030000D03*
X120015000Y-105410000D03*
X117475000Y-113030000D03*
X122555000Y-105410000D03*
X114935000Y-113030000D03*
X125095000Y-105410000D03*
X112395000Y-113030000D03*
X127635000Y-105410000D03*
D12*
X109855000Y-113030000D03*
D11*
X109855000Y-78740000D03*
X127635000Y-86360000D03*
X112395000Y-78740000D03*
X125095000Y-86360000D03*
X114935000Y-78740000D03*
X122555000Y-86360000D03*
X117475000Y-78740000D03*
X120015000Y-86360000D03*
X120015000Y-78740000D03*
X117475000Y-86360000D03*
X122555000Y-78740000D03*
X114935000Y-86360000D03*
X125095000Y-78740000D03*
X112395000Y-86360000D03*
X127635000Y-78740000D03*
D12*
X109855000Y-86360000D03*
D11*
X81915000Y-91440000D03*
X99695000Y-99060000D03*
X84455000Y-91440000D03*
X97155000Y-99060000D03*
X86995000Y-91440000D03*
X94615000Y-99060000D03*
X89535000Y-91440000D03*
X92075000Y-99060000D03*
X92075000Y-91440000D03*
X89535000Y-99060000D03*
X94615000Y-91440000D03*
X86995000Y-99060000D03*
X97155000Y-91440000D03*
X84455000Y-99060000D03*
X99695000Y-91440000D03*
D12*
X81915000Y-99060000D03*
X81280000Y-113030000D03*
D11*
X99060000Y-105410000D03*
X83820000Y-113030000D03*
X96520000Y-105410000D03*
X86360000Y-113030000D03*
X93980000Y-105410000D03*
X88900000Y-113030000D03*
X91440000Y-105410000D03*
X91440000Y-113030000D03*
X88900000Y-105410000D03*
X93980000Y-113030000D03*
X86360000Y-105410000D03*
X96520000Y-113030000D03*
X83820000Y-105410000D03*
X99060000Y-113030000D03*
X81280000Y-105410000D03*
D12*
X81915000Y-85725000D03*
D11*
X99695000Y-78105000D03*
X84455000Y-85725000D03*
X97155000Y-78105000D03*
X86995000Y-85725000D03*
X94615000Y-78105000D03*
X89535000Y-85725000D03*
X92075000Y-78105000D03*
X92075000Y-85725000D03*
X89535000Y-78105000D03*
X94615000Y-85725000D03*
X86995000Y-78105000D03*
X97155000Y-85725000D03*
X84455000Y-78105000D03*
X99695000Y-85725000D03*
X81915000Y-78105000D03*
D12*
X67945000Y-101600000D03*
D11*
X47625000Y-109220000D03*
X65405000Y-101600000D03*
X50165000Y-109220000D03*
X62865000Y-101600000D03*
X52705000Y-109220000D03*
X60325000Y-101600000D03*
X55245000Y-109220000D03*
X57785000Y-101600000D03*
X57785000Y-109220000D03*
X55245000Y-101600000D03*
X60325000Y-109220000D03*
X52705000Y-101600000D03*
X62865000Y-109220000D03*
X50165000Y-101600000D03*
X65405000Y-109220000D03*
X47625000Y-101600000D03*
X67945000Y-109220000D03*
D18*
X248285000Y-90805000D03*
D24*
X248285000Y-78105000D03*
D25*
X264160000Y-93020000D03*
X264160000Y-100020000D03*
D26*
X261460000Y-94020000D03*
X261460000Y-99020000D03*
M02*
