M48
INCH,TZ
T1C0.016
T2C0.039
%
G90
G05
T1
X50000Y-37500
X50000Y-40500
X51000Y-38000
X52000Y-30500
X52000Y-31500
X52000Y-32500
X52000Y-34000
X52000Y-35500
X52000Y-36500
X52000Y-38500
X53000Y-30500
X53000Y-31500
X53000Y-32500
X53000Y-34000
X53000Y-35500
X53000Y-36500
X54000Y-30500
X54000Y-31500
X54000Y-32500
X54000Y-35500
X54000Y-36500
X54300Y-33500
X54300Y-34000
X54300Y-34500
X54850Y-33500
X54850Y-34000
X54850Y-34500
X55000Y-30500
X55000Y-31500
X55000Y-32500
X55000Y-35500
X55000Y-36500
X55300Y-40400
X55400Y-33500
X55400Y-34000
X55400Y-34500
X56000Y-30500
X56000Y-31500
X56000Y-32500
X56000Y-35500
X56000Y-36500
X57000Y-30500
X57000Y-31500
X57000Y-32500
X57000Y-34000
X57000Y-35500
X57000Y-36500
X57000Y-40500
X58000Y-30500
X58000Y-31500
X58000Y-32500
X58000Y-34000
X58000Y-35500
X58000Y-36500
X58000Y-37500
X58000Y-38500
X59000Y-38000
X59000Y-40500
X59900Y-40100
T2
X47920Y-32000
X47920Y-34000
X47920Y-36000
X47920Y-38000
X47920Y-40000
X48080Y-31000
X48080Y-33000
X48080Y-35000
X48080Y-37000
X48080Y-39000
X48920Y-32000
X48920Y-34000
X48920Y-36000
X48920Y-38000
X48920Y-40000
X49080Y-31000
X49080Y-33000
X49080Y-35000
X49080Y-37000
X49080Y-39000
X60920Y-32000
X60920Y-34000
X60920Y-36000
X60920Y-38000
X60920Y-40000
X61080Y-31000
X61080Y-33000
X61080Y-35000
X61080Y-37000
X61080Y-39000
X61920Y-32000
X61920Y-34000
X61920Y-36000
X61920Y-38000
X61920Y-40000
X62080Y-31000
X62080Y-33000
X62080Y-35000
X62080Y-37000
X62080Y-39000
T0
M30
