G04 #@! TF.GenerationSoftware,KiCad,Pcbnew,no-vcs-found-08c4a0b~58~ubuntu16.04.1*
G04 #@! TF.CreationDate,2017-08-29T22:54:34+03:00*
G04 #@! TF.ProjectId,Bitsoko-ESP32-module-v2,426974736F6B6F2D45535033322D6D6F,1*
G04 #@! TF.SameCoordinates,Original
G04 #@! TF.FileFunction,Copper,L2,Bot,Signal*
G04 #@! TF.FilePolarity,Positive*
%FSLAX46Y46*%
G04 Gerber Fmt 4.6, Leading zero omitted, Abs format (unit mm)*
G04 Created by KiCad (PCBNEW no-vcs-found-08c4a0b~58~ubuntu16.04.1) date Tue Aug 29 22:54:34 2017*
%MOMM*%
%LPD*%
G01*
G04 APERTURE LIST*
%ADD10R,1.500000X1.250000*%
%ADD11R,2.000000X2.500000*%
%ADD12O,1.700000X1.700000*%
%ADD13R,1.700000X1.700000*%
%ADD14C,0.800000*%
%ADD15C,0.250000*%
%ADD16C,0.508000*%
%ADD17C,0.254000*%
G04 APERTURE END LIST*
D10*
X130536000Y-85090000D03*
X128036000Y-85090000D03*
X128036000Y-82550000D03*
X130536000Y-82550000D03*
D11*
X127286000Y-79502000D03*
X131286000Y-79502000D03*
D12*
X124256800Y-101600000D03*
X121716800Y-101600000D03*
X124663200Y-99060000D03*
X122123200Y-99060000D03*
X124256800Y-96520000D03*
X121716800Y-96520000D03*
X124663200Y-93980000D03*
X122123200Y-93980000D03*
X124256800Y-91440000D03*
X121716800Y-91440000D03*
X124663200Y-88900000D03*
X122123200Y-88900000D03*
X124256800Y-86360000D03*
X121716800Y-86360000D03*
X124663200Y-83820000D03*
X122123200Y-83820000D03*
X124256800Y-81280000D03*
X121716800Y-81280000D03*
X124663200Y-78740000D03*
D13*
X122123200Y-78740000D03*
X155143200Y-78740000D03*
D12*
X157683200Y-78740000D03*
X154736800Y-81280000D03*
X157276800Y-81280000D03*
X155143200Y-83820000D03*
X157683200Y-83820000D03*
X154736800Y-86360000D03*
X157276800Y-86360000D03*
X155143200Y-88900000D03*
X157683200Y-88900000D03*
X154736800Y-91440000D03*
X157276800Y-91440000D03*
X155143200Y-93980000D03*
X157683200Y-93980000D03*
X154736800Y-96520000D03*
X157276800Y-96520000D03*
X155143200Y-99060000D03*
X157683200Y-99060000D03*
X154736800Y-101600000D03*
X157276800Y-101600000D03*
D14*
X147320000Y-95250000D03*
X149860000Y-96520000D03*
X147320000Y-97790000D03*
X127000000Y-95250000D03*
X129540000Y-96520000D03*
X132080000Y-97790000D03*
X127000000Y-102870000D03*
X144780000Y-102870000D03*
X149860000Y-102870000D03*
X132080000Y-86360000D03*
X134620000Y-86360000D03*
X144780000Y-86360000D03*
X147320000Y-86360000D03*
X132080000Y-92710000D03*
X134620000Y-92710000D03*
X137160000Y-92710000D03*
X139700000Y-92710000D03*
X142240000Y-92710000D03*
X144780000Y-92710000D03*
X147320000Y-92710000D03*
X132080000Y-90170000D03*
X134620000Y-90170000D03*
X137160000Y-90170000D03*
X139700000Y-90170000D03*
X142240000Y-90170000D03*
X144780000Y-90170000D03*
X147320000Y-90170000D03*
X132080000Y-82550000D03*
X134620000Y-82550000D03*
X137160000Y-82550000D03*
X139700000Y-82550000D03*
X142240000Y-82550000D03*
X144780000Y-82550000D03*
X147320000Y-82550000D03*
X132080000Y-80010000D03*
X134620000Y-80010000D03*
X137160000Y-80010000D03*
X139700000Y-80010000D03*
X142240000Y-80010000D03*
X144780000Y-80010000D03*
X147320000Y-80010000D03*
X132080000Y-77470000D03*
X134620000Y-77470000D03*
X137160000Y-77470000D03*
X139700000Y-77470000D03*
X142240000Y-77470000D03*
X144780000Y-77470000D03*
X147320000Y-77470000D03*
X140462000Y-102616000D03*
X152146000Y-101854000D03*
X140716000Y-87630000D03*
X140716000Y-86360000D03*
X140716000Y-85090000D03*
X139319000Y-85090000D03*
X139319000Y-86360000D03*
X139319000Y-87630000D03*
X137922000Y-87630000D03*
X137922000Y-86360000D03*
X137922000Y-85090000D03*
D15*
X126492000Y-84836000D02*
X126746000Y-85090000D01*
X126746000Y-85090000D02*
X128036000Y-85090000D01*
X126492000Y-83566000D02*
X126492000Y-84836000D01*
X125570999Y-82644999D02*
X126492000Y-83566000D01*
X122769999Y-82129999D02*
X123284999Y-82644999D01*
X123284999Y-82644999D02*
X125570999Y-82644999D01*
X121716800Y-81280000D02*
X122566799Y-82129999D01*
X122566799Y-82129999D02*
X122769999Y-82129999D01*
D16*
X127286000Y-79502000D02*
X127286000Y-81800000D01*
X127286000Y-81800000D02*
X128036000Y-82550000D01*
X127286000Y-79502000D02*
X125425200Y-79502000D01*
X125425200Y-79502000D02*
X124663200Y-78740000D01*
D17*
G36*
X159310000Y-103430000D02*
X120090000Y-103430000D01*
X120090000Y-81280000D01*
X120202707Y-81280000D01*
X120315746Y-81848285D01*
X120637653Y-82330054D01*
X121119422Y-82651961D01*
X121197413Y-82667474D01*
X121044053Y-82769946D01*
X120722146Y-83251715D01*
X120609107Y-83820000D01*
X120722146Y-84388285D01*
X121044053Y-84870054D01*
X121197413Y-84972526D01*
X121119422Y-84988039D01*
X120637653Y-85309946D01*
X120315746Y-85791715D01*
X120202707Y-86360000D01*
X120315746Y-86928285D01*
X120637653Y-87410054D01*
X121119422Y-87731961D01*
X121197413Y-87747474D01*
X121044053Y-87849946D01*
X120722146Y-88331715D01*
X120609107Y-88900000D01*
X120722146Y-89468285D01*
X121044053Y-89950054D01*
X121197413Y-90052526D01*
X121119422Y-90068039D01*
X120637653Y-90389946D01*
X120315746Y-90871715D01*
X120202707Y-91440000D01*
X120315746Y-92008285D01*
X120637653Y-92490054D01*
X121119422Y-92811961D01*
X121197413Y-92827474D01*
X121044053Y-92929946D01*
X120722146Y-93411715D01*
X120609107Y-93980000D01*
X120722146Y-94548285D01*
X121044053Y-95030054D01*
X121217012Y-95145622D01*
X120835442Y-95324817D01*
X120445155Y-95753076D01*
X120275324Y-96163110D01*
X120396645Y-96393000D01*
X121589800Y-96393000D01*
X121589800Y-96373000D01*
X121843800Y-96373000D01*
X121843800Y-96393000D01*
X121863800Y-96393000D01*
X121863800Y-96647000D01*
X121843800Y-96647000D01*
X121843800Y-96667000D01*
X121589800Y-96667000D01*
X121589800Y-96647000D01*
X120396645Y-96647000D01*
X120275324Y-96876890D01*
X120445155Y-97286924D01*
X120835442Y-97715183D01*
X121217012Y-97894378D01*
X121044053Y-98009946D01*
X120722146Y-98491715D01*
X120609107Y-99060000D01*
X120722146Y-99628285D01*
X121044053Y-100110054D01*
X121197413Y-100212526D01*
X121119422Y-100228039D01*
X120637653Y-100549946D01*
X120315746Y-101031715D01*
X120202707Y-101600000D01*
X120315746Y-102168285D01*
X120637653Y-102650054D01*
X121119422Y-102971961D01*
X121687707Y-103085000D01*
X121745893Y-103085000D01*
X122314178Y-102971961D01*
X122795947Y-102650054D01*
X122986800Y-102364422D01*
X123177653Y-102650054D01*
X123659422Y-102971961D01*
X124227707Y-103085000D01*
X124285893Y-103085000D01*
X124854178Y-102971961D01*
X125335947Y-102650054D01*
X125657854Y-102168285D01*
X125770893Y-101600000D01*
X125657854Y-101031715D01*
X125335947Y-100549946D01*
X125182587Y-100447474D01*
X125260578Y-100431961D01*
X125742347Y-100110054D01*
X126064254Y-99628285D01*
X126177293Y-99060000D01*
X126064254Y-98491715D01*
X125742347Y-98009946D01*
X125260578Y-97688039D01*
X125182587Y-97672526D01*
X125335947Y-97570054D01*
X125657854Y-97088285D01*
X125770893Y-96520000D01*
X125657854Y-95951715D01*
X125335947Y-95469946D01*
X125182587Y-95367474D01*
X125260578Y-95351961D01*
X125742347Y-95030054D01*
X126064254Y-94548285D01*
X126177293Y-93980000D01*
X126064254Y-93411715D01*
X125742347Y-92929946D01*
X125260578Y-92608039D01*
X125182587Y-92592526D01*
X125335947Y-92490054D01*
X125657854Y-92008285D01*
X125770893Y-91440000D01*
X125657854Y-90871715D01*
X125335947Y-90389946D01*
X125182587Y-90287474D01*
X125260578Y-90271961D01*
X125742347Y-89950054D01*
X126064254Y-89468285D01*
X126177293Y-88900000D01*
X126064254Y-88331715D01*
X125742347Y-87849946D01*
X125260578Y-87528039D01*
X125182587Y-87512526D01*
X125335947Y-87410054D01*
X125657854Y-86928285D01*
X125770893Y-86360000D01*
X125657854Y-85791715D01*
X125335947Y-85309946D01*
X125182587Y-85207474D01*
X125260578Y-85191961D01*
X125739193Y-84872161D01*
X125789852Y-85126839D01*
X125954599Y-85373401D01*
X126208599Y-85627401D01*
X126455160Y-85792148D01*
X126662093Y-85833310D01*
X126687843Y-85962765D01*
X126828191Y-86172809D01*
X127038235Y-86313157D01*
X127286000Y-86362440D01*
X128786000Y-86362440D01*
X129033765Y-86313157D01*
X129243809Y-86172809D01*
X129284654Y-86111680D01*
X129426302Y-86253327D01*
X129659691Y-86350000D01*
X130250250Y-86350000D01*
X130409000Y-86191250D01*
X130409000Y-85217000D01*
X130663000Y-85217000D01*
X130663000Y-86191250D01*
X130821750Y-86350000D01*
X131412309Y-86350000D01*
X131645698Y-86253327D01*
X131824327Y-86074699D01*
X131921000Y-85841310D01*
X131921000Y-85375750D01*
X131762250Y-85217000D01*
X130663000Y-85217000D01*
X130409000Y-85217000D01*
X130389000Y-85217000D01*
X130389000Y-84963000D01*
X130409000Y-84963000D01*
X130409000Y-83988750D01*
X130663000Y-83988750D01*
X130663000Y-84963000D01*
X131762250Y-84963000D01*
X131921000Y-84804250D01*
X131921000Y-84338690D01*
X131824327Y-84105301D01*
X131645698Y-83926673D01*
X131412309Y-83830000D01*
X130821750Y-83830000D01*
X130663000Y-83988750D01*
X130409000Y-83988750D01*
X130250250Y-83830000D01*
X129659691Y-83830000D01*
X129426302Y-83926673D01*
X129284654Y-84068320D01*
X129243809Y-84007191D01*
X129033765Y-83866843D01*
X128798267Y-83820000D01*
X129033765Y-83773157D01*
X129243809Y-83632809D01*
X129284654Y-83571680D01*
X129426302Y-83713327D01*
X129659691Y-83810000D01*
X130250250Y-83810000D01*
X130409000Y-83651250D01*
X130409000Y-82677000D01*
X130663000Y-82677000D01*
X130663000Y-83651250D01*
X130821750Y-83810000D01*
X131412309Y-83810000D01*
X131645698Y-83713327D01*
X131824327Y-83534699D01*
X131921000Y-83301310D01*
X131921000Y-82835750D01*
X131762250Y-82677000D01*
X130663000Y-82677000D01*
X130409000Y-82677000D01*
X130389000Y-82677000D01*
X130389000Y-82423000D01*
X130409000Y-82423000D01*
X130409000Y-82403000D01*
X130663000Y-82403000D01*
X130663000Y-82423000D01*
X131762250Y-82423000D01*
X131921000Y-82264250D01*
X131921000Y-81798690D01*
X131824327Y-81565301D01*
X131646025Y-81387000D01*
X132412309Y-81387000D01*
X132645698Y-81290327D01*
X132656025Y-81280000D01*
X153222707Y-81280000D01*
X153335746Y-81848285D01*
X153657653Y-82330054D01*
X154139422Y-82651961D01*
X154217413Y-82667474D01*
X154064053Y-82769946D01*
X153742146Y-83251715D01*
X153629107Y-83820000D01*
X153742146Y-84388285D01*
X154064053Y-84870054D01*
X154217413Y-84972526D01*
X154139422Y-84988039D01*
X153657653Y-85309946D01*
X153335746Y-85791715D01*
X153222707Y-86360000D01*
X153335746Y-86928285D01*
X153657653Y-87410054D01*
X154139422Y-87731961D01*
X154217413Y-87747474D01*
X154064053Y-87849946D01*
X153742146Y-88331715D01*
X153629107Y-88900000D01*
X153742146Y-89468285D01*
X154064053Y-89950054D01*
X154217413Y-90052526D01*
X154139422Y-90068039D01*
X153657653Y-90389946D01*
X153335746Y-90871715D01*
X153222707Y-91440000D01*
X153335746Y-92008285D01*
X153657653Y-92490054D01*
X154139422Y-92811961D01*
X154217413Y-92827474D01*
X154064053Y-92929946D01*
X153742146Y-93411715D01*
X153629107Y-93980000D01*
X153742146Y-94548285D01*
X154064053Y-95030054D01*
X154217413Y-95132526D01*
X154139422Y-95148039D01*
X153657653Y-95469946D01*
X153335746Y-95951715D01*
X153222707Y-96520000D01*
X153335746Y-97088285D01*
X153657653Y-97570054D01*
X154139422Y-97891961D01*
X154217413Y-97907474D01*
X154064053Y-98009946D01*
X153742146Y-98491715D01*
X153629107Y-99060000D01*
X153742146Y-99628285D01*
X154064053Y-100110054D01*
X154217413Y-100212526D01*
X154139422Y-100228039D01*
X153657653Y-100549946D01*
X153335746Y-101031715D01*
X153222707Y-101600000D01*
X153335746Y-102168285D01*
X153657653Y-102650054D01*
X154139422Y-102971961D01*
X154707707Y-103085000D01*
X154765893Y-103085000D01*
X155334178Y-102971961D01*
X155815947Y-102650054D01*
X156006800Y-102364422D01*
X156197653Y-102650054D01*
X156679422Y-102971961D01*
X157247707Y-103085000D01*
X157305893Y-103085000D01*
X157874178Y-102971961D01*
X158355947Y-102650054D01*
X158677854Y-102168285D01*
X158790893Y-101600000D01*
X158677854Y-101031715D01*
X158355947Y-100549946D01*
X158202587Y-100447474D01*
X158280578Y-100431961D01*
X158762347Y-100110054D01*
X159084254Y-99628285D01*
X159197293Y-99060000D01*
X159084254Y-98491715D01*
X158762347Y-98009946D01*
X158280578Y-97688039D01*
X158202587Y-97672526D01*
X158355947Y-97570054D01*
X158677854Y-97088285D01*
X158790893Y-96520000D01*
X158677854Y-95951715D01*
X158355947Y-95469946D01*
X158202587Y-95367474D01*
X158280578Y-95351961D01*
X158762347Y-95030054D01*
X159084254Y-94548285D01*
X159197293Y-93980000D01*
X159084254Y-93411715D01*
X158762347Y-92929946D01*
X158280578Y-92608039D01*
X158202587Y-92592526D01*
X158355947Y-92490054D01*
X158677854Y-92008285D01*
X158790893Y-91440000D01*
X158677854Y-90871715D01*
X158355947Y-90389946D01*
X158202587Y-90287474D01*
X158280578Y-90271961D01*
X158762347Y-89950054D01*
X159084254Y-89468285D01*
X159197293Y-88900000D01*
X159084254Y-88331715D01*
X158762347Y-87849946D01*
X158280578Y-87528039D01*
X158202587Y-87512526D01*
X158355947Y-87410054D01*
X158677854Y-86928285D01*
X158790893Y-86360000D01*
X158677854Y-85791715D01*
X158355947Y-85309946D01*
X158202587Y-85207474D01*
X158280578Y-85191961D01*
X158762347Y-84870054D01*
X159084254Y-84388285D01*
X159197293Y-83820000D01*
X159084254Y-83251715D01*
X158762347Y-82769946D01*
X158280578Y-82448039D01*
X158202587Y-82432526D01*
X158355947Y-82330054D01*
X158677854Y-81848285D01*
X158790893Y-81280000D01*
X158677854Y-80711715D01*
X158355947Y-80229946D01*
X158182988Y-80114378D01*
X158564558Y-79935183D01*
X158954845Y-79506924D01*
X159124676Y-79096890D01*
X159003355Y-78867000D01*
X157810200Y-78867000D01*
X157810200Y-78887000D01*
X157556200Y-78887000D01*
X157556200Y-78867000D01*
X157536200Y-78867000D01*
X157536200Y-78613000D01*
X157556200Y-78613000D01*
X157556200Y-77419181D01*
X157810200Y-77419181D01*
X157810200Y-78613000D01*
X159003355Y-78613000D01*
X159124676Y-78383110D01*
X158954845Y-77973076D01*
X158564558Y-77544817D01*
X158040092Y-77298514D01*
X157810200Y-77419181D01*
X157556200Y-77419181D01*
X157326308Y-77298514D01*
X156801842Y-77544817D01*
X156613161Y-77751855D01*
X156591357Y-77642235D01*
X156451009Y-77432191D01*
X156240965Y-77291843D01*
X155993200Y-77242560D01*
X154293200Y-77242560D01*
X154045435Y-77291843D01*
X153835391Y-77432191D01*
X153695043Y-77642235D01*
X153645760Y-77890000D01*
X153645760Y-79590000D01*
X153695043Y-79837765D01*
X153835391Y-80047809D01*
X153882816Y-80079497D01*
X153657653Y-80229946D01*
X153335746Y-80711715D01*
X153222707Y-81280000D01*
X132656025Y-81280000D01*
X132824327Y-81111699D01*
X132921000Y-80878310D01*
X132921000Y-79787750D01*
X132762250Y-79629000D01*
X131413000Y-79629000D01*
X131413000Y-79649000D01*
X131159000Y-79649000D01*
X131159000Y-79629000D01*
X129809750Y-79629000D01*
X129651000Y-79787750D01*
X129651000Y-80878310D01*
X129747673Y-81111699D01*
X129925975Y-81290000D01*
X129659691Y-81290000D01*
X129426302Y-81386673D01*
X129284654Y-81528320D01*
X129243809Y-81467191D01*
X129033765Y-81326843D01*
X128786000Y-81277560D01*
X128642413Y-81277560D01*
X128743809Y-81209809D01*
X128884157Y-80999765D01*
X128933440Y-80752000D01*
X128933440Y-78252000D01*
X128908316Y-78125690D01*
X129651000Y-78125690D01*
X129651000Y-79216250D01*
X129809750Y-79375000D01*
X131159000Y-79375000D01*
X131159000Y-77775750D01*
X131413000Y-77775750D01*
X131413000Y-79375000D01*
X132762250Y-79375000D01*
X132921000Y-79216250D01*
X132921000Y-78125690D01*
X132824327Y-77892301D01*
X132645698Y-77713673D01*
X132412309Y-77617000D01*
X131571750Y-77617000D01*
X131413000Y-77775750D01*
X131159000Y-77775750D01*
X131000250Y-77617000D01*
X130159691Y-77617000D01*
X129926302Y-77713673D01*
X129747673Y-77892301D01*
X129651000Y-78125690D01*
X128908316Y-78125690D01*
X128884157Y-78004235D01*
X128743809Y-77794191D01*
X128533765Y-77653843D01*
X128286000Y-77604560D01*
X126286000Y-77604560D01*
X126038235Y-77653843D01*
X125828191Y-77794191D01*
X125820096Y-77806306D01*
X125742347Y-77689946D01*
X125260578Y-77368039D01*
X124692293Y-77255000D01*
X124634107Y-77255000D01*
X124065822Y-77368039D01*
X123584053Y-77689946D01*
X123580103Y-77695858D01*
X123511527Y-77530301D01*
X123332898Y-77351673D01*
X123099509Y-77255000D01*
X122408950Y-77255000D01*
X122250200Y-77413750D01*
X122250200Y-78613000D01*
X122270200Y-78613000D01*
X122270200Y-78867000D01*
X122250200Y-78867000D01*
X122250200Y-78887000D01*
X121996200Y-78887000D01*
X121996200Y-78867000D01*
X120796950Y-78867000D01*
X120638200Y-79025750D01*
X120638200Y-79716310D01*
X120734873Y-79949699D01*
X120863929Y-80078754D01*
X120637653Y-80229946D01*
X120315746Y-80711715D01*
X120202707Y-81280000D01*
X120090000Y-81280000D01*
X120090000Y-77763690D01*
X120638200Y-77763690D01*
X120638200Y-78454250D01*
X120796950Y-78613000D01*
X121996200Y-78613000D01*
X121996200Y-77413750D01*
X121837450Y-77255000D01*
X121146891Y-77255000D01*
X120913502Y-77351673D01*
X120734873Y-77530301D01*
X120638200Y-77763690D01*
X120090000Y-77763690D01*
X120090000Y-76910000D01*
X159310000Y-76910000D01*
X159310000Y-103430000D01*
X159310000Y-103430000D01*
G37*
X159310000Y-103430000D02*
X120090000Y-103430000D01*
X120090000Y-81280000D01*
X120202707Y-81280000D01*
X120315746Y-81848285D01*
X120637653Y-82330054D01*
X121119422Y-82651961D01*
X121197413Y-82667474D01*
X121044053Y-82769946D01*
X120722146Y-83251715D01*
X120609107Y-83820000D01*
X120722146Y-84388285D01*
X121044053Y-84870054D01*
X121197413Y-84972526D01*
X121119422Y-84988039D01*
X120637653Y-85309946D01*
X120315746Y-85791715D01*
X120202707Y-86360000D01*
X120315746Y-86928285D01*
X120637653Y-87410054D01*
X121119422Y-87731961D01*
X121197413Y-87747474D01*
X121044053Y-87849946D01*
X120722146Y-88331715D01*
X120609107Y-88900000D01*
X120722146Y-89468285D01*
X121044053Y-89950054D01*
X121197413Y-90052526D01*
X121119422Y-90068039D01*
X120637653Y-90389946D01*
X120315746Y-90871715D01*
X120202707Y-91440000D01*
X120315746Y-92008285D01*
X120637653Y-92490054D01*
X121119422Y-92811961D01*
X121197413Y-92827474D01*
X121044053Y-92929946D01*
X120722146Y-93411715D01*
X120609107Y-93980000D01*
X120722146Y-94548285D01*
X121044053Y-95030054D01*
X121217012Y-95145622D01*
X120835442Y-95324817D01*
X120445155Y-95753076D01*
X120275324Y-96163110D01*
X120396645Y-96393000D01*
X121589800Y-96393000D01*
X121589800Y-96373000D01*
X121843800Y-96373000D01*
X121843800Y-96393000D01*
X121863800Y-96393000D01*
X121863800Y-96647000D01*
X121843800Y-96647000D01*
X121843800Y-96667000D01*
X121589800Y-96667000D01*
X121589800Y-96647000D01*
X120396645Y-96647000D01*
X120275324Y-96876890D01*
X120445155Y-97286924D01*
X120835442Y-97715183D01*
X121217012Y-97894378D01*
X121044053Y-98009946D01*
X120722146Y-98491715D01*
X120609107Y-99060000D01*
X120722146Y-99628285D01*
X121044053Y-100110054D01*
X121197413Y-100212526D01*
X121119422Y-100228039D01*
X120637653Y-100549946D01*
X120315746Y-101031715D01*
X120202707Y-101600000D01*
X120315746Y-102168285D01*
X120637653Y-102650054D01*
X121119422Y-102971961D01*
X121687707Y-103085000D01*
X121745893Y-103085000D01*
X122314178Y-102971961D01*
X122795947Y-102650054D01*
X122986800Y-102364422D01*
X123177653Y-102650054D01*
X123659422Y-102971961D01*
X124227707Y-103085000D01*
X124285893Y-103085000D01*
X124854178Y-102971961D01*
X125335947Y-102650054D01*
X125657854Y-102168285D01*
X125770893Y-101600000D01*
X125657854Y-101031715D01*
X125335947Y-100549946D01*
X125182587Y-100447474D01*
X125260578Y-100431961D01*
X125742347Y-100110054D01*
X126064254Y-99628285D01*
X126177293Y-99060000D01*
X126064254Y-98491715D01*
X125742347Y-98009946D01*
X125260578Y-97688039D01*
X125182587Y-97672526D01*
X125335947Y-97570054D01*
X125657854Y-97088285D01*
X125770893Y-96520000D01*
X125657854Y-95951715D01*
X125335947Y-95469946D01*
X125182587Y-95367474D01*
X125260578Y-95351961D01*
X125742347Y-95030054D01*
X126064254Y-94548285D01*
X126177293Y-93980000D01*
X126064254Y-93411715D01*
X125742347Y-92929946D01*
X125260578Y-92608039D01*
X125182587Y-92592526D01*
X125335947Y-92490054D01*
X125657854Y-92008285D01*
X125770893Y-91440000D01*
X125657854Y-90871715D01*
X125335947Y-90389946D01*
X125182587Y-90287474D01*
X125260578Y-90271961D01*
X125742347Y-89950054D01*
X126064254Y-89468285D01*
X126177293Y-88900000D01*
X126064254Y-88331715D01*
X125742347Y-87849946D01*
X125260578Y-87528039D01*
X125182587Y-87512526D01*
X125335947Y-87410054D01*
X125657854Y-86928285D01*
X125770893Y-86360000D01*
X125657854Y-85791715D01*
X125335947Y-85309946D01*
X125182587Y-85207474D01*
X125260578Y-85191961D01*
X125739193Y-84872161D01*
X125789852Y-85126839D01*
X125954599Y-85373401D01*
X126208599Y-85627401D01*
X126455160Y-85792148D01*
X126662093Y-85833310D01*
X126687843Y-85962765D01*
X126828191Y-86172809D01*
X127038235Y-86313157D01*
X127286000Y-86362440D01*
X128786000Y-86362440D01*
X129033765Y-86313157D01*
X129243809Y-86172809D01*
X129284654Y-86111680D01*
X129426302Y-86253327D01*
X129659691Y-86350000D01*
X130250250Y-86350000D01*
X130409000Y-86191250D01*
X130409000Y-85217000D01*
X130663000Y-85217000D01*
X130663000Y-86191250D01*
X130821750Y-86350000D01*
X131412309Y-86350000D01*
X131645698Y-86253327D01*
X131824327Y-86074699D01*
X131921000Y-85841310D01*
X131921000Y-85375750D01*
X131762250Y-85217000D01*
X130663000Y-85217000D01*
X130409000Y-85217000D01*
X130389000Y-85217000D01*
X130389000Y-84963000D01*
X130409000Y-84963000D01*
X130409000Y-83988750D01*
X130663000Y-83988750D01*
X130663000Y-84963000D01*
X131762250Y-84963000D01*
X131921000Y-84804250D01*
X131921000Y-84338690D01*
X131824327Y-84105301D01*
X131645698Y-83926673D01*
X131412309Y-83830000D01*
X130821750Y-83830000D01*
X130663000Y-83988750D01*
X130409000Y-83988750D01*
X130250250Y-83830000D01*
X129659691Y-83830000D01*
X129426302Y-83926673D01*
X129284654Y-84068320D01*
X129243809Y-84007191D01*
X129033765Y-83866843D01*
X128798267Y-83820000D01*
X129033765Y-83773157D01*
X129243809Y-83632809D01*
X129284654Y-83571680D01*
X129426302Y-83713327D01*
X129659691Y-83810000D01*
X130250250Y-83810000D01*
X130409000Y-83651250D01*
X130409000Y-82677000D01*
X130663000Y-82677000D01*
X130663000Y-83651250D01*
X130821750Y-83810000D01*
X131412309Y-83810000D01*
X131645698Y-83713327D01*
X131824327Y-83534699D01*
X131921000Y-83301310D01*
X131921000Y-82835750D01*
X131762250Y-82677000D01*
X130663000Y-82677000D01*
X130409000Y-82677000D01*
X130389000Y-82677000D01*
X130389000Y-82423000D01*
X130409000Y-82423000D01*
X130409000Y-82403000D01*
X130663000Y-82403000D01*
X130663000Y-82423000D01*
X131762250Y-82423000D01*
X131921000Y-82264250D01*
X131921000Y-81798690D01*
X131824327Y-81565301D01*
X131646025Y-81387000D01*
X132412309Y-81387000D01*
X132645698Y-81290327D01*
X132656025Y-81280000D01*
X153222707Y-81280000D01*
X153335746Y-81848285D01*
X153657653Y-82330054D01*
X154139422Y-82651961D01*
X154217413Y-82667474D01*
X154064053Y-82769946D01*
X153742146Y-83251715D01*
X153629107Y-83820000D01*
X153742146Y-84388285D01*
X154064053Y-84870054D01*
X154217413Y-84972526D01*
X154139422Y-84988039D01*
X153657653Y-85309946D01*
X153335746Y-85791715D01*
X153222707Y-86360000D01*
X153335746Y-86928285D01*
X153657653Y-87410054D01*
X154139422Y-87731961D01*
X154217413Y-87747474D01*
X154064053Y-87849946D01*
X153742146Y-88331715D01*
X153629107Y-88900000D01*
X153742146Y-89468285D01*
X154064053Y-89950054D01*
X154217413Y-90052526D01*
X154139422Y-90068039D01*
X153657653Y-90389946D01*
X153335746Y-90871715D01*
X153222707Y-91440000D01*
X153335746Y-92008285D01*
X153657653Y-92490054D01*
X154139422Y-92811961D01*
X154217413Y-92827474D01*
X154064053Y-92929946D01*
X153742146Y-93411715D01*
X153629107Y-93980000D01*
X153742146Y-94548285D01*
X154064053Y-95030054D01*
X154217413Y-95132526D01*
X154139422Y-95148039D01*
X153657653Y-95469946D01*
X153335746Y-95951715D01*
X153222707Y-96520000D01*
X153335746Y-97088285D01*
X153657653Y-97570054D01*
X154139422Y-97891961D01*
X154217413Y-97907474D01*
X154064053Y-98009946D01*
X153742146Y-98491715D01*
X153629107Y-99060000D01*
X153742146Y-99628285D01*
X154064053Y-100110054D01*
X154217413Y-100212526D01*
X154139422Y-100228039D01*
X153657653Y-100549946D01*
X153335746Y-101031715D01*
X153222707Y-101600000D01*
X153335746Y-102168285D01*
X153657653Y-102650054D01*
X154139422Y-102971961D01*
X154707707Y-103085000D01*
X154765893Y-103085000D01*
X155334178Y-102971961D01*
X155815947Y-102650054D01*
X156006800Y-102364422D01*
X156197653Y-102650054D01*
X156679422Y-102971961D01*
X157247707Y-103085000D01*
X157305893Y-103085000D01*
X157874178Y-102971961D01*
X158355947Y-102650054D01*
X158677854Y-102168285D01*
X158790893Y-101600000D01*
X158677854Y-101031715D01*
X158355947Y-100549946D01*
X158202587Y-100447474D01*
X158280578Y-100431961D01*
X158762347Y-100110054D01*
X159084254Y-99628285D01*
X159197293Y-99060000D01*
X159084254Y-98491715D01*
X158762347Y-98009946D01*
X158280578Y-97688039D01*
X158202587Y-97672526D01*
X158355947Y-97570054D01*
X158677854Y-97088285D01*
X158790893Y-96520000D01*
X158677854Y-95951715D01*
X158355947Y-95469946D01*
X158202587Y-95367474D01*
X158280578Y-95351961D01*
X158762347Y-95030054D01*
X159084254Y-94548285D01*
X159197293Y-93980000D01*
X159084254Y-93411715D01*
X158762347Y-92929946D01*
X158280578Y-92608039D01*
X158202587Y-92592526D01*
X158355947Y-92490054D01*
X158677854Y-92008285D01*
X158790893Y-91440000D01*
X158677854Y-90871715D01*
X158355947Y-90389946D01*
X158202587Y-90287474D01*
X158280578Y-90271961D01*
X158762347Y-89950054D01*
X159084254Y-89468285D01*
X159197293Y-88900000D01*
X159084254Y-88331715D01*
X158762347Y-87849946D01*
X158280578Y-87528039D01*
X158202587Y-87512526D01*
X158355947Y-87410054D01*
X158677854Y-86928285D01*
X158790893Y-86360000D01*
X158677854Y-85791715D01*
X158355947Y-85309946D01*
X158202587Y-85207474D01*
X158280578Y-85191961D01*
X158762347Y-84870054D01*
X159084254Y-84388285D01*
X159197293Y-83820000D01*
X159084254Y-83251715D01*
X158762347Y-82769946D01*
X158280578Y-82448039D01*
X158202587Y-82432526D01*
X158355947Y-82330054D01*
X158677854Y-81848285D01*
X158790893Y-81280000D01*
X158677854Y-80711715D01*
X158355947Y-80229946D01*
X158182988Y-80114378D01*
X158564558Y-79935183D01*
X158954845Y-79506924D01*
X159124676Y-79096890D01*
X159003355Y-78867000D01*
X157810200Y-78867000D01*
X157810200Y-78887000D01*
X157556200Y-78887000D01*
X157556200Y-78867000D01*
X157536200Y-78867000D01*
X157536200Y-78613000D01*
X157556200Y-78613000D01*
X157556200Y-77419181D01*
X157810200Y-77419181D01*
X157810200Y-78613000D01*
X159003355Y-78613000D01*
X159124676Y-78383110D01*
X158954845Y-77973076D01*
X158564558Y-77544817D01*
X158040092Y-77298514D01*
X157810200Y-77419181D01*
X157556200Y-77419181D01*
X157326308Y-77298514D01*
X156801842Y-77544817D01*
X156613161Y-77751855D01*
X156591357Y-77642235D01*
X156451009Y-77432191D01*
X156240965Y-77291843D01*
X155993200Y-77242560D01*
X154293200Y-77242560D01*
X154045435Y-77291843D01*
X153835391Y-77432191D01*
X153695043Y-77642235D01*
X153645760Y-77890000D01*
X153645760Y-79590000D01*
X153695043Y-79837765D01*
X153835391Y-80047809D01*
X153882816Y-80079497D01*
X153657653Y-80229946D01*
X153335746Y-80711715D01*
X153222707Y-81280000D01*
X132656025Y-81280000D01*
X132824327Y-81111699D01*
X132921000Y-80878310D01*
X132921000Y-79787750D01*
X132762250Y-79629000D01*
X131413000Y-79629000D01*
X131413000Y-79649000D01*
X131159000Y-79649000D01*
X131159000Y-79629000D01*
X129809750Y-79629000D01*
X129651000Y-79787750D01*
X129651000Y-80878310D01*
X129747673Y-81111699D01*
X129925975Y-81290000D01*
X129659691Y-81290000D01*
X129426302Y-81386673D01*
X129284654Y-81528320D01*
X129243809Y-81467191D01*
X129033765Y-81326843D01*
X128786000Y-81277560D01*
X128642413Y-81277560D01*
X128743809Y-81209809D01*
X128884157Y-80999765D01*
X128933440Y-80752000D01*
X128933440Y-78252000D01*
X128908316Y-78125690D01*
X129651000Y-78125690D01*
X129651000Y-79216250D01*
X129809750Y-79375000D01*
X131159000Y-79375000D01*
X131159000Y-77775750D01*
X131413000Y-77775750D01*
X131413000Y-79375000D01*
X132762250Y-79375000D01*
X132921000Y-79216250D01*
X132921000Y-78125690D01*
X132824327Y-77892301D01*
X132645698Y-77713673D01*
X132412309Y-77617000D01*
X131571750Y-77617000D01*
X131413000Y-77775750D01*
X131159000Y-77775750D01*
X131000250Y-77617000D01*
X130159691Y-77617000D01*
X129926302Y-77713673D01*
X129747673Y-77892301D01*
X129651000Y-78125690D01*
X128908316Y-78125690D01*
X128884157Y-78004235D01*
X128743809Y-77794191D01*
X128533765Y-77653843D01*
X128286000Y-77604560D01*
X126286000Y-77604560D01*
X126038235Y-77653843D01*
X125828191Y-77794191D01*
X125820096Y-77806306D01*
X125742347Y-77689946D01*
X125260578Y-77368039D01*
X124692293Y-77255000D01*
X124634107Y-77255000D01*
X124065822Y-77368039D01*
X123584053Y-77689946D01*
X123580103Y-77695858D01*
X123511527Y-77530301D01*
X123332898Y-77351673D01*
X123099509Y-77255000D01*
X122408950Y-77255000D01*
X122250200Y-77413750D01*
X122250200Y-78613000D01*
X122270200Y-78613000D01*
X122270200Y-78867000D01*
X122250200Y-78867000D01*
X122250200Y-78887000D01*
X121996200Y-78887000D01*
X121996200Y-78867000D01*
X120796950Y-78867000D01*
X120638200Y-79025750D01*
X120638200Y-79716310D01*
X120734873Y-79949699D01*
X120863929Y-80078754D01*
X120637653Y-80229946D01*
X120315746Y-80711715D01*
X120202707Y-81280000D01*
X120090000Y-81280000D01*
X120090000Y-77763690D01*
X120638200Y-77763690D01*
X120638200Y-78454250D01*
X120796950Y-78613000D01*
X121996200Y-78613000D01*
X121996200Y-77413750D01*
X121837450Y-77255000D01*
X121146891Y-77255000D01*
X120913502Y-77351673D01*
X120734873Y-77530301D01*
X120638200Y-77763690D01*
X120090000Y-77763690D01*
X120090000Y-76910000D01*
X159310000Y-76910000D01*
X159310000Y-103430000D01*
M02*
