G04 #@! TF.GenerationSoftware,KiCad,Pcbnew,no-vcs-found-08c4a0b~58~ubuntu16.04.1*
G04 #@! TF.CreationDate,2017-08-29T22:54:34+03:00*
G04 #@! TF.ProjectId,Bitsoko-ESP32-module-v2,426974736F6B6F2D45535033322D6D6F,1*
G04 #@! TF.SameCoordinates,Original
G04 #@! TF.FileFunction,Copper,L1,Top,Signal*
G04 #@! TF.FilePolarity,Positive*
%FSLAX46Y46*%
G04 Gerber Fmt 4.6, Leading zero omitted, Abs format (unit mm)*
G04 Created by KiCad (PCBNEW no-vcs-found-08c4a0b~58~ubuntu16.04.1) date Tue Aug 29 22:54:34 2017*
%MOMM*%
%LPD*%
G01*
G04 APERTURE LIST*
%ADD10R,4.000000X4.000000*%
%ADD11R,2.700000X0.900000*%
%ADD12R,0.900000X2.700000*%
%ADD13O,1.700000X1.700000*%
%ADD14R,1.700000X1.700000*%
%ADD15C,0.800000*%
%ADD16C,0.250000*%
%ADD17C,0.508000*%
%ADD18C,0.254000*%
G04 APERTURE END LIST*
D10*
X139274000Y-86533500D03*
D11*
X130074000Y-94333500D03*
X130074000Y-93063500D03*
X130074000Y-91793500D03*
X130074000Y-90523500D03*
X130074000Y-89253500D03*
X130074000Y-87983500D03*
X130074000Y-86713500D03*
X130074000Y-85443500D03*
X130074000Y-84173500D03*
X130074000Y-82903500D03*
X130074000Y-81633500D03*
X130074000Y-80363500D03*
X130074000Y-79093500D03*
X130074000Y-77823500D03*
D12*
X134274000Y-96733500D03*
X135544000Y-96733500D03*
X136814000Y-96733500D03*
X138084000Y-96733500D03*
X139354000Y-96733500D03*
X140624000Y-96733500D03*
X141894000Y-96733500D03*
X143164000Y-96733500D03*
X144434000Y-96733500D03*
X145704000Y-96733500D03*
D11*
X149874000Y-94333500D03*
X149874000Y-93063500D03*
X149874000Y-91793500D03*
X149874000Y-90523500D03*
X149874000Y-89253500D03*
X149874000Y-87983500D03*
X149874000Y-86713500D03*
X149874000Y-85443500D03*
X149874000Y-84173500D03*
X149874000Y-82903500D03*
X149874000Y-81633500D03*
X149874000Y-80363500D03*
X149874000Y-79093500D03*
X149874000Y-77823500D03*
D13*
X124256800Y-101600000D03*
X121716800Y-101600000D03*
X124663200Y-99060000D03*
X122123200Y-99060000D03*
X124256800Y-96520000D03*
X121716800Y-96520000D03*
X124663200Y-93980000D03*
X122123200Y-93980000D03*
X124256800Y-91440000D03*
X121716800Y-91440000D03*
X124663200Y-88900000D03*
X122123200Y-88900000D03*
X124256800Y-86360000D03*
X121716800Y-86360000D03*
X124663200Y-83820000D03*
X122123200Y-83820000D03*
X124256800Y-81280000D03*
X121716800Y-81280000D03*
X124663200Y-78740000D03*
D14*
X122123200Y-78740000D03*
X155143200Y-78740000D03*
D13*
X157683200Y-78740000D03*
X154736800Y-81280000D03*
X157276800Y-81280000D03*
X155143200Y-83820000D03*
X157683200Y-83820000D03*
X154736800Y-86360000D03*
X157276800Y-86360000D03*
X155143200Y-88900000D03*
X157683200Y-88900000D03*
X154736800Y-91440000D03*
X157276800Y-91440000D03*
X155143200Y-93980000D03*
X157683200Y-93980000D03*
X154736800Y-96520000D03*
X157276800Y-96520000D03*
X155143200Y-99060000D03*
X157683200Y-99060000D03*
X154736800Y-101600000D03*
X157276800Y-101600000D03*
D15*
X147320000Y-95250000D03*
X149860000Y-96520000D03*
X147320000Y-97790000D03*
X127000000Y-95250000D03*
X129540000Y-96520000D03*
X132080000Y-97790000D03*
X127000000Y-102870000D03*
X144780000Y-102870000D03*
X149860000Y-102870000D03*
X132080000Y-86360000D03*
X134620000Y-86360000D03*
X144780000Y-86360000D03*
X147320000Y-86360000D03*
X132080000Y-92710000D03*
X134620000Y-92710000D03*
X137160000Y-92710000D03*
X139700000Y-92710000D03*
X142240000Y-92710000D03*
X144780000Y-92710000D03*
X147320000Y-92710000D03*
X132080000Y-90170000D03*
X134620000Y-90170000D03*
X137160000Y-90170000D03*
X139700000Y-90170000D03*
X142240000Y-90170000D03*
X144780000Y-90170000D03*
X147320000Y-90170000D03*
X132080000Y-82550000D03*
X134620000Y-82550000D03*
X137160000Y-82550000D03*
X139700000Y-82550000D03*
X142240000Y-82550000D03*
X144780000Y-82550000D03*
X147320000Y-82550000D03*
X132080000Y-80010000D03*
X134620000Y-80010000D03*
X137160000Y-80010000D03*
X139700000Y-80010000D03*
X142240000Y-80010000D03*
X144780000Y-80010000D03*
X147320000Y-80010000D03*
X132080000Y-77470000D03*
X134620000Y-77470000D03*
X137160000Y-77470000D03*
X139700000Y-77470000D03*
X142240000Y-77470000D03*
X144780000Y-77470000D03*
X147320000Y-77470000D03*
X140462000Y-102616000D03*
X152146000Y-101854000D03*
X140716000Y-87630000D03*
X140716000Y-86360000D03*
X140716000Y-85090000D03*
X139319000Y-85090000D03*
X139319000Y-86360000D03*
X139319000Y-87630000D03*
X137922000Y-87630000D03*
X137922000Y-86360000D03*
X137922000Y-85090000D03*
D16*
X127000000Y-93980000D02*
X127353500Y-94333500D01*
X127353500Y-94333500D02*
X130074000Y-94333500D01*
X124460000Y-93980000D02*
X127000000Y-93980000D01*
X126840999Y-92804999D02*
X127099500Y-93063500D01*
X127099500Y-93063500D02*
X130074000Y-93063500D01*
X121920000Y-93980000D02*
X123095001Y-92804999D01*
X123095001Y-92804999D02*
X126840999Y-92804999D01*
X127254000Y-91440000D02*
X127607500Y-91793500D01*
X127607500Y-91793500D02*
X130074000Y-91793500D01*
X124460000Y-91440000D02*
X127254000Y-91440000D01*
X126078999Y-90264999D02*
X126337500Y-90523500D01*
X126337500Y-90523500D02*
X130074000Y-90523500D01*
X121920000Y-91440000D02*
X123095001Y-90264999D01*
X123095001Y-90264999D02*
X126078999Y-90264999D01*
X127000000Y-88900000D02*
X127353500Y-89253500D01*
X127353500Y-89253500D02*
X130074000Y-89253500D01*
X124460000Y-88900000D02*
X127000000Y-88900000D01*
X127254000Y-87630000D02*
X127607500Y-87983500D01*
X127607500Y-87983500D02*
X130074000Y-87983500D01*
X123190000Y-87630000D02*
X127254000Y-87630000D01*
X121920000Y-88900000D02*
X123190000Y-87630000D01*
X127254000Y-86360000D02*
X127607500Y-86713500D01*
X127607500Y-86713500D02*
X130074000Y-86713500D01*
X124460000Y-86360000D02*
X127254000Y-86360000D01*
X127254000Y-85090000D02*
X127607500Y-85443500D01*
X127607500Y-85443500D02*
X130074000Y-85443500D01*
X123190000Y-85090000D02*
X127254000Y-85090000D01*
X121920000Y-86360000D02*
X123190000Y-85090000D01*
X127000000Y-83820000D02*
X127353500Y-84173500D01*
X127353500Y-84173500D02*
X130074000Y-84173500D01*
X124460000Y-83820000D02*
X127000000Y-83820000D01*
X121920000Y-83820000D02*
X123095001Y-82644999D01*
X123095001Y-82644999D02*
X127348999Y-82644999D01*
X127348999Y-82644999D02*
X127607500Y-82903500D01*
X127607500Y-82903500D02*
X130074000Y-82903500D01*
X127508000Y-81280000D02*
X127861500Y-81633500D01*
X127861500Y-81633500D02*
X130074000Y-81633500D01*
X124460000Y-81280000D02*
X127508000Y-81280000D01*
X121920000Y-81280000D02*
X123095001Y-80104999D01*
X123095001Y-80104999D02*
X127094999Y-80104999D01*
X127094999Y-80104999D02*
X127353500Y-80363500D01*
X127353500Y-80363500D02*
X130074000Y-80363500D01*
D17*
X124460000Y-78740000D02*
X127381000Y-78740000D01*
X127381000Y-78740000D02*
X127734500Y-79093500D01*
X127734500Y-79093500D02*
X130074000Y-79093500D01*
D16*
X134620000Y-99568000D02*
X135544000Y-98644000D01*
X135544000Y-98644000D02*
X135544000Y-96733500D01*
X130810000Y-99568000D02*
X134620000Y-99568000D01*
X128611999Y-97369999D02*
X130810000Y-99568000D01*
X124460000Y-96520000D02*
X125309999Y-97369999D01*
X125309999Y-97369999D02*
X128611999Y-97369999D01*
X135382000Y-100584000D02*
X136814000Y-99152000D01*
X136814000Y-99152000D02*
X136814000Y-96733500D01*
X129794000Y-100584000D02*
X135382000Y-100584000D01*
X127094999Y-97884999D02*
X129794000Y-100584000D01*
X121920000Y-99060000D02*
X123095001Y-97884999D01*
X123095001Y-97884999D02*
X127094999Y-97884999D01*
X124460000Y-99060000D02*
X127254000Y-99060000D01*
X127254000Y-99060000D02*
X129540000Y-101346000D01*
X129540000Y-101346000D02*
X136144000Y-101346000D01*
X136144000Y-101346000D02*
X138084000Y-99406000D01*
X138084000Y-99406000D02*
X138084000Y-96733500D01*
X137160000Y-102108000D02*
X139354000Y-99914000D01*
X139354000Y-99914000D02*
X139354000Y-96733500D01*
X129032000Y-102108000D02*
X137160000Y-102108000D01*
X127348999Y-100424999D02*
X129032000Y-102108000D01*
X121920000Y-101600000D02*
X123095001Y-100424999D01*
X123095001Y-100424999D02*
X127348999Y-100424999D01*
X124460000Y-101600000D02*
X127508000Y-101600000D01*
X128524000Y-102616000D02*
X137668000Y-102616000D01*
X127508000Y-101600000D02*
X128524000Y-102616000D01*
X137668000Y-102616000D02*
X140624000Y-99660000D01*
X140624000Y-99660000D02*
X140624000Y-96733500D01*
X154940000Y-99060000D02*
X152400000Y-99060000D01*
X152400000Y-99060000D02*
X149352000Y-102108000D01*
X149352000Y-102108000D02*
X144272000Y-102108000D01*
X144272000Y-102108000D02*
X141894000Y-99730000D01*
X141894000Y-99730000D02*
X141894000Y-96733500D01*
X157480000Y-99060000D02*
X156304999Y-97884999D01*
X156304999Y-97884999D02*
X152305001Y-97884999D01*
X152305001Y-97884999D02*
X148590000Y-101600000D01*
X148590000Y-101600000D02*
X145034000Y-101600000D01*
X145034000Y-101600000D02*
X143164000Y-99730000D01*
X143164000Y-99730000D02*
X143164000Y-96733500D01*
X145542000Y-100584000D02*
X144434000Y-99476000D01*
X144434000Y-99476000D02*
X144434000Y-96733500D01*
X148336000Y-100584000D02*
X145542000Y-100584000D01*
X152400000Y-96520000D02*
X148336000Y-100584000D01*
X154940000Y-96520000D02*
X152400000Y-96520000D01*
X146304000Y-99822000D02*
X145704000Y-99222000D01*
X145704000Y-99222000D02*
X145704000Y-96733500D01*
X147828000Y-99822000D02*
X146304000Y-99822000D01*
X152305001Y-95344999D02*
X147828000Y-99822000D01*
X157480000Y-96520000D02*
X156304999Y-95344999D01*
X156304999Y-95344999D02*
X152305001Y-95344999D01*
X153162000Y-93980000D02*
X152808500Y-94333500D01*
X152808500Y-94333500D02*
X149874000Y-94333500D01*
X154940000Y-93980000D02*
X153162000Y-93980000D01*
X152400000Y-92710000D02*
X152046500Y-93063500D01*
X152046500Y-93063500D02*
X149874000Y-93063500D01*
X156210000Y-92710000D02*
X152400000Y-92710000D01*
X157480000Y-93980000D02*
X156210000Y-92710000D01*
X153162000Y-91440000D02*
X152808500Y-91793500D01*
X152808500Y-91793500D02*
X149874000Y-91793500D01*
X154940000Y-91440000D02*
X153162000Y-91440000D01*
X152400000Y-90170000D02*
X152046500Y-90523500D01*
X152046500Y-90523500D02*
X149874000Y-90523500D01*
X156210000Y-90170000D02*
X152400000Y-90170000D01*
X157480000Y-91440000D02*
X156210000Y-90170000D01*
X152908000Y-88900000D02*
X152554500Y-89253500D01*
X152554500Y-89253500D02*
X149874000Y-89253500D01*
X154940000Y-88900000D02*
X152908000Y-88900000D01*
X152908000Y-87630000D02*
X152554500Y-87983500D01*
X152554500Y-87983500D02*
X149874000Y-87983500D01*
X156210000Y-87630000D02*
X152908000Y-87630000D01*
X157480000Y-88900000D02*
X156210000Y-87630000D01*
X152908000Y-86360000D02*
X152554500Y-86713500D01*
X152554500Y-86713500D02*
X149874000Y-86713500D01*
X154940000Y-86360000D02*
X152908000Y-86360000D01*
X152908000Y-85090000D02*
X152554500Y-85443500D01*
X152554500Y-85443500D02*
X149874000Y-85443500D01*
X156210000Y-85090000D02*
X152908000Y-85090000D01*
X157480000Y-86360000D02*
X156210000Y-85090000D01*
X152654000Y-83820000D02*
X152300500Y-84173500D01*
X152300500Y-84173500D02*
X149874000Y-84173500D01*
X154940000Y-83820000D02*
X152654000Y-83820000D01*
X152654000Y-82550000D02*
X152300500Y-82903500D01*
X152300500Y-82903500D02*
X149874000Y-82903500D01*
X156210000Y-82550000D02*
X152654000Y-82550000D01*
X157480000Y-83820000D02*
X156210000Y-82550000D01*
X153670000Y-81280000D02*
X153316500Y-81633500D01*
X153316500Y-81633500D02*
X149874000Y-81633500D01*
X154940000Y-81280000D02*
X153670000Y-81280000D01*
X152146000Y-80010000D02*
X151792500Y-80363500D01*
X151792500Y-80363500D02*
X149874000Y-80363500D01*
X156210000Y-80010000D02*
X152146000Y-80010000D01*
X157480000Y-81280000D02*
X156210000Y-80010000D01*
X149874000Y-79093500D02*
X153486500Y-79093500D01*
X153486500Y-79093500D02*
X153840000Y-78740000D01*
X153840000Y-78740000D02*
X154940000Y-78740000D01*
D18*
G36*
X128185673Y-77013801D02*
X128089000Y-77247190D01*
X128089000Y-77537750D01*
X128247750Y-77696500D01*
X129947000Y-77696500D01*
X129947000Y-77676500D01*
X130201000Y-77676500D01*
X130201000Y-77696500D01*
X131900250Y-77696500D01*
X132059000Y-77537750D01*
X132059000Y-77247190D01*
X131962327Y-77013801D01*
X131858525Y-76910000D01*
X148089475Y-76910000D01*
X147985673Y-77013801D01*
X147889000Y-77247190D01*
X147889000Y-77537750D01*
X148047750Y-77696500D01*
X149747000Y-77696500D01*
X149747000Y-77676500D01*
X150001000Y-77676500D01*
X150001000Y-77696500D01*
X151700250Y-77696500D01*
X151859000Y-77537750D01*
X151859000Y-77247190D01*
X151762327Y-77013801D01*
X151658525Y-76910000D01*
X159310000Y-76910000D01*
X159310000Y-103430000D01*
X120090000Y-103430000D01*
X120090000Y-81280000D01*
X120202707Y-81280000D01*
X120315746Y-81848285D01*
X120637653Y-82330054D01*
X121119422Y-82651961D01*
X121197413Y-82667474D01*
X121044053Y-82769946D01*
X120722146Y-83251715D01*
X120609107Y-83820000D01*
X120722146Y-84388285D01*
X121044053Y-84870054D01*
X121197413Y-84972526D01*
X121119422Y-84988039D01*
X120637653Y-85309946D01*
X120315746Y-85791715D01*
X120202707Y-86360000D01*
X120315746Y-86928285D01*
X120637653Y-87410054D01*
X121119422Y-87731961D01*
X121197413Y-87747474D01*
X121044053Y-87849946D01*
X120722146Y-88331715D01*
X120609107Y-88900000D01*
X120722146Y-89468285D01*
X121044053Y-89950054D01*
X121197413Y-90052526D01*
X121119422Y-90068039D01*
X120637653Y-90389946D01*
X120315746Y-90871715D01*
X120202707Y-91440000D01*
X120315746Y-92008285D01*
X120637653Y-92490054D01*
X121119422Y-92811961D01*
X121197413Y-92827474D01*
X121044053Y-92929946D01*
X120722146Y-93411715D01*
X120609107Y-93980000D01*
X120722146Y-94548285D01*
X121044053Y-95030054D01*
X121217012Y-95145622D01*
X120835442Y-95324817D01*
X120445155Y-95753076D01*
X120275324Y-96163110D01*
X120396645Y-96393000D01*
X121589800Y-96393000D01*
X121589800Y-96373000D01*
X121843800Y-96373000D01*
X121843800Y-96393000D01*
X121863800Y-96393000D01*
X121863800Y-96647000D01*
X121843800Y-96647000D01*
X121843800Y-96667000D01*
X121589800Y-96667000D01*
X121589800Y-96647000D01*
X120396645Y-96647000D01*
X120275324Y-96876890D01*
X120445155Y-97286924D01*
X120835442Y-97715183D01*
X121217012Y-97894378D01*
X121044053Y-98009946D01*
X120722146Y-98491715D01*
X120609107Y-99060000D01*
X120722146Y-99628285D01*
X121044053Y-100110054D01*
X121197413Y-100212526D01*
X121119422Y-100228039D01*
X120637653Y-100549946D01*
X120315746Y-101031715D01*
X120202707Y-101600000D01*
X120315746Y-102168285D01*
X120637653Y-102650054D01*
X121119422Y-102971961D01*
X121687707Y-103085000D01*
X121745893Y-103085000D01*
X122314178Y-102971961D01*
X122795947Y-102650054D01*
X122986800Y-102364422D01*
X123177653Y-102650054D01*
X123659422Y-102971961D01*
X124227707Y-103085000D01*
X124285893Y-103085000D01*
X124854178Y-102971961D01*
X125335947Y-102650054D01*
X125529754Y-102360000D01*
X127193198Y-102360000D01*
X127986599Y-103153401D01*
X128233161Y-103318148D01*
X128524000Y-103376000D01*
X137668000Y-103376000D01*
X137958839Y-103318148D01*
X138205401Y-103153401D01*
X141161401Y-100197401D01*
X141235614Y-100086334D01*
X141356599Y-100267401D01*
X143734599Y-102645401D01*
X143981161Y-102810148D01*
X144272000Y-102868000D01*
X149352000Y-102868000D01*
X149642839Y-102810148D01*
X149889401Y-102645401D01*
X152714802Y-99820000D01*
X153870246Y-99820000D01*
X154064053Y-100110054D01*
X154217413Y-100212526D01*
X154139422Y-100228039D01*
X153657653Y-100549946D01*
X153335746Y-101031715D01*
X153222707Y-101600000D01*
X153335746Y-102168285D01*
X153657653Y-102650054D01*
X154139422Y-102971961D01*
X154707707Y-103085000D01*
X154765893Y-103085000D01*
X155334178Y-102971961D01*
X155815947Y-102650054D01*
X156006800Y-102364422D01*
X156197653Y-102650054D01*
X156679422Y-102971961D01*
X157247707Y-103085000D01*
X157305893Y-103085000D01*
X157874178Y-102971961D01*
X158355947Y-102650054D01*
X158677854Y-102168285D01*
X158790893Y-101600000D01*
X158677854Y-101031715D01*
X158355947Y-100549946D01*
X158202587Y-100447474D01*
X158280578Y-100431961D01*
X158762347Y-100110054D01*
X159084254Y-99628285D01*
X159197293Y-99060000D01*
X159084254Y-98491715D01*
X158762347Y-98009946D01*
X158280578Y-97688039D01*
X158202587Y-97672526D01*
X158355947Y-97570054D01*
X158677854Y-97088285D01*
X158790893Y-96520000D01*
X158677854Y-95951715D01*
X158355947Y-95469946D01*
X158202587Y-95367474D01*
X158280578Y-95351961D01*
X158762347Y-95030054D01*
X159084254Y-94548285D01*
X159197293Y-93980000D01*
X159084254Y-93411715D01*
X158762347Y-92929946D01*
X158280578Y-92608039D01*
X158202587Y-92592526D01*
X158355947Y-92490054D01*
X158677854Y-92008285D01*
X158790893Y-91440000D01*
X158677854Y-90871715D01*
X158355947Y-90389946D01*
X158202587Y-90287474D01*
X158280578Y-90271961D01*
X158762347Y-89950054D01*
X159084254Y-89468285D01*
X159197293Y-88900000D01*
X159084254Y-88331715D01*
X158762347Y-87849946D01*
X158280578Y-87528039D01*
X158202587Y-87512526D01*
X158355947Y-87410054D01*
X158677854Y-86928285D01*
X158790893Y-86360000D01*
X158677854Y-85791715D01*
X158355947Y-85309946D01*
X158202587Y-85207474D01*
X158280578Y-85191961D01*
X158762347Y-84870054D01*
X159084254Y-84388285D01*
X159197293Y-83820000D01*
X159084254Y-83251715D01*
X158762347Y-82769946D01*
X158280578Y-82448039D01*
X158202587Y-82432526D01*
X158355947Y-82330054D01*
X158677854Y-81848285D01*
X158790893Y-81280000D01*
X158677854Y-80711715D01*
X158355947Y-80229946D01*
X158182988Y-80114378D01*
X158564558Y-79935183D01*
X158954845Y-79506924D01*
X159124676Y-79096890D01*
X159003355Y-78867000D01*
X157810200Y-78867000D01*
X157810200Y-78887000D01*
X157556200Y-78887000D01*
X157556200Y-78867000D01*
X157536200Y-78867000D01*
X157536200Y-78613000D01*
X157556200Y-78613000D01*
X157556200Y-77419181D01*
X157810200Y-77419181D01*
X157810200Y-78613000D01*
X159003355Y-78613000D01*
X159124676Y-78383110D01*
X158954845Y-77973076D01*
X158564558Y-77544817D01*
X158040092Y-77298514D01*
X157810200Y-77419181D01*
X157556200Y-77419181D01*
X157326308Y-77298514D01*
X156801842Y-77544817D01*
X156613161Y-77751855D01*
X156591357Y-77642235D01*
X156451009Y-77432191D01*
X156240965Y-77291843D01*
X155993200Y-77242560D01*
X154293200Y-77242560D01*
X154045435Y-77291843D01*
X153835391Y-77432191D01*
X153695043Y-77642235D01*
X153645760Y-77890000D01*
X153645760Y-78018637D01*
X153549161Y-78037852D01*
X153549159Y-78037853D01*
X153549160Y-78037853D01*
X153302598Y-78202599D01*
X153171697Y-78333500D01*
X151859000Y-78333500D01*
X151859000Y-78109250D01*
X151700250Y-77950500D01*
X150001000Y-77950500D01*
X150001000Y-77970500D01*
X149747000Y-77970500D01*
X149747000Y-77950500D01*
X148047750Y-77950500D01*
X147889000Y-78109250D01*
X147889000Y-78399810D01*
X147913343Y-78458579D01*
X147876560Y-78643500D01*
X147876560Y-79543500D01*
X147913358Y-79728500D01*
X147876560Y-79913500D01*
X147876560Y-80813500D01*
X147913358Y-80998500D01*
X147876560Y-81183500D01*
X147876560Y-82083500D01*
X147913358Y-82268500D01*
X147876560Y-82453500D01*
X147876560Y-83353500D01*
X147913358Y-83538500D01*
X147876560Y-83723500D01*
X147876560Y-84623500D01*
X147913358Y-84808500D01*
X147876560Y-84993500D01*
X147876560Y-85893500D01*
X147913358Y-86078500D01*
X147876560Y-86263500D01*
X147876560Y-87163500D01*
X147913358Y-87348500D01*
X147876560Y-87533500D01*
X147876560Y-88433500D01*
X147913358Y-88618500D01*
X147876560Y-88803500D01*
X147876560Y-89703500D01*
X147913358Y-89888500D01*
X147876560Y-90073500D01*
X147876560Y-90973500D01*
X147913358Y-91158500D01*
X147876560Y-91343500D01*
X147876560Y-92243500D01*
X147913358Y-92428500D01*
X147876560Y-92613500D01*
X147876560Y-93513500D01*
X147913358Y-93698500D01*
X147876560Y-93883500D01*
X147876560Y-94783500D01*
X147925843Y-95031265D01*
X148066191Y-95241309D01*
X148276235Y-95381657D01*
X148524000Y-95430940D01*
X151144258Y-95430940D01*
X147513198Y-99062000D01*
X146618802Y-99062000D01*
X146464000Y-98907198D01*
X146464000Y-98640073D01*
X146611809Y-98541309D01*
X146752157Y-98331265D01*
X146801440Y-98083500D01*
X146801440Y-95383500D01*
X146752157Y-95135735D01*
X146611809Y-94925691D01*
X146401765Y-94785343D01*
X146154000Y-94736060D01*
X145254000Y-94736060D01*
X145069000Y-94772858D01*
X144884000Y-94736060D01*
X143984000Y-94736060D01*
X143799000Y-94772858D01*
X143614000Y-94736060D01*
X142714000Y-94736060D01*
X142529000Y-94772858D01*
X142344000Y-94736060D01*
X141444000Y-94736060D01*
X141259000Y-94772858D01*
X141074000Y-94736060D01*
X140174000Y-94736060D01*
X139989000Y-94772858D01*
X139804000Y-94736060D01*
X138904000Y-94736060D01*
X138719000Y-94772858D01*
X138534000Y-94736060D01*
X137634000Y-94736060D01*
X137449000Y-94772858D01*
X137264000Y-94736060D01*
X136364000Y-94736060D01*
X136179000Y-94772858D01*
X135994000Y-94736060D01*
X135094000Y-94736060D01*
X134909078Y-94772843D01*
X134850309Y-94748500D01*
X134559750Y-94748500D01*
X134401000Y-94907250D01*
X134401000Y-96606500D01*
X134421000Y-96606500D01*
X134421000Y-96860500D01*
X134401000Y-96860500D01*
X134401000Y-98559750D01*
X134477224Y-98635974D01*
X134305198Y-98808000D01*
X131124802Y-98808000D01*
X129336052Y-97019250D01*
X133189000Y-97019250D01*
X133189000Y-98209810D01*
X133285673Y-98443199D01*
X133464302Y-98621827D01*
X133697691Y-98718500D01*
X133988250Y-98718500D01*
X134147000Y-98559750D01*
X134147000Y-96860500D01*
X133347750Y-96860500D01*
X133189000Y-97019250D01*
X129336052Y-97019250D01*
X129149400Y-96832598D01*
X128902838Y-96667851D01*
X128611999Y-96609999D01*
X125752991Y-96609999D01*
X125770893Y-96520000D01*
X125657854Y-95951715D01*
X125335947Y-95469946D01*
X125182587Y-95367474D01*
X125260578Y-95351961D01*
X125742347Y-95030054D01*
X125936154Y-94740000D01*
X126685197Y-94740000D01*
X126816098Y-94870901D01*
X126870499Y-94907250D01*
X127062661Y-95035648D01*
X127353500Y-95093500D01*
X128167427Y-95093500D01*
X128266191Y-95241309D01*
X128476235Y-95381657D01*
X128724000Y-95430940D01*
X131424000Y-95430940D01*
X131671765Y-95381657D01*
X131858041Y-95257190D01*
X133189000Y-95257190D01*
X133189000Y-96447750D01*
X133347750Y-96606500D01*
X134147000Y-96606500D01*
X134147000Y-94907250D01*
X133988250Y-94748500D01*
X133697691Y-94748500D01*
X133464302Y-94845173D01*
X133285673Y-95023801D01*
X133189000Y-95257190D01*
X131858041Y-95257190D01*
X131881809Y-95241309D01*
X132022157Y-95031265D01*
X132071440Y-94783500D01*
X132071440Y-93883500D01*
X132034642Y-93698500D01*
X132071440Y-93513500D01*
X132071440Y-92613500D01*
X132034642Y-92428500D01*
X132071440Y-92243500D01*
X132071440Y-91343500D01*
X132034642Y-91158500D01*
X132071440Y-90973500D01*
X132071440Y-90073500D01*
X132034642Y-89888500D01*
X132071440Y-89703500D01*
X132071440Y-88803500D01*
X132034642Y-88618500D01*
X132071440Y-88433500D01*
X132071440Y-87533500D01*
X132034642Y-87348500D01*
X132071440Y-87163500D01*
X132071440Y-86819250D01*
X136639000Y-86819250D01*
X136639000Y-88659810D01*
X136735673Y-88893199D01*
X136914302Y-89071827D01*
X137147691Y-89168500D01*
X138988250Y-89168500D01*
X139147000Y-89009750D01*
X139147000Y-86660500D01*
X139401000Y-86660500D01*
X139401000Y-89009750D01*
X139559750Y-89168500D01*
X141400309Y-89168500D01*
X141633698Y-89071827D01*
X141812327Y-88893199D01*
X141909000Y-88659810D01*
X141909000Y-86819250D01*
X141750250Y-86660500D01*
X139401000Y-86660500D01*
X139147000Y-86660500D01*
X136797750Y-86660500D01*
X136639000Y-86819250D01*
X132071440Y-86819250D01*
X132071440Y-86263500D01*
X132034642Y-86078500D01*
X132071440Y-85893500D01*
X132071440Y-84993500D01*
X132034642Y-84808500D01*
X132071440Y-84623500D01*
X132071440Y-84407190D01*
X136639000Y-84407190D01*
X136639000Y-86247750D01*
X136797750Y-86406500D01*
X139147000Y-86406500D01*
X139147000Y-84057250D01*
X139401000Y-84057250D01*
X139401000Y-86406500D01*
X141750250Y-86406500D01*
X141909000Y-86247750D01*
X141909000Y-84407190D01*
X141812327Y-84173801D01*
X141633698Y-83995173D01*
X141400309Y-83898500D01*
X139559750Y-83898500D01*
X139401000Y-84057250D01*
X139147000Y-84057250D01*
X138988250Y-83898500D01*
X137147691Y-83898500D01*
X136914302Y-83995173D01*
X136735673Y-84173801D01*
X136639000Y-84407190D01*
X132071440Y-84407190D01*
X132071440Y-83723500D01*
X132034642Y-83538500D01*
X132071440Y-83353500D01*
X132071440Y-82453500D01*
X132034642Y-82268500D01*
X132071440Y-82083500D01*
X132071440Y-81183500D01*
X132034642Y-80998500D01*
X132071440Y-80813500D01*
X132071440Y-79913500D01*
X132034642Y-79728500D01*
X132071440Y-79543500D01*
X132071440Y-78643500D01*
X132034657Y-78458579D01*
X132059000Y-78399810D01*
X132059000Y-78109250D01*
X131900250Y-77950500D01*
X130201000Y-77950500D01*
X130201000Y-77970500D01*
X129947000Y-77970500D01*
X129947000Y-77950500D01*
X128247750Y-77950500D01*
X128089000Y-78109250D01*
X128089000Y-78190764D01*
X128009618Y-78111382D01*
X128006427Y-78109250D01*
X127721206Y-77918671D01*
X127381000Y-77851000D01*
X125849960Y-77851000D01*
X125742347Y-77689946D01*
X125260578Y-77368039D01*
X124692293Y-77255000D01*
X124634107Y-77255000D01*
X124065822Y-77368039D01*
X123584053Y-77689946D01*
X123580103Y-77695858D01*
X123511527Y-77530301D01*
X123332898Y-77351673D01*
X123099509Y-77255000D01*
X122408950Y-77255000D01*
X122250200Y-77413750D01*
X122250200Y-78613000D01*
X122270200Y-78613000D01*
X122270200Y-78867000D01*
X122250200Y-78867000D01*
X122250200Y-78887000D01*
X121996200Y-78887000D01*
X121996200Y-78867000D01*
X120796950Y-78867000D01*
X120638200Y-79025750D01*
X120638200Y-79716310D01*
X120734873Y-79949699D01*
X120863929Y-80078754D01*
X120637653Y-80229946D01*
X120315746Y-80711715D01*
X120202707Y-81280000D01*
X120090000Y-81280000D01*
X120090000Y-77763690D01*
X120638200Y-77763690D01*
X120638200Y-78454250D01*
X120796950Y-78613000D01*
X121996200Y-78613000D01*
X121996200Y-77413750D01*
X121837450Y-77255000D01*
X121146891Y-77255000D01*
X120913502Y-77351673D01*
X120734873Y-77530301D01*
X120638200Y-77763690D01*
X120090000Y-77763690D01*
X120090000Y-76910000D01*
X128289475Y-76910000D01*
X128185673Y-77013801D01*
X128185673Y-77013801D01*
G37*
X128185673Y-77013801D02*
X128089000Y-77247190D01*
X128089000Y-77537750D01*
X128247750Y-77696500D01*
X129947000Y-77696500D01*
X129947000Y-77676500D01*
X130201000Y-77676500D01*
X130201000Y-77696500D01*
X131900250Y-77696500D01*
X132059000Y-77537750D01*
X132059000Y-77247190D01*
X131962327Y-77013801D01*
X131858525Y-76910000D01*
X148089475Y-76910000D01*
X147985673Y-77013801D01*
X147889000Y-77247190D01*
X147889000Y-77537750D01*
X148047750Y-77696500D01*
X149747000Y-77696500D01*
X149747000Y-77676500D01*
X150001000Y-77676500D01*
X150001000Y-77696500D01*
X151700250Y-77696500D01*
X151859000Y-77537750D01*
X151859000Y-77247190D01*
X151762327Y-77013801D01*
X151658525Y-76910000D01*
X159310000Y-76910000D01*
X159310000Y-103430000D01*
X120090000Y-103430000D01*
X120090000Y-81280000D01*
X120202707Y-81280000D01*
X120315746Y-81848285D01*
X120637653Y-82330054D01*
X121119422Y-82651961D01*
X121197413Y-82667474D01*
X121044053Y-82769946D01*
X120722146Y-83251715D01*
X120609107Y-83820000D01*
X120722146Y-84388285D01*
X121044053Y-84870054D01*
X121197413Y-84972526D01*
X121119422Y-84988039D01*
X120637653Y-85309946D01*
X120315746Y-85791715D01*
X120202707Y-86360000D01*
X120315746Y-86928285D01*
X120637653Y-87410054D01*
X121119422Y-87731961D01*
X121197413Y-87747474D01*
X121044053Y-87849946D01*
X120722146Y-88331715D01*
X120609107Y-88900000D01*
X120722146Y-89468285D01*
X121044053Y-89950054D01*
X121197413Y-90052526D01*
X121119422Y-90068039D01*
X120637653Y-90389946D01*
X120315746Y-90871715D01*
X120202707Y-91440000D01*
X120315746Y-92008285D01*
X120637653Y-92490054D01*
X121119422Y-92811961D01*
X121197413Y-92827474D01*
X121044053Y-92929946D01*
X120722146Y-93411715D01*
X120609107Y-93980000D01*
X120722146Y-94548285D01*
X121044053Y-95030054D01*
X121217012Y-95145622D01*
X120835442Y-95324817D01*
X120445155Y-95753076D01*
X120275324Y-96163110D01*
X120396645Y-96393000D01*
X121589800Y-96393000D01*
X121589800Y-96373000D01*
X121843800Y-96373000D01*
X121843800Y-96393000D01*
X121863800Y-96393000D01*
X121863800Y-96647000D01*
X121843800Y-96647000D01*
X121843800Y-96667000D01*
X121589800Y-96667000D01*
X121589800Y-96647000D01*
X120396645Y-96647000D01*
X120275324Y-96876890D01*
X120445155Y-97286924D01*
X120835442Y-97715183D01*
X121217012Y-97894378D01*
X121044053Y-98009946D01*
X120722146Y-98491715D01*
X120609107Y-99060000D01*
X120722146Y-99628285D01*
X121044053Y-100110054D01*
X121197413Y-100212526D01*
X121119422Y-100228039D01*
X120637653Y-100549946D01*
X120315746Y-101031715D01*
X120202707Y-101600000D01*
X120315746Y-102168285D01*
X120637653Y-102650054D01*
X121119422Y-102971961D01*
X121687707Y-103085000D01*
X121745893Y-103085000D01*
X122314178Y-102971961D01*
X122795947Y-102650054D01*
X122986800Y-102364422D01*
X123177653Y-102650054D01*
X123659422Y-102971961D01*
X124227707Y-103085000D01*
X124285893Y-103085000D01*
X124854178Y-102971961D01*
X125335947Y-102650054D01*
X125529754Y-102360000D01*
X127193198Y-102360000D01*
X127986599Y-103153401D01*
X128233161Y-103318148D01*
X128524000Y-103376000D01*
X137668000Y-103376000D01*
X137958839Y-103318148D01*
X138205401Y-103153401D01*
X141161401Y-100197401D01*
X141235614Y-100086334D01*
X141356599Y-100267401D01*
X143734599Y-102645401D01*
X143981161Y-102810148D01*
X144272000Y-102868000D01*
X149352000Y-102868000D01*
X149642839Y-102810148D01*
X149889401Y-102645401D01*
X152714802Y-99820000D01*
X153870246Y-99820000D01*
X154064053Y-100110054D01*
X154217413Y-100212526D01*
X154139422Y-100228039D01*
X153657653Y-100549946D01*
X153335746Y-101031715D01*
X153222707Y-101600000D01*
X153335746Y-102168285D01*
X153657653Y-102650054D01*
X154139422Y-102971961D01*
X154707707Y-103085000D01*
X154765893Y-103085000D01*
X155334178Y-102971961D01*
X155815947Y-102650054D01*
X156006800Y-102364422D01*
X156197653Y-102650054D01*
X156679422Y-102971961D01*
X157247707Y-103085000D01*
X157305893Y-103085000D01*
X157874178Y-102971961D01*
X158355947Y-102650054D01*
X158677854Y-102168285D01*
X158790893Y-101600000D01*
X158677854Y-101031715D01*
X158355947Y-100549946D01*
X158202587Y-100447474D01*
X158280578Y-100431961D01*
X158762347Y-100110054D01*
X159084254Y-99628285D01*
X159197293Y-99060000D01*
X159084254Y-98491715D01*
X158762347Y-98009946D01*
X158280578Y-97688039D01*
X158202587Y-97672526D01*
X158355947Y-97570054D01*
X158677854Y-97088285D01*
X158790893Y-96520000D01*
X158677854Y-95951715D01*
X158355947Y-95469946D01*
X158202587Y-95367474D01*
X158280578Y-95351961D01*
X158762347Y-95030054D01*
X159084254Y-94548285D01*
X159197293Y-93980000D01*
X159084254Y-93411715D01*
X158762347Y-92929946D01*
X158280578Y-92608039D01*
X158202587Y-92592526D01*
X158355947Y-92490054D01*
X158677854Y-92008285D01*
X158790893Y-91440000D01*
X158677854Y-90871715D01*
X158355947Y-90389946D01*
X158202587Y-90287474D01*
X158280578Y-90271961D01*
X158762347Y-89950054D01*
X159084254Y-89468285D01*
X159197293Y-88900000D01*
X159084254Y-88331715D01*
X158762347Y-87849946D01*
X158280578Y-87528039D01*
X158202587Y-87512526D01*
X158355947Y-87410054D01*
X158677854Y-86928285D01*
X158790893Y-86360000D01*
X158677854Y-85791715D01*
X158355947Y-85309946D01*
X158202587Y-85207474D01*
X158280578Y-85191961D01*
X158762347Y-84870054D01*
X159084254Y-84388285D01*
X159197293Y-83820000D01*
X159084254Y-83251715D01*
X158762347Y-82769946D01*
X158280578Y-82448039D01*
X158202587Y-82432526D01*
X158355947Y-82330054D01*
X158677854Y-81848285D01*
X158790893Y-81280000D01*
X158677854Y-80711715D01*
X158355947Y-80229946D01*
X158182988Y-80114378D01*
X158564558Y-79935183D01*
X158954845Y-79506924D01*
X159124676Y-79096890D01*
X159003355Y-78867000D01*
X157810200Y-78867000D01*
X157810200Y-78887000D01*
X157556200Y-78887000D01*
X157556200Y-78867000D01*
X157536200Y-78867000D01*
X157536200Y-78613000D01*
X157556200Y-78613000D01*
X157556200Y-77419181D01*
X157810200Y-77419181D01*
X157810200Y-78613000D01*
X159003355Y-78613000D01*
X159124676Y-78383110D01*
X158954845Y-77973076D01*
X158564558Y-77544817D01*
X158040092Y-77298514D01*
X157810200Y-77419181D01*
X157556200Y-77419181D01*
X157326308Y-77298514D01*
X156801842Y-77544817D01*
X156613161Y-77751855D01*
X156591357Y-77642235D01*
X156451009Y-77432191D01*
X156240965Y-77291843D01*
X155993200Y-77242560D01*
X154293200Y-77242560D01*
X154045435Y-77291843D01*
X153835391Y-77432191D01*
X153695043Y-77642235D01*
X153645760Y-77890000D01*
X153645760Y-78018637D01*
X153549161Y-78037852D01*
X153549159Y-78037853D01*
X153549160Y-78037853D01*
X153302598Y-78202599D01*
X153171697Y-78333500D01*
X151859000Y-78333500D01*
X151859000Y-78109250D01*
X151700250Y-77950500D01*
X150001000Y-77950500D01*
X150001000Y-77970500D01*
X149747000Y-77970500D01*
X149747000Y-77950500D01*
X148047750Y-77950500D01*
X147889000Y-78109250D01*
X147889000Y-78399810D01*
X147913343Y-78458579D01*
X147876560Y-78643500D01*
X147876560Y-79543500D01*
X147913358Y-79728500D01*
X147876560Y-79913500D01*
X147876560Y-80813500D01*
X147913358Y-80998500D01*
X147876560Y-81183500D01*
X147876560Y-82083500D01*
X147913358Y-82268500D01*
X147876560Y-82453500D01*
X147876560Y-83353500D01*
X147913358Y-83538500D01*
X147876560Y-83723500D01*
X147876560Y-84623500D01*
X147913358Y-84808500D01*
X147876560Y-84993500D01*
X147876560Y-85893500D01*
X147913358Y-86078500D01*
X147876560Y-86263500D01*
X147876560Y-87163500D01*
X147913358Y-87348500D01*
X147876560Y-87533500D01*
X147876560Y-88433500D01*
X147913358Y-88618500D01*
X147876560Y-88803500D01*
X147876560Y-89703500D01*
X147913358Y-89888500D01*
X147876560Y-90073500D01*
X147876560Y-90973500D01*
X147913358Y-91158500D01*
X147876560Y-91343500D01*
X147876560Y-92243500D01*
X147913358Y-92428500D01*
X147876560Y-92613500D01*
X147876560Y-93513500D01*
X147913358Y-93698500D01*
X147876560Y-93883500D01*
X147876560Y-94783500D01*
X147925843Y-95031265D01*
X148066191Y-95241309D01*
X148276235Y-95381657D01*
X148524000Y-95430940D01*
X151144258Y-95430940D01*
X147513198Y-99062000D01*
X146618802Y-99062000D01*
X146464000Y-98907198D01*
X146464000Y-98640073D01*
X146611809Y-98541309D01*
X146752157Y-98331265D01*
X146801440Y-98083500D01*
X146801440Y-95383500D01*
X146752157Y-95135735D01*
X146611809Y-94925691D01*
X146401765Y-94785343D01*
X146154000Y-94736060D01*
X145254000Y-94736060D01*
X145069000Y-94772858D01*
X144884000Y-94736060D01*
X143984000Y-94736060D01*
X143799000Y-94772858D01*
X143614000Y-94736060D01*
X142714000Y-94736060D01*
X142529000Y-94772858D01*
X142344000Y-94736060D01*
X141444000Y-94736060D01*
X141259000Y-94772858D01*
X141074000Y-94736060D01*
X140174000Y-94736060D01*
X139989000Y-94772858D01*
X139804000Y-94736060D01*
X138904000Y-94736060D01*
X138719000Y-94772858D01*
X138534000Y-94736060D01*
X137634000Y-94736060D01*
X137449000Y-94772858D01*
X137264000Y-94736060D01*
X136364000Y-94736060D01*
X136179000Y-94772858D01*
X135994000Y-94736060D01*
X135094000Y-94736060D01*
X134909078Y-94772843D01*
X134850309Y-94748500D01*
X134559750Y-94748500D01*
X134401000Y-94907250D01*
X134401000Y-96606500D01*
X134421000Y-96606500D01*
X134421000Y-96860500D01*
X134401000Y-96860500D01*
X134401000Y-98559750D01*
X134477224Y-98635974D01*
X134305198Y-98808000D01*
X131124802Y-98808000D01*
X129336052Y-97019250D01*
X133189000Y-97019250D01*
X133189000Y-98209810D01*
X133285673Y-98443199D01*
X133464302Y-98621827D01*
X133697691Y-98718500D01*
X133988250Y-98718500D01*
X134147000Y-98559750D01*
X134147000Y-96860500D01*
X133347750Y-96860500D01*
X133189000Y-97019250D01*
X129336052Y-97019250D01*
X129149400Y-96832598D01*
X128902838Y-96667851D01*
X128611999Y-96609999D01*
X125752991Y-96609999D01*
X125770893Y-96520000D01*
X125657854Y-95951715D01*
X125335947Y-95469946D01*
X125182587Y-95367474D01*
X125260578Y-95351961D01*
X125742347Y-95030054D01*
X125936154Y-94740000D01*
X126685197Y-94740000D01*
X126816098Y-94870901D01*
X126870499Y-94907250D01*
X127062661Y-95035648D01*
X127353500Y-95093500D01*
X128167427Y-95093500D01*
X128266191Y-95241309D01*
X128476235Y-95381657D01*
X128724000Y-95430940D01*
X131424000Y-95430940D01*
X131671765Y-95381657D01*
X131858041Y-95257190D01*
X133189000Y-95257190D01*
X133189000Y-96447750D01*
X133347750Y-96606500D01*
X134147000Y-96606500D01*
X134147000Y-94907250D01*
X133988250Y-94748500D01*
X133697691Y-94748500D01*
X133464302Y-94845173D01*
X133285673Y-95023801D01*
X133189000Y-95257190D01*
X131858041Y-95257190D01*
X131881809Y-95241309D01*
X132022157Y-95031265D01*
X132071440Y-94783500D01*
X132071440Y-93883500D01*
X132034642Y-93698500D01*
X132071440Y-93513500D01*
X132071440Y-92613500D01*
X132034642Y-92428500D01*
X132071440Y-92243500D01*
X132071440Y-91343500D01*
X132034642Y-91158500D01*
X132071440Y-90973500D01*
X132071440Y-90073500D01*
X132034642Y-89888500D01*
X132071440Y-89703500D01*
X132071440Y-88803500D01*
X132034642Y-88618500D01*
X132071440Y-88433500D01*
X132071440Y-87533500D01*
X132034642Y-87348500D01*
X132071440Y-87163500D01*
X132071440Y-86819250D01*
X136639000Y-86819250D01*
X136639000Y-88659810D01*
X136735673Y-88893199D01*
X136914302Y-89071827D01*
X137147691Y-89168500D01*
X138988250Y-89168500D01*
X139147000Y-89009750D01*
X139147000Y-86660500D01*
X139401000Y-86660500D01*
X139401000Y-89009750D01*
X139559750Y-89168500D01*
X141400309Y-89168500D01*
X141633698Y-89071827D01*
X141812327Y-88893199D01*
X141909000Y-88659810D01*
X141909000Y-86819250D01*
X141750250Y-86660500D01*
X139401000Y-86660500D01*
X139147000Y-86660500D01*
X136797750Y-86660500D01*
X136639000Y-86819250D01*
X132071440Y-86819250D01*
X132071440Y-86263500D01*
X132034642Y-86078500D01*
X132071440Y-85893500D01*
X132071440Y-84993500D01*
X132034642Y-84808500D01*
X132071440Y-84623500D01*
X132071440Y-84407190D01*
X136639000Y-84407190D01*
X136639000Y-86247750D01*
X136797750Y-86406500D01*
X139147000Y-86406500D01*
X139147000Y-84057250D01*
X139401000Y-84057250D01*
X139401000Y-86406500D01*
X141750250Y-86406500D01*
X141909000Y-86247750D01*
X141909000Y-84407190D01*
X141812327Y-84173801D01*
X141633698Y-83995173D01*
X141400309Y-83898500D01*
X139559750Y-83898500D01*
X139401000Y-84057250D01*
X139147000Y-84057250D01*
X138988250Y-83898500D01*
X137147691Y-83898500D01*
X136914302Y-83995173D01*
X136735673Y-84173801D01*
X136639000Y-84407190D01*
X132071440Y-84407190D01*
X132071440Y-83723500D01*
X132034642Y-83538500D01*
X132071440Y-83353500D01*
X132071440Y-82453500D01*
X132034642Y-82268500D01*
X132071440Y-82083500D01*
X132071440Y-81183500D01*
X132034642Y-80998500D01*
X132071440Y-80813500D01*
X132071440Y-79913500D01*
X132034642Y-79728500D01*
X132071440Y-79543500D01*
X132071440Y-78643500D01*
X132034657Y-78458579D01*
X132059000Y-78399810D01*
X132059000Y-78109250D01*
X131900250Y-77950500D01*
X130201000Y-77950500D01*
X130201000Y-77970500D01*
X129947000Y-77970500D01*
X129947000Y-77950500D01*
X128247750Y-77950500D01*
X128089000Y-78109250D01*
X128089000Y-78190764D01*
X128009618Y-78111382D01*
X128006427Y-78109250D01*
X127721206Y-77918671D01*
X127381000Y-77851000D01*
X125849960Y-77851000D01*
X125742347Y-77689946D01*
X125260578Y-77368039D01*
X124692293Y-77255000D01*
X124634107Y-77255000D01*
X124065822Y-77368039D01*
X123584053Y-77689946D01*
X123580103Y-77695858D01*
X123511527Y-77530301D01*
X123332898Y-77351673D01*
X123099509Y-77255000D01*
X122408950Y-77255000D01*
X122250200Y-77413750D01*
X122250200Y-78613000D01*
X122270200Y-78613000D01*
X122270200Y-78867000D01*
X122250200Y-78867000D01*
X122250200Y-78887000D01*
X121996200Y-78887000D01*
X121996200Y-78867000D01*
X120796950Y-78867000D01*
X120638200Y-79025750D01*
X120638200Y-79716310D01*
X120734873Y-79949699D01*
X120863929Y-80078754D01*
X120637653Y-80229946D01*
X120315746Y-80711715D01*
X120202707Y-81280000D01*
X120090000Y-81280000D01*
X120090000Y-77763690D01*
X120638200Y-77763690D01*
X120638200Y-78454250D01*
X120796950Y-78613000D01*
X121996200Y-78613000D01*
X121996200Y-77413750D01*
X121837450Y-77255000D01*
X121146891Y-77255000D01*
X120913502Y-77351673D01*
X120734873Y-77530301D01*
X120638200Y-77763690D01*
X120090000Y-77763690D01*
X120090000Y-76910000D01*
X128289475Y-76910000D01*
X128185673Y-77013801D01*
M02*
